<svg width="68" height="88" viewBox="0 0 68 88" fill="none" xmlns="http://www.w3.org/2000/svg">
<g clip-path="url(#clip0_320_491)">
<path d="M67.8904 76.7603C67.8307 72.8318 67.8391 69.1467 66.0061 65.6175C65.8695 65.3541 65.823 64.8356 65.7086 64.5964C65.6815 64.5396 64.9658 63.707 64.893 63.644C64.4311 63.2468 63.8749 63.1033 63.3076 62.9757C63.0031 62.9917 62.6959 63.0575 62.3914 63.0818C62.252 63.1781 62.1106 63.2766 62.0037 63.3133C61.8241 63.3743 61.6112 63.3334 61.4254 63.4291C61.2728 63.5074 61.2679 63.6613 61.1514 63.7147C60.761 63.8921 60.926 63.2211 60.8761 62.9806C60.7776 62.505 60.7436 62.4842 60.7783 61.9366C60.8303 61.1234 60.8019 60.3373 60.8872 59.5644C60.9191 59.2774 60.8747 58.9641 60.8872 58.6736C60.8886 58.6625 60.892 58.6542 60.8962 58.6473C60.8879 58.5336 60.874 58.4213 60.8629 58.3076C60.8019 58.0865 60.7686 57.8154 60.7672 57.6955C60.7651 57.4487 60.8886 57.1222 60.8941 56.8664C60.9163 55.7996 61.028 54.6121 61.0321 53.6028C61.0335 53.313 60.8844 53.0128 60.8851 52.7044C60.8851 52.6066 60.9163 52.2309 60.9524 51.928C60.9024 51.7158 60.8913 51.4975 60.8899 51.2784C60.8372 50.9637 60.8962 50.6393 60.8948 50.3502C60.8844 48.6095 61.055 46.8322 61.0335 45.1518C61.0314 44.9667 60.8698 44.7712 61.0231 44.5868L61.0633 44.5619C61.0467 44.4142 61.0432 44.2645 61.0439 44.1148C60.9968 43.9512 60.9898 43.7397 60.987 43.635C60.9732 43.0299 61.1736 42.3575 61.2117 41.7398C61.2832 40.5724 61.1417 39.317 61.2395 38.1483C61.2547 37.968 61.3255 37.7899 61.3192 37.6041L61.3421 37.5798V37.279C61.286 37.193 61.3768 37.0502 61.3803 36.9019C61.4184 35.1196 61.4427 33.1758 61.6535 31.4213C61.6757 31.2355 61.5939 30.864 61.709 30.6747C61.7062 30.6449 61.7069 30.6151 61.7111 30.5853C61.7083 30.5583 61.7076 30.5312 61.7111 30.5042C61.7062 30.4633 61.7076 30.4224 61.7152 30.3822C61.7041 30.3746 61.6944 30.3655 61.6854 30.3524C61.6438 29.4921 61.6376 28.6117 61.6521 27.7459C61.6618 27.1691 61.6563 26.5314 61.6813 25.9581C61.7125 25.2573 61.8546 24.5384 61.8623 23.8313L61.8969 23.8299C61.8824 23.7876 61.8761 23.7419 61.8768 23.6968C61.8498 23.6254 61.8456 23.545 61.8623 23.4702C61.7797 23.1506 61.9531 22.5704 61.9614 22.386C61.9968 21.5728 62.0467 20.7327 62.0731 19.9174C62.0842 19.5687 62.0031 17.3449 62.0995 17.1162C62.0856 17.0337 62.0981 16.9463 62.1362 16.8728C62.1362 16.8694 62.1362 16.8673 62.1369 16.8638L62.4968 12.8536L62.6016 12.7503C63.5344 12.6733 64.5774 12.1701 64.5032 11.1102C64.4817 10.8031 64.309 10.6727 64.2903 10.3906C64.2355 10.331 64.2071 10.252 64.2015 10.1708C64.1946 10.1591 64.1877 10.1473 64.1821 10.1341C64.1648 10.1202 64.1481 10.1064 64.1308 10.0918C63.9609 9.99754 63.732 9.95734 63.5878 9.85543C63.4497 9.75769 63.3527 9.61628 63.2216 9.50952C63.0829 9.39722 62.9698 9.29948 62.8658 9.15321C62.8415 9.11924 62.8249 9.08527 62.8145 9.052C62.6737 8.96604 62.5468 8.89048 62.5079 8.87038C62.1556 8.6846 61.8082 8.61805 61.4413 8.47039C61.374 7.79243 61.9531 7.47147 62.0037 6.88363C62.053 6.31103 62.0031 4.95857 61.8165 4.43866C61.7992 4.38944 61.5093 4.15514 61.4732 4.00055C61.4628 3.99154 61.4524 3.98322 61.4427 3.97352C61.3935 3.9243 61.3518 3.86745 61.3102 3.81269C61.2866 3.7815 61.2742 3.74337 61.2679 3.70386C61.1771 3.59225 61.114 3.47718 60.9974 3.37805C60.3629 2.83665 60.2651 2.91013 59.5632 2.60858C59.0022 2.36734 58.5084 2.0034 57.8454 1.81554C56.9653 1.56668 55.9597 1.4419 55.0824 1.24988C54.3563 1.09113 53.6378 0.91991 52.8159 0.88109C50.958 0.793052 49.3497 0.744527 47.4904 0.450604C46.6124 0.311961 46.1075 0.0319031 45.1158 0.122714C44.7829 0.153216 44.3716 0.35702 44.0748 0.334144C43.7509 0.309189 43.1406 0.173319 42.7626 0.115782C42.6357 0.096372 42.5178 -0.0117694 42.4207 -0.00345079C42.2688 0.00972027 42.1606 0.216991 42.0663 0.230855C41.8943 0.256504 41.5157 0.12618 41.3028 0.118555C40.8915 0.103997 40.4733 0.124794 40.062 0.131726L39.9539 0.230162L40.0163 0.467241C39.2652 0.47556 38.5113 0.458923 37.7595 0.465162C35.7976 0.481799 33.8328 0.540029 31.8646 0.471401C30.9055 0.438126 29.9123 0.0360624 28.9497 0.22323C28.827 0.247493 28.7493 0.365339 28.6675 0.379203C28.3991 0.426342 27.2749 0.185797 26.874 0.190649C26.5591 0.194115 26.0335 0.255811 25.7651 0.4L25.7304 0.260664C25.5022 0.306416 25.2477 0.206593 25.0403 0.213525C24.8163 0.22115 24.6422 0.38059 24.439 0.396533C22.1019 0.580928 19.7952 0.151136 17.4393 0.194115C16.6986 0.207979 15.589 0.123407 14.883 0.191342C14.6867 0.210059 14.4467 0.399306 14.1832 0.398613C11.5312 0.390295 9.37778 0.53379 6.93727 1.68244C6.50729 1.88486 5.58282 2.35348 5.44204 2.82209C5.38794 3.00163 5.43233 3.17355 5.35812 3.3621C5.31651 3.46816 4.87265 4.00956 4.66945 4.18772C4.67292 4.24318 4.66529 4.29863 4.64587 4.34993H4.64795L4.49954 6.90581C4.31367 6.98553 4.10562 6.98276 3.91559 7.05C2.83369 7.43196 2.21923 7.97267 1.52501 8.83918C1.3981 8.99724 1.37799 9.22045 1.25177 9.3792C1.17548 9.47486 1.0021 9.53794 0.98684 9.56428C0.882118 9.74244 0.997936 10.4079 1.15051 10.5847C1.2476 10.697 1.36897 10.6804 1.4404 10.7483C1.47161 10.7781 1.44803 10.8585 1.45705 10.8675C1.51114 10.9195 1.65124 10.9438 1.73654 11.0381C1.91824 11.2384 2.10203 11.7486 2.29136 11.8699C2.66378 12.1077 3.37326 12.0127 3.57299 12.4605C3.8504 13.083 3.5397 13.2217 3.47382 13.6806C3.33234 14.6691 3.65899 15.3942 3.70476 16.3335C3.7214 16.6808 3.64442 17.0891 3.67147 17.4558C3.71447 17.555 3.71239 17.6756 3.66662 17.7733C3.88438 18.1934 3.76718 18.6086 3.81988 19.0059C4.01754 20.4956 4.47804 21.8307 4.53491 23.3676C4.54462 23.6351 4.59871 23.945 4.64865 24.2112H4.62368C4.69234 24.2999 4.71314 24.4219 4.68679 24.5308C4.72008 24.6091 4.72632 24.7006 4.70413 24.7838C4.74574 24.9578 4.76585 25.1581 4.77833 25.2586C4.95657 26.6631 4.98015 28.1029 5.20624 29.4748C5.25617 29.7791 5.42817 30.1035 5.46284 30.4723C5.47741 30.6207 5.48573 31.0546 5.39626 31.1676C5.44758 31.2529 5.46146 31.361 5.43718 31.4581C5.4996 31.544 5.52457 31.6591 5.5426 31.7721C5.75204 33.0892 5.88867 34.3938 6.035 35.7165C6.09672 36.2738 6.16816 36.6884 6.29576 37.1895C6.33946 37.3608 6.42615 37.9472 6.36858 38.1406C6.41991 38.221 6.43586 38.3229 6.41782 38.4172H6.45458L7.01009 45.2073L7.00108 45.2114C7.01495 45.287 7.00732 45.3674 6.9768 45.4374C7.2986 45.6391 7.12036 46.2942 7.14186 46.7413C7.20151 47.9898 7.19041 49.4996 7.35686 50.6864C7.39015 50.9249 7.32287 51.2486 7.27641 51.494C7.32287 51.6833 7.37835 51.876 7.42482 52.0694C7.49972 52.172 7.55382 52.2815 7.48793 52.3688C7.52954 52.6156 7.54133 52.861 7.48308 53.0995C7.49417 54.4277 7.60167 55.7379 7.62733 57.0709C7.63288 57.3614 7.6301 57.6088 7.62733 57.8972C7.62456 58.1911 7.68142 59.5408 7.59612 59.6712C7.55659 59.7315 7.43522 59.7245 7.42274 59.7384C7.309 59.8625 7.53579 59.8791 7.56283 59.9207C7.66755 60.0802 7.73899 62.462 7.76812 62.8897C7.79863 63.3383 8.01709 63.7965 7.83677 64.2436L7.29721 64.159C7.10788 63.8429 6.99068 63.3119 6.51908 63.411C6.45527 62.7123 4.70968 62.252 4.12365 62.2998C3.31847 62.365 2.63118 62.5487 2.08122 63.1691C1.87178 63.4055 1.16369 64.8113 1.07422 65.1434C1.0014 65.413 1.01319 65.7493 0.940374 65.9801C0.889053 66.1444 0.683077 66.3052 0.640772 66.5125C0.553388 66.9423 0.80583 67.2979 0.278752 67.5371L0.481261 67.5752C0.487503 67.7228 0.498599 67.8774 0.489583 68.0251C0.3807 69.711 -0.006286 70.956 0.212868 72.6627C0.260027 73.0294 0.131032 73.5881 0.134499 73.9826C0.137967 74.3465 0.410522 74.9232 0.00134277 75.0924C0.32938 75.2179 0.162934 75.3877 0.214255 75.6421C0.504147 77.0854 0.563097 78.6278 0.989614 80.0662C1.03539 80.2201 1.24691 80.4287 1.28991 80.6034C1.33291 80.7809 1.25939 80.8918 1.29476 81.0714C1.4196 81.6952 2.1152 82.2574 1.73446 82.821C2.15612 82.7787 2.34337 83.3125 2.60067 83.5849C4.04528 85.1183 5.42262 85.1662 7.45048 84.8951C8.43529 84.7634 9.37085 83.5614 9.63924 82.6595C10.2163 82.4654 10.2488 83.6328 10.4951 83.9787C10.7225 84.2996 11.3446 84.8889 11.6518 85.1447C11.9494 85.3922 12.2469 85.6126 12.5486 85.8407C13.2227 86.3509 14.1895 86.4854 15.0127 86.6379C15.7013 86.7654 16.6674 86.9567 17.3755 86.9172C17.596 86.9047 17.7236 86.7848 17.8624 86.7751C18.3388 86.7425 19.4623 86.954 20.0809 86.9616C20.7516 86.9706 21.5803 87.042 22.1629 86.9859C22.871 86.9179 23.5486 86.9782 24.2365 86.9768C26.8081 86.9734 29.2965 86.6316 31.7973 86.5006C32.2252 86.4784 32.8418 86.4029 33.2544 86.4195C33.7468 86.4396 34.4015 86.6295 34.8606 86.6309C35.2282 86.6316 35.1172 86.5242 35.6977 86.6178C38.0515 86.9969 40.4428 86.721 42.7529 87.0517C43.5519 87.1661 44.4326 87.1009 45.2538 87.1876C45.785 87.2437 46.5833 87.5023 47.1221 87.4635C47.2476 87.4545 47.3434 87.3332 47.4599 87.3415C47.5181 87.3456 48.4585 87.6451 48.5674 87.6874C48.9329 87.8288 48.8587 88.0167 49.4101 87.9467C50.3033 87.833 50.7056 87.9175 51.5634 87.9508C53.2425 88.0174 54.3785 88.2094 55.4118 86.6053C57.6061 86.1436 58.6769 84.8806 59.2109 82.769C59.2567 82.5888 59.2387 82.1347 59.3136 82.0044C59.3427 81.9545 59.6007 81.8658 59.6749 81.707C59.7311 81.5871 59.7096 81.4381 59.7658 81.3133C59.8788 81.0623 60.0605 80.8135 60.1299 80.5327C60.5259 80.5355 60.4066 80.9577 60.4412 81.0208C60.4704 81.0741 60.6909 81.1649 60.7852 81.2967C61.0418 81.6557 61.2166 82.1091 61.5495 82.4737C62.1452 83.126 63.5919 83.7465 64.4637 83.6515C64.7383 83.6217 66.3133 83.1503 66.5325 83.0158C67.0145 82.7212 67.4874 81.3999 67.5887 80.844C67.7884 79.7438 67.993 78.6354 68.0007 77.511C68.002 77.3301 67.8938 76.9613 67.8911 76.754L67.8904 76.7603ZM6.39702 5.51384C6.46776 5.11524 6.75765 4.3534 6.89705 3.9347C6.94629 3.78774 7.76742 3.07788 7.9408 2.96766C8.52406 2.59679 9.41523 2.58778 10.1067 2.36041C10.9784 2.07342 11.8953 2.1164 12.801 2.0034C15.272 1.69354 19.0233 1.53895 21.4721 1.85228C22.0131 1.9216 21.8994 1.71572 22.2919 2.10946C22.3224 2.13997 22.4237 2.12472 22.4493 2.15314C22.468 2.17463 22.6359 2.6266 22.6484 2.68622C22.7073 2.98638 22.7233 3.64493 22.7274 3.95619C22.7288 4.06987 22.6491 4.21891 22.6775 4.3527L22.6629 4.35409C22.6699 4.38667 22.6719 4.41995 22.6706 4.45322H22.6823L22.751 4.59533C22.552 5.0175 23.0818 5.53671 23.4487 5.69893C24.2858 6.0691 24.7692 5.13465 24.8718 4.41925C24.8815 4.41925 24.8905 4.41925 24.9002 4.41925C24.8864 4.38113 24.878 4.34092 24.8767 4.30002C24.5223 4.06779 24.4702 3.21514 24.3953 2.8817C24.344 2.65433 24.2691 2.5039 24.2053 2.36526C24.1727 2.29455 24.041 1.95626 24.0659 1.92854C24.5299 1.80237 25.0105 1.88902 25.4842 1.85506C25.5896 1.84743 25.6825 1.75315 25.7768 1.74553C26.1125 1.72057 26.487 1.86823 26.7381 1.64986C26.7776 1.63739 26.7637 1.75246 26.7873 1.76702C26.9662 1.87724 27.3172 1.7275 27.4996 1.73236C28.6806 1.76563 29.9026 1.83149 31.1024 1.8606C33.7225 1.92507 36.3676 2.0547 38.942 1.91329C39.4677 1.88417 40.716 1.64016 41.1481 1.80237C41.3111 1.86337 41.4047 2.24533 41.4408 2.40963C41.549 2.89765 41.5358 4.10107 41.4734 4.59048C41.4491 4.7818 41.2521 4.81369 41.2785 5.13049C41.3159 5.58455 41.8007 6.27083 42.2675 6.30063C42.5338 6.31797 42.884 6.23478 43.0685 6.03375C43.5456 5.51314 43.3299 5.06048 43.409 4.46015C43.3369 4.38113 43.3084 4.26744 43.3237 4.16068C43.3181 4.15652 43.3133 4.15167 43.3091 4.14751C43.1482 3.64355 42.8923 3.15899 42.9644 2.61066C42.9901 2.41587 43.1954 2.26544 43.0615 1.9729L43.1087 1.92022C43.5075 1.65749 43.823 1.89803 44.1525 1.90358C45.2378 1.92368 46 1.97152 47.0583 2.13234C48.9336 2.41794 50.8803 2.34169 52.8146 2.41587C53.6926 2.44983 54.2446 2.61759 55.0997 2.7597C55.8709 2.88794 56.6955 3.03075 57.4251 3.27753C57.6006 3.33715 57.7351 3.50005 57.9744 3.56036C58.5077 3.69554 58.3967 3.57977 58.8454 4.00679C59.4523 4.58493 60.1465 5.44729 60.0279 6.33044C60.0175 6.40739 59.9107 6.48087 59.8864 6.57029C59.8192 6.81431 59.4592 8.10854 59.2553 8.15706C58.9266 8.051 58.5902 7.97197 58.2462 7.93454C55.8661 7.67597 53.4692 7.90612 51.0835 7.67666C50.9795 7.66696 50.9101 7.55535 50.8061 7.54842C50.6223 7.53733 50.2756 7.67874 50.0425 7.61497L50.0044 7.40215C49.3636 7.61982 48.4301 7.17339 47.824 7.26767C46.6755 7.44652 45.7503 7.13318 44.6324 7.1214C42.0018 7.09436 39.3838 7.00355 36.7213 6.98345C35.8773 6.97721 34.5922 7.0701 33.7954 6.96543C33.1712 6.88293 32.4853 6.98761 31.7973 6.98969C29.3776 6.99593 26.9427 6.78242 24.5209 6.70616C20.5581 6.58208 16.5419 6.69022 12.5888 6.63962C12.0784 6.63338 11.5215 6.50375 11.1345 6.50028C10.9209 6.4982 10.683 6.641 10.4396 6.64516C10.2253 6.64932 10.0373 6.56475 9.81956 6.56752C9.33825 6.57376 8.66137 6.7235 8.22029 6.64031C8.0268 6.60357 8.04761 6.39907 7.85689 6.31034C7.15781 5.98314 6.16885 6.81223 6.3991 5.51245L6.39702 5.51384ZM3.37534 9.01041C3.59934 8.84958 3.80601 8.80938 4.01823 8.68252C4.20202 8.5723 4.38095 8.34562 4.50647 8.28045C4.56612 8.24926 5.73332 8.17578 5.85122 8.18756C6.08979 8.21044 6.54821 8.4288 6.83255 8.41147C7.10025 8.39483 7.4484 8.12795 7.82152 8.11685C9.6219 8.06278 11.8987 8.05031 13.6998 8.16469C14.222 8.19796 14.7588 8.3775 15.2928 8.36156C16.098 8.3366 16.8061 8.2347 17.6536 8.24025C20.3389 8.25688 23.0028 8.31095 25.6839 8.40177C30.3063 8.55843 35.0888 8.47247 39.7708 8.51199C42.3396 8.53348 44.9084 8.80452 47.4689 8.93346C48.3545 8.97783 49.3899 8.87592 50.2381 9.00625C51.5087 9.20173 52.7813 9.42634 54.0664 9.55458C54.3431 9.58231 54.8286 9.4097 55.1705 9.41108C55.7586 9.41386 56.3182 9.62806 56.8308 9.69669C57.9543 9.84781 59.2262 9.71471 60.3705 9.83256C60.7818 9.87484 61.218 10.0696 61.6147 9.97744L61.632 9.99338C61.6514 9.98992 61.6722 9.98784 61.6944 9.98784C61.8498 9.98784 61.9503 10.0717 61.9975 10.1806C62.0606 10.2152 62.1043 10.2693 62.1314 10.3317C62.1882 10.3629 62.2298 10.41 62.2583 10.4648C62.4747 10.5438 62.5239 10.8266 62.4067 10.9999C62.4081 11.0485 62.3907 11.0894 62.3477 11.1143C62.3276 11.1261 62.3054 11.1205 62.2812 11.106C62.2389 11.1254 62.1896 11.1365 62.1334 11.1365C62.0925 11.1365 62.0558 11.1303 62.0225 11.1199C61.967 11.1809 61.8852 11.2211 61.7784 11.2211C61.727 11.2211 61.682 11.2114 61.6424 11.1954C61.5869 11.2613 61.5023 11.3056 61.3893 11.3056C61.3782 11.3056 61.3678 11.3049 61.3581 11.3043C61.3033 11.3847 61.2124 11.4408 61.0855 11.4408C61.0841 11.4408 61.0821 11.4408 61.0807 11.4408C61.0273 11.5295 60.9336 11.5933 60.7984 11.5933C60.797 11.5933 60.7949 11.5933 60.7936 11.5933C60.7402 11.6821 60.6465 11.7458 60.5113 11.7458C60.505 11.7458 60.4988 11.7458 60.4926 11.7451C60.3358 11.854 60.1631 11.9323 59.9585 11.9462C59.7221 11.9614 59.4287 11.8415 59.1929 11.8366C53.6627 11.7375 48.1506 12.4397 42.6184 11.9108C42.0518 11.8567 41.3659 11.6578 40.8145 11.6301C40.3242 11.6051 39.691 11.7202 39.2187 11.7098C38.3234 11.6904 37.6576 11.5954 36.7234 11.6405C31.5185 11.8893 26.1125 11.8831 20.9097 11.7049C20.2613 11.6827 19.5261 11.6148 18.8957 11.6314C17.9657 11.6564 16.9414 11.9663 16.0134 11.7722C15.865 11.7902 15.7097 11.7826 15.5592 11.7812C15.521 11.7812 15.4856 11.7749 15.4537 11.7652C15.0862 11.793 13.3933 11.6744 13.1422 11.673C10.6983 11.6619 9.19539 11.655 6.75626 11.2238C6.41852 11.1642 5.83943 11.2786 5.5634 11.0235C5.51763 11.0186 5.4781 11.0062 5.44273 10.9875C5.41013 10.9972 5.37546 11.0034 5.33593 11.0034C5.26103 11.0034 5.1993 10.984 5.14937 10.9514C5.08626 10.9389 5.03424 10.9112 4.99402 10.8731C4.98154 10.8731 4.96905 10.8731 4.95657 10.8731C4.27761 10.5798 2.08885 9.93654 3.37534 9.01179V9.01041ZM39.4608 12.3267L38.8019 12.4508C38.6022 12.2969 35.8537 12.5084 35.8537 12.3607C37.0619 12.0404 38.236 12.2131 39.4608 12.3267ZM25.4516 12.3954L25.3489 12.534H20.9437L21.047 12.3954H25.4516ZM19.1405 12.2567L19.0691 12.7392C18.9796 12.8252 18.1925 12.5264 18.0316 12.4633C18.042 12.3642 18.3374 12.3441 18.4206 12.3337C18.6599 12.3039 18.8992 12.3496 19.1398 12.2567H19.1405ZM7.66409 81.3015C7.62178 81.3868 7.44701 81.4408 7.36102 81.5531C7.20844 81.7514 7.1273 82.1909 6.97334 82.3441C6.6883 82.6276 6.07592 82.7704 5.72014 82.9645C5.31374 82.6151 4.69234 82.7392 4.30674 82.369C4.18329 82.2505 4.10492 82.062 3.99049 81.9212C3.60073 81.4429 3.01886 80.4939 2.9509 79.8562C2.93356 79.6953 3.00916 79.547 2.96754 79.3418C2.91137 79.0652 2.56253 78.7068 2.51121 78.4794C2.44185 78.1716 2.55212 77.7578 2.46335 77.4493C2.2865 76.8344 2.1582 76.5003 2.14711 75.7932C2.14156 75.412 2.2865 75.1125 2.29066 74.9593C2.29136 74.926 2.07914 74.621 2.02713 74.3874C1.84195 73.5521 2.0084 73.263 2.01603 72.5323C2.03337 70.9608 1.99384 69.2819 2.38706 67.7104C2.42382 67.5634 2.46197 67.4449 2.63465 67.4365L2.49456 67.3235C2.39955 66.6692 2.67072 66.1506 2.87947 65.5676C2.92732 65.4332 2.89403 65.2716 2.94396 65.1469C3.26576 64.351 3.81642 63.8284 4.73534 63.9864C5.03147 64.236 5.35673 64.455 5.66119 64.6907C5.79643 64.7954 6.15706 65.0186 6.20283 65.0838C6.3353 65.2709 6.51631 65.8006 6.67304 66.0695C6.73477 66.1756 6.85058 66.2019 6.91786 66.3101C7.14394 66.6719 7.06072 66.9347 7.15712 67.2494C7.19596 67.3748 7.38529 67.4636 7.40748 67.6251C7.52399 68.4819 7.37142 69.433 7.41581 70.312C7.43453 70.6856 7.73621 70.9955 7.80695 71.2839C7.83747 71.4093 7.74037 71.6471 7.76812 71.8343C7.90266 72.7313 8.01154 72.8325 7.90821 73.7843C7.82984 74.5045 8.0053 74.7902 8.11072 75.3822C8.15371 75.622 8.08783 76.1253 8.11349 76.4137C8.26745 78.1432 7.99906 79 7.70015 80.6471C7.66409 80.8474 7.75147 81.1247 7.6627 81.3029L7.66409 81.3015ZM52.8465 85.6674C52.2285 85.6105 51.6307 85.9599 51.0433 85.8053C51.0336 85.6958 51.0294 85.6445 51.1127 85.5634C51.2902 85.3894 52.515 85.4469 52.8472 85.3908V85.6674H52.8465ZM60.4662 17.2257C60.4766 17.7061 60.4849 18.1906 60.478 18.6717C60.4634 19.7282 60.3247 20.8228 60.2235 21.8688C60.1604 22.5204 60.4031 23.127 60.1188 23.7551H60.1042C60.1028 23.8071 60.091 23.8584 60.0695 23.9048L60.1271 23.9034C60.0945 24.0816 60.1971 24.2618 60.1971 24.4233C60.1971 26.1758 59.79 28.0578 59.9835 29.7666C60.0064 29.9656 59.9939 30.1756 59.9794 30.3753L59.9266 30.4259C59.9405 30.4938 59.9357 30.5659 59.9135 30.6311C59.9419 30.7128 59.9426 30.8057 59.9142 30.8875C59.9537 31.1738 59.926 31.6251 59.9225 31.7735C59.8885 33.3013 59.8726 34.9616 59.7838 36.4873C59.7748 36.6405 59.7338 37.15 59.6534 37.3427C59.6458 37.3615 59.6374 37.3774 59.6291 37.3892C59.6229 37.3975 59.6166 37.4037 59.6104 37.4086C59.6083 37.4592 59.6069 37.5091 59.6049 37.5597H59.6423C59.6368 37.5923 59.634 37.6256 59.6298 37.6589C59.5716 38.1268 59.6215 38.5878 59.6159 39.0377C59.6111 39.4189 59.5341 39.8348 59.5702 40.2307C59.5965 40.5232 59.7512 40.7665 59.7172 41.0618C59.6908 41.2885 59.5085 41.6781 59.4703 41.9568C59.4148 42.3602 59.5189 42.6146 59.505 42.9287C59.4987 43.077 59.4544 43.7058 59.3975 44.0773C59.4114 44.3456 59.462 44.6104 59.4169 44.8731C59.4016 45.2544 59.3087 45.8249 59.3018 45.9892C59.2921 46.2187 59.2976 46.4952 59.2921 46.742C59.2643 48.0259 59.4322 49.7027 59.3261 50.9776C59.3344 51.2784 59.3517 51.5744 59.2824 51.8628L59.2255 58.6334H59.1894C59.1783 58.8046 59.1672 58.9752 59.1638 59.1464C59.2338 60.1668 59.2179 61.7411 59.1145 62.7282C59.0438 63.4007 59.0937 63.2863 59.1554 63.9365C59.1908 64.3074 59.186 65.2938 59.1631 65.6695C59.1499 65.8844 58.9883 65.9281 58.9758 66.012C58.9592 66.1257 59.0382 66.3593 59.0112 66.5645C58.9786 66.8133 58.7983 66.9825 58.7553 67.2099C58.5777 68.1526 58.7567 69.268 58.7428 70.2475C58.7269 71.3269 58.5826 72.4228 58.5687 73.5015C58.5507 74.8733 58.912 78.8579 58.3447 79.9608C58.2962 80.2333 58.1734 80.4724 58.0521 80.7331C57.9002 81.0582 57.8218 81.4138 57.6228 81.7167C57.611 81.7341 57.5985 81.75 57.586 81.7639C57.5721 81.8152 57.5583 81.8672 57.5444 81.9192C57.4591 82.2339 57.3592 82.5909 57.1304 82.8335C57.1255 82.891 57.0721 82.9597 56.9327 83.065C56.7226 83.2238 56.0096 83.6321 55.7745 83.7097C53.5088 84.4542 51.2007 84.3205 48.8559 84.5582C46.3946 84.8078 43.9999 84.5596 41.5094 84.4861C40.6619 84.4612 40.1411 84.7107 39.32 84.3184C39.0058 84.1679 38.9711 84.5132 38.7312 84.5589C38.4586 84.6109 38.0578 84.536 37.7589 84.5575C37.2477 84.595 36.5861 84.7613 36.1006 84.6948C35.1422 84.5638 33.7468 84.4279 32.7669 84.484C32.6018 84.4938 32.5054 84.6282 32.2842 84.6372C31.2966 84.6788 30.8188 84.335 29.7653 84.6781C28.4323 85.1128 27.8338 84.6733 26.5945 84.561C26.1153 84.5173 25.5979 84.6165 25.1464 84.6012C22.0193 84.4938 18.8888 84.787 15.7762 84.7724C15.3691 84.7703 14.0577 84.5298 13.7844 84.2837C13.6693 84.1797 13.652 84.0224 13.541 83.9336C13.3711 83.7971 12.9134 83.716 12.7136 83.5641C12.4945 83.3985 12.4626 83.1302 12.3481 83.013C12.2795 82.943 12.1692 82.9659 12.0742 82.855C11.8738 82.62 12.0159 82.3628 11.9972 82.3434C11.9882 82.3344 11.8509 82.3483 11.7573 82.2713C11.3952 81.9718 11.448 81.4284 11.3425 81.0894C11.2891 80.9175 11.0187 80.7372 10.9736 80.557C10.9299 80.3851 10.9833 80.2062 10.941 80.035C10.8786 79.7813 10.6449 79.3744 10.6136 79.1837C10.5498 78.7962 10.6712 78.363 10.6657 78.0087C10.64 76.4039 10.5186 74.8692 10.3314 73.2963C10.2502 72.6128 10.0026 71.7254 9.98462 71.0717C9.97005 70.5407 10.1441 69.7962 10.1205 69.2791C10.106 68.9581 9.85077 68.4133 9.84522 68.023C9.84244 67.7935 9.98947 67.5059 9.97768 67.3298C9.96589 67.1634 9.71276 66.5049 9.67669 66.1998C9.44783 64.2741 9.44852 62.0759 9.42841 60.1211C9.4076 58.0941 9.39859 55.9874 9.41731 53.9542C9.41939 53.7518 9.3008 52.868 9.39096 52.6198C9.3868 52.5373 9.38403 52.4548 9.38333 52.3723C9.23145 52.1838 9.32924 51.8926 9.28763 51.6722C8.92769 49.7478 9.02062 48.229 8.88261 46.3296C8.86735 46.1223 8.69882 45.6953 8.74668 45.5074C8.70645 45.4055 8.712 45.2835 8.76332 45.1865C8.66068 45.0409 8.75847 44.8613 8.73211 44.6769C8.53654 43.3085 8.47412 41.9942 8.32987 40.6355C8.25081 39.8903 8.27092 39.1195 8.21197 38.3874L8.23832 38.3756C8.15926 38.3091 8.11904 38.2065 8.11904 38.1032H8.05315C7.98033 37.3836 7.92069 36.6544 7.83053 35.9355C7.77921 35.5244 7.77991 35.0219 7.73136 34.7051C7.71263 34.5803 7.58156 34.5962 7.56145 34.5276C7.39639 33.9633 7.53995 33.1453 7.4803 32.5422C7.4373 32.1104 7.25075 31.8372 7.14186 31.4296L7.20983 31.4019C7.17515 31.3173 7.17168 31.2189 7.20012 31.1316C7.10927 30.9652 7.15781 30.4626 7.13562 30.3219C6.91161 28.9237 6.58982 27.5636 6.46776 26.1404C6.41991 25.5831 6.37968 25.0174 6.37968 24.4566C6.38107 24.4566 6.38246 24.4566 6.38384 24.4566C6.37067 24.3991 6.37067 24.3381 6.38384 24.2805L6.34431 24.2514C6.32975 24.0518 6.1744 23.8452 6.16677 23.6601C6.1529 23.3246 6.27704 22.318 6.2278 22.0823C6.20769 21.9839 6.03014 21.7822 5.97189 21.5735C5.7458 20.7638 5.74095 19.8377 5.61334 19.0204C5.57242 18.7577 5.2742 18.0166 5.34494 17.7789H5.37546C5.35188 17.6964 5.35604 17.6049 5.38794 17.5258C5.37199 17.5258 5.35604 17.5258 5.34009 17.5265L4.98709 13.8172L5.06337 12.5347C5.25409 12.5098 5.37476 12.6733 5.5426 12.7136C5.76591 12.7669 6.12169 12.8369 6.34917 12.8778C8.20295 13.2071 10.1934 13.2841 12.0964 13.5107C13.516 13.6806 14.6361 13.9634 16.1216 13.9877C17.2555 14.0057 18.3832 13.969 19.5129 14.0695C19.6246 14.1076 19.7175 14.4674 19.7474 14.5977C19.8916 15.2161 20.0872 16.1311 20.1635 16.7467C20.2009 17.0517 20.1739 17.3595 20.1815 17.6652H20.1669C20.1746 17.6991 20.1815 17.7338 20.1898 17.7685C20.2162 17.7955 20.2363 17.9064 20.2522 18.0562C20.2543 18.0652 20.2564 18.0742 20.2578 18.0832C20.2647 18.1185 20.2661 18.1525 20.264 18.1844C20.2938 18.5421 20.3063 19.0176 20.3202 19.1549C20.4381 20.3389 20.5172 21.5021 20.6025 22.6847C20.6129 22.8296 20.7238 22.9634 20.7252 23.1048C20.7294 23.3981 20.4811 23.8805 20.5969 24.2507H20.5768C20.6045 24.3277 20.6073 24.415 20.5844 24.494L20.5886 24.4975C20.7627 25.12 21.1413 25.8285 21.8758 25.8472C21.9195 25.8486 22.3779 25.8153 22.4022 25.8063C22.432 25.7952 22.821 25.3876 22.8425 25.3543C22.9389 25.2053 22.9903 24.7685 23.0132 24.5086C23.0083 24.5017 23.0034 24.4947 22.9993 24.4878C22.966 24.4309 22.9556 24.3748 22.9563 24.3166C22.9154 24.2805 22.8897 24.2278 22.8758 24.1731C22.8002 23.9589 22.7642 23.3828 22.7108 23.2116C22.33 21.9957 22.2121 20.9448 22.0596 19.7032C21.9978 19.1986 21.941 18.6932 21.8862 18.1879C21.864 18.1442 21.8508 18.0922 21.8501 18.0319C21.8473 17.6749 21.8161 17.3207 21.7828 16.965L21.0803 14.1665C21.1282 14.0972 21.1725 14.075 21.2544 14.0612C21.5713 14.0064 22.1788 13.935 22.4993 13.9197C23.0138 13.8948 23.6241 13.926 24.1637 13.9197C26.4503 13.8927 28.7625 13.953 31.0338 13.8567C31.23 13.8483 31.436 13.743 31.5879 13.7471C31.746 13.7513 31.8868 13.8892 32.0033 13.8941C32.1378 13.8996 32.4562 13.734 32.6941 13.7118C33.4493 13.6411 34.4674 13.7208 35.1928 13.7492C35.6727 13.7679 36.2497 13.9177 36.6541 13.9253C37.2436 13.9364 37.8774 13.6334 38.519 13.7194C39.5169 13.8525 40.3721 13.7062 41.3693 13.7125C42.0358 13.7166 42.7078 13.8074 43.384 13.8477C43.6254 13.8622 43.9645 13.7534 44.2475 13.8851C44.4715 14.3017 44.296 14.7433 44.3106 15.2091C44.3154 15.3568 44.3778 15.4906 44.382 15.6223C44.4007 16.2365 44.3355 16.8534 44.4514 17.4586C44.4465 17.4565 44.4416 17.4551 44.4368 17.4531C44.4479 17.5099 44.4458 17.5695 44.4319 17.625C44.5179 17.8024 44.622 18.2821 44.6358 18.4041C44.7641 19.4876 44.6317 20.7652 44.5908 21.8612C44.5637 22.587 44.6421 23.3163 44.5103 24.0337H44.5055C44.4978 24.0947 44.477 24.153 44.4416 24.2022C44.4271 24.2424 44.407 24.2812 44.3785 24.3131C44.2544 26.5827 47.0125 26.618 46.3939 24.1828H46.405C46.3918 24.137 46.387 24.0892 46.3904 24.0421C46.3475 23.9027 46.3051 23.7634 46.2913 23.6185C46.2878 23.5838 46.2913 23.5526 46.2961 23.5235C46.2628 23.2781 46.2538 23.0106 46.2545 22.8955C46.2573 22.4539 46.4848 21.8473 46.4605 21.4487C46.4508 21.2865 46.2892 21.1416 46.2594 20.9559C46.1768 20.445 46.2843 19.7102 46.2545 19.1584C46.2254 18.6183 46.1325 18.0624 46.0472 17.5293H46.0756C46.0728 17.5148 46.0693 17.5002 46.0659 17.4829C46.0527 17.4253 46.043 17.3921 46.0277 17.3581C46.0236 17.3498 46.0194 17.3421 46.0146 17.3338C45.9736 17.304 45.9424 17.2624 45.9223 17.2035C45.9521 16.5547 45.699 15.8406 45.6976 15.2105C45.6969 14.8292 45.8391 14.3003 45.8509 13.9017L45.9528 13.7957C46.6415 13.7991 47.3378 13.7589 48.0265 13.7832C50.9095 13.8823 54.1427 14.057 57.0409 13.9308C58.2677 13.8775 59.3385 13.2771 60.5765 13.2321C60.7284 13.2265 60.8705 13.1406 61.0273 13.1635L60.469 17.0413H60.4669C60.4808 17.1037 60.4801 17.1695 60.4634 17.2312L60.4662 17.2257ZM66.0068 78.2694C65.8937 79.3092 65.7342 80.4107 65.0192 81.2336C64.8846 81.3882 64.5601 81.7507 64.3562 81.689C64.275 81.6647 64.2001 81.5622 64.0975 81.5261C63.9047 81.4589 63.5267 81.3992 63.3367 81.2814C63.2889 81.2516 62.517 80.6194 62.4837 80.5743C62.3672 80.4163 62.3394 80.1605 62.2361 79.9899C61.6826 79.0721 61.537 78.4704 61.2679 77.4223C61.08 76.6889 60.9232 76.0088 60.8872 75.238C60.7818 72.9829 60.9864 70.339 61.166 68.0993C61.2277 67.3284 61.7305 66.6289 61.9559 65.9136C61.9892 65.8089 61.9129 65.709 61.9989 65.5461C62.121 65.3132 62.8055 65.011 63.0752 65.0047C63.2216 65.002 63.7389 65.0706 63.8367 65.1496C64.2307 65.4699 64.266 66.0543 64.4616 66.466C64.5559 66.6643 64.7619 66.8466 64.8236 67.0054C65.0143 67.4927 65.0906 68.5006 65.2058 69.0496C65.8292 72.0291 66.3383 75.2109 66.0054 78.2694H66.0068Z" fill="#57B3FF"/>
</g>
<defs>
<clipPath id="clip0_320_491">
<rect width="68" height="88" fill="white"/>
</clipPath>
</defs>
</svg>
