<svg width="327" height="331" viewBox="0 0 327 331" fill="none" xmlns="http://www.w3.org/2000/svg">
<path d="M197.763 63.0042C196.903 61.9442 195.963 60.3542 195.153 59.4442C193.343 57.4142 191.103 56.0042 189.533 53.8142C189.193 53.3342 189.063 52.8842 189.183 52.3042C189.953 50.7442 190.413 46.1942 191.393 43.8842C191.553 42.6042 191.813 41.3342 192.213 40.1442C192.613 38.9742 193.093 37.9342 193.713 37.0242C192.183 35.8042 189.623 35.7042 187.663 36.5642C186.243 37.1942 184.103 38.5342 182.433 39.3542C179.873 40.6042 177.003 42.5142 174.393 43.3442C172.563 43.9242 170.423 43.9742 168.683 44.4242C167.833 44.6442 167.263 45.3242 166.423 45.5642C164.333 46.1442 158.903 46.4442 156.243 46.8142C154.793 47.0142 153.053 46.1742 151.643 46.1842C150.523 46.1842 149.693 46.8442 148.573 46.8342C146.683 46.8142 139.973 45.7642 138.133 45.2142C137.623 45.0642 136.993 44.2042 136.343 43.9142C134.793 43.2142 130.773 42.4142 129.093 42.1942C128.133 42.0742 125.753 42.7642 125.233 43.5642C125.153 43.6942 124.973 46.3542 125.003 46.5842C125.313 48.5742 127.253 50.9342 127.883 52.3742C128.553 53.9142 128.363 55.7142 129.733 57.3042C133.363 61.5242 136.003 66.6842 138.393 71.7842C139.753 74.6742 143.353 78.1542 144.623 81.5942C145.223 83.2042 146.633 90.8642 146.753 92.6642C146.863 94.1842 145.953 99.3742 145.703 101.044C145.613 101.634 145.313 103.034 145.333 103.454C145.393 104.594 148.483 106.114 149.453 106.054C149.623 106.044 152.403 104.904 152.543 104.794C153.213 104.294 152.883 103.494 153.333 103.114C153.633 102.854 154.313 102.904 154.663 102.674C155.083 102.404 156.183 101.184 157.113 100.504C161.903 97.0242 167.383 94.1042 172.603 90.9242C173.133 90.5942 173.703 90.6142 174.333 90.1842C174.763 89.8842 178.303 85.9842 178.593 85.4942C179.213 84.4342 179.773 80.9142 179.503 79.7442C179.473 79.6042 178.413 77.1742 178.293 77.0942C178.033 76.9242 177.203 77.1642 176.713 76.9842C176.063 76.7542 175.523 75.9642 174.633 76.1242C174.273 75.7342 176.033 74.2842 176.383 74.0242C179.543 71.6542 180.393 72.0842 183.673 71.1342C184.193 70.9842 184.543 70.2142 185.343 70.0242C187.883 69.4442 191.893 70.7242 194.823 70.2542C195.883 70.0842 196.183 69.2642 196.753 69.1042C198.523 68.6042 200.343 69.4842 199.953 66.1042C199.763 64.4542 198.523 63.9442 197.773 63.0242L197.763 63.0042Z" fill="#D0FFCD" fill-opacity="0.7"/>
<path d="M325.661 99.1748C324.971 99.0448 324.301 99.0348 323.771 99.1748C322.291 99.5648 322.041 100.795 320.931 101.575C319.851 102.335 317.521 103.075 316.651 103.785C316.411 103.975 315.491 106.295 314.941 107.015C314.571 107.495 312.811 108.835 312.741 108.965C312.521 109.355 312.821 110.005 312.391 110.615C312.221 110.865 310.261 112.385 309.891 112.145C308.851 111.465 309.081 108.655 308.891 107.585C308.531 105.555 308.491 105.595 308.381 103.495C308.291 101.825 306.221 96.7348 305.391 95.0448C305.031 94.3048 303.971 93.2548 303.801 92.6248C303.211 90.3748 303.881 89.0448 302.201 86.5148C301.841 85.9748 300.861 85.7648 300.691 85.2448C300.221 83.8148 300.701 82.0448 300.651 80.6748C300.611 79.5748 299.931 78.4948 299.991 77.2548C300.051 75.9848 300.971 75.7048 300.481 74.3448C300.441 74.2448 300.031 73.6248 299.511 72.8848C298.241 72.4648 297.101 71.7048 296.101 70.8448C295.461 70.2948 294.951 69.6548 294.521 68.9548C292.791 69.1848 291.481 70.9848 290.791 72.9648L289.861 73.0948C289.441 71.1648 287.691 69.9848 286.761 68.3248C286.161 67.2548 286.061 66.1648 285.681 65.3948C285.331 64.7048 284.081 64.5948 283.661 64.0248C283.111 63.2648 282.241 61.0548 281.731 60.2448C278.421 54.8948 275.221 51.3748 271.031 46.7248C269.651 45.2048 268.061 42.6348 266.561 41.3248C265.841 40.6948 264.541 40.4848 263.951 39.9248C262.741 38.7948 262.151 38.1548 260.741 36.9648C258.261 34.8648 258.211 33.3448 254.891 31.3948C252.811 30.1748 251.781 29.3748 249.841 28.1148C248.161 27.0148 245.961 26.3848 244.221 25.4048C239.761 22.8948 235.871 20.1648 231.191 18.0748C222.591 14.2448 212.521 9.72478 203.401 7.91478C196.221 6.48478 189.091 4.81478 182.041 3.05478C175.561 1.43478 168.531 1.13478 161.661 0.594776C160.791 0.524776 159.921 0.0347757 159.161 0.00477569C157.201 -0.0652243 156.391 0.664776 153.711 0.204776C153.311 0.134776 153.001 0.0947757 152.761 0.0747757C152.451 0.0947757 152.141 0.124776 151.831 0.144776C151.551 0.214776 151.261 0.304776 150.541 0.314776C150.401 0.314776 150.251 0.304776 150.091 0.284776C145.251 0.734776 140.421 1.57478 135.521 1.62478C135.121 1.62478 134.741 1.59478 134.391 1.52478C133.621 1.55478 132.771 1.36478 132.071 1.57478C131.121 1.86478 131.311 3.18478 130.601 3.80478C130.031 4.29478 128.791 4.43478 128.181 4.78478C123.461 7.49478 118.811 8.66478 113.961 10.9248C106.491 14.4048 98.7314 18.0848 91.8514 22.1348C90.0214 23.2148 81.7914 27.4448 81.1214 28.3748C80.8114 28.8048 80.8614 29.5048 80.5614 29.8248C80.2214 30.1948 77.3314 31.3048 76.5214 31.8048C70.6414 35.4248 65.0414 41.3048 60.4314 46.2648C59.5114 47.2448 56.7114 48.6948 55.7814 49.6348C55.2314 50.1948 54.7014 51.6448 53.9614 52.4348C52.9514 53.5048 50.1214 55.3748 49.4614 56.5648C49.0314 57.3348 49.3214 58.0648 49.0114 58.5848C48.9614 58.6748 47.7014 59.9348 47.6214 59.9848C47.2814 60.2048 45.2214 59.6348 43.9714 60.0248C43.6514 60.1248 40.7314 61.9448 40.5414 62.1548C40.0814 62.6748 40.1314 63.4348 39.7514 63.8348C39.2814 64.3348 38.3214 64.1948 37.6014 65.0848C37.0314 65.7948 36.6814 67.1048 36.1414 67.9448C34.1214 71.0548 30.8214 75.3848 27.8414 77.5448C26.7614 78.3248 19.4114 82.0248 18.3114 82.2248C15.9814 82.6648 13.4014 81.1348 11.0414 83.2648C9.34141 84.7948 10.4714 86.6348 10.6014 88.6648C10.6714 89.7448 10.2914 91.7048 10.4014 92.3948C10.4614 92.7548 11.1314 92.9848 11.2214 93.6248C11.5014 95.7148 11.6714 98.3548 11.8014 100.415C12.1714 106.015 7.67141 116.265 5.19141 121.535C4.89141 122.165 4.89141 122.935 4.64141 123.455C3.82141 125.175 0.931409 127.945 0.421409 129.415C-1.38859 134.615 3.63141 134.925 3.50141 139.585C3.41141 143.015 1.83141 146.925 1.34141 150.085C1.11141 151.575 1.44141 153.435 1.32141 154.995C1.10141 157.755 -0.398591 160.995 0.101409 163.635C0.301409 164.675 2.90141 166.575 3.76141 167.335C2.19141 169.175 4.50141 169.865 4.89141 171.485C5.23141 172.875 4.63141 173.565 4.71141 174.435C4.78141 175.215 5.77141 175.415 5.94141 176.295C6.14141 177.315 5.67141 178.265 5.74141 179.025C6.13141 183.405 7.68141 191.105 8.90141 195.245C10.8614 201.925 13.1514 209.005 14.6214 215.745C14.8714 216.905 15.0814 218.875 15.3414 219.655C15.6314 220.545 16.5414 220.595 16.8914 221.185C17.2414 221.785 17.1614 222.765 17.4414 223.405C17.7014 223.985 18.2614 224.195 18.4914 224.765C18.9114 225.785 19.0014 228.365 19.3714 229.185C19.5514 229.585 20.2914 229.965 20.5814 230.445C21.9114 232.645 21.9314 234.705 23.5314 236.755C25.2514 238.965 24.8314 237.755 25.8414 240.615C26.5514 242.635 28.6714 243.505 30.0014 245.095C31.8014 247.235 33.3214 249.605 35.0714 251.755C38.5514 256.025 42.0114 260.335 45.9114 264.055C46.4814 264.605 49.2014 267.445 49.4714 267.905C49.8414 268.555 49.6814 269.355 50.0414 269.805C50.4314 270.295 51.2314 270.115 51.6114 270.395C51.9314 270.625 51.9914 271.365 52.3714 271.795C54.9514 274.695 58.1414 275.915 61.0314 278.255C61.5114 278.645 61.7514 279.405 62.4314 279.945C64.6714 281.695 68.0514 282.295 69.3514 285.055C75.7714 287.965 81.9314 291.345 88.0014 294.785C90.1914 296.025 91.6614 295.975 93.8514 296.955C94.8214 297.385 96.0314 298.445 96.9614 298.785C98.3614 299.295 99.9314 299.075 101.301 299.375C104.691 300.115 108.491 302.075 111.701 303.165C119.941 305.975 129.251 307.285 137.821 308.515C142.861 309.235 148.461 309.325 152.281 313.025C152.471 313.205 153.071 313.135 153.261 313.415C153.521 313.785 153.371 314.615 153.651 315.195C154.171 316.285 155.261 317.405 155.801 318.605C155.981 319.015 155.801 319.665 156.041 320.215C156.241 320.665 157.331 321.385 157.731 321.915C159.291 324.035 157.871 326.595 161.351 327.235C165.831 328.065 165.721 324.565 169.601 324.845C171.501 324.985 172.501 325.945 174.071 326.545C174.641 326.765 175.301 326.605 175.911 326.865C179.351 328.325 182.561 331.905 186.331 329.845C190.521 327.555 188.761 322.045 186.821 318.785L187.361 313.285L190.431 308.025C191.471 307.695 192.531 307.975 193.601 307.805C194.621 307.635 195.721 306.955 196.811 306.765C198.251 306.515 200.441 306.925 201.631 306.575C202.101 306.435 202.511 305.765 203.371 305.535C205.521 304.975 207.921 304.835 209.991 304.395C210.531 304.275 210.911 303.365 211.441 303.095C211.831 302.905 214.551 302.535 215.491 302.225C219.381 300.925 224.711 299.675 228.101 297.865C230.091 296.805 232.851 295.875 234.671 294.875C235.321 294.515 235.791 293.585 236.481 293.295C237.951 292.685 238.051 293.015 239.831 292.015C241.601 291.025 243.061 290.015 245.181 290.305C247.021 290.555 247.951 290.865 250.101 290.565C251.711 290.345 254.021 288.905 255.231 290.435C255.361 290.605 256.401 292.545 256.521 292.845C256.801 293.505 256.641 294.195 256.841 294.685C257.061 295.245 258.301 298.195 258.441 298.335C259.271 299.175 262.691 299.835 263.851 299.385C266.381 298.385 265.731 295.375 266.571 293.465C266.961 292.575 268.331 291.175 268.861 290.205C271.451 285.525 273.271 282.345 276.331 277.935C277.011 276.955 277.501 275.535 278.231 274.585C279.551 272.855 281.881 271.415 284.011 270.905C285.461 271.695 285.671 273.515 287.031 274.385C288.401 275.255 290.891 276.085 292.471 275.555C295.321 274.595 294.241 273.445 294.791 271.395C295.191 269.905 295.841 267.895 296.401 266.525C296.921 265.235 296.401 264.675 298.121 263.915C300.401 262.905 302.621 263.425 303.931 260.445C303.551 258.665 303.881 256.675 303.661 254.975C303.601 254.505 303.081 254.145 303.061 253.725C303.041 253.185 303.721 252.675 303.631 252.225C303.551 251.835 302.811 251.625 302.771 250.975C302.721 250.105 303.331 248.175 303.331 247.215C303.331 245.385 302.691 243.225 302.501 241.625C301.821 235.745 303.061 229.095 305.151 223.435C306.431 219.945 310.951 211.535 311.361 208.655C312.311 201.985 311.561 196.465 312.011 189.865C312.201 186.955 313.361 183.925 312.861 180.985C312.671 179.855 311.831 179.005 311.691 177.835C311.031 172.175 314.441 164.765 314.871 159.085C315.701 157.205 317.481 153.165 317.801 151.205C317.911 150.525 317.401 149.875 317.561 149.185C317.671 148.685 319.071 146.265 319.291 145.585C319.441 145.125 319.171 144.665 319.291 144.345C319.401 144.065 319.901 143.905 320.031 143.265C320.361 141.635 319.271 139.895 319.401 138.995C319.431 138.785 319.971 138.835 320.031 138.595C320.371 137.165 320.371 134.685 320.721 133.165C320.901 132.395 321.741 131.515 321.841 130.865C321.951 130.095 321.361 129.765 321.321 129.345C321.291 128.945 321.831 128.635 321.861 128.185C322.041 125.085 322.501 121.135 323.511 118.065C323.691 117.535 324.261 116.895 324.701 116.325C324.681 115.885 324.701 115.435 324.791 114.955C325.301 112.355 325.611 109.775 325.781 107.125C325.871 105.695 325.991 104.275 326.211 102.855C326.391 101.705 326.001 100.785 326.931 101.975C326.271 101.125 325.801 100.145 325.611 99.1548L325.661 99.1748ZM273.651 79.2648C272.871 79.2248 271.051 79.0748 270.251 78.9748C264.631 78.3048 265.131 77.0948 260.941 74.9948C258.741 73.8948 255.641 73.3248 253.561 72.1948C251.931 71.3148 252.201 70.1548 249.911 70.3548C248.001 70.5248 246.431 71.1948 246.311 73.2448C246.131 76.0848 247.531 78.9948 247.571 81.2948C247.641 85.1248 243.561 90.7848 240.791 93.3248C235.761 97.9448 229.751 101.115 224.331 105.095C223.191 105.935 221.911 106.115 221.051 106.595C220.021 107.165 219.151 108.405 218.161 108.955C216.541 109.865 215.661 109.405 214.251 111.215C213.081 112.715 213.191 113.585 213.721 115.425C214.321 117.485 215.171 117.065 216.801 117.835C217.031 117.945 217.011 118.465 217.601 118.625C218.791 118.945 220.871 118.735 222.071 118.415C222.501 118.305 225.901 116.425 225.961 117.065C225.731 118.685 223.921 119.945 223.181 121.075C222.871 121.535 222.051 122.925 221.811 123.415C221.201 124.645 219.651 129.985 219.571 131.305C219.531 132.085 220.171 132.975 220.091 133.715C219.931 135.195 219.411 138.605 219.101 140.135C218.921 141.015 217.801 142.715 217.921 143.565C217.951 143.765 218.521 143.735 218.571 143.955C218.681 144.515 218.211 145.325 218.241 146.055C218.381 149.715 220.941 155.385 221.041 158.555C221.131 158.845 221.191 159.135 221.231 159.435C222.271 160.565 222.831 162.165 222.571 163.655C222.661 164.625 222.601 165.735 222.571 166.125C222.451 167.355 222.031 170.345 221.031 170.915V170.635C220.811 171.145 220.521 171.625 220.151 172.035C219.961 172.325 219.791 172.625 219.631 172.945C219.531 173.225 219.391 173.485 219.241 173.735C218.981 174.855 218.611 175.945 218.041 177.005C217.791 177.475 217.181 177.515 217.061 177.895C216.791 178.775 216.911 180.745 216.671 181.835C216.451 182.835 215.671 184.195 215.411 185.205C214.991 186.835 214.501 191.055 213.531 192.115C213.271 192.405 212.721 192.295 212.461 192.585C211.461 193.695 210.481 195.245 209.141 196.515C207.311 198.255 203.021 202.195 200.731 202.605C199.971 202.745 198.951 202.535 198.381 202.725C197.691 202.955 197.861 204.345 197.261 204.695C196.861 204.925 196.221 204.795 195.741 205.025C192.451 206.625 186.901 210.965 184.061 211.855C182.901 212.225 181.321 212.005 180.171 212.595C178.401 213.505 178.261 215.245 178.141 216.995L181.111 219.625C182.741 219.545 183.951 218.375 185.691 218.395C186.021 218.395 189.321 219.225 189.611 219.355C190.091 219.575 190.481 220.795 191.011 221.205C191.881 221.885 194.461 222.995 195.581 223.055C197.861 223.165 201.281 223.165 203.591 223.055C206.611 222.905 209.871 221.955 212.851 221.825C215.031 221.725 214.101 222.025 216.381 221.345C217.031 221.155 220.371 220.315 220.731 220.455L222.591 222.025C222.261 224.065 221.911 226.115 221.631 228.165C221.541 228.845 221.861 229.555 221.801 230.015C221.601 231.525 220.401 233.475 220.771 235.175C221.151 236.935 223.921 237.915 225.421 238.445C230.141 235.605 231.021 230.035 233.301 225.625C234.971 222.395 238.141 217.775 240.211 214.635C243.611 209.475 247.551 204.795 251.941 200.445C253.261 198.365 251.591 195.655 251.841 193.575C251.971 193.425 255.171 192.055 255.501 191.975C257.961 191.405 260.671 191.055 263.081 190.565C263.681 190.445 264.761 189.315 265.471 188.985C266.061 188.715 269.391 187.615 269.771 187.885C268.971 190.315 266.571 192.655 266.401 195.175C266.181 198.335 269.031 198.075 270.991 199.475C271.391 199.755 274.401 202.215 274.551 202.395C275.161 203.115 274.881 203.885 275.101 204.615C275.381 205.545 276.281 205.485 275.471 206.685C275.161 207.135 273.931 208.105 273.441 208.375C270.301 210.115 264.171 209.615 260.401 210.145C258.171 210.465 255.981 211.205 253.731 211.495C253.261 212.195 252.541 212.755 252.451 213.635C252.341 214.855 253.101 215.275 253.121 216.095C253.141 216.845 252.881 221.825 252.741 222.235C252.571 222.735 251.731 222.905 251.381 223.345C250.331 224.625 248.851 227.115 248.771 228.785C248.631 231.945 250.801 231.185 251.251 233.555C249.591 233.235 249.561 234.995 248.251 235.645C247.201 236.165 245.451 236.315 244.391 236.715C243.491 237.065 236.501 241.195 235.711 241.865C234.571 242.835 234.711 242.765 233.191 243.725C231.341 244.905 229.851 246.455 227.801 247.355C228.231 248.675 227.051 249.485 226.891 250.385C226.571 252.145 226.691 254.155 226.121 256.095C225.451 258.355 223.031 258.235 223.941 261.645C224.431 263.495 227.071 264.715 228.801 264.335C229.781 264.115 232.591 261.885 233.701 261.205C234.511 260.705 236.441 260.065 237.191 259.445C237.461 259.215 239.011 256.305 239.161 258.785C239.171 258.995 238.261 261.975 238.141 262.245C237.841 262.865 236.321 263.745 236.221 264.295C236.151 264.665 236.501 265.305 236.401 266.025C236.131 268.125 234.191 272.545 233.241 274.625C233.101 274.925 233.291 275.335 233.191 275.535C232.551 276.815 229.551 276.205 230.371 279.605C230.851 281.625 232.131 282.185 232.971 283.325C233.591 284.175 234.131 285.395 234.871 286.245C234.771 288.195 232.461 288.265 231.241 288.965C230.571 289.345 229.541 290.665 228.831 290.875C226.011 291.745 223.561 291.475 220.731 293.575C220.231 293.945 220.091 294.715 219.591 294.895C217.581 295.615 214.361 296.065 212.121 296.625C207.841 297.695 205.151 298.975 200.531 299.265C198.891 299.365 197.641 300.395 196.041 300.195C196.171 299.835 196.361 299.525 196.371 299.115C196.431 296.665 196.421 294.855 195.641 292.425C195.431 291.785 194.661 291.125 194.591 290.445C194.331 287.825 196.141 281.415 197.771 279.245C199.011 277.585 201.111 276.585 202.531 274.745C202.961 274.195 202.911 273.425 203.461 272.905C204.051 272.345 205.181 272.265 205.821 271.875C207.291 270.995 208.601 269.825 210.261 269.215C210.841 268.465 210.571 266.395 210.161 265.555C210.061 265.345 207.551 262.225 207.281 261.955C206.961 261.625 206.351 261.645 206.071 261.315C205.611 260.785 205.411 258.815 204.681 257.775C203.611 256.245 199.911 254.185 199.591 253.605C199.281 253.045 199.321 251.455 198.971 250.525C198.621 249.605 197.221 247.985 197.031 247.205C196.981 246.995 196.661 243.195 196.671 242.975C196.701 242.455 197.171 242.105 197.131 241.545C196.951 238.945 195.611 238.675 194.081 237.515C192.141 236.035 192.581 236.475 190.571 235.475C185.101 232.745 179.671 230.425 174.041 227.635C171.621 226.435 169.751 225.735 167.291 224.815C164.211 223.675 160.451 221.795 158.691 218.905C158.311 218.275 158.341 217.585 157.921 216.905C156.151 214.025 154.301 214.155 153.321 209.825C153.051 208.635 151.481 205.905 151.381 205.275C151.301 204.725 151.801 204.085 151.551 203.225C151.501 203.055 149.691 200.295 149.521 200.235C148.201 200.405 146.381 199.065 145.261 199.895C145.091 200.015 142.731 202.745 142.531 203.025C141.491 204.565 140.681 207.485 139.531 208.975C139.041 209.615 137.971 209.925 137.811 210.185C133.801 216.505 129.391 219.725 123.021 223.625C121.061 224.825 118.521 224.125 116.281 224.295C113.701 224.485 112.921 225.115 109.831 224.585C109.271 224.485 108.891 223.925 108.281 223.975C107.701 224.025 107.331 224.725 106.791 224.985C106.291 225.225 105.701 225.175 105.161 225.515C103.641 226.495 104.071 229.315 104.551 230.775C104.891 231.805 105.851 232.455 106.111 233.225C106.331 233.885 106.181 234.695 106.451 235.335C106.641 235.785 107.261 235.765 107.421 236.225C108.631 239.605 106.101 244.925 105.101 248.295C104.321 250.935 104.191 252.365 102.981 255.115C102.221 256.845 102.681 256.285 102.411 257.625C102.241 258.475 100.981 261.605 101.071 262.045C101.101 262.185 102.111 263.485 102.541 263.955C105.391 264.225 108.191 265.175 110.351 266.905C113.711 268.435 116.721 270.865 119.711 273.125C123.261 275.795 125.961 278.545 128.241 281.915C129.421 282.925 130.421 284.095 131.151 285.435C131.901 285.995 132.621 286.585 133.261 287.245C133.751 287.745 137.271 292.085 137.361 292.405C137.531 292.995 137.311 293.655 137.441 294.175C138.051 296.675 138.701 298.745 138.351 301.445C137.881 301.895 135.131 300.445 134.421 300.285C132.851 299.925 130.721 300.155 129.261 299.895C126.511 299.385 120.981 297.965 118.231 297.035C113.231 295.345 107.711 294.295 102.701 292.195C101.641 291.755 99.9214 290.355 98.9314 290.105C97.9514 289.855 97.0614 290.145 95.9014 289.735C91.6814 288.265 87.4214 285.475 83.4014 283.725C82.0214 283.125 81.5314 283.315 79.9114 282.265C75.4814 279.395 69.2114 275.915 65.0614 272.135C64.3914 271.525 64.0014 270.395 63.2314 269.645C62.3814 268.825 61.2714 268.485 60.4614 267.785C58.6914 266.235 58.1914 264.325 55.9314 262.745C54.6914 261.875 54.6114 261.755 53.5114 260.845C52.9014 260.345 51.8814 260.035 51.4614 259.505C50.9714 258.885 51.1514 258.295 50.9614 258.005C50.8114 257.775 47.4514 255.875 46.6714 254.705C46.2914 254.135 46.8214 253.715 46.4414 253.135C45.3914 251.535 40.6314 248.665 39.7914 247.125C39.3814 246.365 39.5714 245.455 38.8214 244.375C38.1914 243.475 37.2614 243.195 36.6714 242.515C34.6814 240.265 33.2514 237.425 31.7014 234.815C30.5114 232.805 29.7814 231.545 28.3814 229.505C25.8514 225.835 23.1014 220.145 22.2614 215.875C21.8114 213.585 21.0414 211.155 20.3314 208.855C19.8114 207.165 18.0414 204.735 17.9914 203.455C17.8414 199.755 17.7214 200.865 16.2414 197.825C14.7214 194.715 14.9014 189.335 14.3214 185.865C14.2114 185.185 14.4514 184.335 14.3214 183.775C14.2414 183.445 13.5414 183.465 13.4214 183.065C12.8114 180.995 13.3814 176.885 12.2114 174.705L12.4514 171.675C13.2314 171.385 14.0914 171.465 14.8514 171.765C15.1014 171.865 18.8214 174.645 19.1014 174.925C21.6114 177.475 21.6414 181.915 22.7914 184.805C23.1114 185.605 23.9214 185.965 24.1214 186.565C25.5014 190.725 26.6514 195.255 28.0614 199.285C29.5514 203.525 31.0014 208.035 32.1314 212.485C32.6914 214.695 31.8914 219.075 34.6514 219.835C38.8414 220.985 41.8614 218.685 45.7814 218.255C47.4514 219.935 46.3014 221.825 46.3714 223.515C46.4014 224.265 46.9214 224.755 46.9914 225.385C47.1514 226.855 46.8014 228.565 47.0314 229.975C47.4014 232.295 49.2714 235.575 49.7114 238.405C50.1014 240.955 48.9414 242.525 50.4514 245.065C52.1214 247.865 52.4414 248.635 53.6514 251.735C54.0014 252.635 55.1114 254.105 55.2714 254.745C55.4714 255.525 55.2014 256.355 55.4014 257.075C55.5614 257.635 56.5114 258.055 56.7414 258.815C57.0314 259.735 56.6914 260.695 57.0414 261.595C57.1214 261.805 58.5314 263.525 58.7314 263.615C59.3614 263.885 60.0914 263.615 60.5114 263.845C60.9814 264.095 62.0914 265.965 62.7614 266.375C63.0614 266.555 69.0414 268.635 69.3914 268.695C72.7114 269.245 74.6714 267.785 74.0214 264.375C73.6614 262.515 72.2514 259.355 71.6114 257.225C70.7314 254.285 69.0814 249.065 69.2414 246.055C69.3814 243.385 71.4014 245.325 72.2214 245.515C73.4014 245.785 74.5214 245.335 75.7914 245.955C77.5714 246.815 77.7214 248.965 78.9414 249.905C79.4114 250.265 81.4814 251.035 82.0614 251.115C84.0414 251.395 87.3214 249.075 86.7614 247.045C86.7214 246.915 85.6014 244.825 85.5114 244.735C84.9514 244.175 83.6614 243.975 82.9914 242.775C82.0314 241.065 81.7214 236.685 81.2014 235.765C81.1514 235.685 80.1414 235.115 79.7314 234.615C79.2014 233.965 76.0414 229.385 75.8814 228.895C75.3714 227.315 74.2614 223.245 74.1514 221.675C73.9114 218.245 74.7614 215.035 74.8114 211.785C74.8414 209.515 73.5514 206.135 76.1114 204.465C77.5014 203.555 81.3814 202.305 82.9814 202.075C89.1814 201.205 94.5714 201.235 100.361 198.475C101.131 198.115 101.831 197.345 102.581 196.995C104.981 195.885 110.341 195.055 111.641 192.795C111.891 192.365 111.741 191.735 111.981 191.285C113.601 188.205 113.541 188.095 114.361 184.715C114.801 182.935 115.771 181.105 115.451 179.145C115.191 177.485 113.341 175.615 111.581 175.605C110.941 175.605 108.121 177.275 107.371 177.725C106.511 178.245 105.071 179.755 104.161 180.065C103.481 180.305 95.0214 181.345 94.5114 181.235C88.6014 179.955 83.1014 176.315 79.8814 171.175C78.8114 169.465 78.8114 168.005 80.0214 166.395C81.3114 164.675 82.5114 162.245 84.0314 160.545C84.7214 159.775 86.4614 158.655 86.9614 157.605C87.3814 156.725 85.6814 154.085 84.9514 153.755C84.1514 153.395 83.2314 153.745 82.4014 153.525L77.0714 151.135C76.4114 149.845 79.3314 147.925 79.1014 145.425C79.0414 144.835 77.9514 142.155 77.6214 141.655C77.0714 140.825 75.2914 140.215 76.0714 138.855C76.1714 138.685 78.8214 136.785 79.1814 136.575C80.5014 135.805 84.7914 134.385 85.5714 133.695C86.4814 132.885 85.6114 133.295 87.2814 132.335C91.5414 129.885 97.6614 124.825 103.071 127.315C106.301 128.805 108.721 129.555 112.221 130.195C113.091 130.355 115.431 131.065 115.971 131.055C116.731 131.055 119.801 129.605 120.061 128.705C121.071 125.275 116.201 122.995 114.731 120.265C114.471 119.785 114.691 119.145 114.501 118.805C114.381 118.605 112.291 116.955 111.981 116.545C111.641 116.105 109.141 112.295 109.071 112.035C108.821 111.185 109.481 110.435 109.291 109.705C109.151 109.195 108.281 108.765 107.971 108.225C107.541 107.465 107.101 101.015 107.281 100.025C107.451 99.0748 108.251 98.0848 108.631 97.2048C108.941 96.4848 108.871 95.6548 109.631 94.8648C107.841 93.5848 107.661 91.0448 106.701 89.4448C106.351 88.8648 103.901 87.6948 103.171 87.4248C100.151 86.2948 100.141 86.8448 97.4614 84.4948C96.9814 84.0748 94.0214 81.1448 93.9714 80.8748C93.8814 80.4548 94.2314 80.0248 94.2014 79.6848C94.1614 79.2248 93.7014 78.9648 93.6914 78.5248C93.6914 78.3648 94.2414 75.5848 94.2914 75.4348C94.5014 74.8848 95.1714 74.8648 95.4814 74.4648C96.0214 73.7548 96.4214 72.8448 97.0214 72.0748C97.4614 71.5048 98.9214 70.4148 99.1114 69.7648C100.031 66.7248 97.5714 64.7248 94.6914 65.0348C93.1214 65.2048 91.4114 66.3748 89.9314 66.7548C85.4314 67.9148 80.8014 67.8848 76.4214 68.6748C72.2414 69.4348 69.4814 69.2648 65.4014 69.3548C64.3014 69.3748 62.7414 70.0648 61.6814 70.0048C60.7614 69.9548 59.8214 68.9048 58.5714 68.7648C56.4114 68.5248 55.9714 69.3748 53.7214 67.7648C52.0614 66.5748 52.3914 66.0448 53.5214 64.5848C54.4614 63.3748 57.8414 61.3048 58.0714 60.9548C58.2314 60.7148 58.1214 60.1148 58.4314 59.6248C59.1814 58.4048 61.3414 57.3448 62.1614 56.2448C64.4214 53.2048 67.0314 51.3548 69.9014 48.8648C77.8914 41.9248 86.0814 35.5248 95.1914 30.0348C97.0814 28.8948 99.4514 28.0348 101.141 27.0348C101.801 26.6448 102.411 25.5948 102.891 25.3848C104.121 24.8548 107.221 23.5048 108.381 23.1648C109.471 22.8448 110.961 22.9348 111.821 22.5948C112.971 22.1348 114.241 20.1348 115.251 19.5448C115.941 19.1348 116.981 18.9848 117.781 18.6748C121.521 17.2248 125.671 16.3048 129.501 14.9748C130.641 14.5748 133.211 12.8648 134.591 12.6248C134.731 12.6048 134.851 12.5948 134.971 12.6048C135.141 12.5448 135.311 12.4848 135.481 12.4348C135.651 12.3948 135.811 12.3748 135.971 12.3548C136.421 12.2348 136.901 12.1548 137.441 12.1648C140.351 12.1848 143.331 11.3048 146.231 10.9548C147.981 10.7448 149.731 10.5748 151.491 10.4548C152.211 10.2548 152.991 10.0948 153.891 9.99478C165.551 8.68478 181.091 10.0548 192.121 13.5848C195.701 14.7348 199.211 15.2248 202.851 17.0448C211.481 21.3748 220.901 23.4748 229.411 28.1348C233.331 30.2848 237.101 31.5848 241.001 33.8248C245.211 36.2448 249.171 39.0148 253.161 41.7248C259.041 45.7048 264.361 51.8948 268.701 57.6648C271.561 61.4648 274.021 66.6548 276.041 70.9948C276.551 72.0848 278.841 77.3748 278.771 78.1548C278.651 79.5748 274.701 79.2848 273.681 79.2248L273.651 79.2648Z" fill="#D0FFCD" fill-opacity="0.7"/>
</svg>
