<svg width="456" height="442" viewBox="0 0 456 442" fill="none" xmlns="http://www.w3.org/2000/svg">
<g clip-path="url(#clip0_320_426)">
<path d="M428.233 331.325C428.728 329.752 429.756 328.361 431.343 327.62C433.308 324.825 434.856 321.107 436.496 318.481C437.25 317.272 439.267 315.868 440.061 314.62C441.583 312.255 442.273 307.458 443.548 305.989C444.186 305.248 445.005 305.404 445.643 304.949C447.386 303.688 448.388 297.422 448.779 297.137H449C449.026 296.942 449.052 296.76 449.091 296.565C448.779 296.565 448.753 296.643 448.792 295.993C448.883 294.121 450.119 291.092 450.522 289.077C451.043 286.425 451.095 282.421 451.628 280.056C451.849 279.068 452.851 278.457 453.085 277.222C453.437 275.324 453.697 272.23 453.879 270.202C454.022 268.72 453.411 264.911 454.439 264.118C454.452 264.105 454.491 264.092 454.517 264.079C454.53 263.845 454.556 263.598 454.595 263.365H454.282C454.79 257.931 454.907 252.263 454.842 246.764C454.816 245.101 454.243 243.138 454.243 241.682C454.243 239.862 455.271 236.261 455.375 233.869C455.401 233.141 454.608 231.737 455.401 231.165C455.44 230.879 455.493 230.606 455.558 230.32C455.128 229.839 455.87 228.748 455.857 227.994C455.766 220.233 456.039 212.187 455.818 204.192C455.766 202.398 456.247 200.695 455.831 198.901H455.883C455.857 198.576 455.844 198.251 455.857 197.926H455.414L451.511 167.443L451.745 167.209C451.68 166.819 451.641 166.416 451.641 166.026H451.589C450.873 165.207 451.485 163.946 451.316 163.296C449.546 156.368 447.998 149.296 446.749 142.134C446.411 140.171 445.226 138.26 445.565 135.894C445.37 135.335 445.239 134.75 445.187 134.165C444.251 133.606 444.693 132.397 444.407 131.591C443.821 129.979 443.093 128.445 442.637 126.717C441.661 123.025 440.1 120.555 438.369 116.928C436.873 113.782 435.728 110.649 434.648 107.361C434.323 106.386 433.672 105.567 433.347 104.618C433.126 104.267 432.905 103.903 432.683 103.552H432.579C429.964 100.237 427.375 96.7013 425.202 93.1395C423.627 90.5527 420.999 86.4579 419.568 83.7281C418.813 82.2852 418.475 79.9843 417.681 78.5804C417.278 77.8654 413.518 74.5246 413.934 73.5757C413.791 73.2637 413.661 72.9387 413.57 72.6137C413.544 72.6137 413.518 72.6137 413.478 72.6137C411.631 69.9879 409.146 68.7659 406.739 66.8291C405.099 65.5031 404.982 65.9971 403.98 65.2951C401.963 63.8782 398.437 58.3666 396.59 56.6507C391.944 52.3349 386.193 48.7991 381.561 44.3144C381.301 44.0544 380.898 43.8724 380.781 43.5214C380.481 43.2484 380.221 42.9365 379.987 42.6115C379.922 42.6115 379.844 42.6115 379.779 42.5855C379.037 42.4425 377.111 40.7526 376.305 40.1806C369.5 35.4359 361.511 29.1833 353.522 25.4525C345.012 21.4877 334.954 18.6019 325.924 16.301L322.424 15.0271C321.097 14.8191 319.809 14.3641 318.638 13.7272C318.417 13.7402 318.209 13.7662 317.974 13.7662C316.049 13.7662 314.578 13.0772 313.537 12.0243C310.206 11.2573 305.665 9.85341 303.31 9.20345C296.141 7.22757 283.247 1.6639 276.507 1.5729C272.681 1.5209 270.391 1.18292 266.761 0.883942C261.296 0.415969 255.22 1.6509 249.547 1.19592C247.361 1.02693 244.707 0.0259921 242.495 -6.34741e-06C240.751 -0.0130056 239.034 0.844944 237.407 0.844944C229.926 0.818945 222.34 -0.181996 214.793 0.181983C209.446 0.441968 207.767 2.00188 201.756 1.35191C196.877 0.831945 190.202 2.49585 185.179 3.3278C171.543 5.58966 157.348 6.7336 143.634 9.50243C140.641 10.1004 139.21 10.4774 137.726 10.6984C137.206 11.1663 136.581 11.5433 135.866 11.8033C134.747 13.2332 132.379 12.7002 130.817 13.1032C129.022 13.5712 126.68 14.7151 124.481 15.3651C123.101 15.7811 121.553 17.9519 120.252 18.5629C116.362 20.3698 112.211 22.7227 108.425 25.1015C100.318 30.1842 93.045 36.2809 85.2641 41.8185C85.16 41.8185 85.0429 41.8185 84.9388 41.8185C84.7176 42.1435 84.4704 42.4425 84.1842 42.7285C83.8589 43.4304 83.0912 44.1584 82.5577 44.5874C77.9647 48.2792 72.9683 51.7759 68.8046 56.0527C63.7822 61.2134 59.7877 67.466 54.9214 72.7957C54.7002 73.2507 54.4269 73.6927 54.1017 74.0826H54.1927C54.0366 74.1996 53.8805 74.3296 53.7373 74.4726C53.6853 74.5246 53.6202 74.5896 53.5682 74.6416C52.4622 75.7985 51.6945 77.5404 50.7577 78.8663C46.3078 85.106 41.8318 90.6307 38.0065 97.3903C37.434 98.4042 36.0808 101.784 34.9748 103.578C34.8187 104.28 34.5714 104.943 34.2071 105.554H34.2462L20.1938 136.947C20.1547 137.298 20.0897 137.649 19.9856 137.987H20.1547C20.0506 138.325 19.8425 138.598 19.6603 138.91C19.6213 138.988 19.5822 139.066 19.5432 139.144C19.5042 139.235 19.4651 139.326 19.4521 139.43C18.6324 143.642 17.3833 148.997 16.0561 153.222C15.3145 155.575 13.2196 159.306 12.8163 161.308C12.3348 163.699 12.8423 166.637 11.6452 169.042C11.6452 170.329 11.3069 171.616 10.6433 172.695C7.62468 182.418 5.75103 192.441 4.51494 202.567C0.065019 223.249 -1.34022 246.829 1.39219 268.668C2.06879 274.089 4.09858 280.653 4.52795 285.853C4.71011 288.05 4.11159 290.533 4.2417 292.392C4.34579 293.952 6.02427 296.994 6.46666 298.761C6.89604 300.477 7.03917 302.271 7.27337 304.013L5.712 304.403C10.0969 304.104 9.49833 310.695 10.5002 313.88C11.7103 317.714 14.4947 323.655 16.2903 327.555C16.4334 327.867 17.045 327.867 17.045 328.088C17.045 328.582 16.5245 329.206 16.6416 329.934C16.6807 330.181 17.2402 330.194 17.3963 330.506C18.0469 331.792 18.4502 333.352 18.9967 334.626C19.0878 334.847 19.7254 334.834 19.7904 335.159C19.9335 335.861 19.5692 336.875 19.5952 337.642L17.045 338.396C19.9986 338.045 20.6492 338.812 21.8202 341.256C24.7998 347.496 28.2739 355.074 31.748 361.028C32.4896 362.302 35.6644 364.382 36.4841 365.487C36.9916 366.175 37.2128 367.917 37.9935 368.866C38.6701 369.698 39.8931 370.088 40.5177 371.037L39.737 371.817C42.1441 372.519 42.5995 374.482 43.8877 375.886C46.607 378.85 46.8543 378.967 48.871 382.438C49.3785 383.308 51.2912 384.127 51.8377 384.738C52.5403 385.492 52.8005 386.831 53.8024 387.858C55.1035 389.197 57.4976 390.12 58.7077 391.16C59.6576 391.979 60.6334 393.981 61.6093 394.904C64.0554 397.244 67.5685 399.779 70.2229 401.936C70.8995 402.482 74.0222 404.991 73.3847 405.628L72.2136 406.018C74.2564 405.927 76.1431 407.058 77.9387 407.916C82.5838 410.152 86.9556 413.116 91.4966 415.482C91.8609 415.677 92.4595 415.391 92.4985 415.443C92.6416 415.612 92.5636 416.34 92.9149 416.781C93.5264 417.561 99.2515 418.848 101.047 420.005C102.27 420.798 102.504 421.903 103.519 422.618C105.237 423.814 108.373 424.256 110.285 425.621C110.962 426.102 111.873 427.493 111.99 427.519C113.733 427.922 116.843 427.831 118.782 428.455C119.732 428.767 119.784 429.729 120.213 429.846C128.696 432.329 138.234 434.421 146.795 435.942C150.907 436.67 155.032 436.28 159.078 437.463L159.039 438.438C161.863 438.672 165.076 438.139 167.848 438.438C170.489 438.724 173.105 439.309 176.058 439.621C185.661 440.622 195.901 442.481 205.412 441.597C210.018 441.168 214.481 442.312 218.684 441.961C225.398 441.402 232.489 438.022 239.411 439.231C248.051 437.723 257.341 437.671 265.421 434.733C271.198 432.641 278.133 432.745 284.301 431.328C295.582 428.728 306.407 423.489 317.441 419.888C326.028 417.08 333.796 414.871 341.798 411.413C348.434 408.54 354.302 404.978 361.12 402.183C362.226 401.728 363.671 400.428 364.269 400.246C364.972 400.025 368.498 399.908 368.68 399.765C368.641 399.233 368.212 398.934 368.654 398.414C370.306 396.529 374.873 393.747 377.072 391.94C382.446 387.546 387.638 382.983 392.933 378.486C396.199 375.717 398.88 369.165 402.093 366.149C403.004 365.292 403.733 364.863 405.047 364.993C404.123 363.498 405.581 363.641 406.218 362.848C407.077 361.782 407.688 360.378 408.573 359.338C410.239 357.375 412.945 356.374 414.22 354.424C416.445 351.044 418.423 345.936 420.908 342.348C421.884 340.944 423.901 339.345 424.759 337.993C425.631 336.628 426.893 332.364 428.273 331.337L428.233 331.325ZM365.896 36.3719C364.516 36.5668 363.514 35.3319 362.252 34.7469C359.572 33.486 357.035 32.4721 354.445 30.8342C352.624 29.6772 350.36 28.3123 349.085 26.6224C355.356 28.5203 360.743 32.5111 365.896 36.3849V36.3719ZM345.546 25.0495L345.35 25.8295C343.997 25.6345 342.293 25.1925 341.642 23.8796L345.546 25.0495ZM9.62845 220.974C9.73254 212.641 12.8163 203.1 14.0784 194.586C14.4557 192.025 16.0171 189.867 16.4074 187.891C16.8108 185.863 16.2903 182.691 16.6546 180.754C17.8517 174.437 20.2979 168.145 21.625 161.892C22.1065 159.644 22.1585 157.057 22.692 154.743C23.863 149.634 26.4263 144.798 28.1958 139.807C28.1828 139.248 28.2479 138.689 28.417 138.13C28.443 138.039 28.4691 137.948 28.4951 137.857C28.5862 137.623 28.6903 137.389 28.7943 137.155H28.7683C29.6141 134.581 31.0974 132.228 32.0862 129.732C32.6067 128.419 32.7628 126.847 33.1922 125.755C36.0287 118.761 39.2556 112.053 43.5103 105.879H43.6534C43.8877 105.398 44.1739 104.943 44.5252 104.54H44.4211L54.1927 89.6817L55.2337 88.9928C58.4605 83.5331 63.1707 79.6203 66.3064 74.0696H66.5797C66.8139 73.6017 67.1001 73.1727 67.4384 72.7827C67.7767 71.6778 69.4812 69.8449 69.9626 69.3249C73.0854 65.9581 76.7546 62.8903 79.9034 59.5235C82.7009 57.8986 84.5355 58.9385 87.2289 59.0295C92.5245 59.1985 97.3908 59.1465 102.673 60.7974C104.274 61.2914 106.122 62.5913 107.67 62.8383C110.584 63.3193 113.889 63.3193 116.856 64.2162C118.847 64.8142 126.081 67.947 127.695 69.0129C131.637 71.6648 136.048 79.2433 134.981 84.0141C134.226 87.3939 129.438 91.1506 126.419 92.6845C121.709 95.0894 116.427 94.4004 111.821 95.6484C110.519 95.9994 103.831 98.5602 102.791 99.1712C101.971 99.6521 100.422 101.667 99.4336 102.252C97.2867 103.526 95.2179 103.799 93.3312 105.931L93.6435 106.997C91.7438 108.973 87.9445 115.849 87.8014 118.605C87.7233 120.256 88.7382 123.064 88.5951 124.429C88.517 125.157 87.7623 125.443 87.8274 126.73C88.1267 132.371 92.7978 134.711 96.7533 137.584C97.3388 137.805 97.9113 138.026 98.4968 138.234C98.783 138.26 99.0953 138.26 99.3816 138.286C101.515 138.481 103.246 139.664 105.237 139.859C107.201 140.041 109.687 139.144 111.964 138.637C112.77 138.104 113.59 137.701 114.449 137.311C114.761 136.206 116.778 135.894 117.754 135.179C120.135 133.45 121.033 131.929 122.646 129.992C123.908 128.484 130.544 123.35 132.34 122.804C137.219 121.296 141.656 123.701 142.697 128.627C144.115 131.253 144.284 134.906 144.935 137.922H144.87C144.909 138.182 144.948 138.442 144.961 138.702C145.52 141.484 147.017 144.59 147.589 147.19C147.719 147.775 148.084 150.492 148.057 150.986C148.018 151.623 145.208 157.46 144.844 157.746C144.362 158.123 142.684 158.149 141.916 158.513C137.375 160.684 129.867 163.361 125.964 166.039C124.858 166.793 123.505 168.99 122.477 169.588C121.579 170.108 120.603 169.757 119.914 170.55L120.694 171.317C119.12 173.098 118.391 175.49 116.947 177.349C114.215 180.871 106.408 183.614 102.075 184.381C95.296 185.577 93.045 182.678 85.9277 187.007C83.4685 188.502 76.039 194.001 74.3345 196.132C72.8642 197.965 72.5129 199.486 70.1968 200.981C65.9031 203.75 61.0888 202.931 56.4828 204.855C43.6014 210.25 41.6627 219.687 46.0736 232.205C46.6331 233.791 48.1424 234.493 46.3859 236.378C46.9584 236.404 47.4138 236.716 47.7521 237.171C52.1499 242.995 48.1164 254.473 50.7057 261.961C51.3953 263.962 54.2578 267.043 55.7541 268.629L53.8024 269.604C56.9251 269.396 58.8639 272.802 61.6483 274.076C65.825 275.974 74.0352 277.716 78.5762 277.378C81.1395 277.183 83.6897 276.104 86.0578 275.87C88.1657 275.662 90.5338 275.987 92.6937 275.87C99.863 275.48 106.135 274.882 112.536 279.016C114.8 280.471 116.127 282.629 117.754 284.436C118.678 285.463 120.499 286.061 121.215 286.841C122.282 287.998 125.027 294.485 125.522 296.214C125.899 297.513 127.161 301.231 125.73 301.478C127.304 303.129 127.656 308.121 127.656 310.513C127.656 313.49 125.105 320.743 123.505 323.447C118.886 331.286 115.256 339.878 111.079 348.185C108.75 352.799 108.464 354.515 106.772 359.117C106.004 361.197 104.118 363.927 103.545 366.045C103.207 367.267 103.701 368.71 103.454 369.802C103.389 370.101 102.713 370.036 102.726 370.231C102.895 374.079 101.385 374.014 100.8 376.588C100.344 378.577 101.294 380.605 100.956 382.191C100.8 382.905 100.188 383.594 99.9541 384.348C99.5507 385.674 99.4727 388.872 97.5339 388.638C96.9224 388.56 93.5915 385.583 93.058 384.933C92.2383 383.932 92.1212 382.866 91.4576 381.892C90.0003 379.76 87.1378 378.603 85.2641 377.095C82.1154 374.586 79.6952 371.583 76.5464 369.282C68.0369 363.069 67.4124 362.185 61.6093 353.54C61.0107 352.656 58.8508 351.226 58.3044 350.498C56.3266 347.847 53.4901 340.632 52.9697 337.46C51.7466 329.986 49.1443 322.524 48.2855 314.789C47.9212 311.449 48.7539 306.938 48.2725 303.09C47.9342 300.477 46.4249 297.799 46.0476 295.941C45.7873 294.667 46.1647 293.315 45.9435 292.145C44.9025 286.542 39.0474 273.946 35.0008 269.864C34.5975 269.461 33.7908 269.422 33.2703 268.863C32.7108 268.278 30.8892 265.405 30.5249 264.573C28.9895 261.142 29.7702 257.71 29.0676 254.317C28.4951 251.574 27.5322 247.7 26.7646 244.893C24.9299 238.185 21.6771 229.8 15.1583 226.317C13.8442 225.615 9.58942 225.082 9.26413 224.081C8.97788 223.21 9.61544 222.014 9.62845 221.013V220.974ZM316.725 402.378C316.517 403.21 315.866 405.979 315.853 406.616C315.827 407.838 317.09 408.709 316.452 409.905C309.829 412.414 303.024 414.208 296.297 416.34C288.282 418.887 279.747 421.201 271.562 423.268C269.428 423.801 266.969 425.79 265.317 423.047C263.769 420.473 261.999 413.883 261.83 410.854C261.531 405.212 261.908 399.753 261.478 394.059C260.984 387.611 259.982 377.68 256.937 372.025C254.465 367.423 248.168 361.119 244.472 357.128C242.065 354.528 240.27 353.787 237.98 351.889C235.312 349.679 235.638 348.977 232.177 347.132C226.426 344.077 218.593 338.279 212.282 337.304C209.459 336.875 206.934 337.395 204.007 336.186C202.602 335.614 201.3 333.976 200.351 333.586C198.711 332.91 197.215 333.287 195.38 331.909C190.293 328.075 189.707 325.462 187.821 319.924C186.337 315.53 184.984 313.269 185.622 308.147C186.832 298.436 193.858 281.914 200.233 274.297C201.496 272.789 206.414 268.746 208.053 268.629C212.79 268.304 216.914 267.225 221.377 266.887C227.154 266.445 235.182 267.758 240.517 266.861C240.985 266.783 241.441 266.627 241.506 266.094L240.335 265.704C242.378 265.314 244.238 264.066 246.242 263.598C247.673 263.273 248.974 263.442 250.419 263.092C253.346 262.377 257.224 258.867 260.88 258.308C264.992 257.671 267.438 259.933 270.391 262.429C274.282 265.717 275.583 269.162 280.397 271.58C288.881 275.857 297.52 274.921 305.444 281.719C306.095 282.278 306.498 283.175 306.941 283.552C310.597 286.62 314.813 288.544 317.844 292.379C318.065 296.084 320.043 300.373 320.446 303.844C320.824 307.107 320.811 307.783 321.565 310.929C323.374 318.481 322.763 320.587 326.913 327.464C327.993 329.245 328.462 331.052 329.398 332.806C330.673 335.172 330.179 333.781 331.467 335.016C331.975 335.51 335.423 339.813 335.566 340.307C335.839 341.282 335.891 346.352 335.67 347.444C334.85 351.629 332.391 358.428 330.934 362.666C328.357 370.166 324.675 378.161 321.552 385.349C318.95 391.355 318.235 396.074 316.686 402.352L316.725 402.378ZM385.738 333.417C384.853 338.656 378.426 343.336 381.223 349.445C381.809 350.719 384.437 353.579 384.645 354.619C384.905 355.958 384.164 362.38 383.851 363.966C383.461 365.915 382.173 368.268 381.639 370.361C380.768 373.793 381.874 375.054 378.491 377.485C373.794 380.865 369.422 384.465 364.725 387.858C356.553 393.773 346.248 398.258 337.049 402.417C334.564 403.548 332.157 404.926 329.62 405.953L328.722 405.42C329.086 402.326 328.24 398.206 328.722 395.268C330.335 385.492 336.034 377.42 339.079 368.099C340.575 363.524 341.772 358.636 343.308 353.956C344.375 350.719 347.51 344.038 347.523 340.957C347.523 338.708 343.828 330.506 342.488 328.374C339.664 323.889 334.525 319.092 332.443 314.179C328.761 305.482 332.183 295.512 327.304 286.88C326.211 284.93 317.779 275.597 315.931 274.401C311.521 271.554 303.206 269.474 298.106 267.979C297.026 267.667 295.543 266.042 294.788 265.821C292.199 265.041 288.855 264.352 286.07 263.585C285.537 263.442 284.912 263.819 284.509 263.611C284.379 263.546 282.713 262.104 282.388 261.818C277.912 258.009 275.921 250.703 270.3 248.48C266.579 247.011 266.67 248.519 263.547 248.896C260.151 249.299 259.566 249.13 256.131 250.079C249.066 252.029 241.831 256.007 234.636 257.125C232.255 257.489 229.171 256.8 226.816 257.125C219.816 258.074 215.002 259.27 207.65 259.478C201.99 259.634 197.072 263.806 192.713 267.017C191.49 272.49 186.988 277.092 184.828 282.005C184.412 282.967 184.464 283.968 184.086 284.774C179.858 293.705 177.346 300.178 176.201 310.11C175.551 315.751 178.739 324.331 180.794 329.7C181.276 330.961 183.605 333.326 181.653 333.911C183.41 334.639 183.514 336.368 184.281 337.252C185.869 339.111 189.161 339.293 190.943 340.606C193.767 342.699 193.715 342.998 197.267 344.493C204.866 347.678 213.362 348.315 220.766 351.499C227.519 354.411 232.801 362.393 238.11 366.799C239.658 368.086 242.143 368.892 243.458 370.634C244.381 371.856 244.59 373.611 245.253 374.703C245.904 375.782 247.582 376.705 248.168 377.654C248.896 378.863 249.625 384.543 249.898 386.402C251.317 395.853 250.835 405.901 252.475 415.157C252.878 417.392 255.376 421.318 255.975 423.801C256.443 427.246 251.199 427.61 248.922 428.052C239.294 429.872 226.764 429.924 216.693 430.379C215.613 430.431 214.481 431.029 213.531 431.016C212.516 431.016 211.866 430.223 210.825 430.21C209.55 430.184 208.431 431.12 207.676 431.198C206.739 431.289 205.464 430.561 204.527 430.587C203.603 430.613 203.135 431.367 202.211 431.432C199.075 431.64 196.994 430.821 193.194 431.38C189.707 431.887 178.96 429.274 174.783 428.78C170.541 428.273 161.772 428.429 158.011 427.311C154.928 426.401 152.546 426.154 149.242 425.777C143.725 425.153 138.169 423.541 132.86 422.137C128.657 421.019 122.009 420.967 118.717 418.289C118.066 417.756 117.65 416.587 117.142 416.34C116.309 415.95 115.021 416.249 113.98 415.976C108.776 414.65 100.553 409.567 95.7384 406.85C82.9611 399.61 70.1578 390.679 59.2412 380.8C53.1128 375.262 48.4937 368.515 43.6014 362.029C39.5418 356.647 35.6514 349.523 32.0993 343.063C30.7461 340.606 30.8892 339.007 29.3538 336.433C26.6605 331.922 26.4913 328.842 24.7348 324.24C22.5749 318.572 19.6863 313.607 17.9818 307.549C17.097 304.442 17.5004 304.507 15.8349 301.556C14.2215 298.709 14.9762 298.475 14.6379 295.681C13.8832 289.428 12.8293 282.928 11.9445 276.845C11.5932 274.44 11.6713 270.943 10.7474 269.37C9.74555 267.654 10.279 257.515 9.92771 254.629C9.81061 253.641 9.30316 251.951 9.06896 250.807C8.56151 248.389 8.71765 243.658 8.83475 240.876C8.8868 239.602 9.42027 238.25 9.22509 236.859C13.5189 236.118 14.3906 240.434 15.5487 243.554C18.3852 251.21 18.9447 259.816 20.8964 267.901C21.0655 268.603 20.7663 269.5 20.8964 270.15C20.9745 270.514 24.8128 273.595 25.2162 274.115C25.7236 274.765 25.7497 275.701 26.3742 276.481C28.7553 279.432 33.1922 282.642 34.103 286.737C34.3372 287.79 34.025 288.83 34.2331 289.74C35.3912 294.992 36.9265 297.799 37.46 303.532C38.4358 314.062 39.6849 329.089 43.2371 338.968C44.6944 342.998 45.9565 346.924 47.2967 350.927C48.78 355.347 58.3694 365.24 61.3881 370.075C63.1186 372.844 64.5759 373.156 67.022 375.366C70.1838 378.226 73.4497 382.178 76.6635 384.881C78.3811 386.324 80.8272 386.948 82.3365 388.196C86.7604 391.849 87.8014 396.646 92.4985 400.701C93.7346 401.767 94.203 403.613 96.4019 403.249L95.6213 400.129C96.6752 400.129 100.917 400.324 101.008 401.481C100.449 403.587 97.8592 402.534 97.1956 404.614C97.2477 405.797 102.335 405.42 103.22 402.846C103.493 402.04 103.363 401.182 103.623 400.506C104.638 397.855 107.006 396.997 107.774 394.462C108.451 392.226 108.216 388.833 108.503 386.675C110.155 374.456 114.514 361.34 118.886 349.731C119.758 347.405 124.715 337.213 126.302 336.043C126.823 335.666 127.642 335.718 127.695 335.666C127.747 335.614 127.291 334.782 127.278 334.301C127.252 332.962 129.946 327.477 130.882 326.151C131.858 324.76 133.172 324.305 133.927 322.173C136.308 315.452 137.427 308.927 136.256 301.907C135.436 296.942 133.823 294.056 132.262 289.493C130.921 285.619 130.778 282.005 128.085 278.535C126.641 276.689 121.111 272.386 118.964 271.515C117.025 270.735 114.93 271.06 113.226 269.812C112.614 269.37 112.679 268.681 111.873 268.382C111.079 268.083 107.332 267.849 106.017 267.641C103.064 267.16 100.449 266.809 97.3908 266.484C94.0599 266.133 89.3367 266.588 85.6154 266.874C83.0001 267.069 80.9313 268.434 79.2398 268.629C74.3996 269.188 66.3715 266.991 63.1446 263.183C59.2282 258.555 60.7505 254.161 60.4252 248.714C60.3341 247.102 59.6315 244.399 59.3193 242.774C58.2914 237.314 58.8118 235.065 55.8322 229.865C54.1017 226.85 54.9994 227.786 54.505 224.523C53.9715 221.013 52.8265 221.039 54.6481 217.178C56.6779 212.875 57.4846 214.123 61.284 213.252C65.6558 212.252 68.154 211.212 72.695 210.588C76.4163 210.068 76.9238 207.403 78.9275 205.284C79.5 204.686 81.1135 203.893 81.5168 203.373C83.5987 200.734 84.1321 198.693 87.424 196.379C90.2866 194.352 90.7289 194.755 93.8257 194.183C96.5191 193.689 97.2087 193.845 99.6418 193.663C105.497 193.208 110.441 190.972 115.945 189.334C126.107 186.305 125.418 173.28 136.178 170.472C137.076 170.238 138.416 170.589 138.936 170.29C139.093 170.199 139.444 169.159 140.225 168.639C143.543 166.442 151.584 164.544 153.757 160.671C154.485 159.371 154.147 158.435 154.537 157.148C155.24 154.847 156.996 153.261 157.022 150.609C157.048 148.594 155.344 146.228 155.071 144.759C154.758 143.122 155.11 140.769 154.771 138.871C154.771 138.819 154.745 138.767 154.732 138.702C154.706 138.572 154.693 138.442 154.654 138.325C154.654 138.325 154.693 138.325 154.693 138.312C154.667 138.104 154.641 137.896 154.641 137.688C154.524 137.428 154.511 137.038 154.498 136.817C154.043 128.601 149.892 120.022 142.398 115.979C134.786 111.871 131.182 114.159 124.416 117.695C122.36 118.761 117.702 121.881 116.609 123.584C116.179 124.26 115.984 125.248 115.477 125.976C114.436 127.484 108.594 130.72 106.785 130.525C106.148 130.46 105.653 129.953 105.094 129.836C103.155 129.446 101.268 129.264 99.5117 127.99C99.3946 127.899 97.7161 126.262 97.6511 126.145C97.56 125.989 97.1826 122.947 97.1956 122.557C97.2217 121.92 97.8462 118.696 98.0414 117.929C99.1734 113.366 103.272 108.843 107.644 107.205C109.231 106.607 111.417 106.737 112.497 106.282C118.196 103.903 125.808 102.928 131.143 99.8341C134.643 97.8062 139.509 93.5295 141.916 90.2667C143.49 88.1348 143.165 87.5498 143.79 85.483C144.258 83.9101 145.364 83.2731 144.792 81.1932C144.44 79.9193 143.204 77.5664 142.71 76.2405C142.632 76.0195 142.58 75.8115 142.541 75.6035C142.293 75.0576 142.111 74.4726 142.007 73.8616C141.122 72.7697 141.161 71.1058 140.277 69.6759C137.583 65.3081 131.494 60.7454 126.862 58.4706C121.54 55.8707 116.869 55.5977 111.144 54.6358C108.307 54.1548 105.029 52.0229 101.88 51.399C99.1734 50.853 98.1715 51.321 95.8034 51.243C95.1138 51.217 91.0152 50.944 90.781 50.788C88.9724 49.5271 91.7959 48.8511 92.6937 48.0972C95.322 45.8743 98.6399 43.7164 100.683 41.2466C101.802 39.8946 104.781 39.1277 106.369 37.9188C109.192 35.7869 113.642 29.3003 117.012 28.6243C120.46 27.9354 121.722 28.0393 124.949 26.3364C132.262 22.4887 135.137 21.3577 143.347 19.3819C157.829 15.8851 171.335 13.6752 185.83 13.0902C187.951 12.0763 190.319 11.5953 192.726 11.3223L193.949 10.9324C204.944 10.3084 215.483 9.47644 226.465 9.03446C232.099 8.80048 237.915 9.63243 243.614 8.98247C247.348 8.55349 247.829 9.15146 251.434 9.41144C260.021 10.0224 268.999 8.86547 277.587 9.93141L287.619 11.7383L286.838 12.9082L293.968 14.1822C302.1 16.171 309.53 19.6678 317.337 22.4757C326.354 25.7255 335.084 29.4693 343.282 34.253C345.962 35.8259 345.91 35.7479 348.746 35.9429C349.059 35.9689 352.715 38.8677 354.38 38.5817L357.321 40.7006C357.776 40.9476 358.193 41.2466 358.544 41.5845L359.949 42.5985C359.767 42.6115 359.585 42.5985 359.403 42.6245C359.572 42.8715 359.715 43.1315 359.845 43.4044C360.079 43.4044 360.314 43.3914 360.548 43.3784C363.228 44.5094 366.169 45.2633 368.823 46.4463C370.345 47.1092 372.492 48.1752 373.911 48.9941C377.333 50.957 380.559 53.7908 383.994 55.9097L401.404 73.0947H401.339C401.482 73.1857 401.625 73.2507 401.768 73.3417C402.132 73.5757 402.445 73.8356 402.744 74.0956C403.902 74.6806 404.396 76.1365 405.359 77.1635C405.828 77.6574 406.973 77.9694 407.168 78.2814C408.079 79.7243 409.146 83.0131 410.03 84.521C412.386 88.5248 417.278 91.8656 416.835 97.3253L421.337 106.451C421.207 106.854 414.884 110.13 413.999 110.48C411.501 111.468 407.064 112.092 404.292 112.495C396.564 113.639 388.757 114.718 380.885 114.887C380.221 114.9 379.571 115.264 378.907 115.303C375.342 113.678 371.764 111.767 368.107 110.169C366.819 110.013 365.531 109.766 364.23 109.415C359.923 108.219 356.007 106.295 351.57 105.515C349.93 105.229 348.785 104.488 348.018 103.526C347.263 103.149 346.508 102.759 345.728 102.395C345.389 102.317 345.064 102.252 344.713 102.174C333.796 99.8731 323.491 103.669 312.848 105.905C312.653 105.905 312.444 105.905 312.249 105.905C311.859 106.126 311.43 106.308 310.961 106.438C310.245 107.309 308.918 107.14 307.669 107.088C307.357 107.14 307.032 107.166 306.68 107.166C306.511 107.166 306.329 107.166 306.16 107.179C301.84 108.128 298.288 112.443 295.178 115.199C292.68 117.409 289.726 118.8 288.126 122.219C287.436 123.688 285.966 129.667 285.875 131.227C285.823 132.085 287.202 135.855 287.267 136.882C287.423 137.363 287.54 137.857 287.593 138.403C287.593 138.468 287.593 138.533 287.593 138.598C287.983 139.339 288.074 140.509 288.438 141.185C290.026 144.123 295.543 149.478 298.782 150.024C300.409 150.297 301.515 149.829 303.727 150.518C307.123 151.571 307.006 151.207 309.985 151.662C312.939 152.117 316.465 154.834 319.067 156.29C321.305 159.345 319.184 163.465 316.517 165.428C316.062 165.766 310.831 168.769 310.48 168.769H309.231C308.359 169.289 307.383 169.614 306.381 169.705C306.199 170.147 305.509 170.238 304.976 170.303C297.833 171.122 290.507 171.629 283.481 171.889C279.955 172.019 276.624 173.488 273.306 174.619C268.088 176.387 264.692 177.687 260.034 181.287C256.898 183.705 254.986 186.409 252.266 188.957C249.534 191.518 246.515 193.819 244.173 196.808C243.978 197.055 243.653 197.77 243.288 198.563C242.976 200.37 242.182 201.956 240.881 203.36C240.348 203.932 239.71 204.335 239.008 204.647C238.591 205.245 238.162 205.83 237.615 206.272C236.444 207.234 233.959 208.56 232.866 209.639C230.667 211.81 229.236 215.8 227.297 218.53C224.604 222.339 224.929 220.532 223.615 225.472C222.834 228.397 218.437 231.126 218.163 234.207C218.085 235.091 218.619 239.68 218.788 240.837C219.035 242.566 220.193 243.723 221.52 244.75C230.511 251.769 246.502 242.735 255.181 238.575C257.068 237.665 259.566 236.963 261.283 236.092C261.765 235.858 264.133 233.635 264.705 233.635H265.109C267.685 232.218 270.378 231.204 273.202 230.606C278.602 228.319 284.079 226.369 290.169 226.252C292.485 226.213 298.548 225.966 300.318 226.187C301.515 226.343 301.892 227.123 302.738 227.318C303.961 227.591 306.55 227.162 308.086 227.409C311.195 227.916 313.498 229.904 316.738 229.735C318.781 229.631 323.478 228.839 325.456 228.28C326.926 227.877 335.188 223.34 335.696 223.86C334.369 228.02 336.529 234.636 341.07 235.884C348.382 237.899 352.403 234.064 358.674 232.543C359.962 232.231 361.797 232.439 363.176 232.036C368.771 230.372 376.266 229.605 382.446 230.125C384.411 230.294 386.545 230.866 388.522 231.087L388.119 232.062C394.443 231.061 402.965 238.718 402.158 245.127C402.041 246.037 401.079 249.559 400.584 250.196C399.686 251.34 399.348 250.391 398.541 250.56C395.34 251.236 388.223 251.353 384.879 250.729C382.576 250.3 377.437 247.102 375.095 246.05C369.148 243.385 361.992 239.706 355.916 243.853C350.75 247.362 346.561 253.979 351.492 259.673C357.256 266.328 359.754 267.602 363.176 276.351C363.384 276.897 364.048 276.819 364.334 277.547C364.894 278.912 364.764 285.528 364.048 286.75C362.903 288.7 358.947 287.985 357.113 288.414C356.345 288.596 355.877 289.337 355.057 289.493C353.873 289.714 352.494 289.311 351.245 289.584C349.423 289.987 346.352 292.249 345.415 293.913C343.321 297.617 344.205 298.41 343.932 302.193C343.698 305.43 343.724 305.287 343.932 308.446C344.049 310.149 343.659 312.346 343.945 313.906C344.166 315.127 345.468 315.829 345.78 316.752C347.367 321.38 346.222 326.931 350.022 331.272C350.841 332.208 352.715 332.871 353.561 333.794C356.384 336.862 354.146 342.023 356.644 345.377C358.037 347.262 360.197 346.222 362.031 346.638C363.371 346.937 363.566 348.315 365.7 347.21C368.186 345.923 372.18 336.641 373.52 333.742C374.886 330.792 374.405 331.844 376.383 329.453C377.046 328.66 377.502 327.295 377.931 326.814C378.035 326.697 380.39 325.202 380.533 325.163C380.885 325.098 384.06 325.566 384.424 325.826C386.063 326.996 385.972 331.571 385.673 333.378L385.738 333.417ZM343.594 105.528L340.692 105.502L336.945 104.371C338.897 104.488 342.111 104.15 343.594 105.541V105.528ZM223.537 241.89C220.714 241.981 221.091 232.634 223.147 234.467C222.314 237.08 222.769 239.381 223.537 241.89ZM313.485 225.277C316.114 224.783 318.859 225.277 321.5 225.082C323.699 224.913 325.768 224.042 327.954 223.912C326.627 225.108 323.53 225.784 321.722 226.083C319.158 226.512 315.502 227.175 313.485 225.277ZM421.585 323.512L416.536 330.584C416.393 330.61 416.237 330.61 416.081 330.623C416.003 330.87 415.912 331.117 415.808 331.364L414.48 335.172C410.226 339.228 408.313 344.753 405.333 349.497C404.058 351.525 400.025 354.32 398.203 356.413C396.902 357.908 396.277 360.82 393.662 361.067C393.467 360.898 394 357.219 394.143 356.673C394.911 353.54 396.525 350.628 396.785 347.197C397.071 343.453 395.028 341.048 395.64 337.46C395.848 336.225 396.967 335.328 397.383 334.132C398.294 331.533 398.658 327.1 398.086 324.422C397.826 323.174 396.251 320.561 395.393 319.69C393.272 317.532 385.881 313.841 382.902 313.776C379.258 313.685 374.991 315.907 372.675 318.637C371.881 319.573 371.699 320.834 370.983 321.835C369.643 323.694 366.884 324.851 365.7 327.1C365.284 327.1 363.606 324.656 363.111 324.214C362.304 323.486 361.042 323.096 360.548 322.667C357.126 319.716 353.964 313.776 353.418 309.278C353.261 308.017 353.613 301.569 354.185 300.75C356.371 297.643 364.907 300.139 368.433 297.799C368.784 297.565 372.271 293.679 372.531 293.224C374.392 289.948 375.342 283.357 374.886 279.614C374.743 278.379 373.872 277.391 373.78 276.416C373.702 275.571 374.21 275.038 373.924 273.959C372.974 270.371 369.877 267.095 367.821 264.287C366.637 262.676 366.481 260.882 365.648 259.53C364.92 258.334 362.994 257.567 362.174 255.578C361.615 254.2 362.408 252.25 363.54 251.496C364.764 250.677 369.435 253.29 370.814 253.979C373.26 255.201 378.465 258.815 380.611 259.426C381.548 259.686 382.628 259.374 383.617 259.556C389.134 260.518 396.889 262.897 402.354 261.376C405.281 260.57 411.618 254.291 412.62 251.314C414.025 247.089 413.075 246.284 412.112 242.423C411.592 240.356 411.436 238.198 410.551 236.17C410.082 235.104 408.573 234.324 408.3 232.764C407.818 232.166 407.376 231.542 406.96 230.866C405.906 229.865 404.514 227.526 403.824 226.876C400.922 224.12 397.539 223.574 394.326 221.91C393.389 221.429 391.307 219.557 390.617 219.362C389.498 219.037 388.041 219.44 386.831 219.232C379.154 217.971 373.078 217.75 365.375 219.362C363.397 219.778 359.546 220.506 357.737 221.117C354.719 222.131 353.118 224.406 349.345 223.886C345.246 223.327 348.187 220.883 348.551 218.985C348.864 217.373 348.356 215.293 347.627 213.837C347.471 213.525 345.546 210.536 345.402 210.393C344.323 209.288 341.863 209.613 340.406 209.34C339.664 209.197 338.715 208.443 338.207 208.417C337.882 208.404 332.964 210.64 332.326 210.991C330.921 211.771 329.737 213.291 328.175 213.876C324.714 215.176 314.734 215.605 310.896 215.358C309.465 215.267 308.203 214.578 306.589 214.552C303.167 214.487 299.784 214.773 296.492 214.825C294.97 214.851 293.383 213.837 292.472 213.785C292.16 213.772 286.708 214.5 286.33 214.578C285.953 214.669 280.228 216.749 279.395 217.087C276.312 218.374 273.475 220.688 270.365 222.131C266.787 223.782 263.209 224.562 259.826 226.447C255.467 228.891 253.034 229.774 248.337 231.386C245.149 232.478 242.755 234.389 239.125 233.713L239.905 234.48C238.93 234.922 237.967 234.35 237.017 234.48C235.963 234.636 234.766 235.858 233.647 235.078C233.478 234.961 232.567 233.024 232.502 232.686C231.955 229.371 233.686 225.303 236.002 222.95C237.004 221.923 238.695 221.247 239.632 220.428C240.023 220.09 239.892 219.427 240.309 219.063C240.777 218.647 241.506 218.712 242.261 217.88C243.822 216.164 244.485 212.16 244.954 211.615C245.526 210.952 246.515 210.874 247.114 210.237C248.415 208.859 249.573 206.987 251.108 205.167C251.251 204.634 251.447 204.114 251.72 203.659C251.863 203.412 251.98 203.152 252.097 202.892C252.383 202.177 252.696 201.462 253.125 200.838C254.14 199.343 255.363 198.277 256.898 197.536C257.757 196.457 258.564 195.353 259.462 194.43C262.832 191.011 268.205 186.669 272.499 184.784C283.598 179.922 297.494 181.222 309.309 178.583C310.454 178.324 311.625 177.609 312.835 177.414L313.433 178.22C313.798 176.92 316.608 176.426 317.831 175.776C318.768 175.282 323.088 173.007 323.517 172.669C323.973 172.292 323.764 170.498 325.17 169.64C325.261 169.458 325.352 169.289 325.456 169.12C325.95 168.366 326.458 167.625 326.952 166.871C327.59 165.688 328.501 164.245 328.592 163.881C329.528 160.229 330.4 155.445 329.685 151.636C329.502 150.622 327.876 146.566 327.29 145.825C326.64 145.006 325.833 144.421 324.935 144.006C324.246 143.967 323.569 143.941 322.88 143.889C319.575 143.642 316.101 143.447 312.627 143.096C307.968 143.213 304.208 143.304 299.381 140.483C299.381 140.483 299.342 140.457 299.329 140.457C297.598 139.729 296.492 138.481 295.907 137.051L295.608 136.83C295.451 136.245 295.152 135.543 295.126 134.958C294.996 132.657 297.507 123.662 298.926 121.868C299.42 121.257 306.615 116.291 307.565 115.94C309.061 115.381 311.521 115.42 312.64 115.095C313.954 114.718 315.502 113.613 317.298 113.158C326.874 110.714 331.936 112.352 341.005 114.146C342.28 114.393 344.166 113.47 344.323 115.342C346.86 112.664 348.551 114.848 350.88 115.615C351.505 115.823 352.26 115.693 352.936 115.901C358.245 117.526 363.163 120.061 368.459 121.491C375.901 123.519 383.331 123.701 391.047 123.142C398.854 122.57 405.294 121.335 412.659 119.333C414.754 118.761 418.163 118.345 420.388 118.072C421.585 117.929 423.107 118.319 424.213 117.981C425.137 117.708 427.271 114.406 427.999 114.939L433.425 132.085C434.882 133.567 435.468 135.751 435.195 137.818L442.793 165.623C443.236 166.832 443.353 168.171 443.145 169.445C443.145 170.004 443.171 170.628 443.288 171.382C443.509 172.773 443.821 174.034 444.055 175.698C444.277 177.349 446.059 188.307 445.591 188.762C445.552 188.801 445.487 188.814 445.409 188.814C445.422 189.022 445.435 189.23 445.448 189.425L445.851 189.529C445.968 189.698 446.241 192.454 446.215 192.896C446.189 193.273 446.046 193.65 445.877 194.001C446.02 195.145 446.189 196.288 446.397 197.406C446.632 198.641 446.749 199.785 446.71 200.864C447.425 204.556 448.518 208.222 447.998 212.044C447.881 212.901 447.295 213.395 447.23 214.006C446.658 218.946 447.061 223.392 446.046 228.059C445.018 232.751 445.617 237.366 445.656 242.488C445.799 258.906 443.054 274.18 439.801 290.195C439.384 292.223 439.944 294.316 438.005 296.214C437.901 296.318 437.784 296.396 437.641 296.461C437.329 297.604 436.743 298.657 435.871 299.476C435.832 299.593 435.806 299.71 435.754 299.827C432.072 308.381 425.527 315.153 421.559 323.538L421.585 323.512ZM320.525 145.773C322.958 146.618 325.833 147.255 325.599 150.466L323.257 148.711L320.525 145.773Z" fill="#D0FFCD" fill-opacity="0.7"/>
<path d="M273.774 53.9598C272.903 53.2709 267.23 51.8669 265.707 51.464C263.521 50.905 260.607 50.84 258.538 50.0211C257.406 49.5661 256.443 49.1891 255.584 48.8641C250.419 48.1882 245.266 47.3302 240.114 46.3293C240.01 46.3163 239.919 46.2903 239.814 46.2773C236.366 45.6143 232.905 44.8994 229.431 44.1194C228.859 43.9894 228.351 43.8074 227.896 43.5864C215.236 42.0395 203.304 34.708 189.694 35.6569C185.7 35.9429 180.755 39.6217 179.532 43.4044C179.311 44.0934 179.806 44.6784 179.649 45.4193C179.506 46.1083 178.543 46.7842 178.648 47.8242C178.752 48.7471 179.819 49.4491 179.753 50.996C179.675 52.7509 178.14 53.6088 178.726 55.8967C179.376 58.4446 184.425 63.2933 186.363 65.4771C187.027 66.2181 187.417 67.271 188.12 68.025C189.473 69.5069 193.91 72.8217 194.417 74.2516C194.482 74.4336 194.443 74.6676 194.378 74.8626C194.574 75.1226 194.743 75.3826 194.886 75.6685C195.068 75.7465 195.263 75.8505 195.38 75.9805C201.587 82.9871 204.371 87.2379 207.273 96.1553C209.146 101.94 216.836 105.138 222.561 104.358C226.608 103.812 234.285 100.432 236.822 97.1043C238.396 95.0374 238.995 92.2036 240.4 90.1367C241.779 88.1088 245.5 83.0781 247.4 81.8952C250.523 79.9453 257.094 78.3204 260.88 77.0075C262.559 76.4225 264.107 76.0455 265.603 75.7855C265.915 75.5126 266.228 75.2656 266.553 75.0316H266.54C266.514 73.8097 267.568 73.8617 268.596 73.7707C269.103 73.5107 269.611 73.3417 270.105 73.2117C270.951 72.5357 272.213 71.1708 272.486 70.6248C272.851 69.9099 272.786 68.8699 273.163 68.272C273.41 67.869 274.204 67.713 274.568 67.245C275.908 65.5031 277.34 62.2533 277.092 60.0305C276.975 58.9515 274.594 54.5968 273.761 53.9468L273.774 53.9598ZM258.044 69.0909C254.609 70.3649 250.028 71.1578 246.789 72.3017C245.904 72.6137 243.445 74.4986 242.443 74.9536C242.052 75.3956 241.584 75.8115 241.025 76.1885C240.543 76.5005 240.062 76.7735 239.554 77.0075C238.162 78.7884 236.067 80.6083 235.091 82.1032C232.762 85.678 231.331 88.3168 228.351 91.5796C227.935 92.0346 227.909 92.8405 227.271 93.4255C225.749 94.8294 221.702 93.9195 219.634 94.7774C217.916 94.1275 217.578 92.5416 216.68 91.4886C213.857 88.1868 211.918 85.86 211.423 81.2062C210.591 80.3223 207.507 77.5924 207.208 76.7215C207.169 76.6175 207.143 76.5005 207.117 76.3965C206.726 75.8375 206.44 75.2136 206.245 74.5506C204.423 73.4457 203.213 70.6898 201.86 69.1689C198.412 65.2822 192.895 60.9664 190.553 56.2477C189.187 53.4919 188.966 50.112 188.393 47.1612C188.471 46.9142 191.021 45.5753 191.399 45.4583C192.739 45.0553 202.38 45.1203 203.734 45.4323C206.375 46.0433 209.602 47.6682 212.139 48.3572C214.013 48.8641 215.756 48.6171 217.396 48.9681C226.816 50.957 235.963 53.1669 245.357 55.0258C249.326 55.8057 252.865 56.1307 256.69 56.9886C259.358 57.5866 262.311 57.8856 264.744 59.4845C271.211 63.7482 261.661 67.752 258.057 69.0909H258.044Z" fill="#D0FFCD" fill-opacity="0.7"/>
</g>
<defs>
<clipPath id="clip0_320_426">
<rect width="456" height="442" fill="white"/>
</clipPath>
</defs>
</svg>
