<svg width="796" height="547" viewBox="0 0 796 547" fill="none" xmlns="http://www.w3.org/2000/svg">
<path d="M503.293 57.7159C502.574 59.5183 502.384 60.3531 501.816 62.4781C501.703 62.8955 500.87 62.9145 500.775 63.2939C500.15 65.8743 502.138 71.4523 503.236 73.9947C503.71 75.0762 504.921 75.9869 505.092 76.613C505.376 77.7134 504.221 79.1743 504.107 80.4266C503.52 87.143 505.849 95.8706 508.386 102.094C509.446 104.712 512.173 108.62 512.665 111.163C513.044 113.155 511.832 115.451 512.495 117.955C513.934 123.457 519.803 131.047 520.958 135.543C521.62 138.142 520.92 140.875 522.397 143.531C524.593 147.477 531.844 150.38 535.006 153.624C538.831 157.533 540.137 160.72 546.12 162.997C548.43 163.87 552.33 164.003 553.845 164.686C554.564 165.008 555.416 166.469 556.439 167.076C561.986 170.378 562.611 170.15 567.401 174.912C576.035 183.488 585.293 193.544 593.132 202.935C600.326 211.568 607.54 225.76 612.936 235.759C614.772 239.136 615.7 242.551 617.234 245.302C617.802 246.326 619.903 247.844 620.074 249.021C620.206 249.874 619.487 251.032 619.657 252.246C619.846 253.517 621.437 254.219 621.778 255.718C622.611 259.475 622.44 264.654 623.027 268.316C623.576 271.655 625.621 276.266 625.81 279.434C626.132 284.861 624.845 290.249 624.637 295.486C624.504 298.977 625.224 312.523 624.372 314.61C624.107 315.255 623.065 315.768 622.706 316.811C622.1 318.557 621.683 327.835 621.872 329.903C622.232 333.697 622.346 344.151 621.778 348.041C621.551 349.616 620.131 350.944 619.922 352.291C618.597 360.81 613.542 368.797 611.516 377.126C611.099 378.872 611.327 381.016 610.777 383.046C606.404 399.249 592.564 411.904 584.157 425.678C582.756 427.974 581.374 431.788 579.859 434.121C577.947 437.1 568.84 444.12 566 447.402C562.725 451.178 559.657 459.374 556.041 464.042C553.959 466.755 549.358 467.988 552.122 471.84C554.47 475.122 562.573 477.285 566.076 479.486C568.859 481.231 569.692 484.419 572.608 485.14C573.308 485.31 574.047 484.817 574.804 485.14C575.675 485.481 581.204 488.479 581.999 489.048C584.839 491.059 584.403 493.241 585.899 495.119C586.032 495.29 589.042 497.776 589.25 497.871C591.106 498.724 593.756 497.7 595.479 498.155C596.028 498.307 596.047 499.218 596.464 499.483C601.387 502.803 603.999 502.728 607.729 508.173C609.073 510.127 610.948 515.25 611.895 516.198C612.955 517.28 615.7 517.754 617.196 518.646C622.346 521.739 631.566 529.688 632.816 535.684C634.065 541.679 628.764 547.447 622.668 546.973C619.903 546.764 619.771 545.075 618.862 544.943C617.044 544.677 612.803 545.872 610.645 545.284C610.115 545.132 609.944 543.88 608.998 543.444C607.937 542.95 607.123 543.671 606.252 543.482C603.962 542.988 599.209 539.611 597.676 539.289C596.634 539.08 594.249 539.915 592.317 539.687C588.417 539.213 584.006 536.594 579.537 536.405C577.682 536.329 575.41 537.107 574.141 536.879C572.968 536.67 571.926 535.228 570.563 534.868C562.687 532.762 552.652 532.8 545.344 530.751C543.829 530.314 542.012 528.853 540.08 528.265C533.548 526.254 528.399 526.558 522.018 525.856C520.731 525.704 519.879 524.66 518.137 524.736C516.395 524.812 515.278 526.159 513.668 526.406C507.174 527.411 505.584 525.837 500.018 524.565C498.048 524.11 492.899 524.281 492.368 522.573H491.308C490.21 525.837 489.661 522.327 489.131 521.682C487.673 519.898 484.947 521.359 483.262 521.321C477.866 521.245 472.488 522.554 468.304 522.46C463.722 522.346 461.28 520.638 455.164 521.568C449.901 522.365 444.448 525.837 438.977 524.774C437.594 524.509 437.689 523.237 436.667 522.649C435.209 521.814 433.959 522.535 432.369 520.866C432.066 520.543 428.734 514.87 428.469 514.244C426.802 510.26 429.112 503.771 423.924 502.728C416.692 501.286 407.642 503.126 400.258 502.614C391.094 501.969 380.397 497.396 370.4 498.174C367.617 498.402 364.966 499.692 362.05 499.312C360.99 499.18 361.52 498.25 360.46 498.117C357.185 497.7 352.319 498.535 349.024 497.852C347.775 497.586 346.771 496.22 345.465 495.973C343.647 495.632 341.337 496.163 339.406 495.935C328.538 494.645 317.33 491.325 306.614 488.877C304.247 488.327 300.555 488.479 298.378 487.758C296.2 487.037 293.834 485.045 291.543 484.039C285.314 481.307 279.444 479.751 272.893 476.659C264.941 472.902 257.538 468.311 250.249 463.302C247.977 461.746 244.399 461.006 241.786 459.033C238.359 456.452 233.985 450.571 229.725 449.489C227.965 449.053 226.071 449.831 224.386 448.749C223.553 448.218 223.345 447.099 222.682 446.568C221.357 445.505 218.176 444.594 216.434 443.399C214.143 441.805 212.572 439.377 210.489 437.726C206.911 434.861 208.217 437.043 205.472 432.774C204.639 431.465 200.379 428.999 199.129 427.481C197.955 426.058 197.387 423.762 196.062 422.244C192.9 418.62 186.236 411.202 184.077 407.085C182.695 404.41 183.112 400.862 182.241 398.945C181.37 397.029 177.678 393.993 176.598 390.73C175.462 387.258 176.049 383.805 174.705 379.858C172.831 374.299 171.638 368.038 169.517 362.327C169.063 361.094 167.245 357.527 166.053 357.451C164.992 357.375 160.392 359.956 159.123 360.677C158.612 360.961 158.422 361.948 157.476 362.479C152.269 365.439 147.933 364.149 143.2 365.382C141.269 365.894 138.429 368.342 136.536 369.253C135.153 369.917 132.257 369.291 133.26 371.776C132.124 372.117 130.666 371.226 129.738 371.378C126.425 371.928 116.39 382.401 113.058 385.076C111.884 386.025 109.65 386.822 108.173 387.941C102.853 391.982 100.789 397.693 92.6102 396.137C90.5465 395.739 86.4947 392.589 86.1918 390.37C85.0747 382.021 88.975 373.654 94.2953 367.393C95.791 365.629 99.0097 363.333 100.524 361.436C102.039 359.538 102.342 357.015 103.667 355.156C104.822 353.543 109.669 350.602 110.275 349.578C110.881 348.553 110.616 346.713 111.449 345.195C112.149 343.905 115.444 340.148 116.826 338.099C125.46 325.387 133.62 312.258 140.701 298.54C147.138 286.037 155.677 275.943 162.247 263.573C163.25 261.676 164.046 258.317 165.125 256.477C165.788 255.339 167.473 254.561 167.908 253.138C168.344 251.715 167.681 250.69 167.908 249.761C168.703 246.611 172.452 240.635 173.285 237.485C173.74 235.796 173.209 231.034 173.929 229.82C177.924 227.923 180.84 224.583 184.437 222.06C185.592 219.518 184.721 215.249 185.384 213.029C185.668 212.099 186.785 211.758 187.163 210.942C189.587 205.705 192.768 197.395 194.68 191.874C195.967 188.212 196.365 183.848 197.88 180.68C198.637 179.124 199.413 178.024 200.757 176.904L199.167 175.348C200.322 173.072 200.568 170.567 201.439 168.177C202.158 166.185 204.62 159.848 205.491 158.387C205.907 157.704 208.425 154.934 209.277 153.89C213.897 148.217 219.369 143.208 223.989 137.554C225.863 135.259 228.476 130.25 230.331 128.371C231.297 127.385 233.531 126.948 234.705 126.095C240.404 122.015 244.38 118.448 250.571 114.825C256.762 111.201 262.404 105.547 268.425 102.227C274.843 98.6786 282.095 96.2121 288.911 92.2657C301.634 84.8852 312.937 80.2748 326.778 75.3228C330.28 74.0706 335.771 70.295 338.365 69.7448C341.186 69.1566 344.064 70.3139 347.093 70.1622C350.331 69.9914 353.322 68.0372 355.992 67.9423C364.038 67.6387 372.35 66.8798 380.302 66.747C387.686 66.6142 385.073 67.1265 390.962 69.4791C398.062 72.3251 400.977 72.6476 408.475 73.5583C412.091 73.9947 414.534 75.9299 416.957 76.6889C420.876 77.9221 425.136 78.3016 428.942 80.142C429.794 79.8953 431.1 75.19 431.801 74.1085C432.975 72.3061 435.947 69.3273 437.973 68.6633C442.593 67.1455 445.243 67.5818 448.292 62.9145C453.12 55.534 456.717 51.7014 463.003 45.4973C468.475 40.09 471.201 35.0431 475.745 29.0287C479.38 24.2285 478.263 25.6515 480.327 20.1683C481.425 17.2654 490.286 4.36379 492.501 2.14395C492.899 1.74552 495.246 1.11941 495.909 0C498.181 0.56919 501.229 0.37946 503.369 1.1953C505.338 1.93525 509.674 6.28006 510.014 8.40504C510.507 11.4407 509.143 13.9072 508.954 16.6962C508.575 22.3692 508.859 26.3914 507.704 32.0833C507.42 33.5063 506.322 34.8913 506.171 36.1436C505.395 43.3533 505.906 50.9046 503.179 57.7918L503.293 57.7159ZM497.253 166.222C496.155 164.932 493.656 163.566 492.463 161.878C490.362 158.899 490.93 154.915 485.42 157.04C483.773 157.666 480.724 160.151 479.153 160.758C476.938 161.631 472.735 162.58 470.33 163.528C466.203 165.179 463.211 166.924 458.894 168.063C440.037 173.053 430.665 183.943 416.616 196.2C413.776 198.666 406.373 202.423 403.022 204.491C401.167 205.629 397.191 210.733 395.638 212.327C388.841 219.29 381.097 225.893 372.786 230.863C372.161 231.243 372.388 232.305 371.025 232.552C366.329 233.444 357.828 228.226 356.919 223.369C356.806 222.705 356.427 215.04 356.503 214.604C356.56 214.281 359.305 209.348 359.646 208.969C360.706 207.792 361.766 207.811 362.656 206.995C363.186 206.521 369.094 197.964 369.718 196.883C372.255 192.386 373.145 186.846 374.887 182.103C376.629 177.36 380.548 172.597 382.271 167.835C382.669 167.038 380.529 166.374 380.151 166.279C378.996 166.014 377.689 165.767 376.515 165.995C375.133 166.26 375.361 167.551 374.774 167.683C369.359 168.955 362.524 166.697 358.415 167.228C355.765 167.57 351.429 169.429 348.267 169.827C334.237 171.592 321.552 170.814 307.939 170.434C300.517 170.226 292.641 169.903 285.389 172.218C275.62 175.348 266.153 178.877 256.781 182.9C251.783 185.044 246.311 189.199 242.108 192.614C236.447 197.205 228.059 200.431 221.963 205.136C219.558 206.995 213.462 214.717 212.856 217.525C212.78 217.924 212.666 222.288 212.761 222.515C213.291 223.711 216.415 225.93 217.191 226.974C218.782 229.137 221.527 236.328 223.174 237.902C225.939 240.578 228.93 244.069 231.865 246.668C233.512 248.129 236.996 249.59 237.961 250.538C239.59 252.17 241.483 257.881 244.058 259.399C244.967 259.93 246.481 259.456 246.784 259.74L246.822 261.353L249.814 260.215C250.249 260.613 250.23 261.163 250.817 261.524C259.413 266.931 265.737 264.977 275.336 265.205C278.857 265.3 282.53 266.552 286.279 265.299C288.892 267.273 289.763 270.308 291.524 272.813V279.776C288.021 285.221 281.735 288.314 276.434 291.843C270.849 295.561 271.625 295.429 265.434 297.022C258.807 298.73 255.986 301.026 249.965 303.587C248.015 304.422 245.194 304.687 243.49 305.408C232.774 309.924 223.061 318.101 214.673 325.88C214.257 326.279 213.121 326.241 212.761 326.734C212.269 327.417 212.307 332.065 212.78 332.843C213.102 333.356 214.408 333.811 215.014 334.475C219.445 339.37 225.068 342.88 229.953 347.794C240.479 358.381 252.256 370.03 266.058 376.462C277.797 381.946 290.88 386.973 302.07 392.495C305.402 394.145 309.226 396.061 311.536 399.078C311.972 399.647 315.19 405.434 315.266 405.814C315.418 406.553 314.698 409.589 314.85 411.297C315.228 415.623 316.402 419.986 316.781 424.331C318.258 425.356 319.469 427.063 320.719 428.145C321.609 428.904 322.934 429.036 323.502 429.511C329.504 434.615 333.688 440.534 340.239 445.182C348.759 451.235 355.537 456.225 365.742 459.545C370.703 461.158 377.405 462.087 381.741 464.023C387.042 466.375 388.178 467.703 394.199 469.278C401.507 471.195 408.721 474.249 416.37 474.268C420.157 474.268 423.678 473.452 427.844 474.363C430.646 474.97 436.875 479.448 437.992 479.656C438.314 479.713 443.861 479.239 444.448 479.125C449.2 478.082 453.366 464.535 455.07 460.38C456.906 455.959 460.655 449.11 461.412 444.556C461.905 441.559 461.034 437.707 461.469 434.634C461.829 432.148 464.139 429.15 464.252 426.855C464.404 424.066 464.404 418.487 464.196 415.755C463.836 411.24 461.98 405.567 461.412 401.355C460.92 397.731 461.242 392.267 462.984 389.022C464.82 385.588 471.542 380.617 475.423 381.775C476.18 382.002 481.425 385.892 482.201 386.632C486.651 390.882 485.268 391.774 486.367 396.877C489.831 412.947 500.775 425.963 513.214 436.531C514.407 437.555 514.634 439.567 517.891 437.954C518.591 437.612 518.629 436.607 519.159 436.151C519.481 435.886 520.428 436.132 520.56 435.962C520.92 435.563 520.333 434.14 520.768 433.362C520.882 433.173 521.942 432.812 522.454 432.015C525.256 427.708 528.607 421.846 529.44 416.818C529.743 414.977 529.478 412.909 529.8 411.05C526.979 408.223 520.939 406.421 519.254 402.74C518.004 399.97 517.19 387.448 518.534 384.81C518.97 383.976 520.049 383.976 520.125 383.52C520.2 382.951 519.595 382.097 519.632 381.395C519.784 379.062 521.602 376.709 522.378 374.261C523.476 370.77 523.457 367.924 523.911 364.832C523.987 364.301 525.237 364.395 525.521 363.561C527.471 357.85 529.099 351.854 530.633 345.935C531.257 343.487 533.492 340.717 533.814 339.693C534.476 337.473 533.776 332.009 533.889 329.239C534.249 321.517 535.934 311.575 533.605 304.061C532.507 300.494 529.97 298.275 528.664 295.163C527.547 292.526 526.903 289.092 525.88 286.303C525.256 284.614 523.4 283.76 524.442 281.616C524.063 280.459 522.908 281.427 522.321 281.028C521.904 280.762 515.656 274.482 515.429 274.046C515.088 271.067 512.059 265.394 512.286 262.719C512.343 262.055 515.372 256.762 515.922 256.325C517.474 255.073 521.867 253.157 523.968 253.005C522.738 251.051 526.164 248.053 526.619 246.516C527.168 244.619 526.24 242.741 526.486 241.299C526.732 239.857 528.815 237.2 529.364 235.379C529.629 234.506 530.159 230.788 530.046 230.048C529.951 229.422 526.164 221.87 525.521 220.675C519.538 209.595 512.495 198.761 505.792 188.345C502.062 182.558 504.183 179.048 502.233 173.603C501.816 172.427 498.143 167.247 497.215 166.147L497.253 166.222Z" fill="#D0FFCD" fill-opacity="0.8"/>
<path d="M89.6831 353V350.504H93.3311V338.696H89.6831V336.2H99.5711V338.696H95.9231V350.504H99.5711V353H89.6831ZM106.398 353V336.2H108.87L121.014 349.952L120.774 350.168C120.694 349.72 120.63 349.24 120.582 348.728C120.534 348.216 120.486 347.68 120.438 347.12C120.406 346.544 120.374 345.96 120.342 345.368C120.326 344.76 120.31 344.152 120.294 343.544C120.294 342.936 120.294 342.328 120.294 341.72V336.2H122.886V353H120.366L108.39 339.752L108.51 339.416C108.558 340.008 108.606 340.568 108.654 341.096C108.702 341.608 108.742 342.104 108.774 342.584C108.822 343.048 108.862 343.48 108.894 343.88C108.926 344.28 108.95 344.664 108.966 345.032C108.982 345.384 108.99 345.712 108.99 346.016V353H106.398ZM133.723 353V338.696H128.059V336.2H142.099V338.696H136.315V353H133.723ZM147.273 353V336.2H159.729V338.696H149.865V350.504H159.729V353H147.273ZM148.593 345.632V343.136H158.409V345.632H148.593ZM166.164 353V336.2H174.804C175.78 336.2 176.676 336.432 177.492 336.896C178.308 337.36 178.964 337.992 179.46 338.792C179.956 339.576 180.204 340.464 180.204 341.456C180.204 342.416 179.94 343.304 179.412 344.12C178.9 344.92 178.212 345.56 177.348 346.04C176.5 346.52 175.564 346.76 174.54 346.76H168.756V353H166.164ZM177.852 353L172.764 345.416L175.476 344.816L181.044 353.024L177.852 353ZM168.756 344.264H174.516C175.06 344.264 175.556 344.136 176.004 343.88C176.452 343.624 176.812 343.28 177.084 342.848C177.356 342.416 177.492 341.944 177.492 341.432C177.492 340.904 177.34 340.44 177.036 340.04C176.748 339.624 176.356 339.296 175.86 339.056C175.364 338.816 174.812 338.696 174.204 338.696H168.756V344.264ZM185.125 353L192.565 336.2H195.421L202.837 353H200.029L195.181 342.056C195.069 341.848 194.941 341.568 194.797 341.216C194.669 340.864 194.525 340.496 194.365 340.112C194.221 339.712 194.077 339.328 193.933 338.96C193.805 338.576 193.693 338.248 193.597 337.976L194.269 337.952C194.141 338.288 194.005 338.64 193.861 339.008C193.733 339.376 193.597 339.752 193.453 340.136C193.309 340.504 193.165 340.864 193.021 341.216C192.877 341.552 192.741 341.864 192.613 342.152L187.813 353H185.125ZM188.389 348.968L189.373 346.472H198.325L199.045 348.968H188.389ZM215.071 353.24C213.807 353.24 212.631 353.04 211.543 352.64C210.455 352.224 209.503 351.632 208.687 350.864C207.871 350.096 207.239 349.184 206.791 348.128C206.343 347.056 206.119 345.88 206.119 344.6C206.119 343.384 206.359 342.256 206.839 341.216C207.319 340.176 207.975 339.272 208.807 338.504C209.639 337.72 210.599 337.12 211.687 336.704C212.775 336.272 213.935 336.056 215.167 336.056C216.127 336.056 217.055 336.192 217.951 336.464C218.863 336.72 219.679 337.064 220.399 337.496C221.135 337.928 221.727 338.4 222.175 338.912L220.543 340.928C220.015 340.448 219.463 340.04 218.887 339.704C218.311 339.352 217.703 339.088 217.063 338.912C216.423 338.72 215.743 338.624 215.023 338.624C214.207 338.624 213.423 338.768 212.671 339.056C211.919 339.344 211.247 339.752 210.655 340.28C210.079 340.792 209.615 341.416 209.263 342.152C208.927 342.888 208.759 343.704 208.759 344.6C208.759 345.56 208.927 346.416 209.263 347.168C209.615 347.92 210.095 348.56 210.703 349.088C211.327 349.6 212.031 349.992 212.815 350.264C213.615 350.536 214.463 350.672 215.359 350.672C216.143 350.672 216.855 350.576 217.495 350.384C218.135 350.176 218.719 349.912 219.247 349.592C219.775 349.256 220.255 348.912 220.687 348.56L221.959 350.696C221.543 351.096 220.975 351.496 220.255 351.896C219.551 352.28 218.751 352.6 217.855 352.856C216.975 353.112 216.047 353.24 215.071 353.24ZM231.598 353V338.696H225.934V336.2H239.974V338.696H234.19V353H231.598ZM244.98 353V350.504H248.628V338.696H244.98V336.2H254.868V338.696H251.22V350.504H254.868V353H244.98ZM266.999 353L259.703 336.2H262.655L266.927 346.304C267.055 346.64 267.207 347.016 267.383 347.432C267.575 347.848 267.759 348.28 267.935 348.728C268.127 349.16 268.303 349.584 268.463 350C268.639 350.4 268.783 350.776 268.895 351.128L268.199 351.152C268.343 350.72 268.519 350.232 268.727 349.688C268.951 349.144 269.175 348.584 269.399 348.008C269.639 347.416 269.863 346.856 270.071 346.328L274.031 336.2H277.079L269.855 353H266.999ZM282.039 353V336.2H294.495V338.696H284.631V350.504H294.495V353H282.039ZM283.359 345.632V343.136H293.175V345.632H283.359ZM310.398 353V336.2H312.99V350.504H322.734V353H310.398ZM328.515 353V336.2H340.971V338.696H331.107V350.504H340.971V353H328.515ZM329.835 345.632V343.136H339.651V345.632H329.835ZM345.438 353L352.878 336.2H355.734L363.15 353H360.342L355.494 342.056C355.382 341.848 355.254 341.568 355.11 341.216C354.982 340.864 354.838 340.496 354.678 340.112C354.534 339.712 354.39 339.328 354.246 338.96C354.118 338.576 354.006 338.248 353.91 337.976L354.582 337.952C354.454 338.288 354.318 338.64 354.174 339.008C354.046 339.376 353.91 339.752 353.766 340.136C353.622 340.504 353.478 340.864 353.334 341.216C353.19 341.552 353.054 341.864 352.926 342.152L348.126 353H345.438ZM348.702 348.968L349.686 346.472H358.638L359.358 348.968H348.702ZM368.148 353V336.2H376.788C377.764 336.2 378.66 336.432 379.476 336.896C380.292 337.36 380.948 337.992 381.444 338.792C381.94 339.576 382.188 340.464 382.188 341.456C382.188 342.416 381.924 343.304 381.396 344.12C380.884 344.92 380.196 345.56 379.332 346.04C378.484 346.52 377.548 346.76 376.524 346.76H370.74V353H368.148ZM379.836 353L374.748 345.416L377.46 344.816L383.028 353.024L379.836 353ZM370.74 344.264H376.5C377.044 344.264 377.54 344.136 377.988 343.88C378.436 343.624 378.796 343.28 379.068 342.848C379.34 342.416 379.476 341.944 379.476 341.432C379.476 340.904 379.324 340.44 379.02 340.04C378.732 339.624 378.34 339.296 377.844 339.056C377.348 338.816 376.796 338.696 376.188 338.696H370.74V344.264ZM389.078 353V336.2H391.55L403.694 349.952L403.454 350.168C403.374 349.72 403.31 349.24 403.262 348.728C403.214 348.216 403.166 347.68 403.118 347.12C403.086 346.544 403.054 345.96 403.022 345.368C403.006 344.76 402.99 344.152 402.974 343.544C402.974 342.936 402.974 342.328 402.974 341.72V336.2H405.566V353H403.046L391.07 339.752L391.19 339.416C391.238 340.008 391.286 340.568 391.334 341.096C391.382 341.608 391.422 342.104 391.454 342.584C391.502 343.048 391.542 343.48 391.574 343.88C391.606 344.28 391.63 344.664 391.646 345.032C391.662 345.384 391.67 345.712 391.67 346.016V353H389.078ZM412.347 353V350.504H415.995V338.696H412.347V336.2H422.235V338.696H418.587V350.504H422.235V353H412.347ZM429.062 353V336.2H431.534L443.678 349.952L443.438 350.168C443.358 349.72 443.294 349.24 443.246 348.728C443.198 348.216 443.15 347.68 443.102 347.12C443.07 346.544 443.038 345.96 443.006 345.368C442.99 344.76 442.974 344.152 442.958 343.544C442.958 342.936 442.958 342.328 442.958 341.72V336.2H445.55V353H443.03L431.054 339.752L431.174 339.416C431.222 340.008 431.27 340.568 431.318 341.096C431.366 341.608 431.406 342.104 431.438 342.584C431.486 343.048 431.526 343.48 431.558 343.88C431.59 344.28 431.614 344.664 431.63 345.032C431.646 345.384 431.654 345.712 431.654 346.016V353H429.062ZM460.66 353.24C459.396 353.24 458.188 353.04 457.036 352.64C455.9 352.24 454.9 351.672 454.036 350.936C453.172 350.184 452.492 349.272 451.996 348.2C451.5 347.128 451.252 345.928 451.252 344.6C451.252 343.4 451.492 342.28 451.972 341.24C452.468 340.2 453.156 339.296 454.036 338.528C454.916 337.744 455.94 337.136 457.108 336.704C458.276 336.272 459.532 336.056 460.876 336.056C461.932 336.056 462.924 336.184 463.852 336.44C464.796 336.696 465.628 337.04 466.348 337.472C467.084 337.904 467.668 338.384 468.1 338.912L466.42 340.736C465.892 340.288 465.332 339.904 464.74 339.584C464.148 339.264 463.524 339.016 462.868 338.84C462.228 338.664 461.564 338.576 460.876 338.576C459.9 338.576 458.988 338.728 458.14 339.032C457.308 339.336 456.572 339.76 455.932 340.304C455.308 340.848 454.82 341.488 454.468 342.224C454.132 342.944 453.964 343.736 453.964 344.6C453.964 345.56 454.148 346.424 454.516 347.192C454.884 347.944 455.388 348.584 456.028 349.112C456.668 349.64 457.396 350.04 458.212 350.312C459.044 350.584 459.916 350.72 460.828 350.72C461.644 350.72 462.412 350.632 463.132 350.456C463.868 350.264 464.508 350 465.052 349.664C465.596 349.312 466.02 348.912 466.324 348.464C466.628 348.016 466.772 347.528 466.756 347L466.732 346.616L467.116 347.048H460.828V344.528H469.468C469.5 344.736 469.524 344.92 469.54 345.08C469.556 345.224 469.564 345.352 469.564 345.464C469.58 345.576 469.588 345.68 469.588 345.776C469.588 346.96 469.364 348.016 468.916 348.944C468.484 349.872 467.868 350.656 467.068 351.296C466.268 351.92 465.324 352.4 464.236 352.736C463.164 353.072 461.972 353.24 460.66 353.24ZM484.609 353V336.2H497.065V338.696H487.201V350.504H497.065V353H484.609ZM485.929 345.632V343.136H495.745V345.632H485.929ZM515.26 353L509.236 345.44L501.628 336.2H505.06L510.868 343.544L518.692 353H515.26ZM501.508 353L508.804 343.856L510.34 345.752L504.748 353H501.508ZM511.372 345.2L509.884 343.376L515.188 336.2H518.428L511.372 345.2ZM523.656 353V336.2H532.152C533.112 336.2 533.984 336.432 534.768 336.896C535.568 337.344 536.2 337.96 536.664 338.744C537.144 339.528 537.384 340.4 537.384 341.36C537.384 342.352 537.136 343.248 536.64 344.048C536.144 344.848 535.48 345.496 534.648 345.992C533.816 346.472 532.896 346.712 531.888 346.712H526.248V353H523.656ZM526.248 344.216H531.744C532.272 344.216 532.76 344.088 533.208 343.832C533.656 343.56 534.008 343.208 534.264 342.776C534.536 342.344 534.672 341.872 534.672 341.36C534.672 340.864 534.536 340.416 534.264 340.016C534.008 339.616 533.656 339.296 533.208 339.056C532.76 338.816 532.272 338.696 531.744 338.696H526.248V344.216ZM543.179 353V336.2H555.635V338.696H545.771V350.504H555.635V353H543.179ZM544.499 345.632V343.136H554.315V345.632H544.499ZM562.07 353V336.2H570.71C571.686 336.2 572.582 336.432 573.398 336.896C574.214 337.36 574.87 337.992 575.366 338.792C575.862 339.576 576.11 340.464 576.11 341.456C576.11 342.416 575.846 343.304 575.318 344.12C574.806 344.92 574.118 345.56 573.254 346.04C572.406 346.52 571.47 346.76 570.446 346.76H564.662V353H562.07ZM573.758 353L568.67 345.416L571.382 344.816L576.95 353.024L573.758 353ZM564.662 344.264H570.422C570.966 344.264 571.462 344.136 571.91 343.88C572.358 343.624 572.718 343.28 572.99 342.848C573.262 342.416 573.398 341.944 573.398 341.432C573.398 340.904 573.246 340.44 572.942 340.04C572.654 339.624 572.262 339.296 571.766 339.056C571.27 338.816 570.718 338.696 570.11 338.696H564.662V344.264ZM582.832 353V350.504H586.48V338.696H582.832V336.2H592.72V338.696H589.072V350.504H592.72V353H582.832ZM599.546 353V336.2H612.002V338.696H602.138V350.504H612.002V353H599.546ZM600.866 345.632V343.136H610.682V345.632H600.866ZM618.437 353V336.2H620.909L633.053 349.952L632.813 350.168C632.733 349.72 632.669 349.24 632.621 348.728C632.573 348.216 632.525 347.68 632.477 347.12C632.445 346.544 632.413 345.96 632.381 345.368C632.365 344.76 632.349 344.152 632.333 343.544C632.333 342.936 632.333 342.328 632.333 341.72V336.2H634.925V353H632.405L620.429 339.752L620.549 339.416C620.597 340.008 620.645 340.568 620.693 341.096C620.741 341.608 620.781 342.104 620.813 342.584C620.861 343.048 620.901 343.48 620.933 343.88C620.965 344.28 620.989 344.664 621.005 345.032C621.021 345.384 621.029 345.712 621.029 346.016V353H618.437ZM649.579 353.24C648.315 353.24 647.139 353.04 646.051 352.64C644.963 352.224 644.011 351.632 643.195 350.864C642.379 350.096 641.747 349.184 641.299 348.128C640.851 347.056 640.627 345.88 640.627 344.6C640.627 343.384 640.867 342.256 641.347 341.216C641.827 340.176 642.483 339.272 643.315 338.504C644.147 337.72 645.107 337.12 646.195 336.704C647.283 336.272 648.443 336.056 649.675 336.056C650.635 336.056 651.563 336.192 652.459 336.464C653.371 336.72 654.187 337.064 654.907 337.496C655.643 337.928 656.235 338.4 656.683 338.912L655.051 340.928C654.523 340.448 653.971 340.04 653.395 339.704C652.819 339.352 652.211 339.088 651.571 338.912C650.931 338.72 650.251 338.624 649.531 338.624C648.715 338.624 647.931 338.768 647.179 339.056C646.427 339.344 645.755 339.752 645.163 340.28C644.587 340.792 644.123 341.416 643.771 342.152C643.435 342.888 643.267 343.704 643.267 344.6C643.267 345.56 643.435 346.416 643.771 347.168C644.123 347.92 644.603 348.56 645.211 349.088C645.835 349.6 646.539 349.992 647.323 350.264C648.123 350.536 648.971 350.672 649.867 350.672C650.651 350.672 651.363 350.576 652.003 350.384C652.643 350.176 653.227 349.912 653.755 349.592C654.283 349.256 654.763 348.912 655.195 348.56L656.467 350.696C656.051 351.096 655.483 351.496 654.763 351.896C654.059 352.28 653.259 352.6 652.363 352.856C651.483 353.112 650.555 353.24 649.579 353.24ZM662.218 353V336.2H674.674V338.696H664.81V350.504H674.674V353H662.218ZM663.538 345.632V343.136H673.354V345.632H663.538ZM259.896 389.24C258.824 389.24 257.832 389.12 256.92 388.88C256.008 388.64 255.176 388.28 254.424 387.8C253.672 387.32 253 386.712 252.408 385.976L254.088 383.864C255.016 384.968 255.936 385.752 256.848 386.216C257.776 386.68 258.832 386.912 260.016 386.912C260.752 386.912 261.44 386.816 262.08 386.624C262.736 386.416 263.264 386.128 263.664 385.76C264.08 385.376 264.288 384.92 264.288 384.392C264.288 384.04 264.184 383.736 263.976 383.48C263.784 383.224 263.52 383.008 263.184 382.832C262.864 382.64 262.488 382.48 262.056 382.352C261.64 382.224 261.208 382.12 260.76 382.04C260.312 381.944 259.872 381.864 259.44 381.8C258.464 381.64 257.592 381.432 256.824 381.176C256.056 380.904 255.4 380.568 254.856 380.168C254.328 379.752 253.928 379.272 253.656 378.728C253.384 378.168 253.248 377.528 253.248 376.808C253.248 376.072 253.416 375.408 253.752 374.816C254.088 374.208 254.56 373.696 255.168 373.28C255.776 372.848 256.488 372.52 257.304 372.296C258.12 372.072 259.008 371.96 259.968 371.96C260.976 371.96 261.896 372.072 262.728 372.296C263.56 372.52 264.304 372.856 264.96 373.304C265.616 373.736 266.16 374.272 266.592 374.912L264.816 376.76C264.432 376.232 263.984 375.784 263.472 375.416C262.96 375.048 262.4 374.768 261.792 374.576C261.2 374.384 260.568 374.288 259.896 374.288C259.128 374.288 258.448 374.384 257.856 374.576C257.28 374.768 256.816 375.04 256.464 375.392C256.128 375.728 255.96 376.136 255.96 376.616C255.96 377 256.056 377.344 256.248 377.648C256.456 377.936 256.744 378.184 257.112 378.392C257.48 378.6 257.936 378.776 258.48 378.92C259.024 379.064 259.648 379.192 260.352 379.304C261.28 379.448 262.144 379.64 262.944 379.88C263.76 380.104 264.472 380.392 265.08 380.744C265.688 381.096 266.16 381.528 266.496 382.04C266.832 382.552 267 383.176 267 383.912C267 384.984 266.704 385.92 266.112 386.72C265.536 387.52 264.72 388.144 263.664 388.592C262.608 389.024 261.352 389.24 259.896 389.24ZM280.821 389.24C279.477 389.24 278.237 389.024 277.101 388.592C275.981 388.144 274.997 387.528 274.149 386.744C273.317 385.96 272.669 385.048 272.205 384.008C271.757 382.952 271.533 381.816 271.533 380.6C271.533 379.384 271.757 378.256 272.205 377.216C272.669 376.16 273.317 375.24 274.149 374.456C274.997 373.672 275.981 373.064 277.101 372.632C278.237 372.184 279.477 371.96 280.821 371.96C282.181 371.96 283.421 372.176 284.541 372.608C285.677 373.04 286.661 373.656 287.493 374.456C288.341 375.24 288.989 376.16 289.437 377.216C289.901 378.256 290.133 379.384 290.133 380.6C290.133 381.816 289.901 382.952 289.437 384.008C288.989 385.048 288.341 385.968 287.493 386.768C286.661 387.552 285.677 388.16 284.541 388.592C283.421 389.024 282.181 389.24 280.821 389.24ZM280.845 386.72C281.821 386.72 282.709 386.568 283.509 386.264C284.325 385.944 285.029 385.512 285.621 384.968C286.213 384.408 286.669 383.76 286.989 383.024C287.325 382.272 287.493 381.464 287.493 380.6C287.493 379.736 287.325 378.936 286.989 378.2C286.669 377.448 286.213 376.8 285.621 376.256C285.029 375.696 284.325 375.264 283.509 374.96C282.693 374.64 281.805 374.48 280.845 374.48C279.869 374.48 278.973 374.64 278.157 374.96C277.341 375.264 276.629 375.688 276.021 376.232C275.429 376.776 274.973 377.424 274.653 378.176C274.333 378.912 274.173 379.72 274.173 380.6C274.173 381.464 274.333 382.272 274.653 383.024C274.973 383.776 275.429 384.424 276.021 384.968C276.629 385.512 277.341 385.944 278.157 386.264C278.973 386.568 279.869 386.72 280.845 386.72ZM295.843 389V372.2H304.483C305.459 372.2 306.355 372.432 307.171 372.896C307.987 373.36 308.643 373.992 309.139 374.792C309.635 375.576 309.883 376.464 309.883 377.456C309.883 378.416 309.619 379.304 309.091 380.12C308.579 380.92 307.891 381.56 307.027 382.04C306.179 382.52 305.243 382.76 304.219 382.76H298.435V389H295.843ZM307.531 389L302.443 381.416L305.155 380.816L310.723 389.024L307.531 389ZM298.435 380.264H304.195C304.739 380.264 305.235 380.136 305.683 379.88C306.131 379.624 306.491 379.28 306.763 378.848C307.035 378.416 307.171 377.944 307.171 377.432C307.171 376.904 307.019 376.44 306.715 376.04C306.427 375.624 306.035 375.296 305.539 375.056C305.043 374.816 304.491 374.696 303.883 374.696H298.435V380.264ZM320.192 389V374.696H314.528V372.2H328.568V374.696H322.784V389H320.192ZM333.574 389V386.504H337.222V374.696H333.574V372.2H343.462V374.696H339.814V386.504H343.462V389H333.574ZM350.289 389V372.2H352.761L364.905 385.952L364.665 386.168C364.585 385.72 364.521 385.24 364.473 384.728C364.425 384.216 364.377 383.68 364.329 383.12C364.297 382.544 364.265 381.96 364.233 381.368C364.217 380.76 364.201 380.152 364.185 379.544C364.185 378.936 364.185 378.328 364.185 377.72V372.2H366.777V389H364.257L352.281 375.752L352.401 375.416C352.449 376.008 352.497 376.568 352.545 377.096C352.593 377.608 352.633 378.104 352.665 378.584C352.713 379.048 352.753 379.48 352.785 379.88C352.817 380.28 352.841 380.664 352.857 381.032C352.873 381.384 352.881 381.712 352.881 382.016V389H350.289ZM381.886 389.24C380.622 389.24 379.414 389.04 378.262 388.64C377.126 388.24 376.126 387.672 375.262 386.936C374.398 386.184 373.718 385.272 373.222 384.2C372.726 383.128 372.478 381.928 372.478 380.6C372.478 379.4 372.718 378.28 373.198 377.24C373.694 376.2 374.382 375.296 375.262 374.528C376.142 373.744 377.166 373.136 378.334 372.704C379.502 372.272 380.758 372.056 382.102 372.056C383.158 372.056 384.15 372.184 385.078 372.44C386.022 372.696 386.854 373.04 387.574 373.472C388.31 373.904 388.894 374.384 389.326 374.912L387.646 376.736C387.118 376.288 386.558 375.904 385.966 375.584C385.374 375.264 384.75 375.016 384.094 374.84C383.454 374.664 382.79 374.576 382.102 374.576C381.126 374.576 380.214 374.728 379.366 375.032C378.534 375.336 377.798 375.76 377.158 376.304C376.534 376.848 376.046 377.488 375.694 378.224C375.358 378.944 375.19 379.736 375.19 380.6C375.19 381.56 375.374 382.424 375.742 383.192C376.11 383.944 376.614 384.584 377.254 385.112C377.894 385.64 378.622 386.04 379.438 386.312C380.27 386.584 381.142 386.72 382.054 386.72C382.87 386.72 383.638 386.632 384.358 386.456C385.094 386.264 385.734 386 386.278 385.664C386.822 385.312 387.246 384.912 387.55 384.464C387.854 384.016 387.998 383.528 387.982 383L387.958 382.616L388.342 383.048H382.054V380.528H390.694C390.726 380.736 390.75 380.92 390.766 381.08C390.782 381.224 390.79 381.352 390.79 381.464C390.806 381.576 390.814 381.68 390.814 381.776C390.814 382.96 390.59 384.016 390.142 384.944C389.71 385.872 389.094 386.656 388.294 387.296C387.494 387.92 386.55 388.4 385.462 388.736C384.39 389.072 383.198 389.24 381.886 389.24ZM413.995 389.24C412.731 389.24 411.523 389.04 410.371 388.64C409.235 388.24 408.235 387.672 407.371 386.936C406.507 386.184 405.827 385.272 405.331 384.2C404.835 383.128 404.587 381.928 404.587 380.6C404.587 379.4 404.827 378.28 405.307 377.24C405.803 376.2 406.491 375.296 407.371 374.528C408.251 373.744 409.275 373.136 410.443 372.704C411.611 372.272 412.867 372.056 414.211 372.056C415.267 372.056 416.259 372.184 417.187 372.44C418.131 372.696 418.963 373.04 419.683 373.472C420.419 373.904 421.003 374.384 421.435 374.912L419.755 376.736C419.227 376.288 418.667 375.904 418.075 375.584C417.483 375.264 416.859 375.016 416.203 374.84C415.563 374.664 414.899 374.576 414.211 374.576C413.235 374.576 412.323 374.728 411.475 375.032C410.643 375.336 409.907 375.76 409.267 376.304C408.643 376.848 408.155 377.488 407.803 378.224C407.467 378.944 407.299 379.736 407.299 380.6C407.299 381.56 407.483 382.424 407.851 383.192C408.219 383.944 408.723 384.584 409.363 385.112C410.003 385.64 410.731 386.04 411.547 386.312C412.379 386.584 413.251 386.72 414.163 386.72C414.979 386.72 415.747 386.632 416.467 386.456C417.203 386.264 417.843 386 418.387 385.664C418.931 385.312 419.355 384.912 419.659 384.464C419.963 384.016 420.107 383.528 420.091 383L420.067 382.616L420.451 383.048H414.163V380.528H422.803C422.835 380.736 422.859 380.92 422.875 381.08C422.891 381.224 422.899 381.352 422.899 381.464C422.915 381.576 422.923 381.68 422.923 381.776C422.923 382.96 422.699 384.016 422.251 384.944C421.819 385.872 421.203 386.656 420.403 387.296C419.603 387.92 418.659 388.4 417.571 388.736C416.499 389.072 415.307 389.24 413.995 389.24ZM435.916 389.144C434.396 389.144 433.052 388.824 431.884 388.184C430.732 387.528 429.828 386.632 429.172 385.496C428.532 384.36 428.212 383.08 428.212 381.656V372.176H430.804V381.512C430.804 382.488 431.028 383.368 431.476 384.152C431.94 384.92 432.556 385.528 433.324 385.976C434.108 386.408 434.972 386.624 435.916 386.624C436.908 386.624 437.796 386.408 438.58 385.976C439.38 385.528 440.004 384.92 440.452 384.152C440.916 383.368 441.148 382.488 441.148 381.512V372.176H443.62V381.656C443.62 383.08 443.292 384.36 442.636 385.496C441.996 386.632 441.092 387.528 439.924 388.184C438.772 388.824 437.436 389.144 435.916 389.144ZM450.152 389V386.504H453.8V374.696H450.152V372.2H460.04V374.696H456.392V386.504H460.04V389H450.152ZM466.867 389V372.2H474.523C475.915 372.2 477.147 372.416 478.219 372.848C479.307 373.264 480.227 373.856 480.979 374.624C481.731 375.392 482.299 376.288 482.683 377.312C483.067 378.32 483.259 379.416 483.259 380.6C483.259 381.8 483.067 382.912 482.683 383.936C482.299 384.96 481.731 385.848 480.979 386.6C480.243 387.352 479.331 387.944 478.243 388.376C477.155 388.792 475.915 389 474.523 389H466.867ZM469.459 386.768L469.387 386.504H474.403C475.443 386.504 476.347 386.36 477.115 386.072C477.899 385.784 478.539 385.376 479.035 384.848C479.547 384.32 479.923 383.696 480.163 382.976C480.419 382.256 480.547 381.464 480.547 380.6C480.547 379.752 480.419 378.976 480.163 378.272C479.923 377.552 479.547 376.928 479.035 376.4C478.523 375.856 477.883 375.44 477.115 375.152C476.347 374.848 475.443 374.696 474.403 374.696H469.315L469.459 374.48V386.768ZM488.968 389V372.2H501.424V374.696H491.56V386.504H501.424V389H488.968ZM490.288 381.632V379.136H500.104V381.632H490.288ZM273.782 425.24C272.518 425.24 271.342 425.04 270.254 424.64C269.166 424.224 268.214 423.632 267.398 422.864C266.582 422.096 265.95 421.184 265.502 420.128C265.054 419.056 264.83 417.88 264.83 416.6C264.83 415.384 265.07 414.256 265.55 413.216C266.03 412.176 266.686 411.272 267.518 410.504C268.35 409.72 269.31 409.12 270.398 408.704C271.486 408.272 272.646 408.056 273.878 408.056C274.838 408.056 275.766 408.192 276.662 408.464C277.574 408.72 278.39 409.064 279.11 409.496C279.846 409.928 280.438 410.4 280.886 410.912L279.254 412.928C278.726 412.448 278.174 412.04 277.598 411.704C277.022 411.352 276.414 411.088 275.774 410.912C275.134 410.72 274.454 410.624 273.734 410.624C272.918 410.624 272.134 410.768 271.382 411.056C270.63 411.344 269.958 411.752 269.366 412.28C268.79 412.792 268.326 413.416 267.974 414.152C267.638 414.888 267.47 415.704 267.47 416.6C267.47 417.56 267.638 418.416 267.974 419.168C268.326 419.92 268.806 420.56 269.414 421.088C270.038 421.6 270.742 421.992 271.526 422.264C272.326 422.536 273.174 422.672 274.07 422.672C274.854 422.672 275.566 422.576 276.206 422.384C276.846 422.176 277.43 421.912 277.958 421.592C278.486 421.256 278.966 420.912 279.398 420.56L280.67 422.696C280.254 423.096 279.686 423.496 278.966 423.896C278.262 424.28 277.462 424.6 276.566 424.856C275.686 425.112 274.758 425.24 273.782 425.24ZM291.821 425V417.104L292.157 418.664L284.117 408.2H287.501L293.453 416.216L292.877 416.192L298.517 408.2H301.637L294.197 418.424L294.413 416.912V425H291.821ZM313.157 425.24C311.893 425.24 310.717 425.04 309.629 424.64C308.541 424.224 307.589 423.632 306.773 422.864C305.957 422.096 305.325 421.184 304.877 420.128C304.429 419.056 304.205 417.88 304.205 416.6C304.205 415.384 304.445 414.256 304.925 413.216C305.405 412.176 306.061 411.272 306.893 410.504C307.725 409.72 308.685 409.12 309.773 408.704C310.861 408.272 312.021 408.056 313.253 408.056C314.213 408.056 315.141 408.192 316.037 408.464C316.949 408.72 317.765 409.064 318.485 409.496C319.221 409.928 319.813 410.4 320.261 410.912L318.629 412.928C318.101 412.448 317.549 412.04 316.973 411.704C316.397 411.352 315.789 411.088 315.149 410.912C314.509 410.72 313.829 410.624 313.109 410.624C312.293 410.624 311.509 410.768 310.757 411.056C310.005 411.344 309.333 411.752 308.741 412.28C308.165 412.792 307.701 413.416 307.349 414.152C307.013 414.888 306.845 415.704 306.845 416.6C306.845 417.56 307.013 418.416 307.349 419.168C307.701 419.92 308.181 420.56 308.789 421.088C309.413 421.6 310.117 421.992 310.901 422.264C311.701 422.536 312.549 422.672 313.445 422.672C314.229 422.672 314.941 422.576 315.581 422.384C316.221 422.176 316.805 421.912 317.333 421.592C317.861 421.256 318.341 420.912 318.773 420.56L320.045 422.696C319.629 423.096 319.061 423.496 318.341 423.896C317.637 424.28 316.837 424.6 315.941 424.856C315.061 425.112 314.133 425.24 313.157 425.24ZM325.796 425V408.2H328.388V422.504H338.132V425H325.796ZM343.914 425V408.2H356.37V410.696H346.506V422.504H356.37V425H343.914ZM345.234 417.632V415.136H355.05V417.632H345.234ZM380.313 425.24C378.969 425.24 377.729 425.024 376.593 424.592C375.473 424.144 374.489 423.528 373.641 422.744C372.809 421.96 372.161 421.048 371.697 420.008C371.249 418.952 371.025 417.816 371.025 416.6C371.025 415.384 371.249 414.256 371.697 413.216C372.161 412.16 372.809 411.24 373.641 410.456C374.489 409.672 375.473 409.064 376.593 408.632C377.729 408.184 378.969 407.96 380.313 407.96C381.673 407.96 382.913 408.176 384.033 408.608C385.169 409.04 386.153 409.656 386.985 410.456C387.833 411.24 388.481 412.16 388.929 413.216C389.393 414.256 389.625 415.384 389.625 416.6C389.625 417.816 389.393 418.952 388.929 420.008C388.481 421.048 387.833 421.968 386.985 422.768C386.153 423.552 385.169 424.16 384.033 424.592C382.913 425.024 381.673 425.24 380.313 425.24ZM380.337 422.72C381.313 422.72 382.201 422.568 383.001 422.264C383.817 421.944 384.521 421.512 385.113 420.968C385.705 420.408 386.161 419.76 386.481 419.024C386.817 418.272 386.985 417.464 386.985 416.6C386.985 415.736 386.817 414.936 386.481 414.2C386.161 413.448 385.705 412.8 385.113 412.256C384.521 411.696 383.817 411.264 383.001 410.96C382.185 410.64 381.297 410.48 380.337 410.48C379.361 410.48 378.465 410.64 377.649 410.96C376.833 411.264 376.121 411.688 375.513 412.232C374.921 412.776 374.465 413.424 374.145 414.176C373.825 414.912 373.665 415.72 373.665 416.6C373.665 417.464 373.825 418.272 374.145 419.024C374.465 419.776 374.921 420.424 375.513 420.968C376.121 421.512 376.833 421.944 377.649 422.264C378.465 422.568 379.361 422.72 380.337 422.72ZM395.335 425V408.2H397.927V425H395.335ZM396.319 417.992V415.496H406.759V417.992H396.319ZM396.511 410.696V408.2H407.839V410.696H396.511ZM423.203 425V408.2H425.795V422.504H435.539V425H423.203ZM441.41 425V422.504H445.058V410.696H441.41V408.2H451.298V410.696H447.65V422.504H451.298V425H441.41ZM458.125 425V408.2H460.717V425H458.125ZM459.109 417.992V415.496H469.549V417.992H459.109ZM459.301 410.696V408.2H470.629V410.696H459.301ZM476.523 425V408.2H488.979V410.696H479.115V422.504H488.979V425H476.523ZM477.843 417.632V415.136H487.659V417.632H477.843Z" fill="#5F5454"/>
<path d="M106.095 274L136.431 206.8H151.119L181.359 274H164.655L147.951 236.656C147.311 235.312 146.703 233.968 146.127 232.624C145.615 231.216 145.103 229.84 144.591 228.496C144.079 227.088 143.599 225.712 143.151 224.368C142.703 222.96 142.287 221.616 141.903 220.336L145.263 220.24C144.815 221.712 144.367 223.12 143.919 224.464C143.471 225.808 142.959 227.184 142.383 228.592C141.871 229.936 141.327 231.28 140.751 232.624C140.175 233.968 139.599 235.344 139.023 236.752L122.415 274H106.095ZM120.303 261.712L125.487 249.424H161.679L165.135 261.712H120.303ZM216.053 274.96C211.061 274.96 206.485 274.448 202.325 273.424C198.229 272.4 194.549 270.992 191.285 269.2C188.021 267.408 185.077 265.264 182.453 262.768L190.997 250.48C195.285 254.512 199.605 257.328 203.957 258.928C208.373 260.464 212.725 261.232 217.013 261.232C218.997 261.232 220.917 261.008 222.773 260.56C224.693 260.112 226.261 259.408 227.477 258.448C228.757 257.488 229.397 256.208 229.397 254.608C229.397 253.584 229.077 252.72 228.437 252.016C227.797 251.248 226.933 250.608 225.845 250.096C224.757 249.52 223.477 249.072 222.005 248.752C220.597 248.432 219.061 248.144 217.397 247.888C215.733 247.632 214.005 247.376 212.213 247.12C208.117 246.544 204.437 245.712 201.173 244.624C197.973 243.472 195.221 242.064 192.917 240.4C190.677 238.672 188.981 236.656 187.829 234.352C186.677 232.048 186.101 229.392 186.101 226.384C186.101 223.12 186.869 220.176 188.405 217.552C189.941 214.928 192.085 212.72 194.837 210.928C197.589 209.072 200.725 207.664 204.245 206.704C207.829 205.744 211.669 205.264 215.765 205.264C220.373 205.264 224.437 205.712 227.957 206.608C231.541 207.504 234.677 208.752 237.365 210.352C240.053 211.952 242.293 213.744 244.085 215.728L235.253 226.384C233.589 224.848 231.669 223.536 229.493 222.448C227.381 221.36 225.141 220.528 222.773 219.952C220.405 219.376 218.037 219.088 215.669 219.088C213.173 219.088 210.997 219.344 209.141 219.856C207.285 220.304 205.813 220.976 204.725 221.872C203.637 222.768 203.093 223.92 203.093 225.328C203.093 226.48 203.541 227.472 204.437 228.304C205.397 229.136 206.613 229.84 208.085 230.416C209.557 230.928 211.189 231.344 212.981 231.664C214.837 231.984 216.661 232.272 218.453 232.528C222.165 233.04 225.685 233.744 229.013 234.64C232.405 235.472 235.381 236.624 237.941 238.096C240.565 239.568 242.581 241.488 243.989 243.856C245.461 246.16 246.197 249.136 246.197 252.784C246.197 257.456 244.885 261.456 242.261 264.784C239.701 268.048 236.149 270.576 231.605 272.368C227.125 274.096 221.941 274.96 216.053 274.96ZM275.63 274V221.2H251.822V206.8H316.142V221.2H291.95V274H275.63ZM326.958 274V206.8H381.294V220.72H342.798V260.08H382.254V274H326.958ZM335.214 246.448V233.2H376.974V246.448H335.214ZM396.881 274V206.8H411.473L439.409 245.584L429.617 245.488L457.649 206.8H472.049V274H456.209V252.496C456.209 246.992 456.337 241.936 456.593 237.328C456.849 232.656 457.361 227.952 458.129 223.216L459.761 228.496L437.489 257.68H431.153L408.977 228.4L410.801 223.216C411.569 227.824 412.081 232.432 412.337 237.04C412.593 241.648 412.721 246.8 412.721 252.496V274H396.881ZM584.261 274V206.8H599.429L642.149 254.8L639.557 254.32C639.173 252.016 638.885 249.84 638.693 247.792C638.501 245.68 638.309 243.632 638.117 241.648C637.989 239.664 637.861 237.712 637.733 235.792C637.669 233.872 637.637 231.888 637.637 229.84C637.637 227.792 637.637 225.648 637.637 223.408V206.8H653.477V274H638.117L593.861 224.464L598.181 225.136C598.437 226.992 598.661 228.752 598.853 230.416C599.045 232.016 599.205 233.616 599.333 235.216C599.525 236.816 599.685 238.448 599.813 240.112C599.941 241.712 600.005 243.472 600.005 245.392C600.069 247.248 600.101 249.296 600.101 251.536V274H584.261Z" fill="#5F5454"/>
<path d="M105.82 305V287.164H116.116V289.244H108.108V295.016H115.18V297.096H108.108V305H105.82ZM125.839 305.312C123.655 305.312 121.939 304.549 120.691 303.024C119.443 301.481 118.819 299.167 118.819 296.082C118.819 292.979 119.443 290.665 120.691 289.14C121.939 287.615 123.655 286.852 125.839 286.852C128.023 286.852 129.739 287.615 130.987 289.14C132.235 290.665 132.859 292.979 132.859 296.082C132.859 299.167 132.235 301.481 130.987 303.024C129.739 304.549 128.023 305.312 125.839 305.312ZM125.839 303.206C127.278 303.206 128.405 302.669 129.219 301.594C130.051 300.519 130.467 298.899 130.467 296.732V295.432C130.467 293.265 130.051 291.645 129.219 290.57C128.405 289.495 127.278 288.958 125.839 288.958C124.418 288.958 123.291 289.495 122.459 290.57C121.627 291.645 121.211 293.265 121.211 295.432V296.732C121.211 298.899 121.627 300.519 122.459 301.594C123.291 302.669 124.418 303.206 125.839 303.206ZM136.465 305V287.164H143.641C145.392 287.164 146.718 287.623 147.619 288.542C148.521 289.443 148.971 290.631 148.971 292.104C148.971 293.213 148.694 294.175 148.139 294.99C147.585 295.787 146.805 296.359 145.799 296.706L149.387 305H146.839L143.537 297.122H138.753V305H136.465ZM138.753 295.042H143.563C144.482 295.042 145.21 294.773 145.747 294.236C146.302 293.699 146.579 292.988 146.579 292.104C146.579 291.22 146.319 290.527 145.799 290.024C145.279 289.504 144.534 289.244 143.563 289.244H138.753V295.042ZM161.989 305V289.244H157.127V287.164H169.139V289.244H164.277V305H161.989ZM178.117 305.312C175.933 305.312 174.217 304.549 172.969 303.024C171.721 301.481 171.097 299.167 171.097 296.082C171.097 292.979 171.721 290.665 172.969 289.14C174.217 287.615 175.933 286.852 178.117 286.852C180.301 286.852 182.017 287.615 183.265 289.14C184.513 290.665 185.137 292.979 185.137 296.082C185.137 299.167 184.513 301.481 183.265 303.024C182.017 304.549 180.301 305.312 178.117 305.312ZM178.117 303.206C179.555 303.206 180.682 302.669 181.497 301.594C182.329 300.519 182.745 298.899 182.745 296.732V295.432C182.745 293.265 182.329 291.645 181.497 290.57C180.682 289.495 179.555 288.958 178.117 288.958C176.695 288.958 175.569 289.495 174.737 290.57C173.905 291.645 173.489 293.265 173.489 295.432V296.732C173.489 298.899 173.905 300.519 174.737 301.594C175.569 302.669 176.695 303.206 178.117 303.206ZM194.619 305.312C192.781 305.312 191.343 304.792 190.303 303.752C189.263 302.712 188.743 301.195 188.743 299.202V287.164H191.031V299.332C191.031 300.597 191.351 301.559 191.993 302.218C192.634 302.877 193.509 303.206 194.619 303.206C195.745 303.206 196.621 302.877 197.245 302.218C197.886 301.559 198.207 300.597 198.207 299.332V287.164H200.495V299.202C200.495 301.195 199.975 302.712 198.935 303.752C197.895 304.792 196.456 305.312 194.619 305.312ZM204.649 305V287.164H211.825C213.576 287.164 214.902 287.623 215.803 288.542C216.705 289.443 217.155 290.631 217.155 292.104C217.155 293.213 216.878 294.175 216.323 294.99C215.769 295.787 214.989 296.359 213.983 296.706L217.571 305H215.023L211.721 297.122H206.937V305H204.649ZM206.937 295.042H211.747C212.666 295.042 213.394 294.773 213.931 294.236C214.486 293.699 214.763 292.988 214.763 292.104C214.763 291.22 214.503 290.527 213.983 290.024C213.463 289.504 212.718 289.244 211.747 289.244H206.937V295.042ZM220.556 305V287.164H222.844V305H220.556ZM232.244 305.312C231.17 305.312 230.173 305.139 229.254 304.792C228.336 304.445 227.599 303.882 227.044 303.102C226.507 302.322 226.238 301.273 226.238 299.956C226.238 299.869 226.238 299.774 226.238 299.67C226.256 299.549 226.264 299.471 226.264 299.436H228.63C228.63 299.453 228.622 299.531 228.604 299.67C228.604 299.791 228.604 299.895 228.604 299.982C228.604 301.074 228.942 301.889 229.618 302.426C230.294 302.946 231.135 303.206 232.14 303.206C233.336 303.206 234.255 302.955 234.896 302.452C235.555 301.932 235.884 301.195 235.884 300.242C235.884 299.601 235.711 299.081 235.364 298.682C235.035 298.283 234.593 297.954 234.038 297.694C233.501 297.434 232.903 297.2 232.244 296.992C231.586 296.784 230.918 296.559 230.242 296.316C229.584 296.073 228.977 295.761 228.422 295.38C227.885 294.999 227.443 294.513 227.096 293.924C226.767 293.317 226.602 292.555 226.602 291.636C226.602 290.544 226.854 289.643 227.356 288.932C227.876 288.221 228.561 287.701 229.41 287.372C230.277 287.025 231.23 286.852 232.27 286.852C233.31 286.852 234.246 287.025 235.078 287.372C235.928 287.701 236.604 288.239 237.106 288.984C237.609 289.712 237.86 290.674 237.86 291.87V292.182H235.494V291.792C235.494 290.873 235.191 290.171 234.584 289.686C233.978 289.201 233.224 288.958 232.322 288.958C231.386 288.958 230.598 289.157 229.956 289.556C229.332 289.955 229.02 290.587 229.02 291.454C229.02 292.061 229.185 292.555 229.514 292.936C229.861 293.317 230.303 293.638 230.84 293.898C231.395 294.141 232.002 294.366 232.66 294.574C233.319 294.782 233.978 295.007 234.636 295.25C235.295 295.493 235.893 295.805 236.43 296.186C236.985 296.567 237.427 297.053 237.756 297.642C238.103 298.214 238.276 298.951 238.276 299.852C238.276 301.187 238.008 302.253 237.47 303.05C236.95 303.847 236.24 304.428 235.338 304.792C234.437 305.139 233.406 305.312 232.244 305.312ZM245.267 305V289.244H240.405V287.164H252.417V289.244H247.555V305H245.267ZM252.759 308.224L253.799 305H252.759V302.192H255.359V304.766L254.111 308.224H252.759ZM265.787 305V287.164H276.785V289.244H268.075V294.834H275.641V296.914H268.075V302.92H276.941V305H265.787ZM278.81 305L284.504 295.744L279.33 287.164H282.034L285.856 293.534H285.882L289.808 287.164H292.252L287.078 295.536L292.824 305H290.12L285.752 297.72H285.726L281.254 305H278.81ZM295.265 305V287.164H301.635C302.813 287.164 303.793 287.381 304.573 287.814C305.37 288.247 305.968 288.854 306.367 289.634C306.765 290.414 306.965 291.324 306.965 292.364C306.965 293.404 306.748 294.323 306.315 295.12C305.881 295.917 305.266 296.541 304.469 296.992C303.689 297.425 302.744 297.642 301.635 297.642H297.553V305H295.265ZM297.553 295.562H301.557C302.475 295.562 303.203 295.267 303.741 294.678C304.295 294.089 304.573 293.317 304.573 292.364C304.573 291.393 304.313 290.631 303.793 290.076C303.273 289.521 302.527 289.244 301.557 289.244H297.553V295.562ZM306.608 305L312.276 287.164H315.214L320.882 305H318.412L317.19 301.022H310.118L308.896 305H306.608ZM310.742 298.942H316.54L314.122 291.012C314.07 290.804 314.01 290.544 313.94 290.232C313.871 289.92 313.81 289.643 313.758 289.4C313.724 289.157 313.706 289.036 313.706 289.036H313.602C313.602 289.036 313.576 289.166 313.524 289.426C313.49 289.669 313.438 289.946 313.368 290.258C313.316 290.57 313.256 290.821 313.186 291.012L310.742 298.942ZM325.18 305V289.244H320.318V287.164H332.33V289.244H327.468V305H325.18ZM340.442 305.312C339.367 305.312 338.37 305.139 337.452 304.792C336.533 304.445 335.796 303.882 335.242 303.102C334.704 302.322 334.436 301.273 334.436 299.956C334.436 299.869 334.436 299.774 334.436 299.67C334.453 299.549 334.462 299.471 334.462 299.436H336.828C336.828 299.453 336.819 299.531 336.802 299.67C336.802 299.791 336.802 299.895 336.802 299.982C336.802 301.074 337.14 301.889 337.816 302.426C338.492 302.946 339.332 303.206 340.338 303.206C341.534 303.206 342.452 302.955 343.094 302.452C343.752 301.932 344.082 301.195 344.082 300.242C344.082 299.601 343.908 299.081 343.562 298.682C343.232 298.283 342.79 297.954 342.236 297.694C341.698 297.434 341.1 297.2 340.442 296.992C339.783 296.784 339.116 296.559 338.44 296.316C337.781 296.073 337.174 295.761 336.62 295.38C336.082 294.999 335.64 294.513 335.294 293.924C334.964 293.317 334.8 292.555 334.8 291.636C334.8 290.544 335.051 289.643 335.554 288.932C336.074 288.221 336.758 287.701 337.608 287.372C338.474 287.025 339.428 286.852 340.468 286.852C341.508 286.852 342.444 287.025 343.276 287.372C344.125 287.701 344.801 288.239 345.304 288.984C345.806 289.712 346.058 290.674 346.058 291.87V292.182H343.692V291.792C343.692 290.873 343.388 290.171 342.782 289.686C342.175 289.201 341.421 288.958 340.52 288.958C339.584 288.958 338.795 289.157 338.154 289.556C337.53 289.955 337.218 290.587 337.218 291.454C337.218 292.061 337.382 292.555 337.712 292.936C338.058 293.317 338.5 293.638 339.038 293.898C339.592 294.141 340.199 294.366 340.858 294.574C341.516 294.782 342.175 295.007 342.834 295.25C343.492 295.493 344.09 295.805 344.628 296.186C345.182 296.567 345.624 297.053 345.954 297.642C346.3 298.214 346.474 298.951 346.474 299.852C346.474 301.187 346.205 302.253 345.668 303.05C345.148 303.847 344.437 304.428 343.536 304.792C342.634 305.139 341.603 305.312 340.442 305.312ZM353.351 305L359.019 287.164H361.957L367.625 305H365.155L363.933 301.022H356.861L355.639 305H353.351ZM357.485 298.942H363.283L360.865 291.012C360.813 290.804 360.752 290.544 360.683 290.232C360.613 289.92 360.553 289.643 360.501 289.4C360.466 289.157 360.449 289.036 360.449 289.036H360.345C360.345 289.036 360.319 289.166 360.267 289.426C360.232 289.669 360.18 289.946 360.111 290.258C360.059 290.57 359.998 290.821 359.929 291.012L357.485 298.942ZM369.935 305V287.164H371.911L378.541 298.37C378.68 298.595 378.827 298.899 378.983 299.28C379.157 299.661 379.304 300.008 379.425 300.32C379.564 300.615 379.633 300.762 379.633 300.762L379.711 300.736C379.711 300.736 379.703 300.58 379.685 300.268C379.685 299.956 379.677 299.609 379.659 299.228C379.642 298.847 379.633 298.561 379.633 298.37V287.164H381.687V305H379.789L373.107 293.638C372.969 293.378 372.804 293.066 372.613 292.702C372.44 292.321 372.284 291.983 372.145 291.688C372.024 291.393 371.963 291.246 371.963 291.246L371.885 291.272C371.885 291.272 371.894 291.419 371.911 291.714C371.929 292.009 371.946 292.347 371.963 292.728C371.981 293.092 371.989 293.395 371.989 293.638V305H369.935ZM385.842 305V287.164H391.38C393.495 287.164 395.15 287.892 396.346 289.348C397.542 290.787 398.14 292.945 398.14 295.822C398.14 298.873 397.542 301.169 396.346 302.712C395.15 304.237 393.495 305 391.38 305H385.842ZM388.13 302.92H391.172C392.576 302.92 393.685 302.391 394.5 301.334C395.332 300.259 395.748 298.639 395.748 296.472V295.172C395.748 293.179 395.332 291.697 394.5 290.726C393.685 289.738 392.576 289.244 391.172 289.244H388.13V302.92ZM408.185 305V287.164H419.183V289.244H410.473V294.834H418.039V296.914H410.473V302.92H419.339V305H408.185ZM421.208 305L426.902 295.744L421.728 287.164H424.432L428.254 293.534H428.28L432.206 287.164H434.65L429.476 295.536L435.222 305H432.518L428.15 297.72H428.124L423.652 305H421.208ZM443.954 305.312C441.649 305.312 439.898 304.549 438.702 303.024C437.524 301.481 436.934 299.167 436.934 296.082C436.934 292.979 437.524 290.665 438.702 289.14C439.898 287.615 441.649 286.852 443.954 286.852C445.168 286.852 446.242 287.103 447.178 287.606C448.114 288.091 448.842 288.837 449.362 289.842C449.9 290.83 450.168 292.087 450.168 293.612H447.828C447.828 292.052 447.473 290.891 446.762 290.128C446.069 289.348 445.133 288.958 443.954 288.958C442.394 288.958 441.233 289.495 440.47 290.57C439.708 291.645 439.326 293.265 439.326 295.432V296.732C439.326 298.899 439.708 300.519 440.47 301.594C441.233 302.669 442.394 303.206 443.954 303.206C445.15 303.206 446.104 302.825 446.814 302.062C447.542 301.299 447.906 300.147 447.906 298.604H450.168C450.168 300.129 449.9 301.395 449.362 302.4C448.842 303.388 448.114 304.125 447.178 304.61C446.242 305.078 445.168 305.312 443.954 305.312ZM453.569 305V287.164H455.857V294.834H463.033V287.164H465.321V305H463.033V296.914H455.857V305H453.569ZM467.63 305L473.298 287.164H476.236L481.904 305H479.434L478.212 301.022H471.14L469.918 305H467.63ZM471.764 298.942H477.562L475.144 291.012C475.092 290.804 475.031 290.544 474.962 290.232C474.892 289.92 474.832 289.643 474.78 289.4C474.745 289.157 474.728 289.036 474.728 289.036H474.624C474.624 289.036 474.598 289.166 474.546 289.426C474.511 289.669 474.459 289.946 474.39 290.258C474.338 290.57 474.277 290.821 474.208 291.012L471.764 298.942ZM484.214 305V287.164H486.19L492.82 298.37C492.959 298.595 493.106 298.899 493.262 299.28C493.436 299.661 493.583 300.008 493.704 300.32C493.843 300.615 493.912 300.762 493.912 300.762L493.99 300.736C493.99 300.736 493.982 300.58 493.964 300.268C493.964 299.956 493.956 299.609 493.938 299.228C493.921 298.847 493.912 298.561 493.912 298.37V287.164H495.966V305H494.068L487.386 293.638C487.248 293.378 487.083 293.066 486.892 292.702C486.719 292.321 486.563 291.983 486.424 291.688C486.303 291.393 486.242 291.246 486.242 291.246L486.164 291.272C486.164 291.272 486.173 291.419 486.19 291.714C486.208 292.009 486.225 292.347 486.242 292.728C486.26 293.092 486.268 293.395 486.268 293.638V305H484.214ZM506.595 305.312C504.342 305.312 502.609 304.549 501.395 303.024C500.182 301.481 499.575 299.167 499.575 296.082C499.575 292.979 500.208 290.665 501.473 289.14C502.756 287.615 504.507 286.852 506.725 286.852C507.973 286.852 509.083 287.086 510.053 287.554C511.024 288.022 511.787 288.733 512.341 289.686C512.913 290.622 513.199 291.809 513.199 293.248H510.859C510.859 291.757 510.478 290.674 509.715 289.998C508.953 289.305 507.956 288.958 506.725 288.958C505.252 288.958 504.091 289.495 503.241 290.57C502.392 291.645 501.967 293.265 501.967 295.432V296.732C501.967 298.899 502.366 300.519 503.163 301.594C503.961 302.669 505.105 303.206 506.595 303.206C508.086 303.206 509.169 302.79 509.845 301.958C510.521 301.109 510.859 299.835 510.859 298.136V296.758L511.821 297.72H506.231V295.718H513.199V305H511.691L511.197 303.024C510.66 303.821 510.001 304.402 509.221 304.766C508.441 305.13 507.566 305.312 506.595 305.312ZM517.221 305V287.164H528.219V289.244H519.509V294.834H527.075V296.914H519.509V302.92H528.375V305H517.221ZM543.648 305.312C542.573 305.312 541.577 305.139 540.658 304.792C539.739 304.445 539.003 303.882 538.448 303.102C537.911 302.322 537.642 301.273 537.642 299.956C537.642 299.869 537.642 299.774 537.642 299.67C537.659 299.549 537.668 299.471 537.668 299.436H540.034C540.034 299.453 540.025 299.531 540.008 299.67C540.008 299.791 540.008 299.895 540.008 299.982C540.008 301.074 540.346 301.889 541.022 302.426C541.698 302.946 542.539 303.206 543.544 303.206C544.74 303.206 545.659 302.955 546.3 302.452C546.959 301.932 547.288 301.195 547.288 300.242C547.288 299.601 547.115 299.081 546.768 298.682C546.439 298.283 545.997 297.954 545.442 297.694C544.905 297.434 544.307 297.2 543.648 296.992C542.989 296.784 542.322 296.559 541.646 296.316C540.987 296.073 540.381 295.761 539.826 295.38C539.289 294.999 538.847 294.513 538.5 293.924C538.171 293.317 538.006 292.555 538.006 291.636C538.006 290.544 538.257 289.643 538.76 288.932C539.28 288.221 539.965 287.701 540.814 287.372C541.681 287.025 542.634 286.852 543.674 286.852C544.714 286.852 545.65 287.025 546.482 287.372C547.331 287.701 548.007 288.239 548.51 288.984C549.013 289.712 549.264 290.674 549.264 291.87V292.182H546.898V291.792C546.898 290.873 546.595 290.171 545.988 289.686C545.381 289.201 544.627 288.958 543.726 288.958C542.79 288.958 542.001 289.157 541.36 289.556C540.736 289.955 540.424 290.587 540.424 291.454C540.424 292.061 540.589 292.555 540.918 292.936C541.265 293.317 541.707 293.638 542.244 293.898C542.799 294.141 543.405 294.366 544.064 294.574C544.723 294.782 545.381 295.007 546.04 295.25C546.699 295.493 547.297 295.805 547.834 296.186C548.389 296.567 548.831 297.053 549.16 297.642C549.507 298.214 549.68 298.951 549.68 299.852C549.68 301.187 549.411 302.253 548.874 303.05C548.354 303.847 547.643 304.428 546.742 304.792C545.841 305.139 544.809 305.312 543.648 305.312ZM556.671 305V289.244H551.809V287.164H563.821V289.244H558.959V305H556.671ZM572.556 305.312C570.719 305.312 569.28 304.792 568.24 303.752C567.2 302.712 566.68 301.195 566.68 299.202V287.164H568.968V299.332C568.968 300.597 569.289 301.559 569.93 302.218C570.572 302.877 571.447 303.206 572.556 303.206C573.683 303.206 574.558 302.877 575.182 302.218C575.824 301.559 576.144 300.597 576.144 299.332V287.164H578.432V299.202C578.432 301.195 577.912 302.712 576.872 303.752C575.832 304.792 574.394 305.312 572.556 305.312ZM582.587 305V287.164H588.125C590.24 287.164 591.895 287.892 593.091 289.348C594.287 290.787 594.885 292.945 594.885 295.822C594.885 298.873 594.287 301.169 593.091 302.712C591.895 304.237 590.24 305 588.125 305H582.587ZM584.875 302.92H587.917C589.321 302.92 590.43 302.391 591.245 301.334C592.077 300.259 592.493 298.639 592.493 296.472V295.172C592.493 293.179 592.077 291.697 591.245 290.726C590.43 289.738 589.321 289.244 587.917 289.244H584.875V302.92ZM598.494 305V287.164H609.492V289.244H600.782V294.834H608.348V296.914H600.782V302.92H609.648V305H598.494ZM613.232 305V287.164H615.208L621.838 298.37C621.977 298.595 622.124 298.899 622.28 299.28C622.454 299.661 622.601 300.008 622.722 300.32C622.861 300.615 622.93 300.762 622.93 300.762L623.008 300.736C623.008 300.736 623 300.58 622.982 300.268C622.982 299.956 622.974 299.609 622.956 299.228C622.939 298.847 622.93 298.561 622.93 298.37V287.164H624.984V305H623.086L616.404 293.638C616.266 293.378 616.101 293.066 615.91 292.702C615.737 292.321 615.581 291.983 615.442 291.688C615.321 291.393 615.26 291.246 615.26 291.246L615.182 291.272C615.182 291.272 615.191 291.419 615.208 291.714C615.226 292.009 615.243 292.347 615.26 292.728C615.278 293.092 615.286 293.395 615.286 293.638V305H613.232ZM632.675 305V289.244H627.813V287.164H639.825V289.244H634.963V305H632.675ZM647.936 305.312C646.862 305.312 645.865 305.139 644.946 304.792C644.028 304.445 643.291 303.882 642.736 303.102C642.199 302.322 641.93 301.273 641.93 299.956C641.93 299.869 641.93 299.774 641.93 299.67C641.948 299.549 641.956 299.471 641.956 299.436H644.322C644.322 299.453 644.314 299.531 644.296 299.67C644.296 299.791 644.296 299.895 644.296 299.982C644.296 301.074 644.634 301.889 645.31 302.426C645.986 302.946 646.827 303.206 647.832 303.206C649.028 303.206 649.947 302.955 650.588 302.452C651.247 301.932 651.576 301.195 651.576 300.242C651.576 299.601 651.403 299.081 651.056 298.682C650.727 298.283 650.285 297.954 649.73 297.694C649.193 297.434 648.595 297.2 647.936 296.992C647.278 296.784 646.61 296.559 645.934 296.316C645.276 296.073 644.669 295.761 644.114 295.38C643.577 294.999 643.135 294.513 642.788 293.924C642.459 293.317 642.294 292.555 642.294 291.636C642.294 290.544 642.546 289.643 643.048 288.932C643.568 288.221 644.253 287.701 645.102 287.372C645.969 287.025 646.922 286.852 647.962 286.852C649.002 286.852 649.938 287.025 650.77 287.372C651.62 287.701 652.296 288.239 652.798 288.984C653.301 289.712 653.552 290.674 653.552 291.87V292.182H651.186V291.792C651.186 290.873 650.883 290.171 650.276 289.686C649.67 289.201 648.916 288.958 648.014 288.958C647.078 288.958 646.29 289.157 645.648 289.556C645.024 289.955 644.712 290.587 644.712 291.454C644.712 292.061 644.877 292.555 645.206 292.936C645.553 293.317 645.995 293.638 646.532 293.898C647.087 294.141 647.694 294.366 648.352 294.574C649.011 294.782 649.67 295.007 650.328 295.25C650.987 295.493 651.585 295.805 652.122 296.186C652.677 296.567 653.119 297.053 653.448 297.642C653.795 298.214 653.968 298.951 653.968 299.852C653.968 301.187 653.7 302.253 653.162 303.05C652.642 303.847 651.932 304.428 651.03 304.792C650.129 305.139 649.098 305.312 647.936 305.312Z" fill="#5F5454"/>
<g clip-path="url(#clip0_53_409)">
<path d="M538.234 196.186C538.175 196.514 538.172 196.661 538.149 197.039C538.144 197.113 538.004 197.145 538.002 197.212C537.985 197.668 538.511 198.539 538.784 198.929C538.9 199.095 539.136 199.207 539.186 199.306C539.272 199.482 539.127 199.767 539.151 199.982C539.283 201.133 539.975 202.522 540.616 203.483C540.884 203.887 541.477 204.452 541.648 204.863C541.78 205.185 541.655 205.613 541.852 206.012C542.283 206.889 543.533 207.966 543.881 208.683C544.082 209.098 544.058 209.582 544.398 209.978C544.903 210.567 546.224 210.807 546.868 211.245C547.647 211.771 547.976 212.263 549.062 212.441C549.481 212.509 550.142 212.397 550.421 212.46C550.553 212.49 550.747 212.706 550.94 212.773C551.987 213.139 552.085 213.079 553.055 213.716C554.803 214.863 556.708 216.238 558.35 217.55C559.858 218.757 561.561 220.898 562.813 222.396C563.238 222.902 563.511 223.445 563.864 223.856C563.995 224.009 564.401 224.192 564.47 224.384C564.522 224.523 564.44 224.743 564.511 224.942C564.586 225.149 564.878 225.213 564.987 225.453C565.256 226.057 565.405 226.935 565.63 227.531C565.837 228.075 566.34 228.781 566.481 229.308C566.721 230.21 566.689 231.162 566.834 232.051C566.932 232.643 567.518 234.899 567.446 235.28C567.424 235.397 567.266 235.519 567.241 235.707C567.199 236.022 567.447 237.598 567.55 237.94C567.741 238.567 568.119 240.323 568.157 240.997C568.173 241.27 567.979 241.543 567.991 241.776C568.06 243.256 567.483 244.775 567.428 246.247C567.418 246.555 567.529 246.908 567.507 247.269C567.327 250.147 565.43 252.753 564.488 255.361C564.33 255.795 564.229 256.485 564.054 256.93C563.834 257.497 562.541 258.992 562.176 259.642C561.754 260.39 561.519 261.876 561.07 262.786C560.812 263.314 560.08 263.68 560.678 264.233C561.186 264.705 562.625 264.791 563.29 265.041C563.819 265.239 564.069 265.748 564.584 265.769C564.708 265.773 564.816 265.665 564.954 265.693C565.113 265.721 566.147 266.036 566.3 266.104C566.847 266.345 566.849 266.728 567.165 266.992C567.194 267.017 567.786 267.332 567.824 267.341C568.166 267.421 568.577 267.157 568.883 267.175C568.981 267.181 569.015 267.334 569.094 267.364C570.037 267.754 570.475 267.652 571.29 268.44C571.583 268.723 572.075 269.521 572.267 269.649C572.483 269.794 572.961 269.78 573.244 269.879C574.217 270.222 576.043 271.244 576.459 272.211C576.876 273.177 576.181 274.33 575.138 274.46C574.665 274.52 574.585 274.24 574.427 274.249C574.112 274.266 573.439 274.613 573.055 274.589C572.961 274.581 572.889 274.376 572.715 274.335C572.519 274.289 572.407 274.438 572.254 274.436C571.851 274.432 570.935 274.026 570.665 274.025C570.483 274.025 570.11 274.248 569.777 274.276C569.104 274.33 568.271 274.04 567.512 274.162C567.197 274.213 566.841 274.422 566.619 274.427C566.414 274.432 566.19 274.225 565.948 274.211C564.549 274.127 562.86 274.478 561.559 274.385C561.289 274.363 560.933 274.18 560.587 274.147C559.418 274.033 558.561 274.261 557.463 274.362C557.241 274.38 557.061 274.234 556.771 274.306C556.48 274.379 556.338 274.644 556.075 274.741C555.016 275.133 554.694 274.923 553.713 274.9C553.366 274.891 552.505 275.097 552.357 274.827L552.178 274.864C552.105 275.451 551.892 274.879 551.781 274.788C551.474 274.538 551.065 274.878 550.78 274.929C549.869 275.102 549.008 275.507 548.3 275.635C547.525 275.773 547.055 275.569 546.057 275.936C545.198 276.251 544.399 277.023 543.441 277.032C543.199 277.034 543.171 276.817 542.979 276.753C542.705 276.663 542.519 276.827 542.194 276.601C542.132 276.557 541.376 275.716 541.309 275.62C540.892 275.006 541.058 273.834 540.149 273.837C538.881 273.842 537.42 274.463 536.159 274.631C534.594 274.837 532.635 274.434 530.978 274.909C530.518 275.042 530.115 275.351 529.611 275.387C529.428 275.401 529.486 275.226 529.302 275.24C528.737 275.283 527.946 275.59 527.367 275.588C527.148 275.587 526.932 275.391 526.704 275.394C526.386 275.399 526.015 275.568 525.682 275.596C523.807 275.752 521.806 275.578 519.917 275.534C519.5 275.523 518.883 275.675 518.492 275.629C518.1 275.582 517.633 275.328 517.213 275.237C516.07 274.991 515.028 274.931 513.819 274.635C512.35 274.276 510.946 273.757 509.547 273.164C509.11 272.98 508.482 272.979 507.975 272.736C507.309 272.419 506.37 271.579 505.616 271.544C505.304 271.531 505.012 271.727 504.691 271.602C504.533 271.542 504.459 271.36 504.329 271.294C504.07 271.16 503.503 271.116 503.168 270.975C502.728 270.785 502.38 270.43 501.972 270.224C501.271 269.864 501.566 270.187 500.957 269.562C500.772 269.371 499.97 269.102 499.707 268.889C499.461 268.69 499.286 268.323 499.011 268.113C498.354 267.611 496.977 266.591 496.472 265.972C496.148 265.569 496.096 264.957 495.883 264.665C495.671 264.372 494.945 263.988 494.651 263.475C494.341 262.93 494.321 262.328 493.959 261.71C493.452 260.838 493.037 259.825 492.483 258.936C492.364 258.744 491.936 258.206 491.732 258.235C491.551 258.258 490.865 258.851 490.676 259.016C490.6 259.081 490.602 259.254 490.461 259.376C489.685 260.053 488.911 259.984 488.156 260.355C487.849 260.507 487.454 261.017 487.167 261.235C486.957 261.395 486.447 261.389 486.702 261.773C486.522 261.869 486.246 261.769 486.095 261.827C485.556 262.033 484.226 264.141 483.756 264.706C483.591 264.906 483.242 265.117 483.032 265.356C482.275 266.219 482.123 267.251 480.693 267.27C480.331 267.274 479.541 266.883 479.414 266.52C478.939 265.153 479.308 263.61 479.989 262.373C480.181 262.025 480.644 261.528 480.834 261.156C481.024 260.785 480.988 260.349 481.147 259.991C481.286 259.68 482.002 259.018 482.069 258.825C482.135 258.631 482.028 258.331 482.116 258.046C482.189 257.805 482.615 257.06 482.778 256.667C483.795 254.23 484.719 251.739 485.44 249.187C486.095 246.86 487.186 244.868 487.868 242.559C487.972 242.205 487.99 241.613 488.109 241.266C488.181 241.051 488.438 240.863 488.463 240.608C488.487 240.354 488.341 240.204 488.347 240.039C488.373 239.482 488.799 238.347 488.831 237.788C488.85 237.488 488.597 236.704 488.676 236.475C489.284 236.019 489.66 235.356 490.179 234.808C490.287 234.34 489.993 233.651 490.029 233.255C490.045 233.089 490.221 232.993 490.257 232.842C490.485 231.877 490.735 230.369 490.868 229.374C490.959 228.713 490.876 227.965 491.022 227.379C491.096 227.091 491.189 226.879 491.377 226.645L491.056 226.437C491.172 226.014 491.128 225.584 491.192 225.152C491.245 224.792 491.442 223.64 491.539 223.364C491.585 223.235 491.914 222.682 492.022 222.477C492.605 221.363 493.355 220.332 493.938 219.222C494.175 218.771 494.443 217.838 494.691 217.458C494.82 217.258 495.181 217.108 495.35 216.924C496.169 216.042 496.716 215.304 497.635 214.482C498.553 213.659 499.309 212.513 500.209 211.747C501.168 210.93 502.304 210.265 503.317 209.367C505.206 207.687 506.951 206.523 509.112 205.213C509.659 204.882 510.454 204.058 510.872 203.876C511.327 203.68 511.851 203.776 512.356 203.647C512.895 203.507 513.332 203.075 513.778 202.967C515.123 202.64 516.497 202.227 517.832 201.931C519.07 201.655 518.648 201.831 519.72 202.025C521.014 202.26 521.516 202.214 522.81 202.11C523.434 202.06 523.912 202.301 524.346 202.346C525.048 202.419 525.779 202.337 526.483 202.516C526.618 202.445 526.676 201.608 526.757 201.402C526.893 201.058 527.291 200.454 527.61 200.273C528.335 199.859 528.797 199.841 529.15 198.951C529.71 197.542 530.184 196.773 531.029 195.513C531.765 194.415 532.051 193.471 532.61 192.303C533.057 191.369 532.918 191.647 533.077 190.653C533.162 190.127 534.212 187.65 534.508 187.201C534.562 187.12 534.936 186.934 535.009 186.723C535.411 186.74 535.918 186.604 536.306 186.668C536.663 186.724 537.542 187.307 537.673 187.653C537.86 188.147 537.715 188.609 537.779 189.086C537.91 190.054 538.096 190.721 538.097 191.719C538.098 191.968 537.96 192.239 537.978 192.455C538.095 193.696 538.44 194.95 538.218 196.203L538.234 196.186ZM540.943 214.662C540.714 214.483 540.246 214.339 539.987 214.095C539.531 213.666 539.49 212.976 538.635 213.523C538.379 213.685 537.951 214.208 537.707 214.364C537.364 214.587 536.689 214.891 536.316 215.134C535.678 215.553 535.234 215.95 534.546 216.29C531.542 217.778 530.337 219.933 528.392 222.479C527.999 222.992 526.881 223.879 526.388 224.342C526.114 224.597 525.62 225.593 525.413 225.915C524.508 227.321 523.43 228.698 522.201 229.821C522.109 229.906 522.184 230.077 521.963 230.166C521.202 230.477 519.592 229.891 519.272 229.104C519.23 228.996 518.903 227.719 518.901 227.643C518.899 227.586 519.192 226.661 519.236 226.586C519.375 226.351 519.554 226.318 519.676 226.15C519.749 226.052 520.45 224.409 520.518 224.205C520.791 223.361 520.75 222.397 520.881 221.539C521.011 220.681 521.508 219.744 521.634 218.883C521.674 218.735 521.291 218.697 521.224 218.694C521.02 218.689 520.792 218.692 520.602 218.771C520.378 218.863 520.461 219.073 520.366 219.115C519.498 219.515 518.27 219.37 517.596 219.6C517.161 219.749 516.495 220.211 515.976 220.387C513.674 221.166 511.511 221.47 509.205 221.874C507.948 222.094 506.611 222.31 505.469 222.949C503.931 223.811 502.458 224.731 501.018 225.73C500.25 226.262 499.471 227.15 498.88 227.869C498.085 228.837 496.783 229.668 495.918 230.67C495.577 231.065 494.815 232.575 494.81 233.068C494.811 233.138 494.941 233.877 494.965 233.912C495.095 234.095 495.698 234.361 495.864 234.51C496.206 234.82 496.916 235.936 497.247 236.145C497.804 236.5 498.428 236.985 499.012 237.322C499.339 237.511 499.976 237.638 500.171 237.764C500.501 237.983 501.016 238.88 501.502 239.047C501.673 239.105 501.912 238.973 501.973 239.011L502.035 239.281L502.5 238.986C502.587 239.038 502.602 239.132 502.713 239.172C504.347 239.787 505.345 239.241 506.969 238.95C507.565 238.845 508.227 238.93 508.815 238.59C509.323 238.832 509.574 239.314 509.956 239.675L510.196 240.847C509.793 241.884 508.84 242.621 508.069 243.397C507.256 244.215 507.382 244.166 506.394 244.647C505.337 245.162 504.94 245.645 504.014 246.283C503.715 246.491 503.249 246.633 502.986 246.813C501.337 247.941 499.982 249.651 498.836 251.249C498.78 251.33 498.587 251.363 498.544 251.459C498.484 251.59 498.65 252.372 498.757 252.486C498.828 252.562 499.064 252.593 499.189 252.684C500.103 253.356 501.171 253.754 502.162 254.414C504.298 255.835 506.682 257.392 509.227 258C511.392 258.52 513.768 258.918 515.842 259.463C516.46 259.626 517.17 259.818 517.662 260.246C517.755 260.327 518.496 261.191 518.522 261.252C518.573 261.371 518.556 261.907 518.64 262.189C518.852 262.905 519.2 263.599 519.413 264.318C519.697 264.439 519.959 264.685 520.207 264.824C520.383 264.922 520.611 264.899 520.723 264.959C521.909 265.612 522.817 266.465 524.079 267.023C525.722 267.749 527.035 268.356 528.868 268.565C529.758 268.666 530.919 268.592 531.716 268.769C532.689 268.983 532.926 269.168 533.994 269.226C535.291 269.298 536.61 269.564 537.899 269.305C538.537 269.175 539.102 268.916 539.835 268.927C540.328 268.933 541.53 269.472 541.726 269.469C541.782 269.468 542.7 269.197 542.795 269.158C543.559 268.819 543.795 266.395 543.94 265.637C544.097 264.83 544.493 263.548 544.465 262.755C544.445 262.234 544.166 261.615 544.133 261.083C544.109 260.652 544.395 260.068 544.335 259.677C544.265 259.203 544.073 258.263 543.944 257.811C543.729 257.063 543.221 256.171 542.981 255.482C542.774 254.888 542.64 253.957 542.822 253.351C543.014 252.71 543.975 251.642 544.668 251.704C544.804 251.716 545.82 252.191 545.977 252.289C546.872 252.851 546.67 253.049 547.03 253.871C548.165 256.457 550.455 258.273 552.913 259.625C553.149 259.756 553.256 260.087 553.749 259.704C553.855 259.622 553.827 259.452 553.901 259.357C553.946 259.301 554.114 259.31 554.13 259.277C554.177 259.197 554.03 258.978 554.076 258.832C554.089 258.796 554.255 258.699 554.314 258.547C554.638 257.726 555.001 256.624 554.968 255.748C554.956 255.428 554.841 255.089 554.831 254.765C554.259 254.386 553.18 254.29 552.77 253.728C552.464 253.305 551.897 251.224 552.033 250.734C552.077 250.579 552.259 250.541 552.256 250.462C552.25 250.364 552.118 250.241 552.1 250.121C552.046 249.723 552.271 249.265 552.318 248.826C552.383 248.201 552.282 247.722 552.252 247.186C552.247 247.094 552.46 247.067 552.48 246.916C552.612 245.888 552.68 244.823 552.735 243.773C552.756 243.34 553.038 242.797 553.057 242.613C553.092 242.217 552.786 241.321 552.71 240.85C552.506 239.538 552.448 237.806 551.798 236.621C551.491 236.058 550.987 235.772 550.66 235.293C550.382 234.887 550.155 234.331 549.887 233.896C549.724 233.634 549.382 233.554 549.484 233.157C549.381 232.975 549.219 233.178 549.107 233.131C549.027 233.1 547.76 232.258 547.706 232.192C547.547 231.702 546.842 230.851 546.788 230.393C546.775 230.279 547.103 229.284 547.181 229.191C547.399 228.927 548.073 228.454 548.422 228.356C548.148 228.069 548.622 227.447 548.645 227.172C548.673 226.834 548.452 226.55 548.444 226.299C548.436 226.047 548.695 225.529 548.725 225.203C548.74 225.047 548.702 224.403 548.657 224.282C548.62 224.18 547.723 223.039 547.573 222.859C546.185 221.199 544.627 219.617 543.141 218.094C542.314 217.248 542.55 216.584 542.035 215.734C541.924 215.55 541.128 214.804 540.934 214.651L540.943 214.662Z" fill="#5F5454"/>
</g>
<line x1="71" y1="321.5" x2="699.003" y2="321.5" stroke="#5F5454"/>
<defs>
<clipPath id="clip0_53_409">
<rect width="94" height="94" fill="white" transform="translate(466 200.784) rotate(-11.5275)"/>
</clipPath>
</defs>
</svg>
