<svg width="796" height="548" viewBox="0 0 796 548" fill="none" xmlns="http://www.w3.org/2000/svg">
<path d="M503.293 57.7159C502.574 59.5183 502.384 60.3531 501.816 62.4781C501.703 62.8955 500.87 62.9145 500.775 63.2939C500.15 65.8743 502.138 71.4523 503.236 73.9947C503.71 75.0762 504.921 75.9869 505.092 76.613C505.376 77.7134 504.221 79.1743 504.107 80.4266C503.52 87.143 505.849 95.8706 508.386 102.094C509.446 104.712 512.173 108.62 512.665 111.163C513.044 113.155 511.832 115.451 512.495 117.955C513.934 123.457 519.803 131.047 520.958 135.543C521.62 138.142 520.92 140.875 522.397 143.531C524.593 147.477 531.844 150.38 535.006 153.624C538.831 157.533 540.137 160.72 546.12 162.997C548.43 163.87 552.33 164.003 553.845 164.686C554.564 165.008 555.416 166.469 556.439 167.076C561.986 170.378 562.611 170.15 567.401 174.912C576.035 183.488 585.293 193.544 593.132 202.935C600.326 211.568 607.54 225.76 612.936 235.759C614.772 239.136 615.7 242.551 617.234 245.302C617.802 246.326 619.903 247.844 620.074 249.021C620.206 249.874 619.487 251.032 619.657 252.246C619.846 253.517 621.437 254.219 621.778 255.718C622.611 259.475 622.44 264.654 623.027 268.316C623.576 271.655 625.621 276.266 625.81 279.434C626.132 284.861 624.845 290.249 624.637 295.486C624.504 298.977 625.224 312.523 624.372 314.61C624.107 315.255 623.065 315.768 622.706 316.811C622.1 318.557 621.683 327.835 621.872 329.903C622.232 333.697 622.346 344.151 621.778 348.041C621.551 349.616 620.131 350.944 619.922 352.291C618.597 360.81 613.542 368.797 611.516 377.126C611.099 378.872 611.327 381.016 610.777 383.046C606.404 399.249 592.564 411.904 584.157 425.678C582.756 427.974 581.374 431.788 579.859 434.121C577.947 437.1 568.84 444.12 566 447.402C562.725 451.178 559.657 459.374 556.041 464.042C553.959 466.755 549.358 467.988 552.122 471.84C554.47 475.122 562.573 477.285 566.076 479.486C568.859 481.231 569.692 484.419 572.608 485.14C573.308 485.31 574.047 484.817 574.804 485.14C575.675 485.481 581.204 488.479 581.999 489.048C584.839 491.059 584.403 493.241 585.899 495.119C586.032 495.29 589.042 497.776 589.25 497.871C591.106 498.724 593.756 497.7 595.479 498.155C596.028 498.307 596.047 499.218 596.464 499.483C601.387 502.803 603.999 502.728 607.729 508.173C609.073 510.127 610.948 515.25 611.895 516.198C612.955 517.28 615.7 517.754 617.196 518.646C622.346 521.739 631.566 529.688 632.816 535.684C634.065 541.679 628.764 547.447 622.668 546.973C619.903 546.764 619.771 545.075 618.862 544.943C617.044 544.677 612.803 545.872 610.645 545.284C610.115 545.132 609.944 543.88 608.998 543.444C607.937 542.95 607.123 543.671 606.252 543.482C603.962 542.988 599.209 539.611 597.676 539.289C596.634 539.08 594.249 539.915 592.317 539.687C588.417 539.213 584.006 536.594 579.537 536.405C577.682 536.329 575.41 537.107 574.141 536.879C572.968 536.67 571.926 535.228 570.563 534.868C562.687 532.762 552.652 532.8 545.344 530.751C543.829 530.314 542.012 528.853 540.08 528.265C533.548 526.254 528.399 526.558 522.018 525.856C520.731 525.704 519.879 524.66 518.137 524.736C516.395 524.812 515.278 526.159 513.668 526.406C507.174 527.411 505.584 525.837 500.018 524.565C498.048 524.11 492.899 524.281 492.368 522.573H491.308C490.21 525.837 489.661 522.327 489.131 521.682C487.673 519.898 484.947 521.359 483.262 521.321C477.866 521.245 472.488 522.554 468.304 522.46C463.722 522.346 461.28 520.638 455.164 521.568C449.901 522.365 444.448 525.837 438.977 524.774C437.594 524.509 437.689 523.237 436.667 522.649C435.209 521.814 433.959 522.535 432.369 520.866C432.066 520.543 428.734 514.87 428.469 514.244C426.802 510.26 429.112 503.771 423.924 502.728C416.692 501.286 407.642 503.126 400.258 502.614C391.094 501.969 380.397 497.396 370.4 498.174C367.617 498.402 364.966 499.692 362.05 499.312C360.99 499.18 361.52 498.25 360.46 498.117C357.185 497.7 352.319 498.535 349.024 497.852C347.775 497.586 346.771 496.22 345.465 495.973C343.647 495.632 341.337 496.163 339.406 495.935C328.538 494.645 317.33 491.325 306.614 488.877C304.247 488.327 300.555 488.479 298.378 487.758C296.2 487.037 293.834 485.045 291.543 484.039C285.314 481.307 279.444 479.751 272.893 476.659C264.941 472.902 257.538 468.311 250.249 463.302C247.977 461.746 244.399 461.006 241.786 459.033C238.359 456.452 233.985 450.571 229.725 449.489C227.965 449.053 226.071 449.831 224.386 448.749C223.553 448.218 223.345 447.099 222.682 446.568C221.357 445.505 218.176 444.594 216.434 443.399C214.143 441.805 212.572 439.377 210.489 437.726C206.911 434.861 208.217 437.043 205.472 432.774C204.639 431.465 200.379 428.999 199.129 427.481C197.955 426.058 197.387 423.762 196.062 422.244C192.9 418.62 186.236 411.202 184.077 407.085C182.695 404.41 183.112 400.862 182.241 398.945C181.37 397.029 177.678 393.993 176.598 390.73C175.462 387.258 176.049 383.805 174.705 379.858C172.831 374.299 171.638 368.038 169.517 362.327C169.063 361.094 167.245 357.527 166.053 357.451C164.992 357.375 160.392 359.956 159.123 360.677C158.612 360.961 158.422 361.948 157.476 362.479C152.269 365.439 147.933 364.149 143.2 365.382C141.269 365.894 138.429 368.342 136.536 369.253C135.153 369.917 132.257 369.291 133.26 371.776C132.124 372.117 130.666 371.226 129.738 371.378C126.425 371.928 116.39 382.401 113.058 385.076C111.884 386.025 109.65 386.822 108.173 387.941C102.853 391.982 100.789 397.693 92.6102 396.137C90.5465 395.739 86.4947 392.589 86.1918 390.37C85.0747 382.021 88.975 373.654 94.2953 367.393C95.791 365.629 99.0097 363.333 100.524 361.436C102.039 359.538 102.342 357.015 103.667 355.156C104.822 353.543 109.669 350.602 110.275 349.578C110.881 348.553 110.616 346.713 111.449 345.195C112.149 343.905 115.444 340.148 116.826 338.099C125.46 325.387 133.62 312.258 140.701 298.54C147.138 286.037 155.677 275.943 162.247 263.573C163.25 261.676 164.046 258.317 165.125 256.477C165.788 255.339 167.473 254.561 167.908 253.138C168.344 251.715 167.681 250.69 167.908 249.761C168.703 246.611 172.452 240.635 173.285 237.485C173.74 235.796 173.209 231.034 173.929 229.82C177.924 227.923 180.84 224.583 184.437 222.06C185.592 219.518 184.721 215.249 185.384 213.029C185.668 212.099 186.785 211.758 187.163 210.942C189.587 205.705 192.768 197.395 194.68 191.874C195.967 188.212 196.365 183.848 197.88 180.68C198.637 179.124 199.413 178.024 200.757 176.904L199.167 175.348C200.322 173.072 200.568 170.567 201.439 168.177C202.158 166.185 204.62 159.848 205.491 158.387C205.907 157.704 208.425 154.934 209.277 153.89C213.897 148.217 219.369 143.208 223.989 137.554C225.863 135.259 228.476 130.25 230.331 128.371C231.297 127.385 233.531 126.948 234.705 126.095C240.404 122.015 244.38 118.448 250.571 114.825C256.762 111.201 262.404 105.547 268.425 102.227C274.843 98.6786 282.095 96.2121 288.911 92.2657C301.634 84.8852 312.937 80.2748 326.778 75.3228C330.28 74.0706 335.771 70.295 338.365 69.7448C341.186 69.1566 344.064 70.3139 347.093 70.1622C350.331 69.9914 353.322 68.0372 355.992 67.9423C364.038 67.6387 372.35 66.8798 380.302 66.747C387.686 66.6142 385.073 67.1265 390.962 69.4791C398.062 72.3251 400.977 72.6476 408.475 73.5583C412.091 73.9947 414.534 75.9299 416.957 76.6889C420.876 77.9221 425.136 78.3016 428.942 80.142C429.794 79.8953 431.1 75.19 431.801 74.1085C432.975 72.3061 435.947 69.3273 437.973 68.6633C442.593 67.1455 445.243 67.5818 448.292 62.9145C453.12 55.534 456.717 51.7014 463.003 45.4973C468.475 40.09 471.201 35.0431 475.745 29.0287C479.38 24.2285 478.263 25.6515 480.327 20.1683C481.425 17.2654 490.286 4.36379 492.501 2.14395C492.899 1.74552 495.246 1.11941 495.909 0C498.181 0.56919 501.229 0.37946 503.369 1.1953C505.338 1.93525 509.674 6.28006 510.014 8.40504C510.507 11.4407 509.143 13.9072 508.954 16.6962C508.575 22.3692 508.859 26.3914 507.704 32.0833C507.42 33.5063 506.322 34.8913 506.171 36.1436C505.395 43.3533 505.906 50.9046 503.179 57.7918L503.293 57.7159ZM497.253 166.222C496.155 164.932 493.656 163.566 492.463 161.878C490.362 158.899 490.93 154.915 485.42 157.04C483.773 157.666 480.724 160.151 479.153 160.758C476.938 161.631 472.735 162.58 470.33 163.528C466.203 165.179 463.211 166.924 458.894 168.063C440.037 173.053 430.665 183.943 416.616 196.2C413.776 198.666 406.373 202.423 403.022 204.491C401.167 205.629 397.191 210.733 395.638 212.327C388.841 219.29 381.097 225.893 372.786 230.863C372.161 231.243 372.388 232.305 371.025 232.552C366.329 233.444 357.828 228.226 356.919 223.369C356.806 222.705 356.427 215.04 356.503 214.604C356.56 214.281 359.305 209.348 359.646 208.969C360.706 207.792 361.766 207.811 362.656 206.995C363.186 206.521 369.094 197.964 369.718 196.883C372.255 192.386 373.145 186.846 374.887 182.103C376.629 177.36 380.548 172.597 382.271 167.835C382.669 167.038 380.529 166.374 380.151 166.279C378.996 166.014 377.689 165.767 376.515 165.995C375.133 166.26 375.361 167.551 374.774 167.683C369.359 168.955 362.524 166.697 358.415 167.228C355.765 167.57 351.429 169.429 348.267 169.827C334.237 171.592 321.552 170.814 307.939 170.434C300.517 170.226 292.641 169.903 285.389 172.218C275.62 175.348 266.153 178.877 256.781 182.9C251.783 185.044 246.311 189.199 242.108 192.614C236.447 197.205 228.059 200.431 221.963 205.136C219.558 206.995 213.462 214.717 212.856 217.525C212.78 217.924 212.666 222.288 212.761 222.515C213.291 223.711 216.415 225.93 217.191 226.974C218.782 229.137 221.527 236.328 223.174 237.902C225.939 240.578 228.93 244.069 231.865 246.668C233.512 248.129 236.996 249.59 237.961 250.538C239.59 252.17 241.483 257.881 244.058 259.399C244.967 259.93 246.481 259.456 246.784 259.74L246.822 261.353L249.814 260.215C250.249 260.613 250.23 261.163 250.817 261.524C259.413 266.931 265.737 264.977 275.336 265.205C278.857 265.3 282.53 266.552 286.279 265.299C288.892 267.273 289.763 270.308 291.524 272.813V279.776C288.021 285.221 281.735 288.314 276.434 291.843C270.849 295.561 271.625 295.429 265.434 297.022C258.807 298.73 255.986 301.026 249.965 303.587C248.015 304.422 245.194 304.687 243.49 305.408C232.774 309.924 223.061 318.101 214.673 325.88C214.257 326.279 213.121 326.241 212.761 326.734C212.269 327.417 212.307 332.065 212.78 332.843C213.102 333.356 214.408 333.811 215.014 334.475C219.445 339.37 225.068 342.88 229.953 347.794C240.479 358.381 252.256 370.03 266.058 376.462C277.797 381.946 290.88 386.973 302.07 392.495C305.402 394.145 309.226 396.061 311.536 399.078C311.972 399.647 315.19 405.434 315.266 405.814C315.418 406.553 314.698 409.589 314.85 411.297C315.228 415.623 316.402 419.986 316.781 424.331C318.258 425.356 319.469 427.063 320.719 428.145C321.609 428.904 322.934 429.036 323.502 429.511C329.504 434.615 333.688 440.534 340.239 445.182C348.759 451.235 355.537 456.225 365.742 459.545C370.703 461.158 377.405 462.087 381.741 464.023C387.042 466.375 388.178 467.703 394.199 469.278C401.507 471.195 408.721 474.249 416.37 474.268C420.157 474.268 423.678 473.452 427.844 474.363C430.646 474.97 436.875 479.448 437.992 479.656C438.314 479.713 443.861 479.239 444.448 479.125C449.2 478.082 453.366 464.535 455.07 460.38C456.906 455.959 460.655 449.11 461.412 444.556C461.905 441.559 461.034 437.707 461.469 434.634C461.829 432.148 464.139 429.15 464.252 426.855C464.404 424.066 464.404 418.487 464.196 415.755C463.836 411.24 461.98 405.567 461.412 401.355C460.92 397.731 461.242 392.267 462.984 389.022C464.82 385.588 471.542 380.617 475.423 381.775C476.18 382.002 481.425 385.892 482.201 386.632C486.651 390.882 485.268 391.774 486.367 396.877C489.831 412.947 500.775 425.963 513.214 436.531C514.407 437.555 514.634 439.567 517.891 437.954C518.591 437.612 518.629 436.607 519.159 436.151C519.481 435.886 520.428 436.132 520.56 435.962C520.92 435.563 520.333 434.14 520.768 433.362C520.882 433.173 521.942 432.812 522.454 432.015C525.256 427.708 528.607 421.846 529.44 416.818C529.743 414.977 529.478 412.909 529.8 411.05C526.979 408.223 520.939 406.421 519.254 402.74C518.004 399.97 517.19 387.448 518.534 384.81C518.97 383.976 520.049 383.976 520.125 383.52C520.2 382.951 519.595 382.097 519.632 381.395C519.784 379.062 521.602 376.709 522.378 374.261C523.476 370.77 523.457 367.924 523.911 364.832C523.987 364.301 525.237 364.395 525.521 363.561C527.471 357.85 529.099 351.854 530.633 345.935C531.257 343.487 533.492 340.717 533.814 339.693C534.476 337.473 533.776 332.009 533.889 329.239C534.249 321.517 535.934 311.575 533.605 304.061C532.507 300.494 529.97 298.275 528.664 295.163C527.547 292.526 526.903 289.092 525.88 286.303C525.256 284.614 523.4 283.76 524.442 281.616C524.063 280.459 522.908 281.427 522.321 281.028C521.904 280.762 515.656 274.482 515.429 274.046C515.088 271.067 512.059 265.394 512.286 262.719C512.343 262.055 515.372 256.762 515.922 256.325C517.474 255.073 521.867 253.157 523.968 253.005C522.738 251.051 526.164 248.053 526.619 246.516C527.168 244.619 526.24 242.741 526.486 241.299C526.732 239.857 528.815 237.2 529.364 235.379C529.629 234.506 530.159 230.788 530.046 230.048C529.951 229.422 526.164 221.87 525.521 220.675C519.538 209.595 512.495 198.761 505.792 188.345C502.062 182.558 504.183 179.048 502.233 173.603C501.816 172.427 498.143 167.247 497.215 166.147L497.253 166.222Z" fill="#D0FFCD" fill-opacity="0.8"/>
<path d="M89.6831 431V428.504H93.3311V416.696H89.6831V414.2H99.5711V416.696H95.9231V428.504H99.5711V431H89.6831ZM106.398 431V414.2H108.87L121.014 427.952L120.774 428.168C120.694 427.72 120.63 427.24 120.582 426.728C120.534 426.216 120.486 425.68 120.438 425.12C120.406 424.544 120.374 423.96 120.342 423.368C120.326 422.76 120.31 422.152 120.294 421.544C120.294 420.936 120.294 420.328 120.294 419.72V414.2H122.886V431H120.366L108.39 417.752L108.51 417.416C108.558 418.008 108.606 418.568 108.654 419.096C108.702 419.608 108.742 420.104 108.774 420.584C108.822 421.048 108.862 421.48 108.894 421.88C108.926 422.28 108.95 422.664 108.966 423.032C108.982 423.384 108.99 423.712 108.99 424.016V431H106.398ZM133.723 431V416.696H128.059V414.2H142.099V416.696H136.315V431H133.723ZM147.273 431V414.2H159.729V416.696H149.865V428.504H159.729V431H147.273ZM148.593 423.632V421.136H158.409V423.632H148.593ZM166.164 431V414.2H174.804C175.78 414.2 176.676 414.432 177.492 414.896C178.308 415.36 178.964 415.992 179.46 416.792C179.956 417.576 180.204 418.464 180.204 419.456C180.204 420.416 179.94 421.304 179.412 422.12C178.9 422.92 178.212 423.56 177.348 424.04C176.5 424.52 175.564 424.76 174.54 424.76H168.756V431H166.164ZM177.852 431L172.764 423.416L175.476 422.816L181.044 431.024L177.852 431ZM168.756 422.264H174.516C175.06 422.264 175.556 422.136 176.004 421.88C176.452 421.624 176.812 421.28 177.084 420.848C177.356 420.416 177.492 419.944 177.492 419.432C177.492 418.904 177.34 418.44 177.036 418.04C176.748 417.624 176.356 417.296 175.86 417.056C175.364 416.816 174.812 416.696 174.204 416.696H168.756V422.264ZM185.125 431L192.565 414.2H195.421L202.837 431H200.029L195.181 420.056C195.069 419.848 194.941 419.568 194.797 419.216C194.669 418.864 194.525 418.496 194.365 418.112C194.221 417.712 194.077 417.328 193.933 416.96C193.805 416.576 193.693 416.248 193.597 415.976L194.269 415.952C194.141 416.288 194.005 416.64 193.861 417.008C193.733 417.376 193.597 417.752 193.453 418.136C193.309 418.504 193.165 418.864 193.021 419.216C192.877 419.552 192.741 419.864 192.613 420.152L187.813 431H185.125ZM188.389 426.968L189.373 424.472H198.325L199.045 426.968H188.389ZM215.071 431.24C213.807 431.24 212.631 431.04 211.543 430.64C210.455 430.224 209.503 429.632 208.687 428.864C207.871 428.096 207.239 427.184 206.791 426.128C206.343 425.056 206.119 423.88 206.119 422.6C206.119 421.384 206.359 420.256 206.839 419.216C207.319 418.176 207.975 417.272 208.807 416.504C209.639 415.72 210.599 415.12 211.687 414.704C212.775 414.272 213.935 414.056 215.167 414.056C216.127 414.056 217.055 414.192 217.951 414.464C218.863 414.72 219.679 415.064 220.399 415.496C221.135 415.928 221.727 416.4 222.175 416.912L220.543 418.928C220.015 418.448 219.463 418.04 218.887 417.704C218.311 417.352 217.703 417.088 217.063 416.912C216.423 416.72 215.743 416.624 215.023 416.624C214.207 416.624 213.423 416.768 212.671 417.056C211.919 417.344 211.247 417.752 210.655 418.28C210.079 418.792 209.615 419.416 209.263 420.152C208.927 420.888 208.759 421.704 208.759 422.6C208.759 423.56 208.927 424.416 209.263 425.168C209.615 425.92 210.095 426.56 210.703 427.088C211.327 427.6 212.031 427.992 212.815 428.264C213.615 428.536 214.463 428.672 215.359 428.672C216.143 428.672 216.855 428.576 217.495 428.384C218.135 428.176 218.719 427.912 219.247 427.592C219.775 427.256 220.255 426.912 220.687 426.56L221.959 428.696C221.543 429.096 220.975 429.496 220.255 429.896C219.551 430.28 218.751 430.6 217.855 430.856C216.975 431.112 216.047 431.24 215.071 431.24ZM231.598 431V416.696H225.934V414.2H239.974V416.696H234.19V431H231.598ZM244.98 431V428.504H248.628V416.696H244.98V414.2H254.868V416.696H251.22V428.504H254.868V431H244.98ZM266.999 431L259.703 414.2H262.655L266.927 424.304C267.055 424.64 267.207 425.016 267.383 425.432C267.575 425.848 267.759 426.28 267.935 426.728C268.127 427.16 268.303 427.584 268.463 428C268.639 428.4 268.783 428.776 268.895 429.128L268.199 429.152C268.343 428.72 268.519 428.232 268.727 427.688C268.951 427.144 269.175 426.584 269.399 426.008C269.639 425.416 269.863 424.856 270.071 424.328L274.031 414.2H277.079L269.855 431H266.999ZM282.039 431V414.2H294.495V416.696H284.631V428.504H294.495V431H282.039ZM283.359 423.632V421.136H293.175V423.632H283.359ZM310.398 431V414.2H312.99V428.504H322.734V431H310.398ZM328.515 431V414.2H340.971V416.696H331.107V428.504H340.971V431H328.515ZM329.835 423.632V421.136H339.651V423.632H329.835ZM345.438 431L352.878 414.2H355.734L363.15 431H360.342L355.494 420.056C355.382 419.848 355.254 419.568 355.11 419.216C354.982 418.864 354.838 418.496 354.678 418.112C354.534 417.712 354.39 417.328 354.246 416.96C354.118 416.576 354.006 416.248 353.91 415.976L354.582 415.952C354.454 416.288 354.318 416.64 354.174 417.008C354.046 417.376 353.91 417.752 353.766 418.136C353.622 418.504 353.478 418.864 353.334 419.216C353.19 419.552 353.054 419.864 352.926 420.152L348.126 431H345.438ZM348.702 426.968L349.686 424.472H358.638L359.358 426.968H348.702ZM368.148 431V414.2H376.788C377.764 414.2 378.66 414.432 379.476 414.896C380.292 415.36 380.948 415.992 381.444 416.792C381.94 417.576 382.188 418.464 382.188 419.456C382.188 420.416 381.924 421.304 381.396 422.12C380.884 422.92 380.196 423.56 379.332 424.04C378.484 424.52 377.548 424.76 376.524 424.76H370.74V431H368.148ZM379.836 431L374.748 423.416L377.46 422.816L383.028 431.024L379.836 431ZM370.74 422.264H376.5C377.044 422.264 377.54 422.136 377.988 421.88C378.436 421.624 378.796 421.28 379.068 420.848C379.34 420.416 379.476 419.944 379.476 419.432C379.476 418.904 379.324 418.44 379.02 418.04C378.732 417.624 378.34 417.296 377.844 417.056C377.348 416.816 376.796 416.696 376.188 416.696H370.74V422.264ZM389.078 431V414.2H391.55L403.694 427.952L403.454 428.168C403.374 427.72 403.31 427.24 403.262 426.728C403.214 426.216 403.166 425.68 403.118 425.12C403.086 424.544 403.054 423.96 403.022 423.368C403.006 422.76 402.99 422.152 402.974 421.544C402.974 420.936 402.974 420.328 402.974 419.72V414.2H405.566V431H403.046L391.07 417.752L391.19 417.416C391.238 418.008 391.286 418.568 391.334 419.096C391.382 419.608 391.422 420.104 391.454 420.584C391.502 421.048 391.542 421.48 391.574 421.88C391.606 422.28 391.63 422.664 391.646 423.032C391.662 423.384 391.67 423.712 391.67 424.016V431H389.078ZM412.347 431V428.504H415.995V416.696H412.347V414.2H422.235V416.696H418.587V428.504H422.235V431H412.347ZM429.062 431V414.2H431.534L443.678 427.952L443.438 428.168C443.358 427.72 443.294 427.24 443.246 426.728C443.198 426.216 443.15 425.68 443.102 425.12C443.07 424.544 443.038 423.96 443.006 423.368C442.99 422.76 442.974 422.152 442.958 421.544C442.958 420.936 442.958 420.328 442.958 419.72V414.2H445.55V431H443.03L431.054 417.752L431.174 417.416C431.222 418.008 431.27 418.568 431.318 419.096C431.366 419.608 431.406 420.104 431.438 420.584C431.486 421.048 431.526 421.48 431.558 421.88C431.59 422.28 431.614 422.664 431.63 423.032C431.646 423.384 431.654 423.712 431.654 424.016V431H429.062ZM460.66 431.24C459.396 431.24 458.188 431.04 457.036 430.64C455.9 430.24 454.9 429.672 454.036 428.936C453.172 428.184 452.492 427.272 451.996 426.2C451.5 425.128 451.252 423.928 451.252 422.6C451.252 421.4 451.492 420.28 451.972 419.24C452.468 418.2 453.156 417.296 454.036 416.528C454.916 415.744 455.94 415.136 457.108 414.704C458.276 414.272 459.532 414.056 460.876 414.056C461.932 414.056 462.924 414.184 463.852 414.44C464.796 414.696 465.628 415.04 466.348 415.472C467.084 415.904 467.668 416.384 468.1 416.912L466.42 418.736C465.892 418.288 465.332 417.904 464.74 417.584C464.148 417.264 463.524 417.016 462.868 416.84C462.228 416.664 461.564 416.576 460.876 416.576C459.9 416.576 458.988 416.728 458.14 417.032C457.308 417.336 456.572 417.76 455.932 418.304C455.308 418.848 454.82 419.488 454.468 420.224C454.132 420.944 453.964 421.736 453.964 422.6C453.964 423.56 454.148 424.424 454.516 425.192C454.884 425.944 455.388 426.584 456.028 427.112C456.668 427.64 457.396 428.04 458.212 428.312C459.044 428.584 459.916 428.72 460.828 428.72C461.644 428.72 462.412 428.632 463.132 428.456C463.868 428.264 464.508 428 465.052 427.664C465.596 427.312 466.02 426.912 466.324 426.464C466.628 426.016 466.772 425.528 466.756 425L466.732 424.616L467.116 425.048H460.828V422.528H469.468C469.5 422.736 469.524 422.92 469.54 423.08C469.556 423.224 469.564 423.352 469.564 423.464C469.58 423.576 469.588 423.68 469.588 423.776C469.588 424.96 469.364 426.016 468.916 426.944C468.484 427.872 467.868 428.656 467.068 429.296C466.268 429.92 465.324 430.4 464.236 430.736C463.164 431.072 461.972 431.24 460.66 431.24ZM484.609 431V414.2H497.065V416.696H487.201V428.504H497.065V431H484.609ZM485.929 423.632V421.136H495.745V423.632H485.929ZM515.26 431L509.236 423.44L501.628 414.2H505.06L510.868 421.544L518.692 431H515.26ZM501.508 431L508.804 421.856L510.34 423.752L504.748 431H501.508ZM511.372 423.2L509.884 421.376L515.188 414.2H518.428L511.372 423.2ZM523.656 431V414.2H532.152C533.112 414.2 533.984 414.432 534.768 414.896C535.568 415.344 536.2 415.96 536.664 416.744C537.144 417.528 537.384 418.4 537.384 419.36C537.384 420.352 537.136 421.248 536.64 422.048C536.144 422.848 535.48 423.496 534.648 423.992C533.816 424.472 532.896 424.712 531.888 424.712H526.248V431H523.656ZM526.248 422.216H531.744C532.272 422.216 532.76 422.088 533.208 421.832C533.656 421.56 534.008 421.208 534.264 420.776C534.536 420.344 534.672 419.872 534.672 419.36C534.672 418.864 534.536 418.416 534.264 418.016C534.008 417.616 533.656 417.296 533.208 417.056C532.76 416.816 532.272 416.696 531.744 416.696H526.248V422.216ZM543.179 431V414.2H555.635V416.696H545.771V428.504H555.635V431H543.179ZM544.499 423.632V421.136H554.315V423.632H544.499ZM562.07 431V414.2H570.71C571.686 414.2 572.582 414.432 573.398 414.896C574.214 415.36 574.87 415.992 575.366 416.792C575.862 417.576 576.11 418.464 576.11 419.456C576.11 420.416 575.846 421.304 575.318 422.12C574.806 422.92 574.118 423.56 573.254 424.04C572.406 424.52 571.47 424.76 570.446 424.76H564.662V431H562.07ZM573.758 431L568.67 423.416L571.382 422.816L576.95 431.024L573.758 431ZM564.662 422.264H570.422C570.966 422.264 571.462 422.136 571.91 421.88C572.358 421.624 572.718 421.28 572.99 420.848C573.262 420.416 573.398 419.944 573.398 419.432C573.398 418.904 573.246 418.44 572.942 418.04C572.654 417.624 572.262 417.296 571.766 417.056C571.27 416.816 570.718 416.696 570.11 416.696H564.662V422.264ZM582.832 431V428.504H586.48V416.696H582.832V414.2H592.72V416.696H589.072V428.504H592.72V431H582.832ZM599.546 431V414.2H612.002V416.696H602.138V428.504H612.002V431H599.546ZM600.866 423.632V421.136H610.682V423.632H600.866ZM618.437 431V414.2H620.909L633.053 427.952L632.813 428.168C632.733 427.72 632.669 427.24 632.621 426.728C632.573 426.216 632.525 425.68 632.477 425.12C632.445 424.544 632.413 423.96 632.381 423.368C632.365 422.76 632.349 422.152 632.333 421.544C632.333 420.936 632.333 420.328 632.333 419.72V414.2H634.925V431H632.405L620.429 417.752L620.549 417.416C620.597 418.008 620.645 418.568 620.693 419.096C620.741 419.608 620.781 420.104 620.813 420.584C620.861 421.048 620.901 421.48 620.933 421.88C620.965 422.28 620.989 422.664 621.005 423.032C621.021 423.384 621.029 423.712 621.029 424.016V431H618.437ZM649.579 431.24C648.315 431.24 647.139 431.04 646.051 430.64C644.963 430.224 644.011 429.632 643.195 428.864C642.379 428.096 641.747 427.184 641.299 426.128C640.851 425.056 640.627 423.88 640.627 422.6C640.627 421.384 640.867 420.256 641.347 419.216C641.827 418.176 642.483 417.272 643.315 416.504C644.147 415.72 645.107 415.12 646.195 414.704C647.283 414.272 648.443 414.056 649.675 414.056C650.635 414.056 651.563 414.192 652.459 414.464C653.371 414.72 654.187 415.064 654.907 415.496C655.643 415.928 656.235 416.4 656.683 416.912L655.051 418.928C654.523 418.448 653.971 418.04 653.395 417.704C652.819 417.352 652.211 417.088 651.571 416.912C650.931 416.72 650.251 416.624 649.531 416.624C648.715 416.624 647.931 416.768 647.179 417.056C646.427 417.344 645.755 417.752 645.163 418.28C644.587 418.792 644.123 419.416 643.771 420.152C643.435 420.888 643.267 421.704 643.267 422.6C643.267 423.56 643.435 424.416 643.771 425.168C644.123 425.92 644.603 426.56 645.211 427.088C645.835 427.6 646.539 427.992 647.323 428.264C648.123 428.536 648.971 428.672 649.867 428.672C650.651 428.672 651.363 428.576 652.003 428.384C652.643 428.176 653.227 427.912 653.755 427.592C654.283 427.256 654.763 426.912 655.195 426.56L656.467 428.696C656.051 429.096 655.483 429.496 654.763 429.896C654.059 430.28 653.259 430.6 652.363 430.856C651.483 431.112 650.555 431.24 649.579 431.24ZM662.218 431V414.2H674.674V416.696H664.81V428.504H674.674V431H662.218ZM663.538 423.632V421.136H673.354V423.632H663.538ZM259.896 467.24C258.824 467.24 257.832 467.12 256.92 466.88C256.008 466.64 255.176 466.28 254.424 465.8C253.672 465.32 253 464.712 252.408 463.976L254.088 461.864C255.016 462.968 255.936 463.752 256.848 464.216C257.776 464.68 258.832 464.912 260.016 464.912C260.752 464.912 261.44 464.816 262.08 464.624C262.736 464.416 263.264 464.128 263.664 463.76C264.08 463.376 264.288 462.92 264.288 462.392C264.288 462.04 264.184 461.736 263.976 461.48C263.784 461.224 263.52 461.008 263.184 460.832C262.864 460.64 262.488 460.48 262.056 460.352C261.64 460.224 261.208 460.12 260.76 460.04C260.312 459.944 259.872 459.864 259.44 459.8C258.464 459.64 257.592 459.432 256.824 459.176C256.056 458.904 255.4 458.568 254.856 458.168C254.328 457.752 253.928 457.272 253.656 456.728C253.384 456.168 253.248 455.528 253.248 454.808C253.248 454.072 253.416 453.408 253.752 452.816C254.088 452.208 254.56 451.696 255.168 451.28C255.776 450.848 256.488 450.52 257.304 450.296C258.12 450.072 259.008 449.96 259.968 449.96C260.976 449.96 261.896 450.072 262.728 450.296C263.56 450.52 264.304 450.856 264.96 451.304C265.616 451.736 266.16 452.272 266.592 452.912L264.816 454.76C264.432 454.232 263.984 453.784 263.472 453.416C262.96 453.048 262.4 452.768 261.792 452.576C261.2 452.384 260.568 452.288 259.896 452.288C259.128 452.288 258.448 452.384 257.856 452.576C257.28 452.768 256.816 453.04 256.464 453.392C256.128 453.728 255.96 454.136 255.96 454.616C255.96 455 256.056 455.344 256.248 455.648C256.456 455.936 256.744 456.184 257.112 456.392C257.48 456.6 257.936 456.776 258.48 456.92C259.024 457.064 259.648 457.192 260.352 457.304C261.28 457.448 262.144 457.64 262.944 457.88C263.76 458.104 264.472 458.392 265.08 458.744C265.688 459.096 266.16 459.528 266.496 460.04C266.832 460.552 267 461.176 267 461.912C267 462.984 266.704 463.92 266.112 464.72C265.536 465.52 264.72 466.144 263.664 466.592C262.608 467.024 261.352 467.24 259.896 467.24ZM280.821 467.24C279.477 467.24 278.237 467.024 277.101 466.592C275.981 466.144 274.997 465.528 274.149 464.744C273.317 463.96 272.669 463.048 272.205 462.008C271.757 460.952 271.533 459.816 271.533 458.6C271.533 457.384 271.757 456.256 272.205 455.216C272.669 454.16 273.317 453.24 274.149 452.456C274.997 451.672 275.981 451.064 277.101 450.632C278.237 450.184 279.477 449.96 280.821 449.96C282.181 449.96 283.421 450.176 284.541 450.608C285.677 451.04 286.661 451.656 287.493 452.456C288.341 453.24 288.989 454.16 289.437 455.216C289.901 456.256 290.133 457.384 290.133 458.6C290.133 459.816 289.901 460.952 289.437 462.008C288.989 463.048 288.341 463.968 287.493 464.768C286.661 465.552 285.677 466.16 284.541 466.592C283.421 467.024 282.181 467.24 280.821 467.24ZM280.845 464.72C281.821 464.72 282.709 464.568 283.509 464.264C284.325 463.944 285.029 463.512 285.621 462.968C286.213 462.408 286.669 461.76 286.989 461.024C287.325 460.272 287.493 459.464 287.493 458.6C287.493 457.736 287.325 456.936 286.989 456.2C286.669 455.448 286.213 454.8 285.621 454.256C285.029 453.696 284.325 453.264 283.509 452.96C282.693 452.64 281.805 452.48 280.845 452.48C279.869 452.48 278.973 452.64 278.157 452.96C277.341 453.264 276.629 453.688 276.021 454.232C275.429 454.776 274.973 455.424 274.653 456.176C274.333 456.912 274.173 457.72 274.173 458.6C274.173 459.464 274.333 460.272 274.653 461.024C274.973 461.776 275.429 462.424 276.021 462.968C276.629 463.512 277.341 463.944 278.157 464.264C278.973 464.568 279.869 464.72 280.845 464.72ZM295.843 467V450.2H304.483C305.459 450.2 306.355 450.432 307.171 450.896C307.987 451.36 308.643 451.992 309.139 452.792C309.635 453.576 309.883 454.464 309.883 455.456C309.883 456.416 309.619 457.304 309.091 458.12C308.579 458.92 307.891 459.56 307.027 460.04C306.179 460.52 305.243 460.76 304.219 460.76H298.435V467H295.843ZM307.531 467L302.443 459.416L305.155 458.816L310.723 467.024L307.531 467ZM298.435 458.264H304.195C304.739 458.264 305.235 458.136 305.683 457.88C306.131 457.624 306.491 457.28 306.763 456.848C307.035 456.416 307.171 455.944 307.171 455.432C307.171 454.904 307.019 454.44 306.715 454.04C306.427 453.624 306.035 453.296 305.539 453.056C305.043 452.816 304.491 452.696 303.883 452.696H298.435V458.264ZM320.192 467V452.696H314.528V450.2H328.568V452.696H322.784V467H320.192ZM333.574 467V464.504H337.222V452.696H333.574V450.2H343.462V452.696H339.814V464.504H343.462V467H333.574ZM350.289 467V450.2H352.761L364.905 463.952L364.665 464.168C364.585 463.72 364.521 463.24 364.473 462.728C364.425 462.216 364.377 461.68 364.329 461.12C364.297 460.544 364.265 459.96 364.233 459.368C364.217 458.76 364.201 458.152 364.185 457.544C364.185 456.936 364.185 456.328 364.185 455.72V450.2H366.777V467H364.257L352.281 453.752L352.401 453.416C352.449 454.008 352.497 454.568 352.545 455.096C352.593 455.608 352.633 456.104 352.665 456.584C352.713 457.048 352.753 457.48 352.785 457.88C352.817 458.28 352.841 458.664 352.857 459.032C352.873 459.384 352.881 459.712 352.881 460.016V467H350.289ZM381.886 467.24C380.622 467.24 379.414 467.04 378.262 466.64C377.126 466.24 376.126 465.672 375.262 464.936C374.398 464.184 373.718 463.272 373.222 462.2C372.726 461.128 372.478 459.928 372.478 458.6C372.478 457.4 372.718 456.28 373.198 455.24C373.694 454.2 374.382 453.296 375.262 452.528C376.142 451.744 377.166 451.136 378.334 450.704C379.502 450.272 380.758 450.056 382.102 450.056C383.158 450.056 384.15 450.184 385.078 450.44C386.022 450.696 386.854 451.04 387.574 451.472C388.31 451.904 388.894 452.384 389.326 452.912L387.646 454.736C387.118 454.288 386.558 453.904 385.966 453.584C385.374 453.264 384.75 453.016 384.094 452.84C383.454 452.664 382.79 452.576 382.102 452.576C381.126 452.576 380.214 452.728 379.366 453.032C378.534 453.336 377.798 453.76 377.158 454.304C376.534 454.848 376.046 455.488 375.694 456.224C375.358 456.944 375.19 457.736 375.19 458.6C375.19 459.56 375.374 460.424 375.742 461.192C376.11 461.944 376.614 462.584 377.254 463.112C377.894 463.64 378.622 464.04 379.438 464.312C380.27 464.584 381.142 464.72 382.054 464.72C382.87 464.72 383.638 464.632 384.358 464.456C385.094 464.264 385.734 464 386.278 463.664C386.822 463.312 387.246 462.912 387.55 462.464C387.854 462.016 387.998 461.528 387.982 461L387.958 460.616L388.342 461.048H382.054V458.528H390.694C390.726 458.736 390.75 458.92 390.766 459.08C390.782 459.224 390.79 459.352 390.79 459.464C390.806 459.576 390.814 459.68 390.814 459.776C390.814 460.96 390.59 462.016 390.142 462.944C389.71 463.872 389.094 464.656 388.294 465.296C387.494 465.92 386.55 466.4 385.462 466.736C384.39 467.072 383.198 467.24 381.886 467.24ZM413.995 467.24C412.731 467.24 411.523 467.04 410.371 466.64C409.235 466.24 408.235 465.672 407.371 464.936C406.507 464.184 405.827 463.272 405.331 462.2C404.835 461.128 404.587 459.928 404.587 458.6C404.587 457.4 404.827 456.28 405.307 455.24C405.803 454.2 406.491 453.296 407.371 452.528C408.251 451.744 409.275 451.136 410.443 450.704C411.611 450.272 412.867 450.056 414.211 450.056C415.267 450.056 416.259 450.184 417.187 450.44C418.131 450.696 418.963 451.04 419.683 451.472C420.419 451.904 421.003 452.384 421.435 452.912L419.755 454.736C419.227 454.288 418.667 453.904 418.075 453.584C417.483 453.264 416.859 453.016 416.203 452.84C415.563 452.664 414.899 452.576 414.211 452.576C413.235 452.576 412.323 452.728 411.475 453.032C410.643 453.336 409.907 453.76 409.267 454.304C408.643 454.848 408.155 455.488 407.803 456.224C407.467 456.944 407.299 457.736 407.299 458.6C407.299 459.56 407.483 460.424 407.851 461.192C408.219 461.944 408.723 462.584 409.363 463.112C410.003 463.64 410.731 464.04 411.547 464.312C412.379 464.584 413.251 464.72 414.163 464.72C414.979 464.72 415.747 464.632 416.467 464.456C417.203 464.264 417.843 464 418.387 463.664C418.931 463.312 419.355 462.912 419.659 462.464C419.963 462.016 420.107 461.528 420.091 461L420.067 460.616L420.451 461.048H414.163V458.528H422.803C422.835 458.736 422.859 458.92 422.875 459.08C422.891 459.224 422.899 459.352 422.899 459.464C422.915 459.576 422.923 459.68 422.923 459.776C422.923 460.96 422.699 462.016 422.251 462.944C421.819 463.872 421.203 464.656 420.403 465.296C419.603 465.92 418.659 466.4 417.571 466.736C416.499 467.072 415.307 467.24 413.995 467.24ZM435.916 467.144C434.396 467.144 433.052 466.824 431.884 466.184C430.732 465.528 429.828 464.632 429.172 463.496C428.532 462.36 428.212 461.08 428.212 459.656V450.176H430.804V459.512C430.804 460.488 431.028 461.368 431.476 462.152C431.94 462.92 432.556 463.528 433.324 463.976C434.108 464.408 434.972 464.624 435.916 464.624C436.908 464.624 437.796 464.408 438.58 463.976C439.38 463.528 440.004 462.92 440.452 462.152C440.916 461.368 441.148 460.488 441.148 459.512V450.176H443.62V459.656C443.62 461.08 443.292 462.36 442.636 463.496C441.996 464.632 441.092 465.528 439.924 466.184C438.772 466.824 437.436 467.144 435.916 467.144ZM450.152 467V464.504H453.8V452.696H450.152V450.2H460.04V452.696H456.392V464.504H460.04V467H450.152ZM466.867 467V450.2H474.523C475.915 450.2 477.147 450.416 478.219 450.848C479.307 451.264 480.227 451.856 480.979 452.624C481.731 453.392 482.299 454.288 482.683 455.312C483.067 456.32 483.259 457.416 483.259 458.6C483.259 459.8 483.067 460.912 482.683 461.936C482.299 462.96 481.731 463.848 480.979 464.6C480.243 465.352 479.331 465.944 478.243 466.376C477.155 466.792 475.915 467 474.523 467H466.867ZM469.459 464.768L469.387 464.504H474.403C475.443 464.504 476.347 464.36 477.115 464.072C477.899 463.784 478.539 463.376 479.035 462.848C479.547 462.32 479.923 461.696 480.163 460.976C480.419 460.256 480.547 459.464 480.547 458.6C480.547 457.752 480.419 456.976 480.163 456.272C479.923 455.552 479.547 454.928 479.035 454.4C478.523 453.856 477.883 453.44 477.115 453.152C476.347 452.848 475.443 452.696 474.403 452.696H469.315L469.459 452.48V464.768ZM488.968 467V450.2H501.424V452.696H491.56V464.504H501.424V467H488.968ZM490.288 459.632V457.136H500.104V459.632H490.288ZM273.782 503.24C272.518 503.24 271.342 503.04 270.254 502.64C269.166 502.224 268.214 501.632 267.398 500.864C266.582 500.096 265.95 499.184 265.502 498.128C265.054 497.056 264.83 495.88 264.83 494.6C264.83 493.384 265.07 492.256 265.55 491.216C266.03 490.176 266.686 489.272 267.518 488.504C268.35 487.72 269.31 487.12 270.398 486.704C271.486 486.272 272.646 486.056 273.878 486.056C274.838 486.056 275.766 486.192 276.662 486.464C277.574 486.72 278.39 487.064 279.11 487.496C279.846 487.928 280.438 488.4 280.886 488.912L279.254 490.928C278.726 490.448 278.174 490.04 277.598 489.704C277.022 489.352 276.414 489.088 275.774 488.912C275.134 488.72 274.454 488.624 273.734 488.624C272.918 488.624 272.134 488.768 271.382 489.056C270.63 489.344 269.958 489.752 269.366 490.28C268.79 490.792 268.326 491.416 267.974 492.152C267.638 492.888 267.47 493.704 267.47 494.6C267.47 495.56 267.638 496.416 267.974 497.168C268.326 497.92 268.806 498.56 269.414 499.088C270.038 499.6 270.742 499.992 271.526 500.264C272.326 500.536 273.174 500.672 274.07 500.672C274.854 500.672 275.566 500.576 276.206 500.384C276.846 500.176 277.43 499.912 277.958 499.592C278.486 499.256 278.966 498.912 279.398 498.56L280.67 500.696C280.254 501.096 279.686 501.496 278.966 501.896C278.262 502.28 277.462 502.6 276.566 502.856C275.686 503.112 274.758 503.24 273.782 503.24ZM291.821 503V495.104L292.157 496.664L284.117 486.2H287.501L293.453 494.216L292.877 494.192L298.517 486.2H301.637L294.197 496.424L294.413 494.912V503H291.821ZM313.157 503.24C311.893 503.24 310.717 503.04 309.629 502.64C308.541 502.224 307.589 501.632 306.773 500.864C305.957 500.096 305.325 499.184 304.877 498.128C304.429 497.056 304.205 495.88 304.205 494.6C304.205 493.384 304.445 492.256 304.925 491.216C305.405 490.176 306.061 489.272 306.893 488.504C307.725 487.72 308.685 487.12 309.773 486.704C310.861 486.272 312.021 486.056 313.253 486.056C314.213 486.056 315.141 486.192 316.037 486.464C316.949 486.72 317.765 487.064 318.485 487.496C319.221 487.928 319.813 488.4 320.261 488.912L318.629 490.928C318.101 490.448 317.549 490.04 316.973 489.704C316.397 489.352 315.789 489.088 315.149 488.912C314.509 488.72 313.829 488.624 313.109 488.624C312.293 488.624 311.509 488.768 310.757 489.056C310.005 489.344 309.333 489.752 308.741 490.28C308.165 490.792 307.701 491.416 307.349 492.152C307.013 492.888 306.845 493.704 306.845 494.6C306.845 495.56 307.013 496.416 307.349 497.168C307.701 497.92 308.181 498.56 308.789 499.088C309.413 499.6 310.117 499.992 310.901 500.264C311.701 500.536 312.549 500.672 313.445 500.672C314.229 500.672 314.941 500.576 315.581 500.384C316.221 500.176 316.805 499.912 317.333 499.592C317.861 499.256 318.341 498.912 318.773 498.56L320.045 500.696C319.629 501.096 319.061 501.496 318.341 501.896C317.637 502.28 316.837 502.6 315.941 502.856C315.061 503.112 314.133 503.24 313.157 503.24ZM325.796 503V486.2H328.388V500.504H338.132V503H325.796ZM343.914 503V486.2H356.37V488.696H346.506V500.504H356.37V503H343.914ZM345.234 495.632V493.136H355.05V495.632H345.234ZM380.313 503.24C378.969 503.24 377.729 503.024 376.593 502.592C375.473 502.144 374.489 501.528 373.641 500.744C372.809 499.96 372.161 499.048 371.697 498.008C371.249 496.952 371.025 495.816 371.025 494.6C371.025 493.384 371.249 492.256 371.697 491.216C372.161 490.16 372.809 489.24 373.641 488.456C374.489 487.672 375.473 487.064 376.593 486.632C377.729 486.184 378.969 485.96 380.313 485.96C381.673 485.96 382.913 486.176 384.033 486.608C385.169 487.04 386.153 487.656 386.985 488.456C387.833 489.24 388.481 490.16 388.929 491.216C389.393 492.256 389.625 493.384 389.625 494.6C389.625 495.816 389.393 496.952 388.929 498.008C388.481 499.048 387.833 499.968 386.985 500.768C386.153 501.552 385.169 502.16 384.033 502.592C382.913 503.024 381.673 503.24 380.313 503.24ZM380.337 500.72C381.313 500.72 382.201 500.568 383.001 500.264C383.817 499.944 384.521 499.512 385.113 498.968C385.705 498.408 386.161 497.76 386.481 497.024C386.817 496.272 386.985 495.464 386.985 494.6C386.985 493.736 386.817 492.936 386.481 492.2C386.161 491.448 385.705 490.8 385.113 490.256C384.521 489.696 383.817 489.264 383.001 488.96C382.185 488.64 381.297 488.48 380.337 488.48C379.361 488.48 378.465 488.64 377.649 488.96C376.833 489.264 376.121 489.688 375.513 490.232C374.921 490.776 374.465 491.424 374.145 492.176C373.825 492.912 373.665 493.72 373.665 494.6C373.665 495.464 373.825 496.272 374.145 497.024C374.465 497.776 374.921 498.424 375.513 498.968C376.121 499.512 376.833 499.944 377.649 500.264C378.465 500.568 379.361 500.72 380.337 500.72ZM395.335 503V486.2H397.927V503H395.335ZM396.319 495.992V493.496H406.759V495.992H396.319ZM396.511 488.696V486.2H407.839V488.696H396.511ZM423.203 503V486.2H425.795V500.504H435.539V503H423.203ZM441.41 503V500.504H445.058V488.696H441.41V486.2H451.298V488.696H447.65V500.504H451.298V503H441.41ZM458.125 503V486.2H460.717V503H458.125ZM459.109 495.992V493.496H469.549V495.992H459.109ZM459.301 488.696V486.2H470.629V488.696H459.301ZM476.523 503V486.2H488.979V488.696H479.115V500.504H488.979V503H476.523ZM477.843 495.632V493.136H487.659V495.632H477.843Z" fill="#5F5454"/>
<path d="M106.095 316L136.431 248.8H151.119L181.359 316H164.655L147.951 278.656C147.311 277.312 146.703 275.968 146.127 274.624C145.615 273.216 145.103 271.84 144.591 270.496C144.079 269.088 143.599 267.712 143.151 266.368C142.703 264.96 142.287 263.616 141.903 262.336L145.263 262.24C144.815 263.712 144.367 265.12 143.919 266.464C143.471 267.808 142.959 269.184 142.383 270.592C141.871 271.936 141.327 273.28 140.751 274.624C140.175 275.968 139.599 277.344 139.023 278.752L122.415 316H106.095ZM120.303 303.712L125.487 291.424H161.679L165.135 303.712H120.303ZM216.053 316.96C211.061 316.96 206.485 316.448 202.325 315.424C198.229 314.4 194.549 312.992 191.285 311.2C188.021 309.408 185.077 307.264 182.453 304.768L190.997 292.48C195.285 296.512 199.605 299.328 203.957 300.928C208.373 302.464 212.725 303.232 217.013 303.232C218.997 303.232 220.917 303.008 222.773 302.56C224.693 302.112 226.261 301.408 227.477 300.448C228.757 299.488 229.397 298.208 229.397 296.608C229.397 295.584 229.077 294.72 228.437 294.016C227.797 293.248 226.933 292.608 225.845 292.096C224.757 291.52 223.477 291.072 222.005 290.752C220.597 290.432 219.061 290.144 217.397 289.888C215.733 289.632 214.005 289.376 212.213 289.12C208.117 288.544 204.437 287.712 201.173 286.624C197.973 285.472 195.221 284.064 192.917 282.4C190.677 280.672 188.981 278.656 187.829 276.352C186.677 274.048 186.101 271.392 186.101 268.384C186.101 265.12 186.869 262.176 188.405 259.552C189.941 256.928 192.085 254.72 194.837 252.928C197.589 251.072 200.725 249.664 204.245 248.704C207.829 247.744 211.669 247.264 215.765 247.264C220.373 247.264 224.437 247.712 227.957 248.608C231.541 249.504 234.677 250.752 237.365 252.352C240.053 253.952 242.293 255.744 244.085 257.728L235.253 268.384C233.589 266.848 231.669 265.536 229.493 264.448C227.381 263.36 225.141 262.528 222.773 261.952C220.405 261.376 218.037 261.088 215.669 261.088C213.173 261.088 210.997 261.344 209.141 261.856C207.285 262.304 205.813 262.976 204.725 263.872C203.637 264.768 203.093 265.92 203.093 267.328C203.093 268.48 203.541 269.472 204.437 270.304C205.397 271.136 206.613 271.84 208.085 272.416C209.557 272.928 211.189 273.344 212.981 273.664C214.837 273.984 216.661 274.272 218.453 274.528C222.165 275.04 225.685 275.744 229.013 276.64C232.405 277.472 235.381 278.624 237.941 280.096C240.565 281.568 242.581 283.488 243.989 285.856C245.461 288.16 246.197 291.136 246.197 294.784C246.197 299.456 244.885 303.456 242.261 306.784C239.701 310.048 236.149 312.576 231.605 314.368C227.125 316.096 221.941 316.96 216.053 316.96ZM275.63 316V263.2H251.822V248.8H316.142V263.2H291.95V316H275.63ZM326.958 316V248.8H381.294V262.72H342.798V302.08H382.254V316H326.958ZM335.214 288.448V275.2H376.974V288.448H335.214ZM396.881 316V248.8H411.473L439.409 287.584L429.617 287.488L457.649 248.8H472.049V316H456.209V294.496C456.209 288.992 456.337 283.936 456.593 279.328C456.849 274.656 457.361 269.952 458.129 265.216L459.761 270.496L437.489 299.68H431.153L408.977 270.4L410.801 265.216C411.569 269.824 412.081 274.432 412.337 279.04C412.593 283.648 412.721 288.8 412.721 294.496V316H396.881ZM584.261 316V248.8H599.429L642.149 296.8L639.557 296.32C639.173 294.016 638.885 291.84 638.693 289.792C638.501 287.68 638.309 285.632 638.117 283.648C637.989 281.664 637.861 279.712 637.733 277.792C637.669 275.872 637.637 273.888 637.637 271.84C637.637 269.792 637.637 267.648 637.637 265.408V248.8H653.477V316H638.117L593.861 266.464L598.181 267.136C598.437 268.992 598.661 270.752 598.853 272.416C599.045 274.016 599.205 275.616 599.333 277.216C599.525 278.816 599.685 280.448 599.813 282.112C599.941 283.712 600.005 285.472 600.005 287.392C600.069 289.248 600.101 291.296 600.101 293.536V316H584.261Z" fill="#5F5454"/>
<path d="M105.82 346.999V329.163H116.116V331.243H108.108V337.015H115.18V339.095H108.108V346.999H105.82ZM125.839 347.311C123.655 347.311 121.939 346.548 120.691 345.023C119.443 343.48 118.819 341.166 118.819 338.081C118.819 334.978 119.443 332.664 120.691 331.139C121.939 329.614 123.655 328.851 125.839 328.851C128.023 328.851 129.739 329.614 130.987 331.139C132.235 332.664 132.859 334.978 132.859 338.081C132.859 341.166 132.235 343.48 130.987 345.023C129.739 346.548 128.023 347.311 125.839 347.311ZM125.839 345.205C127.278 345.205 128.405 344.668 129.219 343.593C130.051 342.518 130.467 340.898 130.467 338.731V337.431C130.467 335.264 130.051 333.644 129.219 332.569C128.405 331.494 127.278 330.957 125.839 330.957C124.418 330.957 123.291 331.494 122.459 332.569C121.627 333.644 121.211 335.264 121.211 337.431V338.731C121.211 340.898 121.627 342.518 122.459 343.593C123.291 344.668 124.418 345.205 125.839 345.205ZM136.465 346.999V329.163H143.641C145.392 329.163 146.718 329.622 147.619 330.541C148.521 331.442 148.971 332.63 148.971 334.103C148.971 335.212 148.694 336.174 148.139 336.989C147.585 337.786 146.805 338.358 145.799 338.705L149.387 346.999H146.839L143.537 339.121H138.753V346.999H136.465ZM138.753 337.041H143.563C144.482 337.041 145.21 336.772 145.747 336.235C146.302 335.698 146.579 334.987 146.579 334.103C146.579 333.219 146.319 332.526 145.799 332.023C145.279 331.503 144.534 331.243 143.563 331.243H138.753V337.041ZM161.989 346.999V331.243H157.127V329.163H169.139V331.243H164.277V346.999H161.989ZM178.117 347.311C175.933 347.311 174.217 346.548 172.969 345.023C171.721 343.48 171.097 341.166 171.097 338.081C171.097 334.978 171.721 332.664 172.969 331.139C174.217 329.614 175.933 328.851 178.117 328.851C180.301 328.851 182.017 329.614 183.265 331.139C184.513 332.664 185.137 334.978 185.137 338.081C185.137 341.166 184.513 343.48 183.265 345.023C182.017 346.548 180.301 347.311 178.117 347.311ZM178.117 345.205C179.555 345.205 180.682 344.668 181.497 343.593C182.329 342.518 182.745 340.898 182.745 338.731V337.431C182.745 335.264 182.329 333.644 181.497 332.569C180.682 331.494 179.555 330.957 178.117 330.957C176.695 330.957 175.569 331.494 174.737 332.569C173.905 333.644 173.489 335.264 173.489 337.431V338.731C173.489 340.898 173.905 342.518 174.737 343.593C175.569 344.668 176.695 345.205 178.117 345.205ZM194.619 347.311C192.781 347.311 191.343 346.791 190.303 345.751C189.263 344.711 188.743 343.194 188.743 341.201V329.163H191.031V341.331C191.031 342.596 191.351 343.558 191.993 344.217C192.634 344.876 193.509 345.205 194.619 345.205C195.745 345.205 196.621 344.876 197.245 344.217C197.886 343.558 198.207 342.596 198.207 341.331V329.163H200.495V341.201C200.495 343.194 199.975 344.711 198.935 345.751C197.895 346.791 196.456 347.311 194.619 347.311ZM204.649 346.999V329.163H211.825C213.576 329.163 214.902 329.622 215.803 330.541C216.705 331.442 217.155 332.63 217.155 334.103C217.155 335.212 216.878 336.174 216.323 336.989C215.769 337.786 214.989 338.358 213.983 338.705L217.571 346.999H215.023L211.721 339.121H206.937V346.999H204.649ZM206.937 337.041H211.747C212.666 337.041 213.394 336.772 213.931 336.235C214.486 335.698 214.763 334.987 214.763 334.103C214.763 333.219 214.503 332.526 213.983 332.023C213.463 331.503 212.718 331.243 211.747 331.243H206.937V337.041ZM220.556 346.999V329.163H222.844V346.999H220.556ZM232.244 347.311C231.17 347.311 230.173 347.138 229.254 346.791C228.336 346.444 227.599 345.881 227.044 345.101C226.507 344.321 226.238 343.272 226.238 341.955C226.238 341.868 226.238 341.773 226.238 341.669C226.256 341.548 226.264 341.47 226.264 341.435H228.63C228.63 341.452 228.622 341.53 228.604 341.669C228.604 341.79 228.604 341.894 228.604 341.981C228.604 343.073 228.942 343.888 229.618 344.425C230.294 344.945 231.135 345.205 232.14 345.205C233.336 345.205 234.255 344.954 234.896 344.451C235.555 343.931 235.884 343.194 235.884 342.241C235.884 341.6 235.711 341.08 235.364 340.681C235.035 340.282 234.593 339.953 234.038 339.693C233.501 339.433 232.903 339.199 232.244 338.991C231.586 338.783 230.918 338.558 230.242 338.315C229.584 338.072 228.977 337.76 228.422 337.379C227.885 336.998 227.443 336.512 227.096 335.923C226.767 335.316 226.602 334.554 226.602 333.635C226.602 332.543 226.854 331.642 227.356 330.931C227.876 330.22 228.561 329.7 229.41 329.371C230.277 329.024 231.23 328.851 232.27 328.851C233.31 328.851 234.246 329.024 235.078 329.371C235.928 329.7 236.604 330.238 237.106 330.983C237.609 331.711 237.86 332.673 237.86 333.869V334.181H235.494V333.791C235.494 332.872 235.191 332.17 234.584 331.685C233.978 331.2 233.224 330.957 232.322 330.957C231.386 330.957 230.598 331.156 229.956 331.555C229.332 331.954 229.02 332.586 229.02 333.453C229.02 334.06 229.185 334.554 229.514 334.935C229.861 335.316 230.303 335.637 230.84 335.897C231.395 336.14 232.002 336.365 232.66 336.573C233.319 336.781 233.978 337.006 234.636 337.249C235.295 337.492 235.893 337.804 236.43 338.185C236.985 338.566 237.427 339.052 237.756 339.641C238.103 340.213 238.276 340.95 238.276 341.851C238.276 343.186 238.008 344.252 237.47 345.049C236.95 345.846 236.24 346.427 235.338 346.791C234.437 347.138 233.406 347.311 232.244 347.311ZM245.267 346.999V331.243H240.405V329.163H252.417V331.243H247.555V346.999H245.267ZM252.759 350.223L253.799 346.999H252.759V344.191H255.359V346.765L254.111 350.223H252.759ZM265.787 346.999V329.163H276.785V331.243H268.075V336.833H275.641V338.913H268.075V344.919H276.941V346.999H265.787ZM278.81 346.999L284.504 337.743L279.33 329.163H282.034L285.856 335.533H285.882L289.808 329.163H292.252L287.078 337.535L292.824 346.999H290.12L285.752 339.719H285.726L281.254 346.999H278.81ZM295.265 346.999V329.163H301.635C302.813 329.163 303.793 329.38 304.573 329.813C305.37 330.246 305.968 330.853 306.367 331.633C306.765 332.413 306.965 333.323 306.965 334.363C306.965 335.403 306.748 336.322 306.315 337.119C305.881 337.916 305.266 338.54 304.469 338.991C303.689 339.424 302.744 339.641 301.635 339.641H297.553V346.999H295.265ZM297.553 337.561H301.557C302.475 337.561 303.203 337.266 303.741 336.677C304.295 336.088 304.573 335.316 304.573 334.363C304.573 333.392 304.313 332.63 303.793 332.075C303.273 331.52 302.527 331.243 301.557 331.243H297.553V337.561ZM306.608 346.999L312.276 329.163H315.214L320.882 346.999H318.412L317.19 343.021H310.118L308.896 346.999H306.608ZM310.742 340.941H316.54L314.122 333.011C314.07 332.803 314.01 332.543 313.94 332.231C313.871 331.919 313.81 331.642 313.758 331.399C313.724 331.156 313.706 331.035 313.706 331.035H313.602C313.602 331.035 313.576 331.165 313.524 331.425C313.49 331.668 313.438 331.945 313.368 332.257C313.316 332.569 313.256 332.82 313.186 333.011L310.742 340.941ZM325.18 346.999V331.243H320.318V329.163H332.33V331.243H327.468V346.999H325.18ZM340.442 347.311C339.367 347.311 338.37 347.138 337.452 346.791C336.533 346.444 335.796 345.881 335.242 345.101C334.704 344.321 334.436 343.272 334.436 341.955C334.436 341.868 334.436 341.773 334.436 341.669C334.453 341.548 334.462 341.47 334.462 341.435H336.828C336.828 341.452 336.819 341.53 336.802 341.669C336.802 341.79 336.802 341.894 336.802 341.981C336.802 343.073 337.14 343.888 337.816 344.425C338.492 344.945 339.332 345.205 340.338 345.205C341.534 345.205 342.452 344.954 343.094 344.451C343.752 343.931 344.082 343.194 344.082 342.241C344.082 341.6 343.908 341.08 343.562 340.681C343.232 340.282 342.79 339.953 342.236 339.693C341.698 339.433 341.1 339.199 340.442 338.991C339.783 338.783 339.116 338.558 338.44 338.315C337.781 338.072 337.174 337.76 336.62 337.379C336.082 336.998 335.64 336.512 335.294 335.923C334.964 335.316 334.8 334.554 334.8 333.635C334.8 332.543 335.051 331.642 335.554 330.931C336.074 330.22 336.758 329.7 337.608 329.371C338.474 329.024 339.428 328.851 340.468 328.851C341.508 328.851 342.444 329.024 343.276 329.371C344.125 329.7 344.801 330.238 345.304 330.983C345.806 331.711 346.058 332.673 346.058 333.869V334.181H343.692V333.791C343.692 332.872 343.388 332.17 342.782 331.685C342.175 331.2 341.421 330.957 340.52 330.957C339.584 330.957 338.795 331.156 338.154 331.555C337.53 331.954 337.218 332.586 337.218 333.453C337.218 334.06 337.382 334.554 337.712 334.935C338.058 335.316 338.5 335.637 339.038 335.897C339.592 336.14 340.199 336.365 340.858 336.573C341.516 336.781 342.175 337.006 342.834 337.249C343.492 337.492 344.09 337.804 344.628 338.185C345.182 338.566 345.624 339.052 345.954 339.641C346.3 340.213 346.474 340.95 346.474 341.851C346.474 343.186 346.205 344.252 345.668 345.049C345.148 345.846 344.437 346.427 343.536 346.791C342.634 347.138 341.603 347.311 340.442 347.311ZM353.351 346.999L359.019 329.163H361.957L367.625 346.999H365.155L363.933 343.021H356.861L355.639 346.999H353.351ZM357.485 340.941H363.283L360.865 333.011C360.813 332.803 360.752 332.543 360.683 332.231C360.613 331.919 360.553 331.642 360.501 331.399C360.466 331.156 360.449 331.035 360.449 331.035H360.345C360.345 331.035 360.319 331.165 360.267 331.425C360.232 331.668 360.18 331.945 360.111 332.257C360.059 332.569 359.998 332.82 359.929 333.011L357.485 340.941ZM369.935 346.999V329.163H371.911L378.541 340.369C378.68 340.594 378.827 340.898 378.983 341.279C379.157 341.66 379.304 342.007 379.425 342.319C379.564 342.614 379.633 342.761 379.633 342.761L379.711 342.735C379.711 342.735 379.703 342.579 379.685 342.267C379.685 341.955 379.677 341.608 379.659 341.227C379.642 340.846 379.633 340.56 379.633 340.369V329.163H381.687V346.999H379.789L373.107 335.637C372.969 335.377 372.804 335.065 372.613 334.701C372.44 334.32 372.284 333.982 372.145 333.687C372.024 333.392 371.963 333.245 371.963 333.245L371.885 333.271C371.885 333.271 371.894 333.418 371.911 333.713C371.929 334.008 371.946 334.346 371.963 334.727C371.981 335.091 371.989 335.394 371.989 335.637V346.999H369.935ZM385.842 346.999V329.163H391.38C393.495 329.163 395.15 329.891 396.346 331.347C397.542 332.786 398.14 334.944 398.14 337.821C398.14 340.872 397.542 343.168 396.346 344.711C395.15 346.236 393.495 346.999 391.38 346.999H385.842ZM388.13 344.919H391.172C392.576 344.919 393.685 344.39 394.5 343.333C395.332 342.258 395.748 340.638 395.748 338.471V337.171C395.748 335.178 395.332 333.696 394.5 332.725C393.685 331.737 392.576 331.243 391.172 331.243H388.13V344.919ZM408.185 346.999V329.163H419.183V331.243H410.473V336.833H418.039V338.913H410.473V344.919H419.339V346.999H408.185ZM421.208 346.999L426.902 337.743L421.728 329.163H424.432L428.254 335.533H428.28L432.206 329.163H434.65L429.476 337.535L435.222 346.999H432.518L428.15 339.719H428.124L423.652 346.999H421.208ZM443.954 347.311C441.649 347.311 439.898 346.548 438.702 345.023C437.524 343.48 436.934 341.166 436.934 338.081C436.934 334.978 437.524 332.664 438.702 331.139C439.898 329.614 441.649 328.851 443.954 328.851C445.168 328.851 446.242 329.102 447.178 329.605C448.114 330.09 448.842 330.836 449.362 331.841C449.9 332.829 450.168 334.086 450.168 335.611H447.828C447.828 334.051 447.473 332.89 446.762 332.127C446.069 331.347 445.133 330.957 443.954 330.957C442.394 330.957 441.233 331.494 440.47 332.569C439.708 333.644 439.326 335.264 439.326 337.431V338.731C439.326 340.898 439.708 342.518 440.47 343.593C441.233 344.668 442.394 345.205 443.954 345.205C445.15 345.205 446.104 344.824 446.814 344.061C447.542 343.298 447.906 342.146 447.906 340.603H450.168C450.168 342.128 449.9 343.394 449.362 344.399C448.842 345.387 448.114 346.124 447.178 346.609C446.242 347.077 445.168 347.311 443.954 347.311ZM453.569 346.999V329.163H455.857V336.833H463.033V329.163H465.321V346.999H463.033V338.913H455.857V346.999H453.569ZM467.63 346.999L473.298 329.163H476.236L481.904 346.999H479.434L478.212 343.021H471.14L469.918 346.999H467.63ZM471.764 340.941H477.562L475.144 333.011C475.092 332.803 475.031 332.543 474.962 332.231C474.892 331.919 474.832 331.642 474.78 331.399C474.745 331.156 474.728 331.035 474.728 331.035H474.624C474.624 331.035 474.598 331.165 474.546 331.425C474.511 331.668 474.459 331.945 474.39 332.257C474.338 332.569 474.277 332.82 474.208 333.011L471.764 340.941ZM484.214 346.999V329.163H486.19L492.82 340.369C492.959 340.594 493.106 340.898 493.262 341.279C493.436 341.66 493.583 342.007 493.704 342.319C493.843 342.614 493.912 342.761 493.912 342.761L493.99 342.735C493.99 342.735 493.982 342.579 493.964 342.267C493.964 341.955 493.956 341.608 493.938 341.227C493.921 340.846 493.912 340.56 493.912 340.369V329.163H495.966V346.999H494.068L487.386 335.637C487.248 335.377 487.083 335.065 486.892 334.701C486.719 334.32 486.563 333.982 486.424 333.687C486.303 333.392 486.242 333.245 486.242 333.245L486.164 333.271C486.164 333.271 486.173 333.418 486.19 333.713C486.208 334.008 486.225 334.346 486.242 334.727C486.26 335.091 486.268 335.394 486.268 335.637V346.999H484.214ZM506.595 347.311C504.342 347.311 502.609 346.548 501.395 345.023C500.182 343.48 499.575 341.166 499.575 338.081C499.575 334.978 500.208 332.664 501.473 331.139C502.756 329.614 504.507 328.851 506.725 328.851C507.973 328.851 509.083 329.085 510.053 329.553C511.024 330.021 511.787 330.732 512.341 331.685C512.913 332.621 513.199 333.808 513.199 335.247H510.859C510.859 333.756 510.478 332.673 509.715 331.997C508.953 331.304 507.956 330.957 506.725 330.957C505.252 330.957 504.091 331.494 503.241 332.569C502.392 333.644 501.967 335.264 501.967 337.431V338.731C501.967 340.898 502.366 342.518 503.163 343.593C503.961 344.668 505.105 345.205 506.595 345.205C508.086 345.205 509.169 344.789 509.845 343.957C510.521 343.108 510.859 341.834 510.859 340.135V338.757L511.821 339.719H506.231V337.717H513.199V346.999H511.691L511.197 345.023C510.66 345.82 510.001 346.401 509.221 346.765C508.441 347.129 507.566 347.311 506.595 347.311ZM517.221 346.999V329.163H528.219V331.243H519.509V336.833H527.075V338.913H519.509V344.919H528.375V346.999H517.221ZM543.648 347.311C542.573 347.311 541.577 347.138 540.658 346.791C539.739 346.444 539.003 345.881 538.448 345.101C537.911 344.321 537.642 343.272 537.642 341.955C537.642 341.868 537.642 341.773 537.642 341.669C537.659 341.548 537.668 341.47 537.668 341.435H540.034C540.034 341.452 540.025 341.53 540.008 341.669C540.008 341.79 540.008 341.894 540.008 341.981C540.008 343.073 540.346 343.888 541.022 344.425C541.698 344.945 542.539 345.205 543.544 345.205C544.74 345.205 545.659 344.954 546.3 344.451C546.959 343.931 547.288 343.194 547.288 342.241C547.288 341.6 547.115 341.08 546.768 340.681C546.439 340.282 545.997 339.953 545.442 339.693C544.905 339.433 544.307 339.199 543.648 338.991C542.989 338.783 542.322 338.558 541.646 338.315C540.987 338.072 540.381 337.76 539.826 337.379C539.289 336.998 538.847 336.512 538.5 335.923C538.171 335.316 538.006 334.554 538.006 333.635C538.006 332.543 538.257 331.642 538.76 330.931C539.28 330.22 539.965 329.7 540.814 329.371C541.681 329.024 542.634 328.851 543.674 328.851C544.714 328.851 545.65 329.024 546.482 329.371C547.331 329.7 548.007 330.238 548.51 330.983C549.013 331.711 549.264 332.673 549.264 333.869V334.181H546.898V333.791C546.898 332.872 546.595 332.17 545.988 331.685C545.381 331.2 544.627 330.957 543.726 330.957C542.79 330.957 542.001 331.156 541.36 331.555C540.736 331.954 540.424 332.586 540.424 333.453C540.424 334.06 540.589 334.554 540.918 334.935C541.265 335.316 541.707 335.637 542.244 335.897C542.799 336.14 543.405 336.365 544.064 336.573C544.723 336.781 545.381 337.006 546.04 337.249C546.699 337.492 547.297 337.804 547.834 338.185C548.389 338.566 548.831 339.052 549.16 339.641C549.507 340.213 549.68 340.95 549.68 341.851C549.68 343.186 549.411 344.252 548.874 345.049C548.354 345.846 547.643 346.427 546.742 346.791C545.841 347.138 544.809 347.311 543.648 347.311ZM556.671 346.999V331.243H551.809V329.163H563.821V331.243H558.959V346.999H556.671ZM572.556 347.311C570.719 347.311 569.28 346.791 568.24 345.751C567.2 344.711 566.68 343.194 566.68 341.201V329.163H568.968V341.331C568.968 342.596 569.289 343.558 569.93 344.217C570.572 344.876 571.447 345.205 572.556 345.205C573.683 345.205 574.558 344.876 575.182 344.217C575.824 343.558 576.144 342.596 576.144 341.331V329.163H578.432V341.201C578.432 343.194 577.912 344.711 576.872 345.751C575.832 346.791 574.394 347.311 572.556 347.311ZM582.587 346.999V329.163H588.125C590.24 329.163 591.895 329.891 593.091 331.347C594.287 332.786 594.885 334.944 594.885 337.821C594.885 340.872 594.287 343.168 593.091 344.711C591.895 346.236 590.24 346.999 588.125 346.999H582.587ZM584.875 344.919H587.917C589.321 344.919 590.43 344.39 591.245 343.333C592.077 342.258 592.493 340.638 592.493 338.471V337.171C592.493 335.178 592.077 333.696 591.245 332.725C590.43 331.737 589.321 331.243 587.917 331.243H584.875V344.919ZM598.494 346.999V329.163H609.492V331.243H600.782V336.833H608.348V338.913H600.782V344.919H609.648V346.999H598.494ZM613.232 346.999V329.163H615.208L621.838 340.369C621.977 340.594 622.124 340.898 622.28 341.279C622.454 341.66 622.601 342.007 622.722 342.319C622.861 342.614 622.93 342.761 622.93 342.761L623.008 342.735C623.008 342.735 623 342.579 622.982 342.267C622.982 341.955 622.974 341.608 622.956 341.227C622.939 340.846 622.93 340.56 622.93 340.369V329.163H624.984V346.999H623.086L616.404 335.637C616.266 335.377 616.101 335.065 615.91 334.701C615.737 334.32 615.581 333.982 615.442 333.687C615.321 333.392 615.26 333.245 615.26 333.245L615.182 333.271C615.182 333.271 615.191 333.418 615.208 333.713C615.226 334.008 615.243 334.346 615.26 334.727C615.278 335.091 615.286 335.394 615.286 335.637V346.999H613.232ZM632.675 346.999V331.243H627.813V329.163H639.825V331.243H634.963V346.999H632.675ZM647.936 347.311C646.862 347.311 645.865 347.138 644.946 346.791C644.028 346.444 643.291 345.881 642.736 345.101C642.199 344.321 641.93 343.272 641.93 341.955C641.93 341.868 641.93 341.773 641.93 341.669C641.948 341.548 641.956 341.47 641.956 341.435H644.322C644.322 341.452 644.314 341.53 644.296 341.669C644.296 341.79 644.296 341.894 644.296 341.981C644.296 343.073 644.634 343.888 645.31 344.425C645.986 344.945 646.827 345.205 647.832 345.205C649.028 345.205 649.947 344.954 650.588 344.451C651.247 343.931 651.576 343.194 651.576 342.241C651.576 341.6 651.403 341.08 651.056 340.681C650.727 340.282 650.285 339.953 649.73 339.693C649.193 339.433 648.595 339.199 647.936 338.991C647.278 338.783 646.61 338.558 645.934 338.315C645.276 338.072 644.669 337.76 644.114 337.379C643.577 336.998 643.135 336.512 642.788 335.923C642.459 335.316 642.294 334.554 642.294 333.635C642.294 332.543 642.546 331.642 643.048 330.931C643.568 330.22 644.253 329.7 645.102 329.371C645.969 329.024 646.922 328.851 647.962 328.851C649.002 328.851 649.938 329.024 650.77 329.371C651.62 329.7 652.296 330.238 652.798 330.983C653.301 331.711 653.552 332.673 653.552 333.869V334.181H651.186V333.791C651.186 332.872 650.883 332.17 650.276 331.685C649.67 331.2 648.916 330.957 648.014 330.957C647.078 330.957 646.29 331.156 645.648 331.555C645.024 331.954 644.712 332.586 644.712 333.453C644.712 334.06 644.877 334.554 645.206 334.935C645.553 335.316 645.995 335.637 646.532 335.897C647.087 336.14 647.694 336.365 648.352 336.573C649.011 336.781 649.67 337.006 650.328 337.249C650.987 337.492 651.585 337.804 652.122 338.185C652.677 338.566 653.119 339.052 653.448 339.641C653.795 340.213 653.968 340.95 653.968 341.851C653.968 343.186 653.7 344.252 653.162 345.049C652.642 345.846 651.932 346.427 651.03 346.791C650.129 347.138 649.098 347.311 647.936 347.311Z" fill="#5F5454"/>
<g clip-path="url(#clip0_51_404)">
<path d="M538.234 238.186C538.175 238.514 538.172 238.661 538.149 239.039C538.144 239.113 538.004 239.145 538.002 239.212C537.985 239.668 538.511 240.539 538.784 240.929C538.9 241.095 539.136 241.207 539.186 241.306C539.272 241.482 539.127 241.767 539.151 241.982C539.283 243.133 539.975 244.522 540.616 245.483C540.884 245.887 541.477 246.452 541.648 246.863C541.78 247.185 541.655 247.613 541.852 248.012C542.283 248.889 543.533 249.966 543.881 250.683C544.082 251.098 544.058 251.582 544.398 251.978C544.903 252.567 546.224 252.807 546.868 253.245C547.647 253.771 547.976 254.263 549.062 254.441C549.481 254.509 550.142 254.397 550.421 254.46C550.553 254.49 550.747 254.706 550.94 254.773C551.987 255.139 552.085 255.079 553.055 255.716C554.803 256.863 556.708 258.238 558.35 259.55C559.858 260.757 561.561 262.898 562.813 264.396C563.238 264.902 563.511 265.445 563.864 265.856C563.995 266.009 564.401 266.192 564.47 266.384C564.522 266.523 564.44 266.743 564.511 266.942C564.586 267.149 564.878 267.213 564.987 267.453C565.256 268.057 565.405 268.935 565.63 269.531C565.837 270.075 566.34 270.781 566.481 271.308C566.721 272.21 566.689 273.162 566.834 274.051C566.932 274.643 567.518 276.899 567.446 277.28C567.424 277.397 567.266 277.519 567.241 277.707C567.199 278.022 567.447 279.598 567.55 279.94C567.741 280.567 568.119 282.323 568.157 282.997C568.173 283.27 567.979 283.543 567.991 283.776C568.06 285.256 567.483 286.775 567.428 288.247C567.418 288.555 567.529 288.908 567.507 289.269C567.327 292.147 565.43 294.753 564.488 297.361C564.33 297.795 564.229 298.485 564.054 298.93C563.834 299.497 562.541 300.992 562.176 301.642C561.754 302.39 561.519 303.876 561.07 304.786C560.812 305.314 560.08 305.68 560.678 306.233C561.186 306.705 562.625 306.791 563.29 307.041C563.819 307.239 564.069 307.748 564.584 307.769C564.708 307.773 564.816 307.665 564.954 307.693C565.113 307.721 566.147 308.036 566.3 308.104C566.847 308.345 566.849 308.728 567.165 308.992C567.194 309.017 567.786 309.332 567.824 309.341C568.166 309.421 568.577 309.157 568.883 309.175C568.981 309.181 569.015 309.334 569.094 309.364C570.037 309.754 570.475 309.652 571.29 310.44C571.583 310.723 572.075 311.521 572.267 311.649C572.483 311.794 572.961 311.78 573.244 311.879C574.217 312.222 576.043 313.244 576.459 314.211C576.876 315.177 576.181 316.33 575.138 316.46C574.665 316.52 574.585 316.24 574.427 316.249C574.112 316.266 573.439 316.613 573.055 316.589C572.961 316.581 572.889 316.376 572.715 316.335C572.519 316.289 572.407 316.438 572.254 316.436C571.851 316.432 570.935 316.026 570.665 316.025C570.483 316.025 570.11 316.248 569.777 316.276C569.104 316.33 568.271 316.04 567.512 316.162C567.197 316.213 566.841 316.422 566.619 316.427C566.414 316.432 566.19 316.225 565.948 316.211C564.549 316.127 562.86 316.478 561.559 316.385C561.289 316.363 560.933 316.18 560.587 316.147C559.418 316.033 558.561 316.261 557.463 316.362C557.241 316.38 557.061 316.234 556.771 316.306C556.48 316.379 556.338 316.644 556.075 316.741C555.016 317.133 554.694 316.923 553.713 316.9C553.366 316.891 552.505 317.097 552.357 316.827L552.178 316.864C552.105 317.451 551.892 316.879 551.781 316.788C551.474 316.538 551.065 316.878 550.78 316.929C549.869 317.102 549.008 317.507 548.3 317.635C547.525 317.773 547.055 317.569 546.057 317.936C545.198 318.251 544.399 319.023 543.441 319.032C543.199 319.034 543.171 318.817 542.979 318.753C542.705 318.663 542.519 318.827 542.194 318.601C542.132 318.557 541.376 317.716 541.309 317.62C540.892 317.006 541.058 315.834 540.149 315.837C538.881 315.842 537.42 316.463 536.159 316.631C534.594 316.837 532.635 316.434 530.978 316.909C530.518 317.042 530.115 317.351 529.611 317.387C529.428 317.401 529.486 317.226 529.302 317.24C528.737 317.283 527.946 317.59 527.367 317.588C527.148 317.587 526.932 317.391 526.704 317.394C526.386 317.399 526.015 317.568 525.682 317.596C523.807 317.752 521.806 317.578 519.917 317.534C519.5 317.523 518.883 317.675 518.492 317.629C518.1 317.582 517.633 317.328 517.213 317.237C516.07 316.991 515.028 316.931 513.819 316.635C512.35 316.276 510.946 315.757 509.547 315.164C509.11 314.98 508.482 314.979 507.975 314.736C507.309 314.419 506.37 313.579 505.616 313.544C505.304 313.531 505.012 313.727 504.691 313.602C504.533 313.542 504.459 313.36 504.329 313.294C504.07 313.16 503.503 313.116 503.168 312.975C502.728 312.785 502.38 312.43 501.972 312.224C501.271 311.864 501.566 312.187 500.957 311.562C500.772 311.371 499.97 311.102 499.707 310.889C499.461 310.69 499.286 310.323 499.011 310.113C498.354 309.611 496.977 308.591 496.472 307.972C496.148 307.569 496.096 306.957 495.883 306.665C495.671 306.372 494.945 305.988 494.651 305.475C494.341 304.93 494.321 304.328 493.959 303.71C493.452 302.838 493.037 301.825 492.483 300.936C492.364 300.744 491.936 300.206 491.732 300.235C491.551 300.258 490.865 300.851 490.676 301.016C490.6 301.081 490.602 301.254 490.461 301.376C489.685 302.053 488.911 301.984 488.156 302.355C487.849 302.507 487.454 303.017 487.167 303.235C486.957 303.395 486.447 303.389 486.702 303.773C486.522 303.869 486.246 303.769 486.095 303.827C485.556 304.033 484.226 306.141 483.756 306.706C483.591 306.906 483.242 307.117 483.032 307.356C482.275 308.219 482.123 309.251 480.693 309.27C480.331 309.274 479.541 308.883 479.414 308.52C478.939 307.153 479.308 305.61 479.989 304.373C480.181 304.025 480.644 303.528 480.834 303.156C481.024 302.785 480.988 302.349 481.147 301.991C481.286 301.68 482.002 301.018 482.069 300.825C482.135 300.631 482.028 300.331 482.116 300.046C482.189 299.805 482.615 299.06 482.778 298.667C483.795 296.23 484.719 293.739 485.44 291.187C486.095 288.86 487.186 286.868 487.868 284.559C487.972 284.205 487.99 283.613 488.109 283.266C488.181 283.051 488.438 282.863 488.463 282.608C488.487 282.354 488.341 282.204 488.347 282.039C488.373 281.482 488.799 280.347 488.831 279.788C488.85 279.488 488.597 278.704 488.676 278.475C489.284 278.019 489.66 277.356 490.179 276.808C490.287 276.34 489.993 275.651 490.029 275.255C490.045 275.089 490.221 274.993 490.257 274.842C490.485 273.877 490.735 272.369 490.868 271.374C490.959 270.713 490.876 269.965 491.022 269.379C491.096 269.091 491.189 268.879 491.377 268.645L491.056 268.437C491.172 268.014 491.128 267.584 491.192 267.152C491.245 266.792 491.442 265.64 491.539 265.364C491.585 265.235 491.914 264.682 492.022 264.477C492.605 263.363 493.355 262.332 493.938 261.222C494.175 260.771 494.443 259.838 494.691 259.458C494.82 259.258 495.181 259.108 495.35 258.924C496.169 258.042 496.716 257.304 497.635 256.482C498.553 255.659 499.309 254.513 500.209 253.747C501.168 252.93 502.304 252.265 503.317 251.367C505.206 249.687 506.951 248.523 509.112 247.213C509.659 246.882 510.454 246.058 510.872 245.876C511.327 245.68 511.851 245.776 512.356 245.647C512.895 245.507 513.332 245.075 513.778 244.967C515.123 244.64 516.497 244.227 517.832 243.931C519.07 243.655 518.648 243.831 519.72 244.025C521.014 244.26 521.516 244.214 522.81 244.11C523.434 244.06 523.912 244.301 524.346 244.346C525.048 244.419 525.779 244.337 526.483 244.516C526.618 244.445 526.676 243.608 526.757 243.402C526.893 243.058 527.291 242.454 527.61 242.273C528.335 241.859 528.797 241.841 529.15 240.951C529.71 239.542 530.184 238.773 531.029 237.513C531.765 236.415 532.051 235.471 532.61 234.303C533.057 233.369 532.918 233.647 533.077 232.653C533.162 232.127 534.212 229.65 534.508 229.201C534.562 229.12 534.936 228.934 535.009 228.723C535.411 228.74 535.918 228.604 536.306 228.668C536.663 228.724 537.542 229.307 537.673 229.653C537.86 230.147 537.715 230.609 537.779 231.086C537.91 232.054 538.096 232.721 538.097 233.719C538.098 233.968 537.96 234.239 537.978 234.455C538.095 235.696 538.44 236.95 538.218 238.203L538.234 238.186ZM540.943 256.662C540.714 256.483 540.246 256.339 539.987 256.095C539.531 255.666 539.49 254.976 538.635 255.523C538.379 255.685 537.951 256.208 537.707 256.364C537.364 256.587 536.689 256.891 536.316 257.134C535.678 257.553 535.234 257.95 534.546 258.29C531.542 259.778 530.337 261.933 528.392 264.479C527.999 264.992 526.881 265.879 526.388 266.342C526.114 266.597 525.62 267.593 525.413 267.915C524.508 269.321 523.43 270.698 522.201 271.821C522.109 271.906 522.184 272.077 521.963 272.166C521.202 272.477 519.592 271.891 519.272 271.104C519.23 270.996 518.903 269.719 518.901 269.643C518.899 269.586 519.192 268.661 519.236 268.586C519.375 268.351 519.554 268.318 519.676 268.15C519.749 268.052 520.45 266.409 520.518 266.205C520.791 265.361 520.75 264.397 520.881 263.539C521.011 262.681 521.508 261.744 521.634 260.883C521.674 260.735 521.291 260.697 521.224 260.694C521.02 260.689 520.792 260.692 520.602 260.771C520.378 260.863 520.461 261.073 520.366 261.115C519.498 261.515 518.27 261.37 517.596 261.6C517.161 261.749 516.495 262.211 515.976 262.387C513.674 263.166 511.511 263.47 509.205 263.874C507.948 264.094 506.611 264.31 505.469 264.949C503.931 265.811 502.458 266.731 501.018 267.73C500.25 268.262 499.471 269.15 498.88 269.869C498.085 270.837 496.783 271.668 495.918 272.67C495.577 273.065 494.815 274.575 494.81 275.068C494.811 275.138 494.941 275.877 494.965 275.912C495.095 276.095 495.698 276.361 495.864 276.51C496.206 276.82 496.916 277.936 497.247 278.145C497.804 278.5 498.428 278.985 499.012 279.322C499.339 279.511 499.976 279.638 500.171 279.764C500.501 279.983 501.016 280.88 501.502 281.047C501.673 281.105 501.912 280.973 501.973 281.011L502.035 281.281L502.5 280.986C502.587 281.038 502.602 281.132 502.713 281.172C504.347 281.787 505.345 281.241 506.969 280.95C507.565 280.845 508.227 280.93 508.815 280.59C509.323 280.832 509.574 281.314 509.956 281.675L510.196 282.847C509.793 283.884 508.84 284.621 508.069 285.397C507.256 286.215 507.382 286.166 506.394 286.647C505.337 287.162 504.94 287.645 504.014 288.283C503.715 288.491 503.249 288.633 502.986 288.813C501.337 289.941 499.982 291.651 498.836 293.249C498.78 293.33 498.587 293.363 498.544 293.459C498.484 293.59 498.65 294.372 498.757 294.486C498.828 294.562 499.064 294.593 499.189 294.684C500.103 295.356 501.171 295.754 502.162 296.414C504.298 297.835 506.682 299.392 509.227 300C511.392 300.52 513.768 300.918 515.842 301.463C516.46 301.626 517.17 301.818 517.662 302.246C517.755 302.327 518.496 303.191 518.522 303.252C518.573 303.371 518.556 303.907 518.64 304.189C518.852 304.905 519.2 305.599 519.413 306.318C519.697 306.439 519.959 306.685 520.207 306.824C520.383 306.922 520.611 306.899 520.723 306.959C521.909 307.612 522.817 308.465 524.079 309.023C525.722 309.749 527.035 310.356 528.868 310.565C529.758 310.666 530.919 310.592 531.716 310.769C532.689 310.983 532.926 311.168 533.994 311.226C535.291 311.298 536.61 311.564 537.899 311.305C538.537 311.175 539.102 310.916 539.835 310.927C540.328 310.933 541.53 311.472 541.726 311.469C541.782 311.468 542.7 311.197 542.795 311.158C543.559 310.819 543.795 308.395 543.94 307.637C544.097 306.83 544.493 305.548 544.465 304.755C544.445 304.234 544.166 303.615 544.133 303.083C544.109 302.652 544.395 302.068 544.335 301.677C544.265 301.203 544.073 300.263 543.944 299.811C543.729 299.063 543.221 298.171 542.981 297.482C542.774 296.888 542.64 295.957 542.822 295.351C543.014 294.71 543.975 293.642 544.668 293.704C544.804 293.716 545.82 294.191 545.977 294.289C546.872 294.851 546.67 295.049 547.03 295.871C548.165 298.457 550.455 300.273 552.913 301.625C553.149 301.756 553.256 302.087 553.749 301.704C553.855 301.622 553.827 301.452 553.901 301.357C553.946 301.301 554.114 301.31 554.13 301.277C554.177 301.197 554.03 300.978 554.076 300.832C554.089 300.796 554.255 300.699 554.314 300.547C554.638 299.726 555.001 298.624 554.968 297.748C554.956 297.428 554.841 297.089 554.831 296.765C554.259 296.386 553.18 296.29 552.77 295.728C552.464 295.305 551.897 293.224 552.033 292.734C552.077 292.579 552.259 292.541 552.256 292.462C552.25 292.364 552.118 292.241 552.1 292.121C552.046 291.723 552.271 291.265 552.318 290.826C552.383 290.201 552.282 289.722 552.252 289.186C552.247 289.094 552.46 289.067 552.48 288.916C552.612 287.888 552.68 286.823 552.735 285.773C552.756 285.34 553.038 284.797 553.057 284.613C553.092 284.217 552.786 283.321 552.71 282.85C552.506 281.538 552.448 279.806 551.798 278.621C551.491 278.058 550.987 277.772 550.66 277.293C550.382 276.887 550.155 276.331 549.887 275.896C549.724 275.634 549.382 275.554 549.484 275.157C549.381 274.975 549.219 275.178 549.107 275.131C549.027 275.1 547.76 274.258 547.706 274.192C547.547 273.702 546.842 272.851 546.788 272.393C546.775 272.279 547.103 271.284 547.181 271.191C547.399 270.927 548.073 270.454 548.422 270.356C548.148 270.069 548.622 269.447 548.645 269.172C548.673 268.834 548.452 268.55 548.444 268.299C548.436 268.047 548.695 267.529 548.725 267.203C548.74 267.047 548.702 266.403 548.657 266.282C548.62 266.18 547.723 265.039 547.573 264.859C546.185 263.199 544.627 261.617 543.141 260.094C542.314 259.248 542.55 258.584 542.035 257.734C541.924 257.55 541.128 256.804 540.934 256.651L540.943 256.662Z" fill="#5F5454"/>
</g>
<defs>
<clipPath id="clip0_51_404">
<rect width="94" height="94" fill="white" transform="translate(466 242.784) rotate(-11.5275)"/>
</clipPath>
</defs>
</svg>
