<svg width="796" height="558" viewBox="0 0 796 558" fill="none" xmlns="http://www.w3.org/2000/svg">
<path d="M503.293 57.7159C502.574 59.5183 502.384 60.3531 501.816 62.4781C501.703 62.8955 500.87 62.9145 500.775 63.2939C500.15 65.8743 502.138 71.4523 503.236 73.9947C503.71 75.0762 504.921 75.9869 505.092 76.613C505.376 77.7134 504.221 79.1743 504.107 80.4266C503.52 87.143 505.849 95.8706 508.386 102.094C509.446 104.712 512.173 108.62 512.665 111.163C513.044 113.155 511.832 115.451 512.495 117.955C513.934 123.457 519.803 131.047 520.958 135.543C521.62 138.142 520.92 140.875 522.397 143.531C524.593 147.477 531.844 150.38 535.006 153.624C538.831 157.533 540.137 160.72 546.12 162.997C548.43 163.87 552.33 164.003 553.845 164.686C554.564 165.008 555.416 166.469 556.439 167.076C561.986 170.378 562.611 170.15 567.401 174.912C576.035 183.488 585.293 193.544 593.132 202.935C600.326 211.568 607.54 225.76 612.936 235.759C614.772 239.136 615.7 242.551 617.234 245.302C617.802 246.326 619.903 247.844 620.074 249.021C620.206 249.874 619.487 251.032 619.657 252.246C619.846 253.517 621.437 254.219 621.778 255.718C622.611 259.475 622.44 264.654 623.027 268.316C623.576 271.655 625.621 276.266 625.81 279.434C626.132 284.861 624.845 290.249 624.637 295.486C624.504 298.977 625.224 312.523 624.372 314.61C624.107 315.255 623.065 315.768 622.706 316.811C622.1 318.557 621.683 327.835 621.872 329.903C622.232 333.697 622.346 344.151 621.778 348.041C621.551 349.616 620.131 350.944 619.922 352.291C618.597 360.81 613.542 368.797 611.516 377.126C611.099 378.872 611.327 381.016 610.777 383.046C606.404 399.249 592.564 411.904 584.157 425.678C582.756 427.974 581.374 431.788 579.859 434.121C577.947 437.1 568.84 444.12 566 447.402C562.725 451.178 559.657 459.374 556.041 464.042C553.959 466.755 549.358 467.988 552.122 471.84C554.47 475.122 562.573 477.285 566.076 479.486C568.859 481.231 569.692 484.419 572.608 485.14C573.308 485.31 574.047 484.817 574.804 485.14C575.675 485.481 581.204 488.479 581.999 489.048C584.839 491.059 584.403 493.241 585.899 495.119C586.032 495.29 589.042 497.776 589.25 497.871C591.106 498.724 593.756 497.7 595.479 498.155C596.028 498.307 596.047 499.218 596.464 499.483C601.387 502.803 603.999 502.728 607.729 508.173C609.073 510.127 610.948 515.25 611.895 516.198C612.955 517.28 615.7 517.754 617.196 518.646C622.346 521.739 631.566 529.688 632.816 535.684C634.065 541.679 628.764 547.447 622.668 546.973C619.903 546.764 619.771 545.075 618.862 544.943C617.044 544.677 612.803 545.872 610.645 545.284C610.115 545.132 609.944 543.88 608.998 543.444C607.937 542.95 607.123 543.671 606.252 543.482C603.962 542.988 599.209 539.611 597.676 539.289C596.634 539.08 594.249 539.915 592.317 539.687C588.417 539.213 584.006 536.594 579.537 536.405C577.682 536.329 575.41 537.107 574.141 536.879C572.968 536.67 571.926 535.228 570.563 534.868C562.687 532.762 552.652 532.8 545.344 530.751C543.829 530.314 542.012 528.853 540.08 528.265C533.548 526.254 528.399 526.558 522.018 525.856C520.731 525.704 519.879 524.66 518.137 524.736C516.395 524.812 515.278 526.159 513.668 526.406C507.174 527.411 505.584 525.837 500.018 524.565C498.048 524.11 492.899 524.281 492.368 522.573H491.308C490.21 525.837 489.661 522.327 489.131 521.682C487.673 519.898 484.947 521.359 483.262 521.321C477.866 521.245 472.488 522.554 468.304 522.46C463.722 522.346 461.28 520.638 455.164 521.568C449.901 522.365 444.448 525.837 438.977 524.774C437.594 524.509 437.689 523.237 436.667 522.649C435.209 521.814 433.959 522.535 432.369 520.866C432.066 520.543 428.734 514.87 428.469 514.244C426.802 510.26 429.112 503.771 423.924 502.728C416.692 501.286 407.642 503.126 400.258 502.614C391.094 501.969 380.397 497.396 370.4 498.174C367.617 498.402 364.966 499.692 362.05 499.312C360.99 499.18 361.52 498.25 360.46 498.117C357.185 497.7 352.319 498.535 349.024 497.852C347.775 497.586 346.771 496.22 345.465 495.973C343.647 495.632 341.337 496.163 339.406 495.935C328.538 494.645 317.33 491.325 306.614 488.877C304.247 488.327 300.555 488.479 298.378 487.758C296.2 487.037 293.834 485.045 291.543 484.039C285.314 481.307 279.444 479.751 272.893 476.659C264.941 472.902 257.538 468.311 250.249 463.302C247.977 461.746 244.399 461.006 241.786 459.033C238.359 456.452 233.985 450.571 229.725 449.489C227.965 449.053 226.071 449.831 224.386 448.749C223.553 448.218 223.345 447.099 222.682 446.568C221.357 445.505 218.176 444.594 216.434 443.399C214.143 441.805 212.572 439.377 210.489 437.726C206.911 434.861 208.217 437.043 205.472 432.774C204.639 431.465 200.379 428.999 199.129 427.481C197.955 426.058 197.387 423.762 196.062 422.244C192.9 418.62 186.236 411.202 184.077 407.085C182.695 404.41 183.112 400.862 182.241 398.945C181.37 397.029 177.678 393.993 176.598 390.73C175.462 387.258 176.049 383.805 174.705 379.858C172.831 374.299 171.638 368.038 169.517 362.327C169.063 361.094 167.245 357.527 166.053 357.451C164.992 357.375 160.392 359.956 159.123 360.677C158.612 360.961 158.422 361.948 157.476 362.479C152.269 365.439 147.933 364.149 143.2 365.382C141.269 365.894 138.429 368.342 136.536 369.253C135.153 369.917 132.257 369.291 133.26 371.776C132.124 372.117 130.666 371.226 129.738 371.378C126.425 371.928 116.39 382.401 113.058 385.076C111.884 386.025 109.65 386.822 108.173 387.941C102.853 391.982 100.789 397.693 92.6102 396.137C90.5465 395.739 86.4947 392.589 86.1918 390.37C85.0747 382.021 88.975 373.654 94.2953 367.393C95.791 365.629 99.0097 363.333 100.524 361.436C102.039 359.538 102.342 357.015 103.667 355.156C104.822 353.543 109.669 350.602 110.275 349.578C110.881 348.553 110.616 346.713 111.449 345.195C112.149 343.905 115.444 340.148 116.826 338.099C125.46 325.387 133.62 312.258 140.701 298.54C147.138 286.037 155.677 275.943 162.247 263.573C163.25 261.676 164.046 258.317 165.125 256.477C165.788 255.339 167.473 254.561 167.908 253.138C168.344 251.715 167.681 250.69 167.908 249.761C168.703 246.611 172.452 240.635 173.285 237.485C173.74 235.796 173.209 231.034 173.929 229.82C177.924 227.923 180.84 224.583 184.437 222.06C185.592 219.518 184.721 215.249 185.384 213.029C185.668 212.099 186.785 211.758 187.163 210.942C189.587 205.705 192.768 197.395 194.68 191.874C195.967 188.212 196.365 183.848 197.88 180.68C198.637 179.124 199.413 178.024 200.757 176.904L199.167 175.348C200.322 173.072 200.568 170.567 201.439 168.177C202.158 166.185 204.62 159.848 205.491 158.387C205.907 157.704 208.425 154.934 209.277 153.89C213.897 148.217 219.369 143.208 223.989 137.554C225.863 135.259 228.476 130.25 230.331 128.371C231.297 127.385 233.531 126.948 234.705 126.095C240.404 122.015 244.38 118.448 250.571 114.825C256.762 111.201 262.404 105.547 268.425 102.227C274.843 98.6786 282.095 96.2121 288.911 92.2657C301.634 84.8852 312.937 80.2748 326.778 75.3228C330.28 74.0706 335.771 70.295 338.365 69.7448C341.186 69.1566 344.064 70.3139 347.093 70.1622C350.331 69.9914 353.322 68.0372 355.992 67.9423C364.038 67.6387 372.35 66.8798 380.302 66.747C387.686 66.6142 385.073 67.1265 390.962 69.4791C398.062 72.3251 400.977 72.6476 408.475 73.5583C412.091 73.9947 414.534 75.9299 416.957 76.6889C420.876 77.9221 425.136 78.3016 428.942 80.142C429.794 79.8953 431.1 75.19 431.801 74.1085C432.975 72.3061 435.947 69.3273 437.973 68.6633C442.593 67.1455 445.243 67.5818 448.292 62.9145C453.12 55.534 456.717 51.7014 463.003 45.4973C468.475 40.09 471.201 35.0431 475.745 29.0287C479.38 24.2285 478.263 25.6515 480.327 20.1683C481.425 17.2654 490.286 4.36379 492.501 2.14395C492.899 1.74552 495.246 1.11941 495.909 0C498.181 0.56919 501.229 0.37946 503.369 1.1953C505.338 1.93525 509.674 6.28006 510.014 8.40504C510.507 11.4407 509.143 13.9072 508.954 16.6962C508.575 22.3692 508.859 26.3914 507.704 32.0833C507.42 33.5063 506.322 34.8913 506.171 36.1436C505.395 43.3533 505.906 50.9046 503.179 57.7918L503.293 57.7159ZM497.253 166.222C496.155 164.932 493.656 163.566 492.463 161.878C490.362 158.899 490.93 154.915 485.42 157.04C483.773 157.666 480.724 160.151 479.153 160.758C476.938 161.631 472.735 162.58 470.33 163.528C466.203 165.179 463.211 166.924 458.894 168.063C440.037 173.053 430.665 183.943 416.616 196.2C413.776 198.666 406.373 202.423 403.022 204.491C401.167 205.629 397.191 210.733 395.638 212.327C388.841 219.29 381.097 225.893 372.786 230.863C372.161 231.243 372.388 232.305 371.025 232.552C366.329 233.444 357.828 228.226 356.919 223.369C356.806 222.705 356.427 215.04 356.503 214.604C356.56 214.281 359.305 209.348 359.646 208.969C360.706 207.792 361.766 207.811 362.656 206.995C363.186 206.521 369.094 197.964 369.718 196.883C372.255 192.386 373.145 186.846 374.887 182.103C376.629 177.36 380.548 172.597 382.271 167.835C382.669 167.038 380.529 166.374 380.151 166.279C378.996 166.014 377.689 165.767 376.515 165.995C375.133 166.26 375.361 167.551 374.774 167.683C369.359 168.955 362.524 166.697 358.415 167.228C355.765 167.57 351.429 169.429 348.267 169.827C334.237 171.592 321.552 170.814 307.939 170.434C300.517 170.226 292.641 169.903 285.389 172.218C275.62 175.348 266.153 178.877 256.781 182.9C251.783 185.044 246.311 189.199 242.108 192.614C236.447 197.205 228.059 200.431 221.963 205.136C219.558 206.995 213.462 214.717 212.856 217.525C212.78 217.924 212.666 222.288 212.761 222.515C213.291 223.711 216.415 225.93 217.191 226.974C218.782 229.137 221.527 236.328 223.174 237.902C225.939 240.578 228.93 244.069 231.865 246.668C233.512 248.129 236.996 249.59 237.961 250.538C239.59 252.17 241.483 257.881 244.058 259.399C244.967 259.93 246.481 259.456 246.784 259.74L246.822 261.353L249.814 260.215C250.249 260.613 250.23 261.163 250.817 261.524C259.413 266.931 265.737 264.977 275.336 265.205C278.857 265.3 282.53 266.552 286.279 265.299C288.892 267.273 289.763 270.308 291.524 272.813V279.776C288.021 285.221 281.735 288.314 276.434 291.843C270.849 295.561 271.625 295.429 265.434 297.022C258.807 298.73 255.986 301.026 249.965 303.587C248.015 304.422 245.194 304.687 243.49 305.408C232.774 309.924 223.061 318.101 214.673 325.88C214.257 326.279 213.121 326.241 212.761 326.734C212.269 327.417 212.307 332.065 212.78 332.843C213.102 333.356 214.408 333.811 215.014 334.475C219.445 339.37 225.068 342.88 229.953 347.794C240.479 358.381 252.256 370.03 266.058 376.462C277.797 381.946 290.88 386.973 302.07 392.495C305.402 394.145 309.226 396.061 311.536 399.078C311.972 399.647 315.19 405.434 315.266 405.814C315.418 406.553 314.698 409.589 314.85 411.297C315.228 415.623 316.402 419.986 316.781 424.331C318.258 425.356 319.469 427.063 320.719 428.145C321.609 428.904 322.934 429.036 323.502 429.511C329.504 434.615 333.688 440.534 340.239 445.182C348.759 451.235 355.537 456.225 365.742 459.545C370.703 461.158 377.405 462.087 381.741 464.023C387.042 466.375 388.178 467.703 394.199 469.278C401.507 471.195 408.721 474.249 416.37 474.268C420.157 474.268 423.678 473.452 427.844 474.363C430.646 474.97 436.875 479.448 437.992 479.656C438.314 479.713 443.861 479.239 444.448 479.125C449.2 478.082 453.366 464.535 455.07 460.38C456.906 455.959 460.655 449.11 461.412 444.556C461.905 441.559 461.034 437.707 461.469 434.634C461.829 432.148 464.139 429.15 464.252 426.855C464.404 424.066 464.404 418.487 464.196 415.755C463.836 411.24 461.98 405.567 461.412 401.355C460.92 397.731 461.242 392.267 462.984 389.022C464.82 385.588 471.542 380.617 475.423 381.775C476.18 382.002 481.425 385.892 482.201 386.632C486.651 390.882 485.268 391.774 486.367 396.877C489.831 412.947 500.775 425.963 513.214 436.531C514.407 437.555 514.634 439.567 517.891 437.954C518.591 437.612 518.629 436.607 519.159 436.151C519.481 435.886 520.428 436.132 520.56 435.962C520.92 435.563 520.333 434.14 520.768 433.362C520.882 433.173 521.942 432.812 522.454 432.015C525.256 427.708 528.607 421.846 529.44 416.818C529.743 414.977 529.478 412.909 529.8 411.05C526.979 408.223 520.939 406.421 519.254 402.74C518.004 399.97 517.19 387.448 518.534 384.81C518.97 383.976 520.049 383.976 520.125 383.52C520.2 382.951 519.595 382.097 519.632 381.395C519.784 379.062 521.602 376.709 522.378 374.261C523.476 370.77 523.457 367.924 523.911 364.832C523.987 364.301 525.237 364.395 525.521 363.561C527.471 357.85 529.099 351.854 530.633 345.935C531.257 343.487 533.492 340.717 533.814 339.693C534.476 337.473 533.776 332.009 533.889 329.239C534.249 321.517 535.934 311.575 533.605 304.061C532.507 300.494 529.97 298.275 528.664 295.163C527.547 292.526 526.903 289.092 525.88 286.303C525.256 284.614 523.4 283.76 524.442 281.616C524.063 280.459 522.908 281.427 522.321 281.028C521.904 280.762 515.656 274.482 515.429 274.046C515.088 271.067 512.059 265.394 512.286 262.719C512.343 262.055 515.372 256.762 515.922 256.325C517.474 255.073 521.867 253.157 523.968 253.005C522.738 251.051 526.164 248.053 526.619 246.516C527.168 244.619 526.24 242.741 526.486 241.299C526.732 239.857 528.815 237.2 529.364 235.379C529.629 234.506 530.159 230.788 530.046 230.048C529.951 229.422 526.164 221.87 525.521 220.675C519.538 209.595 512.495 198.761 505.792 188.345C502.062 182.558 504.183 179.048 502.233 173.603C501.816 172.427 498.143 167.247 497.215 166.147L497.253 166.222Z" fill="#D0FFCD" fill-opacity="0.8"/>
<path d="M89.6831 440V437.504H93.3311V425.696H89.6831V423.2H99.5711V425.696H95.9231V437.504H99.5711V440H89.6831ZM106.398 440V423.2H108.87L121.014 436.952L120.774 437.168C120.694 436.72 120.63 436.24 120.582 435.728C120.534 435.216 120.486 434.68 120.438 434.12C120.406 433.544 120.374 432.96 120.342 432.368C120.326 431.76 120.31 431.152 120.294 430.544C120.294 429.936 120.294 429.328 120.294 428.72V423.2H122.886V440H120.366L108.39 426.752L108.51 426.416C108.558 427.008 108.606 427.568 108.654 428.096C108.702 428.608 108.742 429.104 108.774 429.584C108.822 430.048 108.862 430.48 108.894 430.88C108.926 431.28 108.95 431.664 108.966 432.032C108.982 432.384 108.99 432.712 108.99 433.016V440H106.398ZM133.723 440V425.696H128.059V423.2H142.099V425.696H136.315V440H133.723ZM147.273 440V423.2H159.729V425.696H149.865V437.504H159.729V440H147.273ZM148.593 432.632V430.136H158.409V432.632H148.593ZM166.164 440V423.2H174.804C175.78 423.2 176.676 423.432 177.492 423.896C178.308 424.36 178.964 424.992 179.46 425.792C179.956 426.576 180.204 427.464 180.204 428.456C180.204 429.416 179.94 430.304 179.412 431.12C178.9 431.92 178.212 432.56 177.348 433.04C176.5 433.52 175.564 433.76 174.54 433.76H168.756V440H166.164ZM177.852 440L172.764 432.416L175.476 431.816L181.044 440.024L177.852 440ZM168.756 431.264H174.516C175.06 431.264 175.556 431.136 176.004 430.88C176.452 430.624 176.812 430.28 177.084 429.848C177.356 429.416 177.492 428.944 177.492 428.432C177.492 427.904 177.34 427.44 177.036 427.04C176.748 426.624 176.356 426.296 175.86 426.056C175.364 425.816 174.812 425.696 174.204 425.696H168.756V431.264ZM185.125 440L192.565 423.2H195.421L202.837 440H200.029L195.181 429.056C195.069 428.848 194.941 428.568 194.797 428.216C194.669 427.864 194.525 427.496 194.365 427.112C194.221 426.712 194.077 426.328 193.933 425.96C193.805 425.576 193.693 425.248 193.597 424.976L194.269 424.952C194.141 425.288 194.005 425.64 193.861 426.008C193.733 426.376 193.597 426.752 193.453 427.136C193.309 427.504 193.165 427.864 193.021 428.216C192.877 428.552 192.741 428.864 192.613 429.152L187.813 440H185.125ZM188.389 435.968L189.373 433.472H198.325L199.045 435.968H188.389ZM215.071 440.24C213.807 440.24 212.631 440.04 211.543 439.64C210.455 439.224 209.503 438.632 208.687 437.864C207.871 437.096 207.239 436.184 206.791 435.128C206.343 434.056 206.119 432.88 206.119 431.6C206.119 430.384 206.359 429.256 206.839 428.216C207.319 427.176 207.975 426.272 208.807 425.504C209.639 424.72 210.599 424.12 211.687 423.704C212.775 423.272 213.935 423.056 215.167 423.056C216.127 423.056 217.055 423.192 217.951 423.464C218.863 423.72 219.679 424.064 220.399 424.496C221.135 424.928 221.727 425.4 222.175 425.912L220.543 427.928C220.015 427.448 219.463 427.04 218.887 426.704C218.311 426.352 217.703 426.088 217.063 425.912C216.423 425.72 215.743 425.624 215.023 425.624C214.207 425.624 213.423 425.768 212.671 426.056C211.919 426.344 211.247 426.752 210.655 427.28C210.079 427.792 209.615 428.416 209.263 429.152C208.927 429.888 208.759 430.704 208.759 431.6C208.759 432.56 208.927 433.416 209.263 434.168C209.615 434.92 210.095 435.56 210.703 436.088C211.327 436.6 212.031 436.992 212.815 437.264C213.615 437.536 214.463 437.672 215.359 437.672C216.143 437.672 216.855 437.576 217.495 437.384C218.135 437.176 218.719 436.912 219.247 436.592C219.775 436.256 220.255 435.912 220.687 435.56L221.959 437.696C221.543 438.096 220.975 438.496 220.255 438.896C219.551 439.28 218.751 439.6 217.855 439.856C216.975 440.112 216.047 440.24 215.071 440.24ZM231.598 440V425.696H225.934V423.2H239.974V425.696H234.19V440H231.598ZM244.98 440V437.504H248.628V425.696H244.98V423.2H254.868V425.696H251.22V437.504H254.868V440H244.98ZM266.999 440L259.703 423.2H262.655L266.927 433.304C267.055 433.64 267.207 434.016 267.383 434.432C267.575 434.848 267.759 435.28 267.935 435.728C268.127 436.16 268.303 436.584 268.463 437C268.639 437.4 268.783 437.776 268.895 438.128L268.199 438.152C268.343 437.72 268.519 437.232 268.727 436.688C268.951 436.144 269.175 435.584 269.399 435.008C269.639 434.416 269.863 433.856 270.071 433.328L274.031 423.2H277.079L269.855 440H266.999ZM282.039 440V423.2H294.495V425.696H284.631V437.504H294.495V440H282.039ZM283.359 432.632V430.136H293.175V432.632H283.359ZM310.398 440V423.2H312.99V437.504H322.734V440H310.398ZM328.515 440V423.2H340.971V425.696H331.107V437.504H340.971V440H328.515ZM329.835 432.632V430.136H339.651V432.632H329.835ZM345.438 440L352.878 423.2H355.734L363.15 440H360.342L355.494 429.056C355.382 428.848 355.254 428.568 355.11 428.216C354.982 427.864 354.838 427.496 354.678 427.112C354.534 426.712 354.39 426.328 354.246 425.96C354.118 425.576 354.006 425.248 353.91 424.976L354.582 424.952C354.454 425.288 354.318 425.64 354.174 426.008C354.046 426.376 353.91 426.752 353.766 427.136C353.622 427.504 353.478 427.864 353.334 428.216C353.19 428.552 353.054 428.864 352.926 429.152L348.126 440H345.438ZM348.702 435.968L349.686 433.472H358.638L359.358 435.968H348.702ZM368.148 440V423.2H376.788C377.764 423.2 378.66 423.432 379.476 423.896C380.292 424.36 380.948 424.992 381.444 425.792C381.94 426.576 382.188 427.464 382.188 428.456C382.188 429.416 381.924 430.304 381.396 431.12C380.884 431.92 380.196 432.56 379.332 433.04C378.484 433.52 377.548 433.76 376.524 433.76H370.74V440H368.148ZM379.836 440L374.748 432.416L377.46 431.816L383.028 440.024L379.836 440ZM370.74 431.264H376.5C377.044 431.264 377.54 431.136 377.988 430.88C378.436 430.624 378.796 430.28 379.068 429.848C379.34 429.416 379.476 428.944 379.476 428.432C379.476 427.904 379.324 427.44 379.02 427.04C378.732 426.624 378.34 426.296 377.844 426.056C377.348 425.816 376.796 425.696 376.188 425.696H370.74V431.264ZM389.078 440V423.2H391.55L403.694 436.952L403.454 437.168C403.374 436.72 403.31 436.24 403.262 435.728C403.214 435.216 403.166 434.68 403.118 434.12C403.086 433.544 403.054 432.96 403.022 432.368C403.006 431.76 402.99 431.152 402.974 430.544C402.974 429.936 402.974 429.328 402.974 428.72V423.2H405.566V440H403.046L391.07 426.752L391.19 426.416C391.238 427.008 391.286 427.568 391.334 428.096C391.382 428.608 391.422 429.104 391.454 429.584C391.502 430.048 391.542 430.48 391.574 430.88C391.606 431.28 391.63 431.664 391.646 432.032C391.662 432.384 391.67 432.712 391.67 433.016V440H389.078ZM412.347 440V437.504H415.995V425.696H412.347V423.2H422.235V425.696H418.587V437.504H422.235V440H412.347ZM429.062 440V423.2H431.534L443.678 436.952L443.438 437.168C443.358 436.72 443.294 436.24 443.246 435.728C443.198 435.216 443.15 434.68 443.102 434.12C443.07 433.544 443.038 432.96 443.006 432.368C442.99 431.76 442.974 431.152 442.958 430.544C442.958 429.936 442.958 429.328 442.958 428.72V423.2H445.55V440H443.03L431.054 426.752L431.174 426.416C431.222 427.008 431.27 427.568 431.318 428.096C431.366 428.608 431.406 429.104 431.438 429.584C431.486 430.048 431.526 430.48 431.558 430.88C431.59 431.28 431.614 431.664 431.63 432.032C431.646 432.384 431.654 432.712 431.654 433.016V440H429.062ZM460.66 440.24C459.396 440.24 458.188 440.04 457.036 439.64C455.9 439.24 454.9 438.672 454.036 437.936C453.172 437.184 452.492 436.272 451.996 435.2C451.5 434.128 451.252 432.928 451.252 431.6C451.252 430.4 451.492 429.28 451.972 428.24C452.468 427.2 453.156 426.296 454.036 425.528C454.916 424.744 455.94 424.136 457.108 423.704C458.276 423.272 459.532 423.056 460.876 423.056C461.932 423.056 462.924 423.184 463.852 423.44C464.796 423.696 465.628 424.04 466.348 424.472C467.084 424.904 467.668 425.384 468.1 425.912L466.42 427.736C465.892 427.288 465.332 426.904 464.74 426.584C464.148 426.264 463.524 426.016 462.868 425.84C462.228 425.664 461.564 425.576 460.876 425.576C459.9 425.576 458.988 425.728 458.14 426.032C457.308 426.336 456.572 426.76 455.932 427.304C455.308 427.848 454.82 428.488 454.468 429.224C454.132 429.944 453.964 430.736 453.964 431.6C453.964 432.56 454.148 433.424 454.516 434.192C454.884 434.944 455.388 435.584 456.028 436.112C456.668 436.64 457.396 437.04 458.212 437.312C459.044 437.584 459.916 437.72 460.828 437.72C461.644 437.72 462.412 437.632 463.132 437.456C463.868 437.264 464.508 437 465.052 436.664C465.596 436.312 466.02 435.912 466.324 435.464C466.628 435.016 466.772 434.528 466.756 434L466.732 433.616L467.116 434.048H460.828V431.528H469.468C469.5 431.736 469.524 431.92 469.54 432.08C469.556 432.224 469.564 432.352 469.564 432.464C469.58 432.576 469.588 432.68 469.588 432.776C469.588 433.96 469.364 435.016 468.916 435.944C468.484 436.872 467.868 437.656 467.068 438.296C466.268 438.92 465.324 439.4 464.236 439.736C463.164 440.072 461.972 440.24 460.66 440.24ZM484.609 440V423.2H497.065V425.696H487.201V437.504H497.065V440H484.609ZM485.929 432.632V430.136H495.745V432.632H485.929ZM515.26 440L509.236 432.44L501.628 423.2H505.06L510.868 430.544L518.692 440H515.26ZM501.508 440L508.804 430.856L510.34 432.752L504.748 440H501.508ZM511.372 432.2L509.884 430.376L515.188 423.2H518.428L511.372 432.2ZM523.656 440V423.2H532.152C533.112 423.2 533.984 423.432 534.768 423.896C535.568 424.344 536.2 424.96 536.664 425.744C537.144 426.528 537.384 427.4 537.384 428.36C537.384 429.352 537.136 430.248 536.64 431.048C536.144 431.848 535.48 432.496 534.648 432.992C533.816 433.472 532.896 433.712 531.888 433.712H526.248V440H523.656ZM526.248 431.216H531.744C532.272 431.216 532.76 431.088 533.208 430.832C533.656 430.56 534.008 430.208 534.264 429.776C534.536 429.344 534.672 428.872 534.672 428.36C534.672 427.864 534.536 427.416 534.264 427.016C534.008 426.616 533.656 426.296 533.208 426.056C532.76 425.816 532.272 425.696 531.744 425.696H526.248V431.216ZM543.179 440V423.2H555.635V425.696H545.771V437.504H555.635V440H543.179ZM544.499 432.632V430.136H554.315V432.632H544.499ZM562.07 440V423.2H570.71C571.686 423.2 572.582 423.432 573.398 423.896C574.214 424.36 574.87 424.992 575.366 425.792C575.862 426.576 576.11 427.464 576.11 428.456C576.11 429.416 575.846 430.304 575.318 431.12C574.806 431.92 574.118 432.56 573.254 433.04C572.406 433.52 571.47 433.76 570.446 433.76H564.662V440H562.07ZM573.758 440L568.67 432.416L571.382 431.816L576.95 440.024L573.758 440ZM564.662 431.264H570.422C570.966 431.264 571.462 431.136 571.91 430.88C572.358 430.624 572.718 430.28 572.99 429.848C573.262 429.416 573.398 428.944 573.398 428.432C573.398 427.904 573.246 427.44 572.942 427.04C572.654 426.624 572.262 426.296 571.766 426.056C571.27 425.816 570.718 425.696 570.11 425.696H564.662V431.264ZM582.832 440V437.504H586.48V425.696H582.832V423.2H592.72V425.696H589.072V437.504H592.72V440H582.832ZM599.546 440V423.2H612.002V425.696H602.138V437.504H612.002V440H599.546ZM600.866 432.632V430.136H610.682V432.632H600.866ZM618.437 440V423.2H620.909L633.053 436.952L632.813 437.168C632.733 436.72 632.669 436.24 632.621 435.728C632.573 435.216 632.525 434.68 632.477 434.12C632.445 433.544 632.413 432.96 632.381 432.368C632.365 431.76 632.349 431.152 632.333 430.544C632.333 429.936 632.333 429.328 632.333 428.72V423.2H634.925V440H632.405L620.429 426.752L620.549 426.416C620.597 427.008 620.645 427.568 620.693 428.096C620.741 428.608 620.781 429.104 620.813 429.584C620.861 430.048 620.901 430.48 620.933 430.88C620.965 431.28 620.989 431.664 621.005 432.032C621.021 432.384 621.029 432.712 621.029 433.016V440H618.437ZM649.579 440.24C648.315 440.24 647.139 440.04 646.051 439.64C644.963 439.224 644.011 438.632 643.195 437.864C642.379 437.096 641.747 436.184 641.299 435.128C640.851 434.056 640.627 432.88 640.627 431.6C640.627 430.384 640.867 429.256 641.347 428.216C641.827 427.176 642.483 426.272 643.315 425.504C644.147 424.72 645.107 424.12 646.195 423.704C647.283 423.272 648.443 423.056 649.675 423.056C650.635 423.056 651.563 423.192 652.459 423.464C653.371 423.72 654.187 424.064 654.907 424.496C655.643 424.928 656.235 425.4 656.683 425.912L655.051 427.928C654.523 427.448 653.971 427.04 653.395 426.704C652.819 426.352 652.211 426.088 651.571 425.912C650.931 425.72 650.251 425.624 649.531 425.624C648.715 425.624 647.931 425.768 647.179 426.056C646.427 426.344 645.755 426.752 645.163 427.28C644.587 427.792 644.123 428.416 643.771 429.152C643.435 429.888 643.267 430.704 643.267 431.6C643.267 432.56 643.435 433.416 643.771 434.168C644.123 434.92 644.603 435.56 645.211 436.088C645.835 436.6 646.539 436.992 647.323 437.264C648.123 437.536 648.971 437.672 649.867 437.672C650.651 437.672 651.363 437.576 652.003 437.384C652.643 437.176 653.227 436.912 653.755 436.592C654.283 436.256 654.763 435.912 655.195 435.56L656.467 437.696C656.051 438.096 655.483 438.496 654.763 438.896C654.059 439.28 653.259 439.6 652.363 439.856C651.483 440.112 650.555 440.24 649.579 440.24ZM662.218 440V423.2H674.674V425.696H664.81V437.504H674.674V440H662.218ZM663.538 432.632V430.136H673.354V432.632H663.538ZM259.896 476.24C258.824 476.24 257.832 476.12 256.92 475.88C256.008 475.64 255.176 475.28 254.424 474.8C253.672 474.32 253 473.712 252.408 472.976L254.088 470.864C255.016 471.968 255.936 472.752 256.848 473.216C257.776 473.68 258.832 473.912 260.016 473.912C260.752 473.912 261.44 473.816 262.08 473.624C262.736 473.416 263.264 473.128 263.664 472.76C264.08 472.376 264.288 471.92 264.288 471.392C264.288 471.04 264.184 470.736 263.976 470.48C263.784 470.224 263.52 470.008 263.184 469.832C262.864 469.64 262.488 469.48 262.056 469.352C261.64 469.224 261.208 469.12 260.76 469.04C260.312 468.944 259.872 468.864 259.44 468.8C258.464 468.64 257.592 468.432 256.824 468.176C256.056 467.904 255.4 467.568 254.856 467.168C254.328 466.752 253.928 466.272 253.656 465.728C253.384 465.168 253.248 464.528 253.248 463.808C253.248 463.072 253.416 462.408 253.752 461.816C254.088 461.208 254.56 460.696 255.168 460.28C255.776 459.848 256.488 459.52 257.304 459.296C258.12 459.072 259.008 458.96 259.968 458.96C260.976 458.96 261.896 459.072 262.728 459.296C263.56 459.52 264.304 459.856 264.96 460.304C265.616 460.736 266.16 461.272 266.592 461.912L264.816 463.76C264.432 463.232 263.984 462.784 263.472 462.416C262.96 462.048 262.4 461.768 261.792 461.576C261.2 461.384 260.568 461.288 259.896 461.288C259.128 461.288 258.448 461.384 257.856 461.576C257.28 461.768 256.816 462.04 256.464 462.392C256.128 462.728 255.96 463.136 255.96 463.616C255.96 464 256.056 464.344 256.248 464.648C256.456 464.936 256.744 465.184 257.112 465.392C257.48 465.6 257.936 465.776 258.48 465.92C259.024 466.064 259.648 466.192 260.352 466.304C261.28 466.448 262.144 466.64 262.944 466.88C263.76 467.104 264.472 467.392 265.08 467.744C265.688 468.096 266.16 468.528 266.496 469.04C266.832 469.552 267 470.176 267 470.912C267 471.984 266.704 472.92 266.112 473.72C265.536 474.52 264.72 475.144 263.664 475.592C262.608 476.024 261.352 476.24 259.896 476.24ZM280.821 476.24C279.477 476.24 278.237 476.024 277.101 475.592C275.981 475.144 274.997 474.528 274.149 473.744C273.317 472.96 272.669 472.048 272.205 471.008C271.757 469.952 271.533 468.816 271.533 467.6C271.533 466.384 271.757 465.256 272.205 464.216C272.669 463.16 273.317 462.24 274.149 461.456C274.997 460.672 275.981 460.064 277.101 459.632C278.237 459.184 279.477 458.96 280.821 458.96C282.181 458.96 283.421 459.176 284.541 459.608C285.677 460.04 286.661 460.656 287.493 461.456C288.341 462.24 288.989 463.16 289.437 464.216C289.901 465.256 290.133 466.384 290.133 467.6C290.133 468.816 289.901 469.952 289.437 471.008C288.989 472.048 288.341 472.968 287.493 473.768C286.661 474.552 285.677 475.16 284.541 475.592C283.421 476.024 282.181 476.24 280.821 476.24ZM280.845 473.72C281.821 473.72 282.709 473.568 283.509 473.264C284.325 472.944 285.029 472.512 285.621 471.968C286.213 471.408 286.669 470.76 286.989 470.024C287.325 469.272 287.493 468.464 287.493 467.6C287.493 466.736 287.325 465.936 286.989 465.2C286.669 464.448 286.213 463.8 285.621 463.256C285.029 462.696 284.325 462.264 283.509 461.96C282.693 461.64 281.805 461.48 280.845 461.48C279.869 461.48 278.973 461.64 278.157 461.96C277.341 462.264 276.629 462.688 276.021 463.232C275.429 463.776 274.973 464.424 274.653 465.176C274.333 465.912 274.173 466.72 274.173 467.6C274.173 468.464 274.333 469.272 274.653 470.024C274.973 470.776 275.429 471.424 276.021 471.968C276.629 472.512 277.341 472.944 278.157 473.264C278.973 473.568 279.869 473.72 280.845 473.72ZM295.843 476V459.2H304.483C305.459 459.2 306.355 459.432 307.171 459.896C307.987 460.36 308.643 460.992 309.139 461.792C309.635 462.576 309.883 463.464 309.883 464.456C309.883 465.416 309.619 466.304 309.091 467.12C308.579 467.92 307.891 468.56 307.027 469.04C306.179 469.52 305.243 469.76 304.219 469.76H298.435V476H295.843ZM307.531 476L302.443 468.416L305.155 467.816L310.723 476.024L307.531 476ZM298.435 467.264H304.195C304.739 467.264 305.235 467.136 305.683 466.88C306.131 466.624 306.491 466.28 306.763 465.848C307.035 465.416 307.171 464.944 307.171 464.432C307.171 463.904 307.019 463.44 306.715 463.04C306.427 462.624 306.035 462.296 305.539 462.056C305.043 461.816 304.491 461.696 303.883 461.696H298.435V467.264ZM320.192 476V461.696H314.528V459.2H328.568V461.696H322.784V476H320.192ZM333.574 476V473.504H337.222V461.696H333.574V459.2H343.462V461.696H339.814V473.504H343.462V476H333.574ZM350.289 476V459.2H352.761L364.905 472.952L364.665 473.168C364.585 472.72 364.521 472.24 364.473 471.728C364.425 471.216 364.377 470.68 364.329 470.12C364.297 469.544 364.265 468.96 364.233 468.368C364.217 467.76 364.201 467.152 364.185 466.544C364.185 465.936 364.185 465.328 364.185 464.72V459.2H366.777V476H364.257L352.281 462.752L352.401 462.416C352.449 463.008 352.497 463.568 352.545 464.096C352.593 464.608 352.633 465.104 352.665 465.584C352.713 466.048 352.753 466.48 352.785 466.88C352.817 467.28 352.841 467.664 352.857 468.032C352.873 468.384 352.881 468.712 352.881 469.016V476H350.289ZM381.886 476.24C380.622 476.24 379.414 476.04 378.262 475.64C377.126 475.24 376.126 474.672 375.262 473.936C374.398 473.184 373.718 472.272 373.222 471.2C372.726 470.128 372.478 468.928 372.478 467.6C372.478 466.4 372.718 465.28 373.198 464.24C373.694 463.2 374.382 462.296 375.262 461.528C376.142 460.744 377.166 460.136 378.334 459.704C379.502 459.272 380.758 459.056 382.102 459.056C383.158 459.056 384.15 459.184 385.078 459.44C386.022 459.696 386.854 460.04 387.574 460.472C388.31 460.904 388.894 461.384 389.326 461.912L387.646 463.736C387.118 463.288 386.558 462.904 385.966 462.584C385.374 462.264 384.75 462.016 384.094 461.84C383.454 461.664 382.79 461.576 382.102 461.576C381.126 461.576 380.214 461.728 379.366 462.032C378.534 462.336 377.798 462.76 377.158 463.304C376.534 463.848 376.046 464.488 375.694 465.224C375.358 465.944 375.19 466.736 375.19 467.6C375.19 468.56 375.374 469.424 375.742 470.192C376.11 470.944 376.614 471.584 377.254 472.112C377.894 472.64 378.622 473.04 379.438 473.312C380.27 473.584 381.142 473.72 382.054 473.72C382.87 473.72 383.638 473.632 384.358 473.456C385.094 473.264 385.734 473 386.278 472.664C386.822 472.312 387.246 471.912 387.55 471.464C387.854 471.016 387.998 470.528 387.982 470L387.958 469.616L388.342 470.048H382.054V467.528H390.694C390.726 467.736 390.75 467.92 390.766 468.08C390.782 468.224 390.79 468.352 390.79 468.464C390.806 468.576 390.814 468.68 390.814 468.776C390.814 469.96 390.59 471.016 390.142 471.944C389.71 472.872 389.094 473.656 388.294 474.296C387.494 474.92 386.55 475.4 385.462 475.736C384.39 476.072 383.198 476.24 381.886 476.24ZM413.995 476.24C412.731 476.24 411.523 476.04 410.371 475.64C409.235 475.24 408.235 474.672 407.371 473.936C406.507 473.184 405.827 472.272 405.331 471.2C404.835 470.128 404.587 468.928 404.587 467.6C404.587 466.4 404.827 465.28 405.307 464.24C405.803 463.2 406.491 462.296 407.371 461.528C408.251 460.744 409.275 460.136 410.443 459.704C411.611 459.272 412.867 459.056 414.211 459.056C415.267 459.056 416.259 459.184 417.187 459.44C418.131 459.696 418.963 460.04 419.683 460.472C420.419 460.904 421.003 461.384 421.435 461.912L419.755 463.736C419.227 463.288 418.667 462.904 418.075 462.584C417.483 462.264 416.859 462.016 416.203 461.84C415.563 461.664 414.899 461.576 414.211 461.576C413.235 461.576 412.323 461.728 411.475 462.032C410.643 462.336 409.907 462.76 409.267 463.304C408.643 463.848 408.155 464.488 407.803 465.224C407.467 465.944 407.299 466.736 407.299 467.6C407.299 468.56 407.483 469.424 407.851 470.192C408.219 470.944 408.723 471.584 409.363 472.112C410.003 472.64 410.731 473.04 411.547 473.312C412.379 473.584 413.251 473.72 414.163 473.72C414.979 473.72 415.747 473.632 416.467 473.456C417.203 473.264 417.843 473 418.387 472.664C418.931 472.312 419.355 471.912 419.659 471.464C419.963 471.016 420.107 470.528 420.091 470L420.067 469.616L420.451 470.048H414.163V467.528H422.803C422.835 467.736 422.859 467.92 422.875 468.08C422.891 468.224 422.899 468.352 422.899 468.464C422.915 468.576 422.923 468.68 422.923 468.776C422.923 469.96 422.699 471.016 422.251 471.944C421.819 472.872 421.203 473.656 420.403 474.296C419.603 474.92 418.659 475.4 417.571 475.736C416.499 476.072 415.307 476.24 413.995 476.24ZM435.916 476.144C434.396 476.144 433.052 475.824 431.884 475.184C430.732 474.528 429.828 473.632 429.172 472.496C428.532 471.36 428.212 470.08 428.212 468.656V459.176H430.804V468.512C430.804 469.488 431.028 470.368 431.476 471.152C431.94 471.92 432.556 472.528 433.324 472.976C434.108 473.408 434.972 473.624 435.916 473.624C436.908 473.624 437.796 473.408 438.58 472.976C439.38 472.528 440.004 471.92 440.452 471.152C440.916 470.368 441.148 469.488 441.148 468.512V459.176H443.62V468.656C443.62 470.08 443.292 471.36 442.636 472.496C441.996 473.632 441.092 474.528 439.924 475.184C438.772 475.824 437.436 476.144 435.916 476.144ZM450.152 476V473.504H453.8V461.696H450.152V459.2H460.04V461.696H456.392V473.504H460.04V476H450.152ZM466.867 476V459.2H474.523C475.915 459.2 477.147 459.416 478.219 459.848C479.307 460.264 480.227 460.856 480.979 461.624C481.731 462.392 482.299 463.288 482.683 464.312C483.067 465.32 483.259 466.416 483.259 467.6C483.259 468.8 483.067 469.912 482.683 470.936C482.299 471.96 481.731 472.848 480.979 473.6C480.243 474.352 479.331 474.944 478.243 475.376C477.155 475.792 475.915 476 474.523 476H466.867ZM469.459 473.768L469.387 473.504H474.403C475.443 473.504 476.347 473.36 477.115 473.072C477.899 472.784 478.539 472.376 479.035 471.848C479.547 471.32 479.923 470.696 480.163 469.976C480.419 469.256 480.547 468.464 480.547 467.6C480.547 466.752 480.419 465.976 480.163 465.272C479.923 464.552 479.547 463.928 479.035 463.4C478.523 462.856 477.883 462.44 477.115 462.152C476.347 461.848 475.443 461.696 474.403 461.696H469.315L469.459 461.48V473.768ZM488.968 476V459.2H501.424V461.696H491.56V473.504H501.424V476H488.968ZM490.288 468.632V466.136H500.104V468.632H490.288ZM273.782 512.24C272.518 512.24 271.342 512.04 270.254 511.64C269.166 511.224 268.214 510.632 267.398 509.864C266.582 509.096 265.95 508.184 265.502 507.128C265.054 506.056 264.83 504.88 264.83 503.6C264.83 502.384 265.07 501.256 265.55 500.216C266.03 499.176 266.686 498.272 267.518 497.504C268.35 496.72 269.31 496.12 270.398 495.704C271.486 495.272 272.646 495.056 273.878 495.056C274.838 495.056 275.766 495.192 276.662 495.464C277.574 495.72 278.39 496.064 279.11 496.496C279.846 496.928 280.438 497.4 280.886 497.912L279.254 499.928C278.726 499.448 278.174 499.04 277.598 498.704C277.022 498.352 276.414 498.088 275.774 497.912C275.134 497.72 274.454 497.624 273.734 497.624C272.918 497.624 272.134 497.768 271.382 498.056C270.63 498.344 269.958 498.752 269.366 499.28C268.79 499.792 268.326 500.416 267.974 501.152C267.638 501.888 267.47 502.704 267.47 503.6C267.47 504.56 267.638 505.416 267.974 506.168C268.326 506.92 268.806 507.56 269.414 508.088C270.038 508.6 270.742 508.992 271.526 509.264C272.326 509.536 273.174 509.672 274.07 509.672C274.854 509.672 275.566 509.576 276.206 509.384C276.846 509.176 277.43 508.912 277.958 508.592C278.486 508.256 278.966 507.912 279.398 507.56L280.67 509.696C280.254 510.096 279.686 510.496 278.966 510.896C278.262 511.28 277.462 511.6 276.566 511.856C275.686 512.112 274.758 512.24 273.782 512.24ZM291.821 512V504.104L292.157 505.664L284.117 495.2H287.501L293.453 503.216L292.877 503.192L298.517 495.2H301.637L294.197 505.424L294.413 503.912V512H291.821ZM313.157 512.24C311.893 512.24 310.717 512.04 309.629 511.64C308.541 511.224 307.589 510.632 306.773 509.864C305.957 509.096 305.325 508.184 304.877 507.128C304.429 506.056 304.205 504.88 304.205 503.6C304.205 502.384 304.445 501.256 304.925 500.216C305.405 499.176 306.061 498.272 306.893 497.504C307.725 496.72 308.685 496.12 309.773 495.704C310.861 495.272 312.021 495.056 313.253 495.056C314.213 495.056 315.141 495.192 316.037 495.464C316.949 495.72 317.765 496.064 318.485 496.496C319.221 496.928 319.813 497.4 320.261 497.912L318.629 499.928C318.101 499.448 317.549 499.04 316.973 498.704C316.397 498.352 315.789 498.088 315.149 497.912C314.509 497.72 313.829 497.624 313.109 497.624C312.293 497.624 311.509 497.768 310.757 498.056C310.005 498.344 309.333 498.752 308.741 499.28C308.165 499.792 307.701 500.416 307.349 501.152C307.013 501.888 306.845 502.704 306.845 503.6C306.845 504.56 307.013 505.416 307.349 506.168C307.701 506.92 308.181 507.56 308.789 508.088C309.413 508.6 310.117 508.992 310.901 509.264C311.701 509.536 312.549 509.672 313.445 509.672C314.229 509.672 314.941 509.576 315.581 509.384C316.221 509.176 316.805 508.912 317.333 508.592C317.861 508.256 318.341 507.912 318.773 507.56L320.045 509.696C319.629 510.096 319.061 510.496 318.341 510.896C317.637 511.28 316.837 511.6 315.941 511.856C315.061 512.112 314.133 512.24 313.157 512.24ZM325.796 512V495.2H328.388V509.504H338.132V512H325.796ZM343.914 512V495.2H356.37V497.696H346.506V509.504H356.37V512H343.914ZM345.234 504.632V502.136H355.05V504.632H345.234ZM380.313 512.24C378.969 512.24 377.729 512.024 376.593 511.592C375.473 511.144 374.489 510.528 373.641 509.744C372.809 508.96 372.161 508.048 371.697 507.008C371.249 505.952 371.025 504.816 371.025 503.6C371.025 502.384 371.249 501.256 371.697 500.216C372.161 499.16 372.809 498.24 373.641 497.456C374.489 496.672 375.473 496.064 376.593 495.632C377.729 495.184 378.969 494.96 380.313 494.96C381.673 494.96 382.913 495.176 384.033 495.608C385.169 496.04 386.153 496.656 386.985 497.456C387.833 498.24 388.481 499.16 388.929 500.216C389.393 501.256 389.625 502.384 389.625 503.6C389.625 504.816 389.393 505.952 388.929 507.008C388.481 508.048 387.833 508.968 386.985 509.768C386.153 510.552 385.169 511.16 384.033 511.592C382.913 512.024 381.673 512.24 380.313 512.24ZM380.337 509.72C381.313 509.72 382.201 509.568 383.001 509.264C383.817 508.944 384.521 508.512 385.113 507.968C385.705 507.408 386.161 506.76 386.481 506.024C386.817 505.272 386.985 504.464 386.985 503.6C386.985 502.736 386.817 501.936 386.481 501.2C386.161 500.448 385.705 499.8 385.113 499.256C384.521 498.696 383.817 498.264 383.001 497.96C382.185 497.64 381.297 497.48 380.337 497.48C379.361 497.48 378.465 497.64 377.649 497.96C376.833 498.264 376.121 498.688 375.513 499.232C374.921 499.776 374.465 500.424 374.145 501.176C373.825 501.912 373.665 502.72 373.665 503.6C373.665 504.464 373.825 505.272 374.145 506.024C374.465 506.776 374.921 507.424 375.513 507.968C376.121 508.512 376.833 508.944 377.649 509.264C378.465 509.568 379.361 509.72 380.337 509.72ZM395.335 512V495.2H397.927V512H395.335ZM396.319 504.992V502.496H406.759V504.992H396.319ZM396.511 497.696V495.2H407.839V497.696H396.511ZM423.203 512V495.2H425.795V509.504H435.539V512H423.203ZM441.41 512V509.504H445.058V497.696H441.41V495.2H451.298V497.696H447.65V509.504H451.298V512H441.41ZM458.125 512V495.2H460.717V512H458.125ZM459.109 504.992V502.496H469.549V504.992H459.109ZM459.301 497.696V495.2H470.629V497.696H459.301ZM476.523 512V495.2H488.979V497.696H479.115V509.504H488.979V512H476.523ZM477.843 504.632V502.136H487.659V504.632H477.843Z" fill="#543E4D"/>
<path d="M106.095 274L136.431 206.8H151.119L181.359 274H164.655L147.951 236.656C147.311 235.312 146.703 233.968 146.127 232.624C145.615 231.216 145.103 229.84 144.591 228.496C144.079 227.088 143.599 225.712 143.151 224.368C142.703 222.96 142.287 221.616 141.903 220.336L145.263 220.24C144.815 221.712 144.367 223.12 143.919 224.464C143.471 225.808 142.959 227.184 142.383 228.592C141.871 229.936 141.327 231.28 140.751 232.624C140.175 233.968 139.599 235.344 139.023 236.752L122.415 274H106.095ZM120.303 261.712L125.487 249.424H161.679L165.135 261.712H120.303ZM216.053 274.96C211.061 274.96 206.485 274.448 202.325 273.424C198.229 272.4 194.549 270.992 191.285 269.2C188.021 267.408 185.077 265.264 182.453 262.768L190.997 250.48C195.285 254.512 199.605 257.328 203.957 258.928C208.373 260.464 212.725 261.232 217.013 261.232C218.997 261.232 220.917 261.008 222.773 260.56C224.693 260.112 226.261 259.408 227.477 258.448C228.757 257.488 229.397 256.208 229.397 254.608C229.397 253.584 229.077 252.72 228.437 252.016C227.797 251.248 226.933 250.608 225.845 250.096C224.757 249.52 223.477 249.072 222.005 248.752C220.597 248.432 219.061 248.144 217.397 247.888C215.733 247.632 214.005 247.376 212.213 247.12C208.117 246.544 204.437 245.712 201.173 244.624C197.973 243.472 195.221 242.064 192.917 240.4C190.677 238.672 188.981 236.656 187.829 234.352C186.677 232.048 186.101 229.392 186.101 226.384C186.101 223.12 186.869 220.176 188.405 217.552C189.941 214.928 192.085 212.72 194.837 210.928C197.589 209.072 200.725 207.664 204.245 206.704C207.829 205.744 211.669 205.264 215.765 205.264C220.373 205.264 224.437 205.712 227.957 206.608C231.541 207.504 234.677 208.752 237.365 210.352C240.053 211.952 242.293 213.744 244.085 215.728L235.253 226.384C233.589 224.848 231.669 223.536 229.493 222.448C227.381 221.36 225.141 220.528 222.773 219.952C220.405 219.376 218.037 219.088 215.669 219.088C213.173 219.088 210.997 219.344 209.141 219.856C207.285 220.304 205.813 220.976 204.725 221.872C203.637 222.768 203.093 223.92 203.093 225.328C203.093 226.48 203.541 227.472 204.437 228.304C205.397 229.136 206.613 229.84 208.085 230.416C209.557 230.928 211.189 231.344 212.981 231.664C214.837 231.984 216.661 232.272 218.453 232.528C222.165 233.04 225.685 233.744 229.013 234.64C232.405 235.472 235.381 236.624 237.941 238.096C240.565 239.568 242.581 241.488 243.989 243.856C245.461 246.16 246.197 249.136 246.197 252.784C246.197 257.456 244.885 261.456 242.261 264.784C239.701 268.048 236.149 270.576 231.605 272.368C227.125 274.096 221.941 274.96 216.053 274.96ZM275.63 274V221.2H251.822V206.8H316.142V221.2H291.95V274H275.63ZM326.958 274V206.8H381.294V220.72H342.798V260.08H382.254V274H326.958ZM335.214 246.448V233.2H376.974V246.448H335.214ZM396.881 274V206.8H411.473L439.409 245.584L429.617 245.488L457.649 206.8H472.049V274H456.209V252.496C456.209 246.992 456.337 241.936 456.593 237.328C456.849 232.656 457.361 227.952 458.129 223.216L459.761 228.496L437.489 257.68H431.153L408.977 228.4L410.801 223.216C411.569 227.824 412.081 232.432 412.337 237.04C412.593 241.648 412.721 246.8 412.721 252.496V274H396.881ZM584.261 274V206.8H599.429L642.149 254.8L639.557 254.32C639.173 252.016 638.885 249.84 638.693 247.792C638.501 245.68 638.309 243.632 638.117 241.648C637.989 239.664 637.861 237.712 637.733 235.792C637.669 233.872 637.637 231.888 637.637 229.84C637.637 227.792 637.637 225.648 637.637 223.408V206.8H653.477V274H638.117L593.861 224.464L598.181 225.136C598.437 226.992 598.661 228.752 598.853 230.416C599.045 232.016 599.205 233.616 599.333 235.216C599.525 236.816 599.685 238.448 599.813 240.112C599.941 241.712 600.005 243.472 600.005 245.392C600.069 247.248 600.101 249.296 600.101 251.536V274H584.261Z" fill="#5F5454"/>
<path d="M105.82 305V287.164H116.116V289.244H108.108V295.016H115.18V297.096H108.108V305H105.82ZM125.839 305.312C123.655 305.312 121.939 304.549 120.691 303.024C119.443 301.481 118.819 299.167 118.819 296.082C118.819 292.979 119.443 290.665 120.691 289.14C121.939 287.615 123.655 286.852 125.839 286.852C128.023 286.852 129.739 287.615 130.987 289.14C132.235 290.665 132.859 292.979 132.859 296.082C132.859 299.167 132.235 301.481 130.987 303.024C129.739 304.549 128.023 305.312 125.839 305.312ZM125.839 303.206C127.278 303.206 128.405 302.669 129.219 301.594C130.051 300.519 130.467 298.899 130.467 296.732V295.432C130.467 293.265 130.051 291.645 129.219 290.57C128.405 289.495 127.278 288.958 125.839 288.958C124.418 288.958 123.291 289.495 122.459 290.57C121.627 291.645 121.211 293.265 121.211 295.432V296.732C121.211 298.899 121.627 300.519 122.459 301.594C123.291 302.669 124.418 303.206 125.839 303.206ZM136.465 305V287.164H143.641C145.392 287.164 146.718 287.623 147.619 288.542C148.521 289.443 148.971 290.631 148.971 292.104C148.971 293.213 148.694 294.175 148.139 294.99C147.585 295.787 146.805 296.359 145.799 296.706L149.387 305H146.839L143.537 297.122H138.753V305H136.465ZM138.753 295.042H143.563C144.482 295.042 145.21 294.773 145.747 294.236C146.302 293.699 146.579 292.988 146.579 292.104C146.579 291.22 146.319 290.527 145.799 290.024C145.279 289.504 144.534 289.244 143.563 289.244H138.753V295.042ZM161.989 305V289.244H157.127V287.164H169.139V289.244H164.277V305H161.989ZM178.117 305.312C175.933 305.312 174.217 304.549 172.969 303.024C171.721 301.481 171.097 299.167 171.097 296.082C171.097 292.979 171.721 290.665 172.969 289.14C174.217 287.615 175.933 286.852 178.117 286.852C180.301 286.852 182.017 287.615 183.265 289.14C184.513 290.665 185.137 292.979 185.137 296.082C185.137 299.167 184.513 301.481 183.265 303.024C182.017 304.549 180.301 305.312 178.117 305.312ZM178.117 303.206C179.555 303.206 180.682 302.669 181.497 301.594C182.329 300.519 182.745 298.899 182.745 296.732V295.432C182.745 293.265 182.329 291.645 181.497 290.57C180.682 289.495 179.555 288.958 178.117 288.958C176.695 288.958 175.569 289.495 174.737 290.57C173.905 291.645 173.489 293.265 173.489 295.432V296.732C173.489 298.899 173.905 300.519 174.737 301.594C175.569 302.669 176.695 303.206 178.117 303.206ZM194.619 305.312C192.781 305.312 191.343 304.792 190.303 303.752C189.263 302.712 188.743 301.195 188.743 299.202V287.164H191.031V299.332C191.031 300.597 191.351 301.559 191.993 302.218C192.634 302.877 193.509 303.206 194.619 303.206C195.745 303.206 196.621 302.877 197.245 302.218C197.886 301.559 198.207 300.597 198.207 299.332V287.164H200.495V299.202C200.495 301.195 199.975 302.712 198.935 303.752C197.895 304.792 196.456 305.312 194.619 305.312ZM204.649 305V287.164H211.825C213.576 287.164 214.902 287.623 215.803 288.542C216.705 289.443 217.155 290.631 217.155 292.104C217.155 293.213 216.878 294.175 216.323 294.99C215.769 295.787 214.989 296.359 213.983 296.706L217.571 305H215.023L211.721 297.122H206.937V305H204.649ZM206.937 295.042H211.747C212.666 295.042 213.394 294.773 213.931 294.236C214.486 293.699 214.763 292.988 214.763 292.104C214.763 291.22 214.503 290.527 213.983 290.024C213.463 289.504 212.718 289.244 211.747 289.244H206.937V295.042ZM220.556 305V287.164H222.844V305H220.556ZM232.244 305.312C231.17 305.312 230.173 305.139 229.254 304.792C228.336 304.445 227.599 303.882 227.044 303.102C226.507 302.322 226.238 301.273 226.238 299.956C226.238 299.869 226.238 299.774 226.238 299.67C226.256 299.549 226.264 299.471 226.264 299.436H228.63C228.63 299.453 228.622 299.531 228.604 299.67C228.604 299.791 228.604 299.895 228.604 299.982C228.604 301.074 228.942 301.889 229.618 302.426C230.294 302.946 231.135 303.206 232.14 303.206C233.336 303.206 234.255 302.955 234.896 302.452C235.555 301.932 235.884 301.195 235.884 300.242C235.884 299.601 235.711 299.081 235.364 298.682C235.035 298.283 234.593 297.954 234.038 297.694C233.501 297.434 232.903 297.2 232.244 296.992C231.586 296.784 230.918 296.559 230.242 296.316C229.584 296.073 228.977 295.761 228.422 295.38C227.885 294.999 227.443 294.513 227.096 293.924C226.767 293.317 226.602 292.555 226.602 291.636C226.602 290.544 226.854 289.643 227.356 288.932C227.876 288.221 228.561 287.701 229.41 287.372C230.277 287.025 231.23 286.852 232.27 286.852C233.31 286.852 234.246 287.025 235.078 287.372C235.928 287.701 236.604 288.239 237.106 288.984C237.609 289.712 237.86 290.674 237.86 291.87V292.182H235.494V291.792C235.494 290.873 235.191 290.171 234.584 289.686C233.978 289.201 233.224 288.958 232.322 288.958C231.386 288.958 230.598 289.157 229.956 289.556C229.332 289.955 229.02 290.587 229.02 291.454C229.02 292.061 229.185 292.555 229.514 292.936C229.861 293.317 230.303 293.638 230.84 293.898C231.395 294.141 232.002 294.366 232.66 294.574C233.319 294.782 233.978 295.007 234.636 295.25C235.295 295.493 235.893 295.805 236.43 296.186C236.985 296.567 237.427 297.053 237.756 297.642C238.103 298.214 238.276 298.951 238.276 299.852C238.276 301.187 238.008 302.253 237.47 303.05C236.95 303.847 236.24 304.428 235.338 304.792C234.437 305.139 233.406 305.312 232.244 305.312ZM245.267 305V289.244H240.405V287.164H252.417V289.244H247.555V305H245.267ZM252.759 308.224L253.799 305H252.759V302.192H255.359V304.766L254.111 308.224H252.759ZM265.787 305V287.164H276.785V289.244H268.075V294.834H275.641V296.914H268.075V302.92H276.941V305H265.787ZM278.81 305L284.504 295.744L279.33 287.164H282.034L285.856 293.534H285.882L289.808 287.164H292.252L287.078 295.536L292.824 305H290.12L285.752 297.72H285.726L281.254 305H278.81ZM295.265 305V287.164H301.635C302.813 287.164 303.793 287.381 304.573 287.814C305.37 288.247 305.968 288.854 306.367 289.634C306.765 290.414 306.965 291.324 306.965 292.364C306.965 293.404 306.748 294.323 306.315 295.12C305.881 295.917 305.266 296.541 304.469 296.992C303.689 297.425 302.744 297.642 301.635 297.642H297.553V305H295.265ZM297.553 295.562H301.557C302.475 295.562 303.203 295.267 303.741 294.678C304.295 294.089 304.573 293.317 304.573 292.364C304.573 291.393 304.313 290.631 303.793 290.076C303.273 289.521 302.527 289.244 301.557 289.244H297.553V295.562ZM306.608 305L312.276 287.164H315.214L320.882 305H318.412L317.19 301.022H310.118L308.896 305H306.608ZM310.742 298.942H316.54L314.122 291.012C314.07 290.804 314.01 290.544 313.94 290.232C313.871 289.92 313.81 289.643 313.758 289.4C313.724 289.157 313.706 289.036 313.706 289.036H313.602C313.602 289.036 313.576 289.166 313.524 289.426C313.49 289.669 313.438 289.946 313.368 290.258C313.316 290.57 313.256 290.821 313.186 291.012L310.742 298.942ZM325.18 305V289.244H320.318V287.164H332.33V289.244H327.468V305H325.18ZM340.442 305.312C339.367 305.312 338.37 305.139 337.452 304.792C336.533 304.445 335.796 303.882 335.242 303.102C334.704 302.322 334.436 301.273 334.436 299.956C334.436 299.869 334.436 299.774 334.436 299.67C334.453 299.549 334.462 299.471 334.462 299.436H336.828C336.828 299.453 336.819 299.531 336.802 299.67C336.802 299.791 336.802 299.895 336.802 299.982C336.802 301.074 337.14 301.889 337.816 302.426C338.492 302.946 339.332 303.206 340.338 303.206C341.534 303.206 342.452 302.955 343.094 302.452C343.752 301.932 344.082 301.195 344.082 300.242C344.082 299.601 343.908 299.081 343.562 298.682C343.232 298.283 342.79 297.954 342.236 297.694C341.698 297.434 341.1 297.2 340.442 296.992C339.783 296.784 339.116 296.559 338.44 296.316C337.781 296.073 337.174 295.761 336.62 295.38C336.082 294.999 335.64 294.513 335.294 293.924C334.964 293.317 334.8 292.555 334.8 291.636C334.8 290.544 335.051 289.643 335.554 288.932C336.074 288.221 336.758 287.701 337.608 287.372C338.474 287.025 339.428 286.852 340.468 286.852C341.508 286.852 342.444 287.025 343.276 287.372C344.125 287.701 344.801 288.239 345.304 288.984C345.806 289.712 346.058 290.674 346.058 291.87V292.182H343.692V291.792C343.692 290.873 343.388 290.171 342.782 289.686C342.175 289.201 341.421 288.958 340.52 288.958C339.584 288.958 338.795 289.157 338.154 289.556C337.53 289.955 337.218 290.587 337.218 291.454C337.218 292.061 337.382 292.555 337.712 292.936C338.058 293.317 338.5 293.638 339.038 293.898C339.592 294.141 340.199 294.366 340.858 294.574C341.516 294.782 342.175 295.007 342.834 295.25C343.492 295.493 344.09 295.805 344.628 296.186C345.182 296.567 345.624 297.053 345.954 297.642C346.3 298.214 346.474 298.951 346.474 299.852C346.474 301.187 346.205 302.253 345.668 303.05C345.148 303.847 344.437 304.428 343.536 304.792C342.634 305.139 341.603 305.312 340.442 305.312ZM353.351 305L359.019 287.164H361.957L367.625 305H365.155L363.933 301.022H356.861L355.639 305H353.351ZM357.485 298.942H363.283L360.865 291.012C360.813 290.804 360.752 290.544 360.683 290.232C360.613 289.92 360.553 289.643 360.501 289.4C360.466 289.157 360.449 289.036 360.449 289.036H360.345C360.345 289.036 360.319 289.166 360.267 289.426C360.232 289.669 360.18 289.946 360.111 290.258C360.059 290.57 359.998 290.821 359.929 291.012L357.485 298.942ZM369.935 305V287.164H371.911L378.541 298.37C378.68 298.595 378.827 298.899 378.983 299.28C379.157 299.661 379.304 300.008 379.425 300.32C379.564 300.615 379.633 300.762 379.633 300.762L379.711 300.736C379.711 300.736 379.703 300.58 379.685 300.268C379.685 299.956 379.677 299.609 379.659 299.228C379.642 298.847 379.633 298.561 379.633 298.37V287.164H381.687V305H379.789L373.107 293.638C372.969 293.378 372.804 293.066 372.613 292.702C372.44 292.321 372.284 291.983 372.145 291.688C372.024 291.393 371.963 291.246 371.963 291.246L371.885 291.272C371.885 291.272 371.894 291.419 371.911 291.714C371.929 292.009 371.946 292.347 371.963 292.728C371.981 293.092 371.989 293.395 371.989 293.638V305H369.935ZM385.842 305V287.164H391.38C393.495 287.164 395.15 287.892 396.346 289.348C397.542 290.787 398.14 292.945 398.14 295.822C398.14 298.873 397.542 301.169 396.346 302.712C395.15 304.237 393.495 305 391.38 305H385.842ZM388.13 302.92H391.172C392.576 302.92 393.685 302.391 394.5 301.334C395.332 300.259 395.748 298.639 395.748 296.472V295.172C395.748 293.179 395.332 291.697 394.5 290.726C393.685 289.738 392.576 289.244 391.172 289.244H388.13V302.92ZM408.185 305V287.164H419.183V289.244H410.473V294.834H418.039V296.914H410.473V302.92H419.339V305H408.185ZM421.208 305L426.902 295.744L421.728 287.164H424.432L428.254 293.534H428.28L432.206 287.164H434.65L429.476 295.536L435.222 305H432.518L428.15 297.72H428.124L423.652 305H421.208ZM443.954 305.312C441.649 305.312 439.898 304.549 438.702 303.024C437.524 301.481 436.934 299.167 436.934 296.082C436.934 292.979 437.524 290.665 438.702 289.14C439.898 287.615 441.649 286.852 443.954 286.852C445.168 286.852 446.242 287.103 447.178 287.606C448.114 288.091 448.842 288.837 449.362 289.842C449.9 290.83 450.168 292.087 450.168 293.612H447.828C447.828 292.052 447.473 290.891 446.762 290.128C446.069 289.348 445.133 288.958 443.954 288.958C442.394 288.958 441.233 289.495 440.47 290.57C439.708 291.645 439.326 293.265 439.326 295.432V296.732C439.326 298.899 439.708 300.519 440.47 301.594C441.233 302.669 442.394 303.206 443.954 303.206C445.15 303.206 446.104 302.825 446.814 302.062C447.542 301.299 447.906 300.147 447.906 298.604H450.168C450.168 300.129 449.9 301.395 449.362 302.4C448.842 303.388 448.114 304.125 447.178 304.61C446.242 305.078 445.168 305.312 443.954 305.312ZM453.569 305V287.164H455.857V294.834H463.033V287.164H465.321V305H463.033V296.914H455.857V305H453.569ZM467.63 305L473.298 287.164H476.236L481.904 305H479.434L478.212 301.022H471.14L469.918 305H467.63ZM471.764 298.942H477.562L475.144 291.012C475.092 290.804 475.031 290.544 474.962 290.232C474.892 289.92 474.832 289.643 474.78 289.4C474.745 289.157 474.728 289.036 474.728 289.036H474.624C474.624 289.036 474.598 289.166 474.546 289.426C474.511 289.669 474.459 289.946 474.39 290.258C474.338 290.57 474.277 290.821 474.208 291.012L471.764 298.942ZM484.214 305V287.164H486.19L492.82 298.37C492.959 298.595 493.106 298.899 493.262 299.28C493.436 299.661 493.583 300.008 493.704 300.32C493.843 300.615 493.912 300.762 493.912 300.762L493.99 300.736C493.99 300.736 493.982 300.58 493.964 300.268C493.964 299.956 493.956 299.609 493.938 299.228C493.921 298.847 493.912 298.561 493.912 298.37V287.164H495.966V305H494.068L487.386 293.638C487.248 293.378 487.083 293.066 486.892 292.702C486.719 292.321 486.563 291.983 486.424 291.688C486.303 291.393 486.242 291.246 486.242 291.246L486.164 291.272C486.164 291.272 486.173 291.419 486.19 291.714C486.208 292.009 486.225 292.347 486.242 292.728C486.26 293.092 486.268 293.395 486.268 293.638V305H484.214ZM506.595 305.312C504.342 305.312 502.609 304.549 501.395 303.024C500.182 301.481 499.575 299.167 499.575 296.082C499.575 292.979 500.208 290.665 501.473 289.14C502.756 287.615 504.507 286.852 506.725 286.852C507.973 286.852 509.083 287.086 510.053 287.554C511.024 288.022 511.787 288.733 512.341 289.686C512.913 290.622 513.199 291.809 513.199 293.248H510.859C510.859 291.757 510.478 290.674 509.715 289.998C508.953 289.305 507.956 288.958 506.725 288.958C505.252 288.958 504.091 289.495 503.241 290.57C502.392 291.645 501.967 293.265 501.967 295.432V296.732C501.967 298.899 502.366 300.519 503.163 301.594C503.961 302.669 505.105 303.206 506.595 303.206C508.086 303.206 509.169 302.79 509.845 301.958C510.521 301.109 510.859 299.835 510.859 298.136V296.758L511.821 297.72H506.231V295.718H513.199V305H511.691L511.197 303.024C510.66 303.821 510.001 304.402 509.221 304.766C508.441 305.13 507.566 305.312 506.595 305.312ZM517.221 305V287.164H528.219V289.244H519.509V294.834H527.075V296.914H519.509V302.92H528.375V305H517.221ZM543.648 305.312C542.573 305.312 541.577 305.139 540.658 304.792C539.739 304.445 539.003 303.882 538.448 303.102C537.911 302.322 537.642 301.273 537.642 299.956C537.642 299.869 537.642 299.774 537.642 299.67C537.659 299.549 537.668 299.471 537.668 299.436H540.034C540.034 299.453 540.025 299.531 540.008 299.67C540.008 299.791 540.008 299.895 540.008 299.982C540.008 301.074 540.346 301.889 541.022 302.426C541.698 302.946 542.539 303.206 543.544 303.206C544.74 303.206 545.659 302.955 546.3 302.452C546.959 301.932 547.288 301.195 547.288 300.242C547.288 299.601 547.115 299.081 546.768 298.682C546.439 298.283 545.997 297.954 545.442 297.694C544.905 297.434 544.307 297.2 543.648 296.992C542.989 296.784 542.322 296.559 541.646 296.316C540.987 296.073 540.381 295.761 539.826 295.38C539.289 294.999 538.847 294.513 538.5 293.924C538.171 293.317 538.006 292.555 538.006 291.636C538.006 290.544 538.257 289.643 538.76 288.932C539.28 288.221 539.965 287.701 540.814 287.372C541.681 287.025 542.634 286.852 543.674 286.852C544.714 286.852 545.65 287.025 546.482 287.372C547.331 287.701 548.007 288.239 548.51 288.984C549.013 289.712 549.264 290.674 549.264 291.87V292.182H546.898V291.792C546.898 290.873 546.595 290.171 545.988 289.686C545.381 289.201 544.627 288.958 543.726 288.958C542.79 288.958 542.001 289.157 541.36 289.556C540.736 289.955 540.424 290.587 540.424 291.454C540.424 292.061 540.589 292.555 540.918 292.936C541.265 293.317 541.707 293.638 542.244 293.898C542.799 294.141 543.405 294.366 544.064 294.574C544.723 294.782 545.381 295.007 546.04 295.25C546.699 295.493 547.297 295.805 547.834 296.186C548.389 296.567 548.831 297.053 549.16 297.642C549.507 298.214 549.68 298.951 549.68 299.852C549.68 301.187 549.411 302.253 548.874 303.05C548.354 303.847 547.643 304.428 546.742 304.792C545.841 305.139 544.809 305.312 543.648 305.312ZM556.671 305V289.244H551.809V287.164H563.821V289.244H558.959V305H556.671ZM572.556 305.312C570.719 305.312 569.28 304.792 568.24 303.752C567.2 302.712 566.68 301.195 566.68 299.202V287.164H568.968V299.332C568.968 300.597 569.289 301.559 569.93 302.218C570.572 302.877 571.447 303.206 572.556 303.206C573.683 303.206 574.558 302.877 575.182 302.218C575.824 301.559 576.144 300.597 576.144 299.332V287.164H578.432V299.202C578.432 301.195 577.912 302.712 576.872 303.752C575.832 304.792 574.394 305.312 572.556 305.312ZM582.587 305V287.164H588.125C590.24 287.164 591.895 287.892 593.091 289.348C594.287 290.787 594.885 292.945 594.885 295.822C594.885 298.873 594.287 301.169 593.091 302.712C591.895 304.237 590.24 305 588.125 305H582.587ZM584.875 302.92H587.917C589.321 302.92 590.43 302.391 591.245 301.334C592.077 300.259 592.493 298.639 592.493 296.472V295.172C592.493 293.179 592.077 291.697 591.245 290.726C590.43 289.738 589.321 289.244 587.917 289.244H584.875V302.92ZM598.494 305V287.164H609.492V289.244H600.782V294.834H608.348V296.914H600.782V302.92H609.648V305H598.494ZM613.232 305V287.164H615.208L621.838 298.37C621.977 298.595 622.124 298.899 622.28 299.28C622.454 299.661 622.601 300.008 622.722 300.32C622.861 300.615 622.93 300.762 622.93 300.762L623.008 300.736C623.008 300.736 623 300.58 622.982 300.268C622.982 299.956 622.974 299.609 622.956 299.228C622.939 298.847 622.93 298.561 622.93 298.37V287.164H624.984V305H623.086L616.404 293.638C616.266 293.378 616.101 293.066 615.91 292.702C615.737 292.321 615.581 291.983 615.442 291.688C615.321 291.393 615.26 291.246 615.26 291.246L615.182 291.272C615.182 291.272 615.191 291.419 615.208 291.714C615.226 292.009 615.243 292.347 615.26 292.728C615.278 293.092 615.286 293.395 615.286 293.638V305H613.232ZM632.675 305V289.244H627.813V287.164H639.825V289.244H634.963V305H632.675ZM647.936 305.312C646.862 305.312 645.865 305.139 644.946 304.792C644.028 304.445 643.291 303.882 642.736 303.102C642.199 302.322 641.93 301.273 641.93 299.956C641.93 299.869 641.93 299.774 641.93 299.67C641.948 299.549 641.956 299.471 641.956 299.436H644.322C644.322 299.453 644.314 299.531 644.296 299.67C644.296 299.791 644.296 299.895 644.296 299.982C644.296 301.074 644.634 301.889 645.31 302.426C645.986 302.946 646.827 303.206 647.832 303.206C649.028 303.206 649.947 302.955 650.588 302.452C651.247 301.932 651.576 301.195 651.576 300.242C651.576 299.601 651.403 299.081 651.056 298.682C650.727 298.283 650.285 297.954 649.73 297.694C649.193 297.434 648.595 297.2 647.936 296.992C647.278 296.784 646.61 296.559 645.934 296.316C645.276 296.073 644.669 295.761 644.114 295.38C643.577 294.999 643.135 294.513 642.788 293.924C642.459 293.317 642.294 292.555 642.294 291.636C642.294 290.544 642.546 289.643 643.048 288.932C643.568 288.221 644.253 287.701 645.102 287.372C645.969 287.025 646.922 286.852 647.962 286.852C649.002 286.852 649.938 287.025 650.77 287.372C651.62 287.701 652.296 288.239 652.798 288.984C653.301 289.712 653.552 290.674 653.552 291.87V292.182H651.186V291.792C651.186 290.873 650.883 290.171 650.276 289.686C649.67 289.201 648.916 288.958 648.014 288.958C647.078 288.958 646.29 289.157 645.648 289.556C645.024 289.955 644.712 290.587 644.712 291.454C644.712 292.061 644.877 292.555 645.206 292.936C645.553 293.317 645.995 293.638 646.532 293.898C647.087 294.141 647.694 294.366 648.352 294.574C649.011 294.782 649.67 295.007 650.328 295.25C650.987 295.493 651.585 295.805 652.122 296.186C652.677 296.567 653.119 297.053 653.448 297.642C653.795 298.214 653.968 298.951 653.968 299.852C653.968 301.187 653.7 302.253 653.162 303.05C652.642 303.847 651.932 304.428 651.03 304.792C650.129 305.139 649.098 305.312 647.936 305.312Z" fill="#5F5454"/>
<g clip-path="url(#clip0_51_404)">
<path d="M538.234 196.187C538.175 196.515 538.172 196.662 538.149 197.04C538.144 197.114 538.005 197.146 538.002 197.213C537.985 197.669 538.511 198.54 538.784 198.93C538.9 199.096 539.136 199.207 539.186 199.307C539.272 199.483 539.127 199.768 539.151 199.983C539.283 201.134 539.975 202.523 540.616 203.484C540.884 203.888 541.478 204.453 541.648 204.864C541.78 205.186 541.655 205.614 541.852 206.013C542.284 206.89 543.533 207.966 543.882 208.684C544.082 209.099 544.058 209.583 544.398 209.979C544.904 210.568 546.224 210.808 546.868 211.246C547.647 211.772 547.976 212.264 549.062 212.442C549.481 212.51 550.142 212.398 550.421 212.461C550.553 212.49 550.747 212.707 550.94 212.774C551.987 213.14 552.085 213.08 553.055 213.717C554.803 214.864 556.708 216.239 558.35 217.551C559.858 218.758 561.561 220.899 562.813 222.397C563.238 222.903 563.511 223.446 563.864 223.857C563.995 224.01 564.401 224.193 564.47 224.385C564.522 224.524 564.44 224.744 564.511 224.943C564.586 225.15 564.878 225.214 564.987 225.454C565.256 226.058 565.406 226.936 565.63 227.532C565.837 228.076 566.34 228.782 566.481 229.309C566.721 230.211 566.689 231.163 566.834 232.052C566.932 232.644 567.518 234.9 567.446 235.281C567.424 235.398 567.266 235.52 567.241 235.708C567.199 236.023 567.448 237.599 567.55 237.941C567.741 238.568 568.119 240.324 568.157 240.998C568.173 241.271 567.98 241.544 567.991 241.777C568.06 243.257 567.483 244.776 567.428 246.248C567.418 246.556 567.53 246.909 567.507 247.27C567.327 250.148 565.43 252.754 564.488 255.362C564.331 255.796 564.229 256.486 564.054 256.931C563.834 257.498 562.541 258.993 562.176 259.643C561.754 260.391 561.519 261.877 561.07 262.787C560.812 263.315 560.08 263.681 560.678 264.234C561.186 264.706 562.625 264.792 563.29 265.042C563.819 265.24 564.069 265.748 564.584 265.77C564.708 265.774 564.816 265.666 564.954 265.694C565.113 265.722 566.147 266.037 566.3 266.105C566.848 266.346 566.849 266.729 567.166 266.993C567.194 267.018 567.786 267.333 567.824 267.342C568.166 267.422 568.577 267.158 568.883 267.176C568.981 267.182 569.015 267.335 569.095 267.365C570.038 267.755 570.475 267.653 571.29 268.441C571.584 268.724 572.075 269.522 572.267 269.65C572.483 269.795 572.962 269.781 573.244 269.88C574.217 270.223 576.043 271.245 576.46 272.212C576.876 273.178 576.181 274.331 575.138 274.461C574.666 274.521 574.585 274.241 574.428 274.25C574.112 274.267 573.439 274.614 573.055 274.589C572.961 274.582 572.889 274.377 572.715 274.336C572.519 274.29 572.407 274.439 572.254 274.437C571.851 274.433 570.935 274.027 570.665 274.026C570.483 274.026 570.11 274.249 569.777 274.277C569.104 274.331 568.271 274.041 567.512 274.163C567.197 274.214 566.841 274.423 566.619 274.428C566.415 274.433 566.19 274.226 565.948 274.212C564.549 274.128 562.86 274.479 561.559 274.385C561.289 274.364 560.933 274.181 560.587 274.148C559.418 274.034 558.561 274.262 557.463 274.363C557.241 274.381 557.061 274.235 556.771 274.307C556.48 274.38 556.338 274.645 556.076 274.742C555.016 275.134 554.695 274.924 553.713 274.901C553.366 274.892 552.505 275.098 552.357 274.828L552.178 274.865C552.105 275.452 551.892 274.88 551.781 274.789C551.474 274.539 551.065 274.879 550.78 274.93C549.869 275.103 549.008 275.508 548.3 275.636C547.525 275.774 547.055 275.57 546.057 275.937C545.198 276.252 544.399 277.024 543.441 277.033C543.199 277.035 543.171 276.818 542.979 276.754C542.705 276.664 542.519 276.828 542.194 276.602C542.132 276.558 541.376 275.717 541.31 275.621C540.892 275.007 541.058 273.835 540.149 273.838C538.881 273.843 537.42 274.464 536.159 274.632C534.594 274.838 532.635 274.435 530.979 274.91C530.518 275.043 530.116 275.352 529.611 275.388C529.428 275.402 529.486 275.227 529.303 275.241C528.737 275.284 527.946 275.591 527.368 275.589C527.148 275.588 526.932 275.392 526.704 275.395C526.386 275.4 526.015 275.569 525.682 275.597C523.808 275.753 521.806 275.579 519.917 275.535C519.5 275.524 518.883 275.676 518.492 275.63C518.1 275.583 517.633 275.329 517.213 275.238C516.07 274.992 515.028 274.932 513.819 274.636C512.351 274.277 510.946 273.758 509.547 273.165C509.111 272.981 508.483 272.98 507.975 272.737C507.309 272.42 506.371 271.58 505.616 271.545C505.304 271.532 505.012 271.728 504.691 271.603C504.533 271.543 504.459 271.361 504.33 271.295C504.07 271.161 503.503 271.117 503.169 270.976C502.728 270.786 502.38 270.431 501.973 270.225C501.272 269.865 501.566 270.188 500.958 269.563C500.772 269.372 499.97 269.103 499.708 268.89C499.461 268.691 499.287 268.324 499.011 268.114C498.354 267.612 496.977 266.592 496.472 265.973C496.148 265.57 496.096 264.958 495.884 264.666C495.671 264.373 494.945 263.989 494.651 263.476C494.341 262.931 494.321 262.329 493.959 261.711C493.453 260.839 493.037 259.826 492.483 258.937C492.365 258.745 491.936 258.207 491.733 258.236C491.551 258.259 490.865 258.852 490.676 259.017C490.6 259.082 490.602 259.255 490.461 259.377C489.686 260.054 488.911 259.985 488.156 260.356C487.849 260.508 487.454 261.018 487.167 261.236C486.957 261.396 486.448 261.39 486.702 261.774C486.522 261.87 486.246 261.77 486.095 261.827C485.556 262.034 484.226 264.142 483.756 264.707C483.591 264.907 483.242 265.118 483.032 265.357C482.275 266.22 482.123 267.252 480.693 267.271C480.331 267.275 479.541 266.884 479.414 266.521C478.939 265.154 479.308 263.611 479.989 262.374C480.181 262.026 480.644 261.529 480.834 261.157C481.024 260.786 480.988 260.35 481.147 259.992C481.287 259.681 482.002 259.019 482.069 258.826C482.136 258.632 482.028 258.332 482.116 258.047C482.19 257.806 482.615 257.06 482.778 256.668C483.795 254.231 484.719 251.74 485.44 249.188C486.095 246.861 487.186 244.869 487.868 242.56C487.972 242.206 487.99 241.614 488.109 241.267C488.181 241.052 488.439 240.864 488.463 240.609C488.488 240.354 488.341 240.205 488.347 240.04C488.373 239.483 488.799 238.348 488.831 237.789C488.85 237.489 488.597 236.705 488.676 236.476C489.284 236.02 489.66 235.357 490.179 234.809C490.287 234.341 489.993 233.652 490.029 233.256C490.045 233.09 490.221 232.994 490.257 232.843C490.485 231.878 490.735 230.37 490.868 229.375C490.959 228.714 490.876 227.966 491.022 227.38C491.097 227.092 491.189 226.88 491.377 226.646L491.056 226.438C491.172 226.015 491.128 225.585 491.192 225.153C491.245 224.793 491.442 223.641 491.539 223.365C491.585 223.236 491.914 222.683 492.022 222.478C492.605 221.364 493.355 220.333 493.939 219.223C494.175 218.772 494.443 217.839 494.691 217.459C494.82 217.259 495.181 217.109 495.35 216.925C496.169 216.043 496.717 215.305 497.635 214.483C498.553 213.66 499.309 212.514 500.209 211.748C501.168 210.931 502.304 210.266 503.317 209.368C505.206 207.688 506.951 206.524 509.112 205.214C509.659 204.883 510.454 204.059 510.872 203.877C511.327 203.681 511.851 203.777 512.356 203.648C512.896 203.508 513.332 203.076 513.779 202.968C515.123 202.641 516.497 202.228 517.832 201.932C519.071 201.656 518.648 201.832 519.721 202.026C521.014 202.261 521.516 202.215 522.81 202.111C523.434 202.061 523.912 202.302 524.346 202.347C525.048 202.42 525.779 202.338 526.483 202.517C526.618 202.446 526.676 201.609 526.757 201.403C526.893 201.059 527.291 200.455 527.61 200.274C528.336 199.86 528.797 199.842 529.15 198.952C529.71 197.543 530.184 196.774 531.029 195.514C531.765 194.416 532.051 193.472 532.61 192.303C533.057 191.37 532.918 191.648 533.077 190.654C533.162 190.128 534.212 187.651 534.508 187.202C534.562 187.121 534.936 186.935 535.009 186.723C535.411 186.741 535.918 186.605 536.306 186.669C536.663 186.725 537.543 187.308 537.673 187.654C537.86 188.148 537.715 188.61 537.779 189.087C537.91 190.055 538.096 190.722 538.097 191.72C538.098 191.969 537.961 192.24 537.978 192.456C538.095 193.697 538.44 194.951 538.218 196.204L538.234 196.187ZM540.943 214.663C540.714 214.484 540.246 214.34 539.987 214.096C539.531 213.667 539.49 212.977 538.635 213.524C538.379 213.686 537.951 214.209 537.707 214.365C537.364 214.588 536.689 214.892 536.316 215.135C535.678 215.554 535.234 215.951 534.546 216.291C531.542 217.779 530.337 219.934 528.392 222.48C527.999 222.993 526.881 223.88 526.388 224.343C526.114 224.598 525.62 225.594 525.413 225.916C524.508 227.322 523.43 228.699 522.201 229.822C522.109 229.907 522.184 230.078 521.963 230.167C521.203 230.478 519.592 229.892 519.272 229.105C519.23 228.997 518.903 227.72 518.901 227.643C518.899 227.587 519.192 226.662 519.237 226.587C519.375 226.352 519.554 226.319 519.676 226.151C519.749 226.053 520.45 224.41 520.518 224.206C520.791 223.362 520.75 222.398 520.881 221.54C521.011 220.682 521.508 219.745 521.634 218.884C521.674 218.736 521.291 218.698 521.224 218.695C521.02 218.69 520.792 218.693 520.602 218.772C520.378 218.864 520.461 219.074 520.367 219.116C519.498 219.516 518.27 219.371 517.596 219.601C517.161 219.75 516.495 220.212 515.976 220.388C513.674 221.167 511.511 221.471 509.206 221.875C507.948 222.095 506.611 222.311 505.469 222.95C503.931 223.812 502.458 224.732 501.018 225.731C500.25 226.263 499.471 227.151 498.881 227.87C498.085 228.838 496.783 229.669 495.918 230.671C495.577 231.066 494.815 232.576 494.81 233.069C494.811 233.139 494.941 233.878 494.965 233.913C495.095 234.096 495.698 234.362 495.864 234.511C496.206 234.821 496.916 235.937 497.247 236.146C497.805 236.501 498.428 236.986 499.012 237.323C499.339 237.512 499.976 237.639 500.171 237.765C500.502 237.984 501.017 238.881 501.502 239.048C501.674 239.106 501.912 238.974 501.973 239.011L502.035 239.282L502.5 238.987C502.587 239.039 502.602 239.133 502.714 239.173C504.347 239.788 505.345 239.242 506.969 238.951C507.565 238.846 508.227 238.93 508.815 238.591C509.323 238.833 509.574 239.315 509.957 239.676L510.196 240.848C509.793 241.885 508.84 242.622 508.069 243.398C507.256 244.216 507.382 244.167 506.394 244.648C505.337 245.163 504.94 245.646 504.014 246.284C503.715 246.492 503.249 246.634 502.987 246.814C501.337 247.942 499.982 249.652 498.837 251.25C498.78 251.331 498.587 251.364 498.544 251.459C498.484 251.591 498.65 252.373 498.757 252.487C498.829 252.563 499.064 252.594 499.189 252.685C500.103 253.357 501.171 253.755 502.162 254.415C504.299 255.836 506.682 257.393 509.227 258.001C511.392 258.521 513.768 258.919 515.842 259.464C516.46 259.627 517.17 259.818 517.663 260.247C517.755 260.328 518.496 261.192 518.522 261.253C518.573 261.372 518.556 261.908 518.64 262.19C518.852 262.906 519.2 263.6 519.413 264.319C519.697 264.44 519.96 264.686 520.207 264.825C520.383 264.923 520.611 264.9 520.723 264.96C521.909 265.613 522.817 266.466 524.08 267.024C525.722 267.75 527.035 268.357 528.868 268.566C529.758 268.667 530.919 268.593 531.716 268.77C532.689 268.984 532.926 269.169 533.994 269.227C535.291 269.299 536.611 269.565 537.899 269.306C538.537 269.176 539.102 268.917 539.835 268.928C540.328 268.934 541.53 269.473 541.726 269.47C541.782 269.469 542.7 269.198 542.795 269.159C543.559 268.82 543.796 266.396 543.94 265.638C544.097 264.831 544.493 263.549 544.465 262.756C544.445 262.235 544.166 261.616 544.133 261.084C544.109 260.653 544.395 260.069 544.335 259.678C544.265 259.203 544.073 258.264 543.944 257.811C543.729 257.064 543.221 256.172 542.981 255.483C542.774 254.889 542.64 253.958 542.822 253.352C543.014 252.711 543.975 251.643 544.668 251.705C544.804 251.717 545.82 252.192 545.977 252.29C546.872 252.852 546.67 253.05 547.03 253.872C548.165 256.458 550.455 258.274 552.913 259.626C553.149 259.757 553.256 260.088 553.749 259.705C553.856 259.623 553.827 259.452 553.901 259.358C553.946 259.302 554.114 259.311 554.131 259.278C554.177 259.198 554.03 258.979 554.076 258.833C554.089 258.797 554.255 258.7 554.314 258.548C554.638 257.727 555.001 256.625 554.969 255.749C554.956 255.429 554.841 255.09 554.831 254.766C554.259 254.387 553.18 254.291 552.77 253.729C552.464 253.306 551.897 251.225 552.033 250.735C552.078 250.58 552.259 250.542 552.256 250.463C552.25 250.365 552.118 250.242 552.101 250.122C552.046 249.724 552.271 249.266 552.318 248.827C552.383 248.201 552.282 247.723 552.252 247.187C552.247 247.095 552.461 247.068 552.48 246.917C552.612 245.889 552.68 244.824 552.735 243.774C552.757 243.341 553.038 242.798 553.057 242.614C553.092 242.217 552.787 241.322 552.711 240.851C552.506 239.539 552.448 237.807 551.798 236.622C551.491 236.059 550.987 235.773 550.66 235.294C550.382 234.888 550.155 234.332 549.887 233.897C549.724 233.635 549.382 233.555 549.484 233.158C549.381 232.976 549.219 233.179 549.107 233.132C549.028 233.101 547.76 232.259 547.706 232.193C547.547 231.703 546.842 230.852 546.788 230.394C546.775 230.28 547.103 229.285 547.181 229.192C547.399 228.928 548.073 228.455 548.422 228.357C548.148 228.07 548.622 227.448 548.646 227.173C548.673 226.835 548.452 226.551 548.444 226.3C548.436 226.048 548.696 225.53 548.725 225.204C548.74 225.048 548.702 224.404 548.657 224.283C548.62 224.181 547.723 223.04 547.573 222.86C546.185 221.2 544.627 219.618 543.141 218.095C542.314 217.249 542.55 216.585 542.035 215.735C541.924 215.551 541.128 214.805 540.934 214.652L540.943 214.663Z" fill="#5F5454"/>
</g>
<path d="M288.64 395V373H278.72V367H305.52V373H295.44V395H288.64ZM313.627 395V367H328.227C330.28 367 332.067 367.373 333.587 368.12C335.107 368.867 336.28 369.92 337.107 371.28C337.96 372.613 338.387 374.173 338.387 375.96C338.387 377.72 337.933 379.32 337.027 380.76C336.147 382.173 334.933 383.28 333.387 384.08C331.867 384.88 330.16 385.28 328.267 385.28H320.107V395H313.627ZM331.987 395L323.507 382.36L330.547 381.36L339.827 395H331.987ZM320.107 380.08H327.547C328.32 380.08 329 379.92 329.587 379.6C330.2 379.28 330.68 378.84 331.027 378.28C331.4 377.693 331.587 377.027 331.587 376.28C331.587 375.533 331.387 374.893 330.987 374.36C330.613 373.827 330.107 373.413 329.467 373.12C328.827 372.827 328.08 372.68 327.227 372.68H320.107V380.08ZM355.511 395V381.84L356.071 384.44L342.671 367H350.831L360.751 380.36L357.271 380.32L366.671 367H374.391L361.991 384.04L362.351 381.52V395H355.511ZM412.91 395.4C410.51 395.4 408.31 395.04 406.31 394.32C404.337 393.573 402.617 392.547 401.15 391.24C399.71 389.933 398.59 388.4 397.79 386.64C396.99 384.853 396.59 382.933 396.59 380.88C396.59 378.8 396.99 376.88 397.79 375.12C398.59 373.36 399.724 371.827 401.19 370.52C402.657 369.213 404.377 368.2 406.35 367.48C408.324 366.733 410.497 366.36 412.87 366.36C415.27 366.36 417.457 366.72 419.43 367.44C421.43 368.16 423.15 369.187 424.59 370.52C426.057 371.827 427.177 373.36 427.95 375.12C428.75 376.88 429.15 378.8 429.15 380.88C429.15 382.96 428.75 384.88 427.95 386.64C427.177 388.4 426.057 389.947 424.59 391.28C423.15 392.587 421.43 393.6 419.43 394.32C417.457 395.04 415.284 395.4 412.91 395.4ZM412.91 389C414.27 389 415.524 388.8 416.67 388.4C417.817 387.973 418.804 387.4 419.63 386.68C420.457 385.933 421.097 385.067 421.55 384.08C422.004 383.093 422.23 382.027 422.23 380.88C422.23 379.733 422.004 378.667 421.55 377.68C421.097 376.693 420.457 375.84 419.63 375.12C418.804 374.373 417.804 373.8 416.63 373.4C415.484 372.973 414.244 372.76 412.91 372.76C411.55 372.76 410.297 372.973 409.15 373.4C408.004 373.8 407.004 374.36 406.15 375.08C405.297 375.8 404.644 376.667 404.19 377.68C403.764 378.667 403.55 379.733 403.55 380.88C403.55 382.027 403.764 383.107 404.19 384.12C404.644 385.107 405.297 385.96 406.15 386.68C407.004 387.4 408.004 387.973 409.15 388.4C410.297 388.8 411.55 389 412.91 389ZM451.439 395.24C448.745 395.24 446.372 394.707 444.319 393.64C442.292 392.573 440.705 391.093 439.559 389.2C438.439 387.307 437.879 385.16 437.879 382.76V367H444.759V382.52C444.759 383.827 445.039 384.987 445.599 386C446.185 387.013 446.985 387.8 447.999 388.36C449.012 388.92 450.159 389.2 451.439 389.2C452.745 389.2 453.919 388.92 454.959 388.36C455.999 387.8 456.812 387.013 457.399 386C458.012 384.987 458.319 383.827 458.319 382.52V367H464.959V382.76C464.959 385.16 464.385 387.307 463.239 389.2C462.119 391.093 460.532 392.573 458.479 393.64C456.452 394.707 454.105 395.24 451.439 395.24ZM475.502 395V367H490.102C492.155 367 493.942 367.373 495.462 368.12C496.982 368.867 498.155 369.92 498.982 371.28C499.835 372.613 500.262 374.173 500.262 375.96C500.262 377.72 499.808 379.32 498.902 380.76C498.022 382.173 496.808 383.28 495.262 384.08C493.742 384.88 492.035 385.28 490.142 385.28H481.982V395H475.502ZM493.862 395L485.382 382.36L492.422 381.36L501.702 395H493.862ZM481.982 380.08H489.422C490.195 380.08 490.875 379.92 491.462 379.6C492.075 379.28 492.555 378.84 492.902 378.28C493.275 377.693 493.462 377.027 493.462 376.28C493.462 375.533 493.262 374.893 492.862 374.36C492.488 373.827 491.982 373.413 491.342 373.12C490.702 372.827 489.955 372.68 489.102 372.68H481.982V380.08Z" fill="#543E4D"/>
<defs>
<clipPath id="clip0_51_404">
<rect width="94" height="94" fill="white" transform="translate(466 200.785) rotate(-11.5275)"/>
</clipPath>
</defs>
</svg>
