<svg width="513" height="512" viewBox="0 0 513 512" fill="none" xmlns="http://www.w3.org/2000/svg">
<g clip-path="url(#clip0_153_228)">
<path d="M391.277 54.0891C390.602 55.7761 390.424 56.5574 389.891 58.5463C389.785 58.9369 389.003 58.9547 388.915 59.3098C388.328 61.7248 390.193 66.9455 391.223 69.325C391.667 70.3372 392.804 71.1896 392.964 71.7756C393.23 72.8055 392.147 74.1728 392.04 75.3448C391.49 81.6309 393.674 89.7993 396.054 95.6238C397.048 98.0743 399.606 101.732 400.067 104.112C400.423 105.976 399.286 108.125 399.908 110.469C401.257 115.619 406.763 122.722 407.846 126.93C408.468 129.363 407.811 131.92 409.196 134.406C411.256 138.1 418.058 140.816 421.024 143.853C424.611 147.511 425.836 150.494 431.448 152.625C433.615 153.442 437.274 153.566 438.694 154.206C439.369 154.507 440.168 155.875 441.127 156.443C446.331 159.533 446.917 159.32 451.41 163.777C459.508 171.803 468.193 181.215 475.545 190.005C482.294 198.084 489.06 211.367 494.122 220.725C495.844 223.886 496.714 227.082 498.153 229.657C498.686 230.616 500.657 232.036 500.817 233.137C500.941 233.936 500.266 235.02 500.426 236.156C500.604 237.346 502.096 238.003 502.415 239.406C503.197 242.922 503.037 247.769 503.587 251.197C504.102 254.322 506.02 258.637 506.198 261.603C506.5 266.681 505.292 271.724 505.097 276.625C504.973 279.893 505.647 292.571 504.848 294.525C504.6 295.129 503.623 295.608 503.285 296.585C502.717 298.218 502.326 306.902 502.504 308.837C502.841 312.389 502.948 322.173 502.415 325.813C502.202 327.287 500.87 328.53 500.675 329.791C499.432 337.764 494.69 345.24 492.79 353.036C492.399 354.669 492.612 356.676 492.097 358.576C487.995 373.741 475.012 385.585 467.127 398.477C465.813 400.625 464.517 404.195 463.096 406.379C461.302 409.167 452.76 415.737 450.096 418.809C447.023 422.343 444.146 430.014 440.754 434.382C438.801 436.922 434.485 438.076 437.078 441.681C439.28 444.753 446.881 446.777 450.167 448.837C452.778 450.471 453.559 453.454 456.294 454.129C456.951 454.288 457.644 453.827 458.354 454.129C459.171 454.448 464.357 457.254 465.103 457.787C467.767 459.669 467.358 461.711 468.761 463.469C468.885 463.629 471.709 465.955 471.904 466.044C473.645 466.843 476.131 465.884 477.747 466.31C478.262 466.452 478.28 467.305 478.671 467.553C483.288 470.661 485.739 470.59 489.238 475.686C490.499 477.515 492.257 482.31 493.145 483.197C494.139 484.21 496.714 484.654 498.117 485.488C502.948 488.383 511.597 495.823 512.769 501.434C513.941 507.046 508.968 512.444 503.25 512C500.657 511.805 500.533 510.224 499.68 510.1C497.975 509.851 493.997 510.97 491.973 510.42C491.475 510.278 491.316 509.106 490.428 508.697C489.433 508.235 488.669 508.91 487.853 508.733C485.704 508.271 481.246 505.11 479.807 504.808C478.831 504.613 476.593 505.394 474.781 505.181C471.123 504.737 466.985 502.287 462.794 502.109C461.053 502.038 458.922 502.766 457.732 502.553C456.631 502.358 455.655 501.008 454.376 500.671C446.988 498.7 437.575 498.735 430.72 496.817C429.3 496.409 427.595 495.042 425.783 494.491C419.656 492.609 414.826 492.893 408.841 492.236C407.633 492.094 406.834 491.117 405.2 491.188C403.566 491.259 402.518 492.52 401.009 492.751C394.917 493.692 393.425 492.218 388.204 491.028C386.357 490.602 381.527 490.762 381.029 489.164H380.035C379.005 492.218 378.49 488.933 377.992 488.329C376.625 486.66 374.068 488.027 372.487 487.992C367.426 487.921 362.382 489.146 358.457 489.057C354.159 488.951 351.868 487.353 346.132 488.223C341.195 488.969 336.08 492.218 330.948 491.224C329.651 490.975 329.74 489.785 328.781 489.235C327.413 488.454 326.241 489.128 324.75 487.566C324.465 487.264 321.34 481.954 321.091 481.368C319.528 477.639 321.695 471.566 316.829 470.59C310.045 469.24 301.556 470.963 294.629 470.483C286.034 469.879 276 465.6 266.623 466.328C264.012 466.541 261.526 467.748 258.791 467.393C257.796 467.269 258.294 466.399 257.299 466.275C254.227 465.884 249.662 466.665 246.572 466.026C245.4 465.777 244.459 464.499 243.234 464.268C241.529 463.948 239.362 464.446 237.551 464.233C227.357 463.025 216.843 459.917 206.791 457.627C204.571 457.112 201.108 457.254 199.066 456.579C197.023 455.904 194.804 454.04 192.655 453.099C186.812 450.542 181.306 449.085 175.162 446.191C167.703 442.675 160.759 438.378 153.921 433.69C151.79 432.234 148.434 431.541 145.983 429.694C142.768 427.279 138.666 421.775 134.67 420.762C133.018 420.354 131.242 421.082 129.662 420.07C128.88 419.573 128.685 418.525 128.063 418.028C126.82 417.033 123.837 416.181 122.203 415.062C120.054 413.571 118.58 411.298 116.626 409.753C113.27 407.071 114.495 409.113 111.92 405.118C111.139 403.893 107.143 401.584 105.971 400.164C104.87 398.832 104.337 396.683 103.094 395.263C100.128 391.871 93.8764 384.928 91.8519 381.075C90.5554 378.571 90.9461 375.25 90.1292 373.457C89.3122 371.663 85.8492 368.822 84.8369 365.768C83.7713 362.518 84.3218 359.286 83.0609 355.593C81.3027 350.39 80.1839 344.53 78.1948 339.185C77.7686 338.03 76.0637 334.692 74.9448 334.621C73.9503 334.55 69.6348 336.965 68.4449 337.64C67.9654 337.906 67.7878 338.83 66.8998 339.327C62.0159 342.097 57.949 340.889 53.5092 342.044C51.6977 342.523 49.0338 344.814 47.2578 345.666C45.9614 346.288 43.2442 345.702 44.1854 348.028C43.1199 348.348 41.7524 347.513 40.8822 347.655C37.7743 348.17 28.3617 357.972 25.2361 360.476C24.135 361.364 22.0394 362.11 20.6541 363.157C15.6637 366.94 13.7279 372.285 6.05585 370.828C4.12007 370.456 0.319543 367.508 0.0353911 365.43C-1.01242 357.617 2.64603 349.786 7.63644 343.926C9.03944 342.275 12.0586 340.126 13.4793 338.35C14.9001 336.574 15.1842 334.213 16.4274 332.472C17.5107 330.963 22.0571 328.211 22.6254 327.252C23.1937 326.293 22.9451 324.57 23.7265 323.15C24.3836 321.942 27.4738 318.426 28.7702 316.508C36.8685 304.611 44.5229 292.323 51.1649 279.484C57.2031 267.782 65.2126 258.335 71.3752 246.757C72.3164 244.982 73.0623 241.838 74.0746 240.116C74.6962 239.051 76.2768 238.323 76.6853 236.991C77.0937 235.659 76.4721 234.7 76.6853 233.83C77.4312 230.882 80.9475 225.289 81.729 222.341C82.1552 220.76 81.6579 216.303 82.3328 215.167C86.08 213.391 88.815 210.266 92.1893 207.904C93.2726 205.525 92.4557 201.529 93.0773 199.451C93.3436 198.581 94.3914 198.262 94.7466 197.498C97.0199 192.597 100.003 184.819 101.797 179.652C103.005 176.225 103.378 172.141 104.799 169.175C105.509 167.719 106.237 166.689 107.498 165.641L106.006 164.185C107.089 162.054 107.32 159.71 108.137 157.473C108.812 155.608 111.121 149.677 111.938 148.31C112.329 147.671 114.691 145.078 115.49 144.102C119.823 138.792 124.956 134.104 129.289 128.812C131.047 126.664 133.498 121.976 135.238 120.218C136.144 119.294 138.24 118.886 139.341 118.087C144.686 114.269 148.416 110.931 154.223 107.539C160.03 104.147 165.323 98.8556 170.97 95.7481C176.991 92.4274 183.793 90.119 190.186 86.4254C202.12 79.5178 212.723 75.2027 225.705 70.568C228.99 69.3961 234.141 65.8623 236.574 65.3474C239.22 64.7969 241.919 65.8801 244.761 65.738C247.798 65.5782 250.604 63.7492 253.108 63.6604C260.656 63.3763 268.452 62.666 275.911 62.5417C282.837 62.4174 280.386 62.8968 285.91 65.0988C292.569 67.7624 295.304 68.0642 302.337 68.9166C305.729 69.325 308.02 71.1363 310.293 71.8466C313.97 73.0008 317.965 73.356 321.535 75.0784C322.334 74.8476 323.56 70.4437 324.217 69.4316C325.318 67.7446 328.106 64.9567 330.006 64.3352C334.34 62.9146 336.826 63.323 339.685 58.9547C344.214 52.047 347.588 48.46 353.484 42.6534C358.617 37.5925 361.174 32.869 365.436 27.2399C368.846 22.7473 367.798 24.0791 369.734 18.9472C370.764 16.2303 379.076 4.15525 381.154 2.07763C381.527 1.70473 383.729 1.11873 384.35 0.0710449C386.481 0.603768 389.341 0.426194 391.348 1.18976C393.195 1.8823 397.261 5.94875 397.581 7.93759C398.043 10.7788 396.764 13.0872 396.587 15.6976C396.231 21.0071 396.498 24.7716 395.414 30.0989C395.148 31.4307 394.118 32.727 393.976 33.8989C393.248 40.6468 393.727 47.7142 391.17 54.1602L391.277 54.0891ZM385.611 155.644C384.581 154.436 382.237 153.158 381.118 151.577C379.147 148.79 379.68 145.06 374.512 147.049C372.967 147.635 370.107 149.962 368.633 150.53C366.555 151.347 362.613 152.234 360.357 153.122C356.486 154.667 353.68 156.301 349.631 157.366C331.942 162.037 323.151 172.229 309.974 183.701C307.31 186.009 300.366 189.525 297.222 191.461C295.482 192.526 291.752 197.303 290.296 198.794C283.921 205.311 276.657 211.491 268.861 216.143C268.274 216.499 268.488 217.493 267.209 217.724C262.805 218.558 254.831 213.675 253.978 209.129C253.871 208.508 253.516 201.334 253.587 200.925C253.641 200.623 256.216 196.007 256.535 195.651C257.53 194.55 258.524 194.568 259.359 193.805C259.856 193.361 265.397 185.352 265.983 184.34C268.363 180.131 269.198 174.946 270.832 170.507C272.466 166.068 276.142 161.61 277.758 157.153C278.131 156.407 276.124 155.786 275.769 155.697C274.686 155.449 273.46 155.218 272.359 155.431C271.063 155.679 271.276 156.887 270.725 157.011C265.646 158.201 259.235 156.088 255.381 156.585C252.895 156.905 248.828 158.645 245.862 159.018C232.702 160.669 220.803 159.941 208.034 159.586C201.073 159.391 193.685 159.089 186.883 161.255C177.719 164.185 168.839 167.488 160.048 171.253C155.36 173.259 150.227 177.148 146.285 180.344C140.975 184.642 133.107 187.661 127.389 192.064C125.133 193.805 119.415 201.032 118.846 203.66C118.775 204.033 118.669 208.117 118.757 208.33C119.255 209.449 122.185 211.527 122.913 212.503C124.405 214.528 126.98 221.258 128.525 222.731C131.118 225.235 133.924 228.503 136.677 230.935C138.222 232.303 141.49 233.67 142.395 234.558C143.923 236.085 145.699 241.43 148.114 242.851C148.966 243.348 150.387 242.904 150.671 243.17L150.707 244.68L153.513 243.614C153.921 243.987 153.903 244.502 154.454 244.839C162.517 249.9 168.448 248.071 177.452 248.284C180.756 248.373 184.201 249.545 187.717 248.373C190.168 250.22 190.985 253.061 192.637 255.405V261.922C189.351 267.019 183.455 269.913 178.483 273.216C173.243 276.696 173.972 276.572 168.164 278.064C161.948 279.662 159.302 281.81 153.655 284.208C151.826 284.989 149.179 285.238 147.581 285.912C137.529 290.139 128.419 297.792 120.551 305.073C120.16 305.446 119.095 305.41 118.757 305.872C118.296 306.511 118.331 310.862 118.775 311.59C119.077 312.069 120.303 312.495 120.871 313.117C125.027 317.698 130.301 320.983 134.883 325.583C144.757 335.491 155.804 346.394 168.75 352.414C179.761 357.546 192.033 362.252 202.529 367.419C205.655 368.964 209.242 370.757 211.409 373.581C211.817 374.114 214.836 379.53 214.907 379.885C215.049 380.577 214.374 383.418 214.517 385.017C214.872 389.065 215.973 393.15 216.328 397.216C217.713 398.175 218.85 399.773 220.022 400.785C220.857 401.496 222.1 401.62 222.633 402.064C228.262 406.841 232.187 412.381 238.332 416.731C246.324 422.396 252.682 427.066 262.254 430.174C266.907 431.683 273.194 432.553 277.261 434.365C282.233 436.566 283.299 437.81 288.946 439.283C295.802 441.077 302.568 443.936 309.743 443.954C313.295 443.954 316.598 443.19 320.505 444.042C323.133 444.611 328.976 448.801 330.024 448.997C330.326 449.05 335.53 448.606 336.08 448.499C340.538 447.523 344.445 434.844 346.043 430.955C347.766 426.818 351.282 420.407 351.993 416.145C352.454 413.34 351.637 409.735 352.046 406.858C352.383 404.532 354.55 401.726 354.656 399.578C354.799 396.967 354.799 391.747 354.603 389.19C354.266 384.963 352.525 379.654 351.993 375.712C351.531 372.32 351.833 367.206 353.467 364.169C355.189 360.955 361.494 356.303 365.135 357.386C365.845 357.599 370.764 361.239 371.492 361.932C375.666 365.91 374.37 366.744 375.4 371.521C378.65 386.562 388.914 398.743 400.582 408.634C401.701 409.593 401.914 411.475 404.969 409.966C405.626 409.646 405.662 408.705 406.159 408.279C406.461 408.03 407.349 408.261 407.473 408.101C407.811 407.728 407.26 406.397 407.669 405.669C407.775 405.491 408.77 405.154 409.249 404.408C411.878 400.377 415.021 394.89 415.802 390.184C416.087 388.462 415.838 386.526 416.14 384.786C413.494 382.14 407.828 380.453 406.248 377.008C405.076 374.415 404.312 362.696 405.573 360.227C405.981 359.446 406.994 359.446 407.065 359.02C407.136 358.487 406.567 357.688 406.603 357.031C406.745 354.847 408.45 352.645 409.178 350.354C410.208 347.087 410.19 344.423 410.617 341.529C410.688 341.031 411.86 341.12 412.126 340.339C413.955 334.994 415.483 329.383 416.921 323.842C417.507 321.552 419.603 318.959 419.905 318C420.526 315.922 419.869 310.808 419.976 308.216C420.313 300.988 421.894 291.684 419.709 284.652C418.679 281.313 416.3 279.236 415.074 276.323C414.026 273.855 413.423 270.641 412.464 268.031C411.878 266.45 410.137 265.651 411.114 263.645C410.759 262.561 409.675 263.467 409.125 263.094C408.734 262.846 402.873 256.968 402.66 256.559C402.341 253.771 399.499 248.462 399.712 245.958C399.766 245.337 402.607 240.382 403.122 239.974C404.578 238.802 408.699 237.008 410.67 236.866C409.516 235.037 412.73 232.232 413.156 230.793C413.671 229.018 412.801 227.26 413.032 225.91C413.263 224.56 415.216 222.074 415.731 220.37C415.98 219.553 416.477 216.072 416.371 215.38C416.282 214.794 412.73 207.726 412.126 206.608C406.514 196.237 399.908 186.098 393.621 176.349C390.122 170.933 392.111 167.648 390.282 162.552C389.891 161.451 386.446 156.603 385.576 155.573L385.611 155.644Z" fill="#D0FFCD" fill-opacity="0.69"/>
</g>
<defs>
<clipPath id="clip0_153_228">
<rect width="513" height="512" fill="white"/>
</clipPath>
</defs>
</svg>
