<svg width="796" height="361" viewBox="0 0 796 361" fill="none" xmlns="http://www.w3.org/2000/svg">
<g clip-path="url(#clip0_549_3142)">
<path d="M454.106 38.1373C453.63 39.3267 453.504 39.8776 453.128 41.2799C453.053 41.5553 452.502 41.5679 452.439 41.8183C452.026 43.521 453.341 47.202 454.068 48.8798C454.382 49.5934 455.184 50.1944 455.296 50.6076C455.484 51.3338 454.72 52.2978 454.645 53.1242C454.256 57.5564 455.798 63.3158 457.477 67.4224C458.179 69.1502 459.983 71.7294 460.309 73.4072C460.56 74.7218 459.758 76.2368 460.196 77.8895C461.149 81.5204 465.034 86.5285 465.798 89.4959C466.237 91.2112 465.773 93.0141 466.751 94.7669C468.204 97.3712 473.004 99.2868 475.097 101.428C477.629 104.007 478.493 106.11 482.453 107.613C483.982 108.189 486.564 108.276 487.566 108.727C488.043 108.94 488.607 109.904 489.283 110.305C492.955 112.483 493.369 112.333 496.539 115.476C502.254 121.135 508.382 127.771 513.57 133.968C518.332 139.665 523.107 149.03 526.679 155.628C527.894 157.857 528.509 160.111 529.524 161.926C529.9 162.602 531.291 163.604 531.403 164.38C531.491 164.944 531.015 165.707 531.128 166.509C531.253 167.348 532.306 167.811 532.531 168.8C533.083 171.279 532.97 174.697 533.358 177.113C533.722 179.317 535.075 182.36 535.201 184.45C535.414 188.031 534.561 191.587 534.424 195.043C534.336 197.346 534.812 206.286 534.248 207.663C534.073 208.089 533.383 208.427 533.145 209.116C532.744 210.267 532.469 216.39 532.594 217.755C532.832 220.259 532.907 227.157 532.531 229.724C532.381 230.763 531.441 231.64 531.303 232.529C530.426 238.15 527.08 243.421 525.739 248.918C525.463 250.07 525.614 251.484 525.25 252.824C522.355 263.517 513.194 271.868 507.63 280.957C506.703 282.472 505.788 284.989 504.785 286.529C503.52 288.495 497.492 293.127 495.612 295.293C493.444 297.785 491.414 303.194 489.02 306.274C487.642 308.064 484.596 308.878 486.426 311.42C487.98 313.586 493.344 315.013 495.662 316.465C497.504 317.617 498.056 319.721 499.986 320.196C500.449 320.309 500.938 319.983 501.439 320.196C502.016 320.422 505.675 322.4 506.202 322.775C508.081 324.103 507.793 325.543 508.783 326.782C508.871 326.895 510.863 328.535 511.001 328.598C512.229 329.161 513.984 328.485 515.124 328.785C515.488 328.885 515.5 329.486 515.776 329.662C519.034 331.853 520.764 331.803 523.233 335.396C524.122 336.686 525.363 340.066 525.99 340.692C526.691 341.406 528.509 341.719 529.499 342.307C532.907 344.348 539.01 349.594 539.837 353.551C540.665 357.507 537.156 361.313 533.12 361C531.291 360.862 531.203 359.748 530.601 359.661C529.398 359.485 526.591 360.274 525.162 359.886C524.812 359.786 524.699 358.959 524.072 358.671C523.37 358.346 522.832 358.822 522.255 358.696C520.739 358.371 517.593 356.142 516.578 355.929C515.889 355.792 514.31 356.343 513.031 356.192C510.45 355.879 507.53 354.152 504.572 354.026C503.344 353.976 501.84 354.49 501.001 354.339C500.224 354.202 499.534 353.25 498.632 353.012C493.419 351.622 486.777 351.647 481.94 350.295C480.937 350.007 479.734 349.043 478.456 348.655C474.132 347.328 470.723 347.528 466.5 347.065C465.648 346.965 465.084 346.276 463.931 346.326C462.778 346.376 462.039 347.265 460.973 347.428C456.675 348.092 455.622 347.052 451.938 346.214C450.635 345.913 447.226 346.026 446.875 344.899H446.173C445.446 347.053 445.083 344.736 444.732 344.311C443.767 343.134 441.962 344.098 440.847 344.073C437.275 344.023 433.716 344.887 430.947 344.824C427.914 344.749 426.297 343.622 422.249 344.235C418.766 344.761 415.156 347.053 411.535 346.351C410.62 346.176 410.682 345.337 410.006 344.949C409.041 344.398 408.214 344.874 407.161 343.772C406.96 343.559 404.755 339.816 404.579 339.403C403.477 336.773 405.005 332.491 401.572 331.803C396.784 330.851 390.794 332.066 385.907 331.728C379.841 331.302 372.761 328.284 366.144 328.798C364.301 328.948 362.547 329.799 360.617 329.549C359.915 329.461 360.266 328.848 359.564 328.76C357.396 328.485 354.176 329.036 351.995 328.585C351.168 328.41 350.504 327.508 349.639 327.345C348.436 327.12 346.907 327.471 345.629 327.32C338.435 326.469 331.016 324.278 323.923 322.663C322.357 322.3 319.913 322.4 318.472 321.924C317.031 321.448 315.464 320.134 313.948 319.47C309.825 317.667 305.94 316.641 301.604 314.6C296.34 312.121 291.44 309.091 286.615 305.785C285.112 304.759 282.743 304.27 281.014 302.968C278.745 301.266 275.85 297.384 273.031 296.671C271.865 296.383 270.612 296.896 269.497 296.182C268.945 295.832 268.807 295.093 268.369 294.742C267.492 294.041 265.386 293.44 264.233 292.652C262.717 291.6 261.677 289.997 260.298 288.908C257.93 287.017 258.794 288.457 256.977 285.64C256.426 284.776 253.606 283.149 252.779 282.147C252.002 281.208 251.626 279.693 250.749 278.691C248.656 276.3 244.245 271.404 242.816 268.688C241.901 266.922 242.177 264.581 241.6 263.316C241.024 262.052 238.58 260.048 237.866 257.895C237.114 255.604 237.502 253.325 236.613 250.721C235.372 247.052 234.582 242.921 233.179 239.152C232.878 238.338 231.675 235.984 230.885 235.934C230.184 235.884 227.138 237.587 226.299 238.063C225.96 238.25 225.835 238.902 225.208 239.252C221.762 241.205 218.892 240.354 215.759 241.168C214.481 241.506 212.601 243.121 211.348 243.722C210.433 244.16 208.516 243.747 209.18 245.387C208.428 245.612 207.463 245.024 206.849 245.124C204.656 245.487 198.014 252.398 195.808 254.164C195.031 254.79 193.553 255.316 192.575 256.054C189.054 258.721 187.688 262.49 182.274 261.463C180.908 261.2 178.226 259.122 178.025 257.657C177.286 252.148 179.868 246.627 183.389 242.495C184.379 241.33 186.51 239.816 187.512 238.563C188.515 237.311 188.715 235.646 189.592 234.419C190.357 233.355 193.565 231.414 193.966 230.738C194.367 230.062 194.192 228.848 194.743 227.846C195.207 226.995 197.387 224.516 198.302 223.163C204.017 214.775 209.418 206.111 214.105 197.058C218.366 188.807 224.018 182.147 228.367 173.983C229.031 172.731 229.557 170.515 230.271 169.301C230.71 168.55 231.825 168.036 232.114 167.097C232.402 166.158 231.963 165.482 232.114 164.869C232.64 162.79 235.121 158.846 235.673 156.768C235.973 155.654 235.623 152.511 236.099 151.71C238.743 150.458 240.673 148.254 243.054 146.589C243.819 144.911 243.242 142.094 243.681 140.629C243.869 140.016 244.608 139.79 244.859 139.252C246.463 135.796 248.568 130.312 249.834 126.669C250.686 124.252 250.949 121.373 251.952 119.282C252.453 118.255 252.967 117.529 253.857 116.79L252.804 115.764C253.568 114.261 253.731 112.608 254.308 111.031C254.784 109.716 256.413 105.534 256.99 104.57C257.265 104.12 258.932 102.292 259.496 101.603C262.554 97.8595 266.176 94.5541 269.233 90.823C270.474 89.3081 272.204 86.0027 273.432 84.7632C274.071 84.1121 275.55 83.8241 276.327 83.2607C280.099 80.5688 282.73 78.215 286.828 75.8236C290.926 73.4322 294.661 69.7011 298.646 67.5101C302.894 65.1688 307.694 63.5411 312.206 60.9369C320.627 56.0665 328.109 53.024 337.27 49.7562C339.588 48.9298 343.223 46.4383 344.939 46.0752C346.807 45.6871 348.712 46.4508 350.717 46.3506C352.86 46.238 354.84 44.9484 356.607 44.8858C361.933 44.6854 367.434 44.1846 372.698 44.097C377.585 44.0093 375.856 44.3474 379.753 45.8999C384.453 47.778 386.383 47.9908 391.346 48.5918C393.739 48.8798 395.356 50.1568 396.96 50.6577C399.554 51.4715 402.374 51.7219 404.893 52.9364C405.457 52.7736 406.321 49.6685 406.785 48.9549C407.562 47.7654 409.529 45.7997 410.87 45.3615C413.928 44.3599 415.683 44.6479 417.7 41.5679C420.896 36.6974 423.277 34.1683 427.438 30.0742C431.059 26.5058 432.864 23.1754 435.872 19.2065C438.278 16.0388 437.539 16.9778 438.905 13.3595C439.631 11.4438 445.496 2.92998 446.963 1.4651C447.226 1.20217 448.78 0.788995 449.218 0.050293C450.722 0.425904 452.74 0.3007 454.156 0.839077C455.459 1.32737 458.329 4.19454 458.555 5.59682C458.881 7.60008 457.978 9.22773 457.853 11.0682C457.602 14.8118 457.79 17.4661 457.026 21.2222C456.838 22.1613 456.111 23.0753 456.011 23.9016C455.497 28.6594 455.835 33.6425 454.031 38.1874L454.106 38.1373ZM450.108 109.741C449.381 108.89 447.727 107.988 446.938 106.874C445.547 104.908 445.922 102.279 442.276 103.681C441.185 104.095 439.168 105.735 438.128 106.135C436.661 106.711 433.879 107.337 432.288 107.963C429.556 109.053 427.576 110.205 424.718 110.956C412.236 114.249 406.033 121.435 396.734 129.523C394.854 131.151 389.954 133.63 387.736 134.995C386.508 135.746 383.876 139.114 382.849 140.166C378.35 144.761 373.224 149.118 367.723 152.398C367.309 152.649 367.459 153.35 366.557 153.513C363.449 154.101 357.822 150.658 357.221 147.453C357.146 147.014 356.895 141.956 356.945 141.668C356.983 141.455 358.8 138.2 359.025 137.95C359.727 137.173 360.429 137.186 361.018 136.648C361.369 136.335 365.279 130.688 365.692 129.974C367.372 127.007 367.961 123.351 369.114 120.221C370.267 117.091 372.861 113.948 374.001 110.806C374.264 110.28 372.848 109.841 372.598 109.779C371.833 109.604 370.968 109.441 370.191 109.591C369.277 109.766 369.427 110.618 369.039 110.705C365.454 111.544 360.93 110.054 358.211 110.405C356.456 110.63 353.587 111.857 351.494 112.12C342.207 113.285 333.811 112.771 324.8 112.521C319.888 112.383 314.675 112.17 309.875 113.698C303.408 115.764 297.142 118.092 290.939 120.747C287.63 122.162 284.009 124.903 281.227 127.157C277.48 130.187 271.928 132.316 267.893 135.421C266.301 136.648 262.266 141.743 261.865 143.596C261.815 143.859 261.739 146.739 261.802 146.889C262.153 147.678 264.221 149.143 264.734 149.832C265.787 151.259 267.604 156.004 268.695 157.043C270.524 158.809 272.504 161.112 274.447 162.828C275.537 163.792 277.843 164.756 278.482 165.382C279.56 166.459 280.813 170.227 282.517 171.229C283.119 171.579 284.122 171.266 284.322 171.454L284.347 172.518L286.327 171.767C286.615 172.03 286.603 172.393 286.991 172.631C292.681 176.199 296.867 174.91 303.22 175.06C305.551 175.123 307.982 175.949 310.464 175.123C312.193 176.425 312.77 178.428 313.935 180.081V184.676C311.617 188.269 307.456 190.31 303.947 192.639C300.25 195.093 300.764 195.005 296.666 196.057C292.28 197.184 290.413 198.699 286.427 200.389C285.137 200.94 283.269 201.115 282.141 201.591C275.048 204.571 268.619 209.967 263.068 215.1C262.792 215.363 262.04 215.338 261.802 215.664C261.476 216.114 261.501 219.182 261.815 219.695C262.028 220.033 262.892 220.334 263.293 220.772C266.226 224.002 269.948 226.319 273.181 229.561C280.149 236.548 287.944 244.235 297.08 248.48C304.849 252.098 313.509 255.416 320.916 259.059C323.121 260.149 325.653 261.413 327.182 263.404C327.47 263.78 329.6 267.598 329.65 267.849C329.751 268.337 329.274 270.34 329.375 271.467C329.625 274.322 330.402 277.201 330.653 280.069C331.63 280.745 332.432 281.871 333.26 282.585C333.849 283.086 334.726 283.174 335.102 283.487C339.074 286.855 341.844 290.761 346.18 293.828C351.82 297.822 356.306 301.115 363.061 303.306C366.344 304.371 370.78 304.984 373.65 306.261C377.159 307.814 377.911 308.69 381.896 309.729C386.734 310.994 391.508 313.01 396.571 313.022C399.078 313.022 401.409 312.484 404.166 313.085C406.021 313.485 410.144 316.44 410.883 316.578C411.096 316.616 414.768 316.302 415.156 316.227C418.302 315.539 421.059 306.599 422.187 303.857C423.402 300.94 425.884 296.42 426.385 293.415C426.711 291.437 426.134 288.895 426.423 286.867C426.661 285.227 428.19 283.249 428.265 281.734C428.365 279.893 428.365 276.212 428.227 274.409C427.989 271.429 426.761 267.686 426.385 264.906C426.059 262.515 426.272 258.909 427.425 256.768C428.641 254.502 433.09 251.222 435.659 251.985C436.16 252.136 439.631 254.702 440.145 255.191C443.09 257.995 442.175 258.584 442.902 261.952C445.196 272.556 452.439 281.145 460.673 288.119C461.462 288.795 461.613 290.122 463.768 289.058C464.232 288.833 464.257 288.169 464.608 287.869C464.821 287.693 465.447 287.856 465.535 287.744C465.773 287.481 465.385 286.542 465.673 286.028C465.748 285.903 466.45 285.665 466.788 285.139C468.643 282.297 470.861 278.428 471.413 275.11C471.613 273.896 471.438 272.531 471.651 271.304C469.783 269.439 465.786 268.249 464.67 265.82C463.843 263.992 463.304 255.729 464.194 253.989C464.482 253.438 465.197 253.438 465.247 253.137C465.297 252.762 464.896 252.198 464.921 251.735C465.021 250.195 466.224 248.642 466.738 247.027C467.465 244.723 467.453 242.845 467.753 240.805C467.803 240.454 468.631 240.517 468.818 239.966C470.109 236.197 471.187 232.241 472.202 228.334C472.616 226.719 474.094 224.891 474.308 224.215C474.746 222.75 474.282 219.144 474.358 217.316C474.596 212.221 475.711 205.66 474.17 200.702C473.443 198.348 471.764 196.883 470.899 194.83C470.159 193.089 469.733 190.823 469.057 188.983C468.643 187.868 467.415 187.305 468.104 185.89C467.854 185.127 467.089 185.765 466.701 185.502C466.425 185.327 462.289 181.183 462.139 180.895C461.913 178.929 459.908 175.185 460.059 173.42C460.096 172.982 462.101 169.489 462.465 169.201C463.492 168.374 466.4 167.11 467.791 167.01C466.976 165.72 469.245 163.742 469.545 162.728C469.909 161.476 469.295 160.236 469.458 159.284C469.621 158.333 470.999 156.58 471.362 155.378C471.538 154.802 471.889 152.348 471.814 151.86C471.751 151.447 469.245 146.464 468.818 145.675C464.858 138.363 460.196 131.214 455.76 124.34C453.291 120.521 454.695 118.205 453.404 114.612C453.128 113.835 450.697 110.417 450.083 109.691L450.108 109.741Z" fill="#D0FFCD" fill-opacity="0.69"/>
</g>
<path d="M106.095 218L136.431 150.8H151.119L181.359 218H164.655L147.951 180.656C147.311 179.312 146.703 177.968 146.127 176.624C145.615 175.216 145.103 173.84 144.591 172.496C144.079 171.088 143.599 169.712 143.151 168.368C142.703 166.96 142.287 165.616 141.903 164.336L145.263 164.24C144.815 165.712 144.367 167.12 143.919 168.464C143.471 169.808 142.959 171.184 142.383 172.592C141.871 173.936 141.327 175.28 140.751 176.624C140.175 177.968 139.599 179.344 139.023 180.752L122.415 218H106.095ZM120.303 205.712L125.487 193.424H161.679L165.135 205.712H120.303ZM216.053 218.96C211.061 218.96 206.485 218.448 202.325 217.424C198.229 216.4 194.549 214.992 191.285 213.2C188.021 211.408 185.077 209.264 182.453 206.768L190.997 194.48C195.285 198.512 199.605 201.328 203.957 202.928C208.373 204.464 212.725 205.232 217.013 205.232C218.997 205.232 220.917 205.008 222.773 204.56C224.693 204.112 226.261 203.408 227.477 202.448C228.757 201.488 229.397 200.208 229.397 198.608C229.397 197.584 229.077 196.72 228.437 196.016C227.797 195.248 226.933 194.608 225.845 194.096C224.757 193.52 223.477 193.072 222.005 192.752C220.597 192.432 219.061 192.144 217.397 191.888C215.733 191.632 214.005 191.376 212.213 191.12C208.117 190.544 204.437 189.712 201.173 188.624C197.973 187.472 195.221 186.064 192.917 184.4C190.677 182.672 188.981 180.656 187.829 178.352C186.677 176.048 186.101 173.392 186.101 170.384C186.101 167.12 186.869 164.176 188.405 161.552C189.941 158.928 192.085 156.72 194.837 154.928C197.589 153.072 200.725 151.664 204.245 150.704C207.829 149.744 211.669 149.264 215.765 149.264C220.373 149.264 224.437 149.712 227.957 150.608C231.541 151.504 234.677 152.752 237.365 154.352C240.053 155.952 242.293 157.744 244.085 159.728L235.253 170.384C233.589 168.848 231.669 167.536 229.493 166.448C227.381 165.36 225.141 164.528 222.773 163.952C220.405 163.376 218.037 163.088 215.669 163.088C213.173 163.088 210.997 163.344 209.141 163.856C207.285 164.304 205.813 164.976 204.725 165.872C203.637 166.768 203.093 167.92 203.093 169.328C203.093 170.48 203.541 171.472 204.437 172.304C205.397 173.136 206.613 173.84 208.085 174.416C209.557 174.928 211.189 175.344 212.981 175.664C214.837 175.984 216.661 176.272 218.453 176.528C222.165 177.04 225.685 177.744 229.013 178.64C232.405 179.472 235.381 180.624 237.941 182.096C240.565 183.568 242.581 185.488 243.989 187.856C245.461 190.16 246.197 193.136 246.197 196.784C246.197 201.456 244.885 205.456 242.261 208.784C239.701 212.048 236.149 214.576 231.605 216.368C227.125 218.096 221.941 218.96 216.053 218.96ZM275.63 218V165.2H251.822V150.8H316.142V165.2H291.95V218H275.63ZM326.958 218V150.8H381.294V164.72H342.798V204.08H382.254V218H326.958ZM335.214 190.448V177.2H376.974V190.448H335.214ZM396.881 218V150.8H411.473L439.409 189.584L429.617 189.488L457.649 150.8H472.049V218H456.209V196.496C456.209 190.992 456.337 185.936 456.593 181.328C456.849 176.656 457.361 171.952 458.129 167.216L459.761 172.496L437.489 201.68H431.153L408.977 172.4L410.801 167.216C411.569 171.824 412.081 176.432 412.337 181.04C412.593 185.648 412.721 190.8 412.721 196.496V218H396.881ZM584.261 218V150.8H599.429L642.149 198.8L639.557 198.32C639.173 196.016 638.885 193.84 638.693 191.792C638.501 189.68 638.309 187.632 638.117 185.648C637.989 183.664 637.861 181.712 637.733 179.792C637.669 177.872 637.637 175.888 637.637 173.84C637.637 171.792 637.637 169.648 637.637 167.408V150.8H653.477V218H638.117L593.861 168.464L598.181 169.136C598.437 170.992 598.661 172.752 598.853 174.416C599.045 176.016 599.205 177.616 599.333 179.216C599.525 180.816 599.685 182.448 599.813 184.112C599.941 185.712 600.005 187.472 600.005 189.392C600.069 191.248 600.101 193.296 600.101 195.536V218H584.261Z" fill="#5F5454"/>
<path d="M105.82 249V231.164H116.116V233.244H108.108V239.016H115.18V241.096H108.108V249H105.82ZM125.839 249.312C123.655 249.312 121.939 248.549 120.691 247.024C119.443 245.481 118.819 243.167 118.819 240.082C118.819 236.979 119.443 234.665 120.691 233.14C121.939 231.615 123.655 230.852 125.839 230.852C128.023 230.852 129.739 231.615 130.987 233.14C132.235 234.665 132.859 236.979 132.859 240.082C132.859 243.167 132.235 245.481 130.987 247.024C129.739 248.549 128.023 249.312 125.839 249.312ZM125.839 247.206C127.278 247.206 128.405 246.669 129.219 245.594C130.051 244.519 130.467 242.899 130.467 240.732V239.432C130.467 237.265 130.051 235.645 129.219 234.57C128.405 233.495 127.278 232.958 125.839 232.958C124.418 232.958 123.291 233.495 122.459 234.57C121.627 235.645 121.211 237.265 121.211 239.432V240.732C121.211 242.899 121.627 244.519 122.459 245.594C123.291 246.669 124.418 247.206 125.839 247.206ZM136.465 249V231.164H143.641C145.392 231.164 146.718 231.623 147.619 232.542C148.521 233.443 148.971 234.631 148.971 236.104C148.971 237.213 148.694 238.175 148.139 238.99C147.585 239.787 146.805 240.359 145.799 240.706L149.387 249H146.839L143.537 241.122H138.753V249H136.465ZM138.753 239.042H143.563C144.482 239.042 145.21 238.773 145.747 238.236C146.302 237.699 146.579 236.988 146.579 236.104C146.579 235.22 146.319 234.527 145.799 234.024C145.279 233.504 144.534 233.244 143.563 233.244H138.753V239.042ZM161.989 249V233.244H157.127V231.164H169.139V233.244H164.277V249H161.989ZM178.117 249.312C175.933 249.312 174.217 248.549 172.969 247.024C171.721 245.481 171.097 243.167 171.097 240.082C171.097 236.979 171.721 234.665 172.969 233.14C174.217 231.615 175.933 230.852 178.117 230.852C180.301 230.852 182.017 231.615 183.265 233.14C184.513 234.665 185.137 236.979 185.137 240.082C185.137 243.167 184.513 245.481 183.265 247.024C182.017 248.549 180.301 249.312 178.117 249.312ZM178.117 247.206C179.555 247.206 180.682 246.669 181.497 245.594C182.329 244.519 182.745 242.899 182.745 240.732V239.432C182.745 237.265 182.329 235.645 181.497 234.57C180.682 233.495 179.555 232.958 178.117 232.958C176.695 232.958 175.569 233.495 174.737 234.57C173.905 235.645 173.489 237.265 173.489 239.432V240.732C173.489 242.899 173.905 244.519 174.737 245.594C175.569 246.669 176.695 247.206 178.117 247.206ZM194.619 249.312C192.781 249.312 191.343 248.792 190.303 247.752C189.263 246.712 188.743 245.195 188.743 243.202V231.164H191.031V243.332C191.031 244.597 191.351 245.559 191.993 246.218C192.634 246.877 193.509 247.206 194.619 247.206C195.745 247.206 196.621 246.877 197.245 246.218C197.886 245.559 198.207 244.597 198.207 243.332V231.164H200.495V243.202C200.495 245.195 199.975 246.712 198.935 247.752C197.895 248.792 196.456 249.312 194.619 249.312ZM204.649 249V231.164H211.825C213.576 231.164 214.902 231.623 215.803 232.542C216.705 233.443 217.155 234.631 217.155 236.104C217.155 237.213 216.878 238.175 216.323 238.99C215.769 239.787 214.989 240.359 213.983 240.706L217.571 249H215.023L211.721 241.122H206.937V249H204.649ZM206.937 239.042H211.747C212.666 239.042 213.394 238.773 213.931 238.236C214.486 237.699 214.763 236.988 214.763 236.104C214.763 235.22 214.503 234.527 213.983 234.024C213.463 233.504 212.718 233.244 211.747 233.244H206.937V239.042ZM220.556 249V231.164H222.844V249H220.556ZM232.244 249.312C231.17 249.312 230.173 249.139 229.254 248.792C228.336 248.445 227.599 247.882 227.044 247.102C226.507 246.322 226.238 245.273 226.238 243.956C226.238 243.869 226.238 243.774 226.238 243.67C226.256 243.549 226.264 243.471 226.264 243.436H228.63C228.63 243.453 228.622 243.531 228.604 243.67C228.604 243.791 228.604 243.895 228.604 243.982C228.604 245.074 228.942 245.889 229.618 246.426C230.294 246.946 231.135 247.206 232.14 247.206C233.336 247.206 234.255 246.955 234.896 246.452C235.555 245.932 235.884 245.195 235.884 244.242C235.884 243.601 235.711 243.081 235.364 242.682C235.035 242.283 234.593 241.954 234.038 241.694C233.501 241.434 232.903 241.2 232.244 240.992C231.586 240.784 230.918 240.559 230.242 240.316C229.584 240.073 228.977 239.761 228.422 239.38C227.885 238.999 227.443 238.513 227.096 237.924C226.767 237.317 226.602 236.555 226.602 235.636C226.602 234.544 226.854 233.643 227.356 232.932C227.876 232.221 228.561 231.701 229.41 231.372C230.277 231.025 231.23 230.852 232.27 230.852C233.31 230.852 234.246 231.025 235.078 231.372C235.928 231.701 236.604 232.239 237.106 232.984C237.609 233.712 237.86 234.674 237.86 235.87V236.182H235.494V235.792C235.494 234.873 235.191 234.171 234.584 233.686C233.978 233.201 233.224 232.958 232.322 232.958C231.386 232.958 230.598 233.157 229.956 233.556C229.332 233.955 229.02 234.587 229.02 235.454C229.02 236.061 229.185 236.555 229.514 236.936C229.861 237.317 230.303 237.638 230.84 237.898C231.395 238.141 232.002 238.366 232.66 238.574C233.319 238.782 233.978 239.007 234.636 239.25C235.295 239.493 235.893 239.805 236.43 240.186C236.985 240.567 237.427 241.053 237.756 241.642C238.103 242.214 238.276 242.951 238.276 243.852C238.276 245.187 238.008 246.253 237.47 247.05C236.95 247.847 236.24 248.428 235.338 248.792C234.437 249.139 233.406 249.312 232.244 249.312ZM245.267 249V233.244H240.405V231.164H252.417V233.244H247.555V249H245.267ZM252.759 252.224L253.799 249H252.759V246.192H255.359V248.766L254.111 252.224H252.759ZM265.787 249V231.164H276.785V233.244H268.075V238.834H275.641V240.914H268.075V246.92H276.941V249H265.787ZM278.81 249L284.504 239.744L279.33 231.164H282.034L285.856 237.534H285.882L289.808 231.164H292.252L287.078 239.536L292.824 249H290.12L285.752 241.72H285.726L281.254 249H278.81ZM295.265 249V231.164H301.635C302.813 231.164 303.793 231.381 304.573 231.814C305.37 232.247 305.968 232.854 306.367 233.634C306.765 234.414 306.965 235.324 306.965 236.364C306.965 237.404 306.748 238.323 306.315 239.12C305.881 239.917 305.266 240.541 304.469 240.992C303.689 241.425 302.744 241.642 301.635 241.642H297.553V249H295.265ZM297.553 239.562H301.557C302.475 239.562 303.203 239.267 303.741 238.678C304.295 238.089 304.573 237.317 304.573 236.364C304.573 235.393 304.313 234.631 303.793 234.076C303.273 233.521 302.527 233.244 301.557 233.244H297.553V239.562ZM306.608 249L312.276 231.164H315.214L320.882 249H318.412L317.19 245.022H310.118L308.896 249H306.608ZM310.742 242.942H316.54L314.122 235.012C314.07 234.804 314.01 234.544 313.94 234.232C313.871 233.92 313.81 233.643 313.758 233.4C313.724 233.157 313.706 233.036 313.706 233.036H313.602C313.602 233.036 313.576 233.166 313.524 233.426C313.49 233.669 313.438 233.946 313.368 234.258C313.316 234.57 313.256 234.821 313.186 235.012L310.742 242.942ZM325.18 249V233.244H320.318V231.164H332.33V233.244H327.468V249H325.18ZM340.442 249.312C339.367 249.312 338.37 249.139 337.452 248.792C336.533 248.445 335.796 247.882 335.242 247.102C334.704 246.322 334.436 245.273 334.436 243.956C334.436 243.869 334.436 243.774 334.436 243.67C334.453 243.549 334.462 243.471 334.462 243.436H336.828C336.828 243.453 336.819 243.531 336.802 243.67C336.802 243.791 336.802 243.895 336.802 243.982C336.802 245.074 337.14 245.889 337.816 246.426C338.492 246.946 339.332 247.206 340.338 247.206C341.534 247.206 342.452 246.955 343.094 246.452C343.752 245.932 344.082 245.195 344.082 244.242C344.082 243.601 343.908 243.081 343.562 242.682C343.232 242.283 342.79 241.954 342.236 241.694C341.698 241.434 341.1 241.2 340.442 240.992C339.783 240.784 339.116 240.559 338.44 240.316C337.781 240.073 337.174 239.761 336.62 239.38C336.082 238.999 335.64 238.513 335.294 237.924C334.964 237.317 334.8 236.555 334.8 235.636C334.8 234.544 335.051 233.643 335.554 232.932C336.074 232.221 336.758 231.701 337.608 231.372C338.474 231.025 339.428 230.852 340.468 230.852C341.508 230.852 342.444 231.025 343.276 231.372C344.125 231.701 344.801 232.239 345.304 232.984C345.806 233.712 346.058 234.674 346.058 235.87V236.182H343.692V235.792C343.692 234.873 343.388 234.171 342.782 233.686C342.175 233.201 341.421 232.958 340.52 232.958C339.584 232.958 338.795 233.157 338.154 233.556C337.53 233.955 337.218 234.587 337.218 235.454C337.218 236.061 337.382 236.555 337.712 236.936C338.058 237.317 338.5 237.638 339.038 237.898C339.592 238.141 340.199 238.366 340.858 238.574C341.516 238.782 342.175 239.007 342.834 239.25C343.492 239.493 344.09 239.805 344.628 240.186C345.182 240.567 345.624 241.053 345.954 241.642C346.3 242.214 346.474 242.951 346.474 243.852C346.474 245.187 346.205 246.253 345.668 247.05C345.148 247.847 344.437 248.428 343.536 248.792C342.634 249.139 341.603 249.312 340.442 249.312ZM353.351 249L359.019 231.164H361.957L367.625 249H365.155L363.933 245.022H356.861L355.639 249H353.351ZM357.485 242.942H363.283L360.865 235.012C360.813 234.804 360.752 234.544 360.683 234.232C360.613 233.92 360.553 233.643 360.501 233.4C360.466 233.157 360.449 233.036 360.449 233.036H360.345C360.345 233.036 360.319 233.166 360.267 233.426C360.232 233.669 360.18 233.946 360.111 234.258C360.059 234.57 359.998 234.821 359.929 235.012L357.485 242.942ZM369.935 249V231.164H371.911L378.541 242.37C378.68 242.595 378.827 242.899 378.983 243.28C379.157 243.661 379.304 244.008 379.425 244.32C379.564 244.615 379.633 244.762 379.633 244.762L379.711 244.736C379.711 244.736 379.703 244.58 379.685 244.268C379.685 243.956 379.677 243.609 379.659 243.228C379.642 242.847 379.633 242.561 379.633 242.37V231.164H381.687V249H379.789L373.107 237.638C372.969 237.378 372.804 237.066 372.613 236.702C372.44 236.321 372.284 235.983 372.145 235.688C372.024 235.393 371.963 235.246 371.963 235.246L371.885 235.272C371.885 235.272 371.894 235.419 371.911 235.714C371.929 236.009 371.946 236.347 371.963 236.728C371.981 237.092 371.989 237.395 371.989 237.638V249H369.935ZM385.842 249V231.164H391.38C393.495 231.164 395.15 231.892 396.346 233.348C397.542 234.787 398.14 236.945 398.14 239.822C398.14 242.873 397.542 245.169 396.346 246.712C395.15 248.237 393.495 249 391.38 249H385.842ZM388.13 246.92H391.172C392.576 246.92 393.685 246.391 394.5 245.334C395.332 244.259 395.748 242.639 395.748 240.472V239.172C395.748 237.179 395.332 235.697 394.5 234.726C393.685 233.738 392.576 233.244 391.172 233.244H388.13V246.92ZM408.185 249V231.164H419.183V233.244H410.473V238.834H418.039V240.914H410.473V246.92H419.339V249H408.185ZM421.208 249L426.902 239.744L421.728 231.164H424.432L428.254 237.534H428.28L432.206 231.164H434.65L429.476 239.536L435.222 249H432.518L428.15 241.72H428.124L423.652 249H421.208ZM443.954 249.312C441.649 249.312 439.898 248.549 438.702 247.024C437.524 245.481 436.934 243.167 436.934 240.082C436.934 236.979 437.524 234.665 438.702 233.14C439.898 231.615 441.649 230.852 443.954 230.852C445.168 230.852 446.242 231.103 447.178 231.606C448.114 232.091 448.842 232.837 449.362 233.842C449.9 234.83 450.168 236.087 450.168 237.612H447.828C447.828 236.052 447.473 234.891 446.762 234.128C446.069 233.348 445.133 232.958 443.954 232.958C442.394 232.958 441.233 233.495 440.47 234.57C439.708 235.645 439.326 237.265 439.326 239.432V240.732C439.326 242.899 439.708 244.519 440.47 245.594C441.233 246.669 442.394 247.206 443.954 247.206C445.15 247.206 446.104 246.825 446.814 246.062C447.542 245.299 447.906 244.147 447.906 242.604H450.168C450.168 244.129 449.9 245.395 449.362 246.4C448.842 247.388 448.114 248.125 447.178 248.61C446.242 249.078 445.168 249.312 443.954 249.312ZM453.569 249V231.164H455.857V238.834H463.033V231.164H465.321V249H463.033V240.914H455.857V249H453.569ZM467.63 249L473.298 231.164H476.236L481.904 249H479.434L478.212 245.022H471.14L469.918 249H467.63ZM471.764 242.942H477.562L475.144 235.012C475.092 234.804 475.031 234.544 474.962 234.232C474.892 233.92 474.832 233.643 474.78 233.4C474.745 233.157 474.728 233.036 474.728 233.036H474.624C474.624 233.036 474.598 233.166 474.546 233.426C474.511 233.669 474.459 233.946 474.39 234.258C474.338 234.57 474.277 234.821 474.208 235.012L471.764 242.942ZM484.214 249V231.164H486.19L492.82 242.37C492.959 242.595 493.106 242.899 493.262 243.28C493.436 243.661 493.583 244.008 493.704 244.32C493.843 244.615 493.912 244.762 493.912 244.762L493.99 244.736C493.99 244.736 493.982 244.58 493.964 244.268C493.964 243.956 493.956 243.609 493.938 243.228C493.921 242.847 493.912 242.561 493.912 242.37V231.164H495.966V249H494.068L487.386 237.638C487.248 237.378 487.083 237.066 486.892 236.702C486.719 236.321 486.563 235.983 486.424 235.688C486.303 235.393 486.242 235.246 486.242 235.246L486.164 235.272C486.164 235.272 486.173 235.419 486.19 235.714C486.208 236.009 486.225 236.347 486.242 236.728C486.26 237.092 486.268 237.395 486.268 237.638V249H484.214ZM506.595 249.312C504.342 249.312 502.609 248.549 501.395 247.024C500.182 245.481 499.575 243.167 499.575 240.082C499.575 236.979 500.208 234.665 501.473 233.14C502.756 231.615 504.507 230.852 506.725 230.852C507.973 230.852 509.083 231.086 510.053 231.554C511.024 232.022 511.787 232.733 512.341 233.686C512.913 234.622 513.199 235.809 513.199 237.248H510.859C510.859 235.757 510.478 234.674 509.715 233.998C508.953 233.305 507.956 232.958 506.725 232.958C505.252 232.958 504.091 233.495 503.241 234.57C502.392 235.645 501.967 237.265 501.967 239.432V240.732C501.967 242.899 502.366 244.519 503.163 245.594C503.961 246.669 505.105 247.206 506.595 247.206C508.086 247.206 509.169 246.79 509.845 245.958C510.521 245.109 510.859 243.835 510.859 242.136V240.758L511.821 241.72H506.231V239.718H513.199V249H511.691L511.197 247.024C510.66 247.821 510.001 248.402 509.221 248.766C508.441 249.13 507.566 249.312 506.595 249.312ZM517.221 249V231.164H528.219V233.244H519.509V238.834H527.075V240.914H519.509V246.92H528.375V249H517.221ZM543.648 249.312C542.573 249.312 541.577 249.139 540.658 248.792C539.739 248.445 539.003 247.882 538.448 247.102C537.911 246.322 537.642 245.273 537.642 243.956C537.642 243.869 537.642 243.774 537.642 243.67C537.659 243.549 537.668 243.471 537.668 243.436H540.034C540.034 243.453 540.025 243.531 540.008 243.67C540.008 243.791 540.008 243.895 540.008 243.982C540.008 245.074 540.346 245.889 541.022 246.426C541.698 246.946 542.539 247.206 543.544 247.206C544.74 247.206 545.659 246.955 546.3 246.452C546.959 245.932 547.288 245.195 547.288 244.242C547.288 243.601 547.115 243.081 546.768 242.682C546.439 242.283 545.997 241.954 545.442 241.694C544.905 241.434 544.307 241.2 543.648 240.992C542.989 240.784 542.322 240.559 541.646 240.316C540.987 240.073 540.381 239.761 539.826 239.38C539.289 238.999 538.847 238.513 538.5 237.924C538.171 237.317 538.006 236.555 538.006 235.636C538.006 234.544 538.257 233.643 538.76 232.932C539.28 232.221 539.965 231.701 540.814 231.372C541.681 231.025 542.634 230.852 543.674 230.852C544.714 230.852 545.65 231.025 546.482 231.372C547.331 231.701 548.007 232.239 548.51 232.984C549.013 233.712 549.264 234.674 549.264 235.87V236.182H546.898V235.792C546.898 234.873 546.595 234.171 545.988 233.686C545.381 233.201 544.627 232.958 543.726 232.958C542.79 232.958 542.001 233.157 541.36 233.556C540.736 233.955 540.424 234.587 540.424 235.454C540.424 236.061 540.589 236.555 540.918 236.936C541.265 237.317 541.707 237.638 542.244 237.898C542.799 238.141 543.405 238.366 544.064 238.574C544.723 238.782 545.381 239.007 546.04 239.25C546.699 239.493 547.297 239.805 547.834 240.186C548.389 240.567 548.831 241.053 549.16 241.642C549.507 242.214 549.68 242.951 549.68 243.852C549.68 245.187 549.411 246.253 548.874 247.05C548.354 247.847 547.643 248.428 546.742 248.792C545.841 249.139 544.809 249.312 543.648 249.312ZM556.671 249V233.244H551.809V231.164H563.821V233.244H558.959V249H556.671ZM572.556 249.312C570.719 249.312 569.28 248.792 568.24 247.752C567.2 246.712 566.68 245.195 566.68 243.202V231.164H568.968V243.332C568.968 244.597 569.289 245.559 569.93 246.218C570.572 246.877 571.447 247.206 572.556 247.206C573.683 247.206 574.558 246.877 575.182 246.218C575.824 245.559 576.144 244.597 576.144 243.332V231.164H578.432V243.202C578.432 245.195 577.912 246.712 576.872 247.752C575.832 248.792 574.394 249.312 572.556 249.312ZM582.587 249V231.164H588.125C590.24 231.164 591.895 231.892 593.091 233.348C594.287 234.787 594.885 236.945 594.885 239.822C594.885 242.873 594.287 245.169 593.091 246.712C591.895 248.237 590.24 249 588.125 249H582.587ZM584.875 246.92H587.917C589.321 246.92 590.43 246.391 591.245 245.334C592.077 244.259 592.493 242.639 592.493 240.472V239.172C592.493 237.179 592.077 235.697 591.245 234.726C590.43 233.738 589.321 233.244 587.917 233.244H584.875V246.92ZM598.494 249V231.164H609.492V233.244H600.782V238.834H608.348V240.914H600.782V246.92H609.648V249H598.494ZM613.232 249V231.164H615.208L621.838 242.37C621.977 242.595 622.124 242.899 622.28 243.28C622.454 243.661 622.601 244.008 622.722 244.32C622.861 244.615 622.93 244.762 622.93 244.762L623.008 244.736C623.008 244.736 623 244.58 622.982 244.268C622.982 243.956 622.974 243.609 622.956 243.228C622.939 242.847 622.93 242.561 622.93 242.37V231.164H624.984V249H623.086L616.404 237.638C616.266 237.378 616.101 237.066 615.91 236.702C615.737 236.321 615.581 235.983 615.442 235.688C615.321 235.393 615.26 235.246 615.26 235.246L615.182 235.272C615.182 235.272 615.191 235.419 615.208 235.714C615.226 236.009 615.243 236.347 615.26 236.728C615.278 237.092 615.286 237.395 615.286 237.638V249H613.232ZM632.675 249V233.244H627.813V231.164H639.825V233.244H634.963V249H632.675ZM647.936 249.312C646.862 249.312 645.865 249.139 644.946 248.792C644.028 248.445 643.291 247.882 642.736 247.102C642.199 246.322 641.93 245.273 641.93 243.956C641.93 243.869 641.93 243.774 641.93 243.67C641.948 243.549 641.956 243.471 641.956 243.436H644.322C644.322 243.453 644.314 243.531 644.296 243.67C644.296 243.791 644.296 243.895 644.296 243.982C644.296 245.074 644.634 245.889 645.31 246.426C645.986 246.946 646.827 247.206 647.832 247.206C649.028 247.206 649.947 246.955 650.588 246.452C651.247 245.932 651.576 245.195 651.576 244.242C651.576 243.601 651.403 243.081 651.056 242.682C650.727 242.283 650.285 241.954 649.73 241.694C649.193 241.434 648.595 241.2 647.936 240.992C647.278 240.784 646.61 240.559 645.934 240.316C645.276 240.073 644.669 239.761 644.114 239.38C643.577 238.999 643.135 238.513 642.788 237.924C642.459 237.317 642.294 236.555 642.294 235.636C642.294 234.544 642.546 233.643 643.048 232.932C643.568 232.221 644.253 231.701 645.102 231.372C645.969 231.025 646.922 230.852 647.962 230.852C649.002 230.852 649.938 231.025 650.77 231.372C651.62 231.701 652.296 232.239 652.798 232.984C653.301 233.712 653.552 234.674 653.552 235.87V236.182H651.186V235.792C651.186 234.873 650.883 234.171 650.276 233.686C649.67 233.201 648.916 232.958 648.014 232.958C647.078 232.958 646.29 233.157 645.648 233.556C645.024 233.955 644.712 234.587 644.712 235.454C644.712 236.061 644.877 236.555 645.206 236.936C645.553 237.317 645.995 237.638 646.532 237.898C647.087 238.141 647.694 238.366 648.352 238.574C649.011 238.782 649.67 239.007 650.328 239.25C650.987 239.493 651.585 239.805 652.122 240.186C652.677 240.567 653.119 241.053 653.448 241.642C653.795 242.214 653.968 242.951 653.968 243.852C653.968 245.187 653.7 246.253 653.162 247.05C652.642 247.847 651.932 248.428 651.03 248.792C650.129 249.139 649.098 249.312 647.936 249.312Z" fill="#5F5454"/>
<g clip-path="url(#clip1_549_3142)">
<path d="M538.234 140.187C538.175 140.515 538.172 140.662 538.149 141.04C538.144 141.114 538.004 141.146 538.002 141.213C537.985 141.669 538.511 142.54 538.784 142.93C538.9 143.096 539.136 143.207 539.186 143.307C539.272 143.483 539.127 143.768 539.151 143.983C539.283 145.134 539.975 146.523 540.616 147.484C540.884 147.888 541.477 148.453 541.648 148.864C541.78 149.186 541.655 149.614 541.852 150.013C542.283 150.89 543.533 151.966 543.881 152.684C544.082 153.099 544.058 153.583 544.398 153.979C544.903 154.568 546.224 154.808 546.868 155.246C547.647 155.772 547.976 156.264 549.062 156.442C549.481 156.51 550.142 156.398 550.421 156.461C550.553 156.49 550.747 156.707 550.94 156.774C551.987 157.14 552.085 157.08 553.055 157.717C554.803 158.864 556.708 160.239 558.35 161.551C559.858 162.758 561.561 164.899 562.813 166.397C563.238 166.903 563.511 167.446 563.864 167.857C563.995 168.01 564.401 168.193 564.47 168.385C564.522 168.524 564.44 168.744 564.511 168.943C564.586 169.15 564.878 169.214 564.987 169.454C565.256 170.058 565.405 170.936 565.63 171.532C565.837 172.076 566.34 172.782 566.481 173.309C566.721 174.211 566.689 175.163 566.834 176.052C566.932 176.644 567.518 178.9 567.446 179.281C567.424 179.398 567.266 179.52 567.241 179.708C567.199 180.023 567.447 181.599 567.55 181.941C567.741 182.568 568.119 184.324 568.157 184.998C568.173 185.271 567.979 185.544 567.991 185.777C568.06 187.257 567.483 188.776 567.428 190.248C567.418 190.556 567.529 190.909 567.507 191.27C567.327 194.148 565.43 196.754 564.488 199.362C564.33 199.796 564.229 200.486 564.054 200.931C563.834 201.498 562.541 202.993 562.176 203.643C561.754 204.391 561.519 205.877 561.07 206.787C560.812 207.315 560.08 207.681 560.678 208.234C561.186 208.706 562.625 208.792 563.29 209.042C563.819 209.24 564.069 209.748 564.584 209.77C564.708 209.774 564.816 209.666 564.954 209.694C565.113 209.722 566.147 210.037 566.3 210.105C566.847 210.346 566.849 210.729 567.165 210.993C567.194 211.018 567.786 211.333 567.824 211.342C568.166 211.422 568.577 211.158 568.883 211.176C568.981 211.182 569.015 211.335 569.094 211.365C570.037 211.755 570.475 211.653 571.29 212.441C571.583 212.724 572.075 213.522 572.267 213.65C572.483 213.795 572.961 213.781 573.244 213.88C574.217 214.223 576.043 215.245 576.459 216.212C576.876 217.178 576.181 218.331 575.138 218.461C574.665 218.521 574.585 218.241 574.427 218.25C574.112 218.267 573.439 218.614 573.055 218.589C572.961 218.582 572.889 218.377 572.715 218.336C572.519 218.29 572.407 218.439 572.254 218.437C571.851 218.433 570.935 218.027 570.665 218.026C570.483 218.026 570.11 218.249 569.777 218.277C569.104 218.331 568.271 218.041 567.512 218.163C567.197 218.214 566.841 218.423 566.619 218.428C566.414 218.433 566.19 218.226 565.948 218.212C564.549 218.128 562.86 218.479 561.559 218.385C561.289 218.364 560.933 218.181 560.587 218.148C559.418 218.034 558.561 218.262 557.463 218.363C557.241 218.381 557.061 218.235 556.771 218.307C556.48 218.38 556.338 218.645 556.075 218.742C555.016 219.134 554.694 218.924 553.713 218.901C553.366 218.892 552.505 219.098 552.357 218.828L552.178 218.865C552.105 219.452 551.892 218.88 551.781 218.789C551.474 218.539 551.065 218.879 550.78 218.93C549.869 219.103 549.008 219.508 548.3 219.636C547.525 219.774 547.055 219.57 546.057 219.937C545.198 220.252 544.399 221.024 543.441 221.033C543.199 221.035 543.171 220.818 542.979 220.754C542.705 220.664 542.519 220.828 542.194 220.602C542.132 220.558 541.376 219.717 541.309 219.621C540.892 219.007 541.058 217.835 540.149 217.838C538.881 217.843 537.42 218.464 536.159 218.632C534.594 218.838 532.635 218.435 530.978 218.91C530.518 219.043 530.115 219.352 529.611 219.388C529.428 219.402 529.486 219.227 529.302 219.241C528.737 219.284 527.946 219.591 527.367 219.589C527.148 219.588 526.932 219.392 526.704 219.395C526.386 219.4 526.015 219.569 525.682 219.597C523.807 219.753 521.806 219.579 519.917 219.535C519.5 219.524 518.883 219.676 518.492 219.63C518.1 219.583 517.633 219.329 517.213 219.238C516.07 218.992 515.028 218.932 513.819 218.636C512.35 218.277 510.946 217.758 509.547 217.165C509.11 216.981 508.482 216.98 507.975 216.737C507.309 216.42 506.37 215.58 505.616 215.545C505.304 215.532 505.012 215.728 504.691 215.603C504.533 215.543 504.459 215.361 504.329 215.295C504.07 215.161 503.503 215.117 503.168 214.976C502.728 214.786 502.38 214.431 501.972 214.225C501.271 213.865 501.566 214.188 500.957 213.563C500.772 213.372 499.97 213.103 499.707 212.89C499.461 212.691 499.286 212.324 499.011 212.114C498.354 211.612 496.977 210.592 496.472 209.973C496.148 209.57 496.096 208.958 495.883 208.666C495.671 208.373 494.945 207.989 494.651 207.476C494.341 206.931 494.321 206.329 493.959 205.711C493.452 204.839 493.037 203.826 492.483 202.937C492.364 202.745 491.936 202.207 491.732 202.236C491.551 202.259 490.865 202.852 490.676 203.017C490.6 203.082 490.602 203.255 490.461 203.377C489.685 204.054 488.911 203.985 488.156 204.356C487.849 204.508 487.454 205.018 487.167 205.236C486.957 205.396 486.447 205.39 486.702 205.774C486.522 205.87 486.246 205.77 486.095 205.827C485.556 206.034 484.226 208.142 483.756 208.707C483.591 208.907 483.242 209.118 483.032 209.357C482.275 210.22 482.123 211.252 480.693 211.271C480.331 211.275 479.541 210.884 479.414 210.521C478.939 209.154 479.308 207.611 479.989 206.374C480.181 206.026 480.644 205.529 480.834 205.157C481.024 204.786 480.988 204.35 481.147 203.992C481.286 203.681 482.002 203.019 482.069 202.826C482.135 202.632 482.028 202.332 482.116 202.047C482.189 201.806 482.615 201.06 482.778 200.668C483.795 198.231 484.719 195.74 485.44 193.188C486.095 190.861 487.186 188.869 487.868 186.56C487.972 186.206 487.99 185.614 488.109 185.267C488.181 185.052 488.438 184.864 488.463 184.609C488.487 184.354 488.341 184.205 488.347 184.04C488.373 183.483 488.799 182.348 488.831 181.789C488.85 181.489 488.597 180.705 488.676 180.476C489.284 180.02 489.66 179.357 490.179 178.809C490.287 178.341 489.993 177.652 490.029 177.256C490.045 177.09 490.221 176.994 490.257 176.843C490.485 175.878 490.735 174.37 490.868 173.375C490.959 172.714 490.876 171.966 491.022 171.38C491.096 171.092 491.189 170.88 491.377 170.646L491.056 170.438C491.172 170.015 491.128 169.585 491.192 169.153C491.245 168.793 491.442 167.641 491.539 167.365C491.585 167.236 491.914 166.683 492.022 166.478C492.605 165.364 493.355 164.333 493.938 163.223C494.175 162.772 494.443 161.839 494.691 161.459C494.82 161.259 495.181 161.109 495.35 160.925C496.169 160.043 496.716 159.305 497.635 158.483C498.553 157.66 499.309 156.514 500.209 155.748C501.168 154.931 502.304 154.266 503.317 153.368C505.206 151.688 506.951 150.524 509.112 149.214C509.659 148.883 510.454 148.059 510.872 147.877C511.327 147.681 511.851 147.777 512.356 147.648C512.895 147.508 513.332 147.076 513.778 146.968C515.123 146.641 516.497 146.228 517.832 145.932C519.07 145.656 518.648 145.832 519.72 146.026C521.014 146.261 521.516 146.215 522.81 146.111C523.434 146.061 523.912 146.302 524.346 146.347C525.048 146.42 525.779 146.338 526.483 146.517C526.618 146.446 526.676 145.609 526.757 145.403C526.893 145.059 527.291 144.455 527.61 144.274C528.335 143.86 528.797 143.842 529.15 142.952C529.71 141.543 530.184 140.774 531.029 139.514C531.765 138.416 532.051 137.472 532.61 136.303C533.057 135.37 532.918 135.648 533.077 134.654C533.162 134.128 534.212 131.651 534.508 131.202C534.562 131.121 534.936 130.935 535.009 130.723C535.411 130.741 535.918 130.605 536.306 130.669C536.663 130.725 537.542 131.308 537.673 131.654C537.86 132.148 537.715 132.61 537.779 133.087C537.91 134.055 538.096 134.722 538.097 135.72C538.098 135.969 537.96 136.24 537.978 136.456C538.095 137.697 538.44 138.951 538.218 140.204L538.234 140.187ZM540.943 158.663C540.714 158.484 540.246 158.34 539.987 158.096C539.531 157.667 539.49 156.977 538.635 157.524C538.379 157.686 537.951 158.209 537.707 158.365C537.364 158.588 536.689 158.892 536.316 159.135C535.678 159.554 535.234 159.951 534.546 160.291C531.542 161.779 530.337 163.934 528.392 166.48C527.999 166.993 526.881 167.88 526.388 168.343C526.114 168.598 525.62 169.594 525.413 169.916C524.508 171.322 523.43 172.699 522.201 173.822C522.109 173.907 522.184 174.078 521.963 174.167C521.202 174.478 519.592 173.892 519.272 173.105C519.23 172.997 518.903 171.72 518.901 171.643C518.899 171.587 519.192 170.662 519.236 170.587C519.375 170.352 519.554 170.319 519.676 170.151C519.749 170.053 520.45 168.41 520.518 168.206C520.791 167.362 520.75 166.398 520.881 165.54C521.011 164.682 521.508 163.745 521.634 162.884C521.674 162.736 521.291 162.698 521.224 162.695C521.02 162.69 520.792 162.693 520.602 162.772C520.378 162.864 520.461 163.074 520.366 163.116C519.498 163.516 518.27 163.371 517.596 163.601C517.161 163.75 516.495 164.212 515.976 164.388C513.674 165.167 511.511 165.471 509.205 165.875C507.948 166.095 506.611 166.311 505.469 166.95C503.931 167.812 502.458 168.732 501.018 169.731C500.25 170.263 499.471 171.151 498.88 171.87C498.085 172.838 496.783 173.669 495.918 174.671C495.577 175.066 494.815 176.576 494.81 177.069C494.811 177.139 494.941 177.878 494.965 177.913C495.095 178.096 495.698 178.362 495.864 178.511C496.206 178.821 496.916 179.937 497.247 180.146C497.804 180.501 498.428 180.986 499.012 181.323C499.339 181.512 499.976 181.639 500.171 181.765C500.501 181.984 501.016 182.881 501.502 183.048C501.673 183.106 501.912 182.974 501.973 183.011L502.035 183.282L502.5 182.987C502.587 183.039 502.602 183.133 502.713 183.173C504.347 183.788 505.345 183.242 506.969 182.951C507.565 182.846 508.227 182.93 508.815 182.591C509.323 182.833 509.574 183.315 509.956 183.676L510.196 184.848C509.793 185.885 508.84 186.622 508.069 187.398C507.256 188.216 507.382 188.167 506.394 188.648C505.337 189.163 504.94 189.646 504.014 190.284C503.715 190.492 503.249 190.634 502.986 190.814C501.337 191.942 499.982 193.652 498.836 195.25C498.78 195.331 498.587 195.364 498.544 195.459C498.484 195.591 498.65 196.373 498.757 196.487C498.828 196.563 499.064 196.594 499.189 196.685C500.103 197.357 501.171 197.755 502.162 198.415C504.298 199.836 506.682 201.393 509.227 202.001C511.392 202.521 513.768 202.919 515.842 203.464C516.46 203.627 517.17 203.818 517.662 204.247C517.755 204.328 518.496 205.192 518.522 205.253C518.573 205.372 518.556 205.908 518.64 206.19C518.852 206.906 519.2 207.6 519.413 208.319C519.697 208.44 519.959 208.686 520.207 208.825C520.383 208.923 520.611 208.9 520.723 208.96C521.909 209.613 522.817 210.466 524.079 211.024C525.722 211.75 527.035 212.357 528.868 212.566C529.758 212.667 530.919 212.593 531.716 212.77C532.689 212.984 532.926 213.169 533.994 213.227C535.291 213.299 536.61 213.565 537.899 213.306C538.537 213.176 539.102 212.917 539.835 212.928C540.328 212.934 541.53 213.473 541.726 213.47C541.782 213.469 542.7 213.198 542.795 213.159C543.559 212.82 543.795 210.396 543.94 209.638C544.097 208.831 544.493 207.549 544.465 206.756C544.445 206.235 544.166 205.616 544.133 205.084C544.109 204.653 544.395 204.069 544.335 203.678C544.265 203.203 544.073 202.264 543.944 201.811C543.729 201.064 543.221 200.172 542.981 199.483C542.774 198.889 542.64 197.958 542.822 197.352C543.014 196.711 543.975 195.643 544.668 195.705C544.804 195.717 545.82 196.192 545.977 196.29C546.872 196.852 546.67 197.05 547.03 197.872C548.165 200.458 550.455 202.274 552.913 203.626C553.149 203.757 553.256 204.088 553.749 203.705C553.855 203.623 553.827 203.452 553.901 203.358C553.946 203.302 554.114 203.311 554.13 203.278C554.177 203.198 554.03 202.979 554.076 202.833C554.089 202.797 554.255 202.7 554.314 202.548C554.638 201.727 555.001 200.625 554.968 199.749C554.956 199.429 554.841 199.09 554.831 198.766C554.259 198.387 553.18 198.291 552.77 197.729C552.464 197.306 551.897 195.225 552.033 194.735C552.077 194.58 552.259 194.542 552.256 194.463C552.25 194.365 552.118 194.242 552.1 194.122C552.046 193.724 552.271 193.266 552.318 192.827C552.383 192.201 552.282 191.723 552.252 191.187C552.247 191.095 552.46 191.068 552.48 190.917C552.612 189.889 552.68 188.824 552.735 187.774C552.756 187.341 553.038 186.798 553.057 186.614C553.092 186.217 552.786 185.322 552.71 184.851C552.506 183.539 552.448 181.807 551.798 180.622C551.491 180.059 550.987 179.773 550.66 179.294C550.382 178.888 550.155 178.332 549.887 177.897C549.724 177.635 549.382 177.555 549.484 177.158C549.381 176.976 549.219 177.179 549.107 177.132C549.027 177.101 547.76 176.259 547.706 176.193C547.547 175.703 546.842 174.852 546.788 174.394C546.775 174.28 547.103 173.285 547.181 173.192C547.399 172.928 548.073 172.455 548.422 172.357C548.148 172.07 548.622 171.448 548.645 171.173C548.673 170.835 548.452 170.551 548.444 170.3C548.436 170.048 548.695 169.53 548.725 169.204C548.74 169.048 548.702 168.404 548.657 168.283C548.62 168.181 547.723 167.04 547.573 166.86C546.185 165.2 544.627 163.618 543.141 162.095C542.314 161.249 542.55 160.585 542.035 159.735C541.924 159.551 541.128 158.805 540.934 158.652L540.943 158.663Z" fill="#5F5454"/>
</g>
<defs>
<clipPath id="clip0_549_3142">
<rect width="362" height="361" fill="white" transform="translate(178)"/>
</clipPath>
<clipPath id="clip1_549_3142">
<rect width="94" height="94" fill="white" transform="translate(466 144.785) rotate(-11.5275)"/>
</clipPath>
</defs>
</svg>
