<svg width="98" height="91" viewBox="0 0 98 91" fill="none" xmlns="http://www.w3.org/2000/svg">
<path d="M59.0346 9.53585C58.9753 9.86403 58.9721 10.0111 58.9494 10.3884C58.9446 10.4625 58.8049 10.4944 58.802 10.5615C58.7854 11.0174 59.3118 11.8883 59.584 12.2786C59.7008 12.4444 59.9362 12.5561 59.9864 12.6557C60.072 12.8312 59.9276 13.1168 59.9515 13.3316C60.0833 14.4826 60.7752 15.872 61.4161 16.8326C61.6846 17.237 62.278 17.8014 62.4482 18.2126C62.5804 18.535 62.4551 18.9631 62.6527 19.362C63.084 20.239 64.333 21.3151 64.6819 22.0325C64.8828 22.4474 64.8586 22.9314 65.1985 23.3279C65.7039 23.9169 67.0248 24.1566 67.6687 24.5942C68.447 25.1209 68.7765 25.6127 69.8622 25.7905C70.2812 25.8581 70.9426 25.7465 71.2211 25.8095C71.3534 25.8391 71.547 26.0558 71.74 26.1229C72.7876 26.4882 72.885 26.4284 73.8553 27.0657C75.6037 28.213 77.5082 29.588 79.1507 30.9C80.6588 32.1064 82.361 34.248 83.6131 35.7461C84.0383 36.2516 84.3118 36.7948 84.6645 37.2053C84.7954 37.3583 85.2014 37.5416 85.2705 37.7338C85.3222 37.873 85.2407 38.0926 85.3111 38.2912C85.3867 38.4987 85.6786 38.5623 85.7875 38.8029C86.0568 39.4068 86.2059 40.2847 86.4305 40.8811C86.6376 41.4244 87.1403 42.1304 87.281 42.6574C87.5215 43.5599 87.4898 44.5114 87.6345 45.4002C87.732 45.9925 88.3184 48.2486 88.2466 48.6292C88.2241 48.7469 88.0663 48.8689 88.0416 49.057C87.9995 49.3717 88.2479 50.9481 88.3508 51.2897C88.5417 51.9163 88.9198 53.6725 88.9577 54.3468C88.9735 54.6198 88.78 54.8921 88.7911 55.1261C88.8605 56.6059 88.2834 58.1244 88.2283 59.5963C88.2181 59.9045 88.3299 60.2577 88.3072 60.6183C88.127 63.4965 86.2307 66.1026 85.288 68.7104C85.1309 69.1451 85.0291 69.8346 84.8541 70.2796C84.6344 70.8468 83.3418 72.3415 82.9762 72.9917C82.5542 73.7399 82.3191 75.2252 81.8704 76.1352C81.6128 76.6635 80.8804 77.0292 81.4781 77.5827C81.9862 78.0547 83.4252 78.1405 84.0906 78.3908C84.6193 78.5891 84.869 79.0971 85.3848 79.1184C85.5087 79.1231 85.6161 79.0146 85.7547 79.0429C85.9131 79.0705 86.9471 79.3853 87.1006 79.4538C87.6479 79.6949 87.6495 80.0772 87.9659 80.3421C87.9941 80.3663 88.5864 80.6814 88.6247 80.6902C88.9665 80.7702 89.3777 80.5067 89.6835 80.5241C89.7812 80.5308 89.8156 80.6835 89.8949 80.7139C90.8379 81.1039 91.2754 81.0013 92.0905 81.79C92.384 82.0729 92.8755 82.871 93.0675 82.9982C93.2832 83.1438 93.7619 83.1294 94.0444 83.2282C95.0179 83.572 96.8436 84.5937 97.26 85.5602C97.6763 86.5268 96.9815 87.6799 95.9385 87.8095C95.4659 87.8693 95.3856 87.5895 95.2279 87.5984C94.9127 87.6161 94.2395 87.963 93.8558 87.9381C93.7614 87.9308 93.6897 87.7258 93.5153 87.6848C93.3198 87.6382 93.2074 87.7875 93.0542 87.7855C92.6515 87.7811 91.7352 87.3758 91.4658 87.3741C91.2833 87.3748 90.9102 87.5973 90.5772 87.6253C89.904 87.6794 89.0712 87.3901 88.3122 87.5116C87.9971 87.5625 87.6412 87.7716 87.4197 87.7768C87.2149 87.782 86.99 87.575 86.7481 87.5611C85.3493 87.477 83.6607 87.8281 82.3596 87.7341C82.0895 87.7127 81.7332 87.5291 81.3878 87.4964C80.2187 87.3822 79.3618 87.6102 78.2632 87.7111C78.0412 87.7298 77.8619 87.5834 77.5711 87.656C77.2804 87.7286 77.1385 87.9938 76.8759 88.0906C75.8168 88.4829 75.4949 88.2724 74.5138 88.2496C74.1666 88.2405 73.3052 88.4462 73.1572 88.1769L72.9787 88.2133C72.9058 88.8005 72.6928 88.2284 72.5814 88.138C72.2746 87.8878 71.8656 88.2274 71.5806 88.2789C70.6692 88.4514 69.8086 88.8565 69.1007 88.9843C68.3252 89.1225 67.8552 88.9189 66.8573 89.2854C65.9982 89.6004 65.1991 90.3723 64.2412 90.3813C63.9993 90.3841 63.9716 90.1668 63.7792 90.1029C63.505 90.0124 63.3193 90.1767 62.9942 89.9502C62.9321 89.9063 62.1761 89.0657 62.1099 88.9693C61.6925 88.3557 61.8587 87.1839 60.9492 87.1864C59.6817 87.1921 58.2208 87.8128 56.9597 87.9801C55.3943 88.1863 53.4357 87.7838 51.7789 88.2582C51.318 88.3921 50.9159 88.7004 50.4118 88.7366C50.2287 88.7507 50.2861 88.576 50.103 88.59C49.537 88.6322 48.7462 88.9399 48.168 88.9381C47.9484 88.9363 47.7325 88.7408 47.504 88.7441C47.1862 88.749 46.8154 88.9178 46.4824 88.9458C44.6079 89.1019 42.6062 88.9278 40.7175 88.8838C40.3 88.8725 39.6835 89.0248 39.292 88.9782C38.9006 88.9316 38.4336 88.6775 38.0133 88.5869C36.8704 88.3409 35.8286 88.2805 34.6192 87.9848C33.151 87.6255 31.7466 87.1067 30.347 86.5137C29.911 86.3298 29.2829 86.3282 28.7752 86.0857C28.1094 85.769 27.1709 84.9289 26.4164 84.8932C26.1048 84.8802 25.8127 85.0762 25.4918 84.952C25.3332 84.8911 25.2597 84.7098 25.1299 84.6431C24.8702 84.5098 24.3033 84.4657 23.9689 84.3243C23.5283 84.1346 23.1803 83.7797 22.7729 83.5734C22.0719 83.2139 22.3668 83.5364 21.7579 82.9119C21.5726 82.7201 20.7705 82.4512 20.5079 82.2386C20.2614 82.0393 20.0869 81.6723 19.8116 81.4623C19.1547 80.9607 17.7776 79.9406 17.2727 79.3216C16.9481 78.9186 16.8964 78.307 16.6839 78.0143C16.4714 77.7216 15.7454 77.3373 15.4516 76.8249C15.1411 76.2793 15.1214 75.6778 14.7595 75.0595C14.2529 74.188 13.837 73.1748 13.2838 72.2861C13.1649 72.0941 12.7364 71.556 12.5329 71.5841C12.3517 71.6078 11.6655 72.2002 11.4766 72.3652C11.4003 72.4307 11.4023 72.6033 11.2611 72.7252C10.4859 73.4024 9.71143 73.3341 8.95665 73.7043C8.64901 73.8569 8.25477 74.3665 7.96719 74.5849C7.75723 74.7442 7.24789 74.7382 7.50223 75.1222C7.32264 75.2188 7.0465 75.1187 6.89548 75.1761C6.35638 75.3826 5.02609 77.4905 4.55677 78.0554C4.39165 78.2554 4.04277 78.4663 3.8325 78.7055C3.0753 79.5687 2.92385 80.6011 1.49298 80.6201C1.13175 80.6239 0.341253 80.2328 0.21401 79.8694C-0.260775 78.5022 0.108751 76.9596 0.789731 75.7227C0.981036 75.3742 1.44425 74.8771 1.63419 74.5057C1.82412 74.1342 1.78849 73.699 1.94784 73.3404C2.08696 73.0292 2.80224 72.3676 2.86909 72.1743C2.93594 71.981 2.82811 71.6802 2.91628 71.3961C2.98996 71.1548 3.41576 70.4091 3.57817 70.0167C4.59563 67.5799 5.51904 65.0891 6.24052 62.5363C6.89528 60.2101 7.98671 58.2174 8.66835 55.909C8.77219 55.5551 8.79079 54.9624 8.90934 54.6155C8.98185 54.401 9.23892 54.2122 9.26339 53.9576C9.28787 53.7031 9.14109 53.5534 9.14742 53.389C9.17319 52.8315 9.5993 51.6965 9.63145 51.1376C9.64999 50.8377 9.39718 50.0541 9.47665 49.8249C10.0843 49.3683 10.4606 48.7059 10.9798 48.1575C11.087 47.6898 10.7938 47.001 10.8291 46.6045C10.845 46.4382 11.0214 46.3423 11.0572 46.192C11.2855 45.2271 11.5358 43.7187 11.6683 42.7234C11.7594 42.0627 11.6765 41.3143 11.8227 40.7288C11.8969 40.4409 11.9898 40.2289 12.1778 39.9943L11.8565 39.787C11.9728 39.364 11.9283 38.9339 11.9929 38.5015C12.0456 38.1413 12.2425 36.9899 12.339 36.714C12.3857 36.5847 12.7147 36.0318 12.8223 35.8269C13.4055 34.7131 14.155 33.6818 14.7389 32.5712C14.9757 32.1203 15.2437 31.1872 15.4917 30.8072C15.6204 30.608 15.9817 30.4578 16.1501 30.2737C16.9697 29.3912 17.5169 28.6541 18.4351 27.8313C19.3533 27.0085 20.1093 25.8628 21.0093 25.097C21.9683 24.2792 23.1048 23.6148 24.1172 22.7163C26.0065 21.0366 27.7517 19.8722 29.9125 18.5631C30.4594 18.2319 31.2544 17.4077 31.6723 17.2259C32.1272 17.03 32.6516 17.126 33.1566 16.9964C33.6959 16.8565 34.1326 16.4247 34.5789 16.317C35.9237 15.9895 37.2974 15.5763 38.632 15.2808C39.8709 15.0048 39.4485 15.1808 40.5209 15.3746C41.8144 15.6099 42.3165 15.5641 43.6104 15.4599C44.2344 15.4092 44.7122 15.6511 45.1464 15.6956C45.8487 15.7687 46.5792 15.6862 47.2833 15.8654C47.4183 15.7946 47.4767 14.9575 47.5576 14.7514C47.6934 14.4076 48.0917 13.804 48.41 13.6226C49.1359 13.2083 49.5973 13.1908 49.9504 12.3003C50.51 10.8918 50.9842 10.123 51.8298 8.86252C52.5656 7.76418 52.8515 6.82082 53.4102 5.65213C53.8575 4.71909 53.7183 4.99703 53.8776 4.00297C53.9628 3.47651 55.012 0.99998 55.3089 0.550151C55.3621 0.469412 55.736 0.283359 55.8092 0.0721297C56.2113 0.0899242 56.7182 -0.04672 57.1065 0.0171541C57.4635 0.0741038 58.3429 0.6567 58.4732 1.00277C58.6604 1.49696 58.5155 1.95905 58.5794 2.43513C58.7104 3.40326 58.8964 4.07072 58.8973 5.06871C58.8983 5.31804 58.761 5.58895 58.7785 5.80498C58.8953 7.04551 59.2407 8.29932 59.018 9.55253L59.0346 9.53585ZM61.7434 28.012C61.5141 27.8325 61.0463 27.6884 60.7875 27.445C60.3313 27.0157 60.2901 26.3254 59.4352 26.8724C59.1793 27.0344 58.7513 27.5575 58.5075 27.7137C58.1644 27.9368 57.4891 28.2409 57.1168 28.4832C56.4783 28.9028 56.0345 29.2995 55.3466 29.6394C52.3422 31.1272 51.1378 33.2827 49.1928 35.8288C48.7992 36.3416 47.6815 37.2284 47.1881 37.6917C46.9147 37.9471 46.4204 38.943 46.2137 39.2646C45.3081 40.6704 44.2307 42.048 43.0016 43.1704C42.9094 43.2558 42.9842 43.4269 42.7631 43.5152C42.0029 43.8266 40.3921 43.2402 40.0723 42.4536C40.0304 42.3457 39.7034 41.0682 39.7012 40.9921C39.6996 40.9359 39.9926 40.011 40.037 39.9354C40.1751 39.701 40.3543 39.6677 40.4762 39.4998C40.5492 39.4017 41.2502 37.7582 41.3182 37.5546C41.5911 36.7104 41.5507 35.7471 41.6812 34.8887C41.8117 34.0302 42.3082 33.0938 42.4348 32.2329C42.4744 32.0851 42.0913 32.0467 42.0243 32.0438C41.8206 32.0387 41.5922 32.0421 41.4023 32.1207C41.1786 32.2129 41.2612 32.4223 41.1669 32.4648C40.2987 32.8648 39.0701 32.7195 38.3964 32.95C37.9617 33.0986 37.2954 33.5606 36.7766 33.7362C34.4745 34.5152 32.3115 34.8199 30.0059 35.2236C28.7488 35.4434 27.4113 35.6596 26.2696 36.2984C24.7318 37.161 23.2587 38.0803 21.8185 39.0795C21.0503 39.6121 20.2715 40.4996 19.681 41.219C18.8852 42.1865 17.5835 43.0176 16.7184 44.0192C16.3773 44.4148 15.6157 45.9244 15.6101 46.4179C15.611 46.4876 15.7417 47.2262 15.7655 47.2613C15.8958 47.4444 16.4982 47.7108 16.6647 47.8598C17.0068 48.1694 17.7161 49.2857 18.0476 49.4943C18.6049 49.8498 19.2286 50.3348 19.8121 50.6716C20.1397 50.861 20.7765 50.9873 20.9717 51.1139C21.3019 51.3327 21.8169 52.2291 22.3027 52.3963C22.474 52.4545 22.7127 52.3226 22.7735 52.3601L22.8353 52.6303L23.3 52.3359C23.387 52.388 23.4027 52.4813 23.5139 52.5219C25.1472 53.137 26.1451 52.5908 27.7695 52.2994C28.3658 52.1945 29.0274 52.2791 29.6157 51.9395C30.1235 52.182 30.3744 52.6632 30.7569 53.0244L30.996 54.1967C30.5931 55.2338 29.6407 55.9704 28.8691 56.7466C28.0562 57.5646 28.1824 57.5156 27.1944 57.9965C26.1371 58.5116 25.7408 58.9951 24.8148 59.6331C24.5151 59.8406 24.0491 59.9823 23.7869 60.1622C22.1372 61.2905 20.7823 63.0009 19.6369 64.5987C19.5805 64.6801 19.3878 64.7127 19.3442 64.8081C19.2848 64.94 19.4508 65.7213 19.5572 65.8361C19.629 65.9113 19.8646 65.943 19.9895 66.034C20.9037 66.706 21.9712 67.1038 22.9626 67.7634C25.0989 69.1843 27.4822 70.7412 30.0275 71.35C32.1927 71.87 34.5686 72.2671 36.6426 72.8124C37.2605 72.9758 37.9704 73.1671 38.463 73.5957C38.5558 73.6766 39.2966 74.5403 39.3224 74.6016C39.3733 74.721 39.3564 75.2568 39.4405 75.5391C39.6528 76.2544 40.0004 76.9488 40.2133 77.6673C40.4972 77.7891 40.7599 78.0349 41.0075 78.1741C41.1834 78.2713 41.4112 78.2481 41.5231 78.3085C42.7091 78.9616 43.6171 79.8146 44.8799 80.3722C46.5226 81.0986 47.8354 81.7059 49.6681 81.9144C50.5588 82.0155 51.7195 81.9418 52.5161 82.1187C53.4897 82.3328 53.7266 82.5174 54.7946 82.5757C56.0912 82.6473 57.4109 82.9138 58.6998 82.6543C59.3375 82.5242 59.9025 82.2659 60.6353 82.2762C61.128 82.2822 62.3308 82.8221 62.5261 82.8189C62.5822 82.8174 63.5002 82.547 63.5951 82.5077C64.3596 82.1688 64.5959 79.7449 64.7402 78.9868C64.8977 78.1794 65.2938 76.8975 65.265 76.1048C65.245 75.5832 64.9661 74.9646 64.9339 74.4322C64.9091 74.0014 65.1952 73.4173 65.1354 73.0269C65.0652 72.5521 64.8736 71.613 64.7448 71.1601C64.5291 70.4122 64.0218 69.5208 63.7815 68.8312C63.5742 68.238 63.4408 67.3069 63.6227 66.7008C63.8141 66.0596 64.7753 64.9918 65.4687 65.0533C65.6041 65.0657 66.6209 65.5404 66.777 65.6383C67.6722 66.201 67.4701 66.3986 67.8303 67.2202C68.9656 69.8068 71.2555 71.6223 73.7133 72.9743C73.9493 73.1059 74.0566 73.4367 74.5497 73.0533C74.6559 72.9717 74.6278 72.8011 74.7014 72.7063C74.7465 72.6505 74.9144 72.6595 74.9309 72.6262C74.9778 72.5467 74.8301 72.3273 74.8767 72.1814C74.8893 72.1456 75.0555 72.0485 75.1142 71.8967C75.4382 71.0754 75.8013 69.9732 75.7689 69.0981C75.7567 68.7778 75.6411 68.4387 75.6314 68.1146C75.0593 67.7355 73.9802 67.6395 73.5701 67.0777C73.2645 66.6542 72.6974 64.5739 72.8332 64.0837C72.8779 63.9282 73.0597 63.8911 73.0568 63.8118C73.05 63.7134 72.9186 63.5905 72.9009 63.471C72.8463 63.0729 73.0716 62.6143 73.1183 62.1756C73.1833 61.5501 73.0824 61.0716 73.0528 60.5353C73.0473 60.4433 73.261 60.4163 73.2801 60.266C73.4124 59.2375 73.4808 58.1722 73.5358 57.1228C73.557 56.6893 73.8381 56.1462 73.8571 55.9626C73.8925 55.5661 73.5869 54.6702 73.5109 54.1999C73.3063 52.8874 73.2487 51.1557 72.5985 49.9707C72.2911 49.4079 71.7876 49.1213 71.4608 48.6423C71.1821 48.2366 70.9557 47.6805 70.6878 47.2461C70.5246 46.9832 70.1828 46.9032 70.2845 46.5065C70.181 46.3246 70.0197 46.5272 69.9072 46.4803C69.828 46.4499 68.5601 45.6071 68.5068 45.5415C68.3472 45.0517 67.6422 44.2006 67.5886 43.7424C67.5754 43.6286 67.9038 42.6333 67.9812 42.541C68.1997 42.2768 68.8736 41.8033 69.2224 41.7056C68.948 41.4189 69.4222 40.7964 69.4459 40.5221C69.4733 40.1838 69.2525 39.8994 69.2445 39.6482C69.2364 39.3969 69.4959 38.8782 69.5258 38.5527C69.5405 38.3966 69.5021 37.7523 69.4576 37.6316C69.4201 37.5295 68.5231 36.3882 68.3737 36.209C66.9856 34.549 65.4275 32.9669 63.9411 31.4434C63.1142 30.5972 63.3508 29.9334 62.8354 29.0836C62.7248 28.8999 61.9284 28.154 61.7344 28.0006L61.7434 28.012Z" fill="#5F5454"/>
</svg>
