<svg width="698" height="111" viewBox="0 0 698 111" fill="none" xmlns="http://www.w3.org/2000/svg">
<path d="M106.095 94L136.431 26.8H151.119L181.359 94H164.655L147.951 56.656C147.311 55.312 146.703 53.968 146.127 52.624C145.615 51.216 145.103 49.84 144.591 48.496C144.079 47.088 143.599 45.712 143.151 44.368C142.703 42.96 142.287 41.616 141.903 40.336L145.263 40.24C144.815 41.712 144.367 43.12 143.919 44.464C143.471 45.808 142.959 47.184 142.383 48.592C141.871 49.936 141.327 51.28 140.751 52.624C140.175 53.968 139.599 55.344 139.023 56.752L122.415 94H106.095ZM120.303 81.712L125.487 69.424H161.679L165.135 81.712H120.303ZM216.053 94.96C211.061 94.96 206.485 94.448 202.325 93.424C198.229 92.4 194.549 90.992 191.285 89.2C188.021 87.408 185.077 85.264 182.453 82.768L190.997 70.48C195.285 74.512 199.605 77.328 203.957 78.928C208.373 80.464 212.725 81.232 217.013 81.232C218.997 81.232 220.917 81.008 222.773 80.56C224.693 80.112 226.261 79.408 227.477 78.448C228.757 77.488 229.397 76.208 229.397 74.608C229.397 73.584 229.077 72.72 228.437 72.016C227.797 71.248 226.933 70.608 225.845 70.096C224.757 69.52 223.477 69.072 222.005 68.752C220.597 68.432 219.061 68.144 217.397 67.888C215.733 67.632 214.005 67.376 212.213 67.12C208.117 66.544 204.437 65.712 201.173 64.624C197.973 63.472 195.221 62.064 192.917 60.4C190.677 58.672 188.981 56.656 187.829 54.352C186.677 52.048 186.101 49.392 186.101 46.384C186.101 43.12 186.869 40.176 188.405 37.552C189.941 34.928 192.085 32.72 194.837 30.928C197.589 29.072 200.725 27.664 204.245 26.704C207.829 25.744 211.669 25.264 215.765 25.264C220.373 25.264 224.437 25.712 227.957 26.608C231.541 27.504 234.677 28.752 237.365 30.352C240.053 31.952 242.293 33.744 244.085 35.728L235.253 46.384C233.589 44.848 231.669 43.536 229.493 42.448C227.381 41.36 225.141 40.528 222.773 39.952C220.405 39.376 218.037 39.088 215.669 39.088C213.173 39.088 210.997 39.344 209.141 39.856C207.285 40.304 205.813 40.976 204.725 41.872C203.637 42.768 203.093 43.92 203.093 45.328C203.093 46.48 203.541 47.472 204.437 48.304C205.397 49.136 206.613 49.84 208.085 50.416C209.557 50.928 211.189 51.344 212.981 51.664C214.837 51.984 216.661 52.272 218.453 52.528C222.165 53.04 225.685 53.744 229.013 54.64C232.405 55.472 235.381 56.624 237.941 58.096C240.565 59.568 242.581 61.488 243.989 63.856C245.461 66.16 246.197 69.136 246.197 72.784C246.197 77.456 244.885 81.456 242.261 84.784C239.701 88.048 236.149 90.576 231.605 92.368C227.125 94.096 221.941 94.96 216.053 94.96ZM275.63 94V41.2H251.822V26.8H316.142V41.2H291.95V94H275.63ZM326.958 94V26.8H381.294V40.72H342.798V80.08H382.254V94H326.958ZM335.214 66.448V53.2H376.974V66.448H335.214ZM396.881 94V26.8H411.473L439.409 65.584L429.617 65.488L457.649 26.8H472.049V94H456.209V72.496C456.209 66.992 456.337 61.936 456.593 57.328C456.849 52.656 457.361 47.952 458.129 43.216L459.761 48.496L437.489 77.68H431.153L408.977 48.4L410.801 43.216C411.569 47.824 412.081 52.432 412.337 57.04C412.593 61.648 412.721 66.8 412.721 72.496V94H396.881ZM584.261 94V26.8H599.429L642.149 74.8L639.557 74.32C639.173 72.016 638.885 69.84 638.693 67.792C638.501 65.68 638.309 63.632 638.117 61.648C637.989 59.664 637.861 57.712 637.733 55.792C637.669 53.872 637.637 51.888 637.637 49.84C637.637 47.792 637.637 45.648 637.637 43.408V26.8H653.477V94H638.117L593.861 44.464L598.181 45.136C598.437 46.992 598.661 48.752 598.853 50.416C599.045 52.016 599.205 53.616 599.333 55.216C599.525 56.816 599.685 58.448 599.813 60.112C599.941 61.712 600.005 63.472 600.005 65.392C600.069 67.248 600.101 69.296 600.101 71.536V94H584.261Z" fill="#5F5454"/>
<g clip-path="url(#clip0_421_843)">
<path d="M541.234 14.1872C541.175 14.5154 541.172 14.6625 541.149 15.0397C541.144 15.1139 541.005 15.1457 541.002 15.2129C540.985 15.6688 541.511 16.5396 541.784 16.93C541.9 17.0958 542.136 17.2075 542.186 17.3071C542.272 17.4826 542.127 17.7682 542.151 17.9829C542.283 19.1339 542.975 20.5234 543.616 21.484C543.884 21.8884 544.478 22.4528 544.648 22.8639C544.78 23.1863 544.655 23.6145 544.852 24.0134C545.284 24.8903 546.533 25.9665 546.882 26.6839C547.082 27.0988 547.058 27.5828 547.398 27.9793C547.904 28.5683 549.224 28.808 549.868 29.2456C550.647 29.7723 550.976 30.2641 552.062 30.4419C552.481 30.5095 553.142 30.3979 553.421 30.4609C553.553 30.4905 553.747 30.7072 553.94 30.7743C554.987 31.1396 555.085 31.0798 556.055 31.717C557.803 32.8644 559.708 34.2394 561.35 35.5514C562.858 36.7577 564.561 38.8994 565.813 40.3975C566.238 40.903 566.511 41.4461 566.864 41.8566C566.995 42.0096 567.401 42.193 567.47 42.3852C567.522 42.5244 567.44 42.744 567.511 42.9425C567.586 43.1501 567.878 43.2136 567.987 43.4543C568.256 44.0582 568.406 44.9361 568.63 45.5324C568.837 46.0758 569.34 46.7818 569.481 47.3088C569.721 48.2113 569.689 49.1627 569.834 50.0515C569.932 50.6439 570.518 52.8999 570.446 53.2806C570.424 53.3983 570.266 53.5203 570.241 53.7084C570.199 54.0231 570.448 55.5994 570.55 55.9411C570.741 56.5676 571.119 58.3238 571.157 58.9982C571.173 59.2711 570.98 59.5435 570.991 59.7775C571.06 61.2573 570.483 62.7757 570.428 64.2477C570.418 64.5559 570.53 64.909 570.507 65.2697C570.327 68.1479 568.43 70.7539 567.488 73.3618C567.331 73.7965 567.229 74.486 567.054 74.9309C566.834 75.4981 565.541 76.9929 565.176 77.643C564.754 78.3912 564.519 79.8766 564.07 80.7866C563.812 81.3149 563.08 81.6806 563.678 82.2341C564.186 82.7061 565.625 82.7919 566.29 83.0422C566.819 83.2404 567.069 83.7485 567.584 83.7697C567.708 83.7744 567.816 83.666 567.954 83.6943C568.113 83.7219 569.147 84.0367 569.3 84.1052C569.848 84.3463 569.849 84.7286 570.166 84.9935C570.194 85.0177 570.786 85.3327 570.824 85.3415C571.166 85.4216 571.577 85.158 571.883 85.1755C571.981 85.1822 572.015 85.3349 572.095 85.3653C573.038 85.7552 573.475 85.6527 574.29 86.4414C574.584 86.7242 575.075 87.5223 575.267 87.6496C575.483 87.7952 575.962 87.7808 576.244 87.8795C577.217 88.2233 579.043 89.2451 579.46 90.2116C579.876 91.1781 579.181 92.3313 578.138 92.4608C577.666 92.5206 577.585 92.2409 577.428 92.2498C577.112 92.2675 576.439 92.6144 576.055 92.5895C575.961 92.5821 575.889 92.3772 575.715 92.3362C575.519 92.2896 575.407 92.4389 575.254 92.4369C574.851 92.4325 573.935 92.0271 573.665 92.0255C573.483 92.0261 573.11 92.2486 572.777 92.2766C572.104 92.3307 571.271 92.0414 570.512 92.163C570.197 92.2139 569.841 92.4229 569.619 92.4282C569.415 92.4333 569.19 92.2263 568.948 92.2125C567.549 92.1284 565.86 92.4795 564.559 92.3855C564.289 92.364 563.933 92.1805 563.587 92.1478C562.418 92.0336 561.561 92.2616 560.463 92.3625C560.241 92.3812 560.061 92.2347 559.771 92.3074C559.48 92.38 559.338 92.6451 559.076 92.7419C558.016 93.1343 557.695 92.9238 556.713 92.9009C556.366 92.8919 555.505 93.0976 555.357 92.8283L555.178 92.8647C555.105 93.4518 554.892 92.8797 554.781 92.7893C554.474 92.5391 554.065 92.8787 553.78 92.9302C552.869 93.1028 552.008 93.5079 551.3 93.6356C550.525 93.7738 550.055 93.5702 549.057 93.9368C548.198 94.2518 547.399 95.0236 546.441 95.0327C546.199 95.0354 546.171 94.8182 545.979 94.7542C545.705 94.6638 545.519 94.8281 545.194 94.6016C545.132 94.5577 544.376 93.717 544.31 93.6207C543.892 93.0071 544.058 91.8353 543.149 91.8378C541.881 91.8434 540.42 92.4641 539.159 92.6315C537.594 92.8376 535.635 92.4352 533.979 92.9095C533.518 93.0435 533.116 93.3517 532.611 93.388C532.428 93.4021 532.486 93.2273 532.303 93.2414C531.737 93.2836 530.946 93.5913 530.368 93.5894C530.148 93.5876 529.932 93.3921 529.704 93.3955C529.386 93.4004 529.015 93.5692 528.682 93.5972C526.808 93.7532 524.806 93.5792 522.917 93.5352C522.5 93.5238 521.883 93.6762 521.492 93.6296C521.1 93.583 520.633 93.3289 520.213 93.2383C519.07 92.9922 518.028 92.9319 516.819 92.6362C515.351 92.2768 513.946 91.7581 512.547 91.1651C512.111 90.9812 511.483 90.9795 510.975 90.7371C510.309 90.4203 509.371 89.5803 508.616 89.5445C508.304 89.5315 508.012 89.7275 507.691 89.6033C507.533 89.5425 507.459 89.3612 507.33 89.2945C507.07 89.1611 506.503 89.1171 506.169 88.9756C505.728 88.786 505.38 88.4311 504.973 88.2247C504.272 87.8653 504.566 88.1878 503.958 87.5633C503.772 87.3715 502.97 87.1026 502.708 86.8899C502.461 86.6907 502.287 86.3237 502.011 86.1136C501.354 85.6121 499.977 84.592 499.472 83.973C499.148 83.57 499.096 82.9584 498.884 82.6656C498.671 82.3729 497.945 81.9886 497.651 81.4763C497.341 80.9307 497.321 80.3292 496.959 79.7109C496.453 78.8393 496.037 77.8261 495.483 76.9375C495.365 76.7454 494.936 76.2073 494.733 76.2355C494.551 76.2592 493.865 76.8516 493.676 77.0166C493.6 77.082 493.602 77.2547 493.461 77.3766C492.686 78.0538 491.911 77.9855 491.156 78.3557C490.849 78.5083 490.454 79.0179 490.167 79.2363C489.957 79.3955 489.448 79.3896 489.702 79.7736C489.522 79.8701 489.246 79.7701 489.095 79.8275C488.556 80.0339 487.226 82.1419 486.756 82.7068C486.591 82.9068 486.242 83.1177 486.032 83.3569C485.275 84.22 485.123 85.2524 483.693 85.2714C483.331 85.2752 482.541 84.8841 482.414 84.5208C481.939 83.1536 482.308 81.6109 482.989 80.374C483.181 80.0256 483.644 79.5285 483.834 79.157C484.024 78.7856 483.988 78.3503 484.147 77.9918C484.287 77.6806 485.002 77.019 485.069 76.8256C485.136 76.6323 485.028 76.3316 485.116 76.0474C485.19 75.8061 485.615 75.0605 485.778 74.668C486.795 72.2312 487.719 69.7404 488.44 67.1877C489.095 64.8615 490.186 62.8688 490.868 60.5604C490.972 60.2065 490.99 59.6137 491.109 59.2668C491.181 59.0524 491.439 58.8636 491.463 58.609C491.488 58.3545 491.341 58.2047 491.347 58.0404C491.373 57.4828 491.799 56.3478 491.831 55.7889C491.85 55.489 491.597 54.7055 491.676 54.4763C492.284 54.0196 492.66 53.3573 493.179 52.8089C493.287 52.3412 492.993 51.6523 493.029 51.2558C493.045 51.0895 493.221 50.9937 493.257 50.8433C493.485 49.8784 493.735 48.37 493.868 47.3748C493.959 46.714 493.876 45.9657 494.022 45.3802C494.097 45.0922 494.189 44.8803 494.377 44.6457L494.056 44.4383C494.172 44.0153 494.128 43.5852 494.192 43.1528C494.245 42.7927 494.442 41.6412 494.539 41.3654C494.585 41.236 494.914 40.6832 495.022 40.4782C495.605 39.3644 496.355 38.3332 496.939 37.2226C497.175 36.7717 497.443 35.8386 497.691 35.4586C497.82 35.2593 498.181 35.1091 498.35 34.9251C499.169 34.0425 499.717 33.3054 500.635 32.4826C501.553 31.6599 502.309 30.5141 503.209 29.7483C504.168 28.9305 505.304 28.2662 506.317 27.3676C508.206 25.688 509.951 24.5235 512.112 23.2144C512.659 22.8833 513.454 22.059 513.872 21.8773C514.327 21.6814 514.851 21.7774 515.356 21.6478C515.896 21.5078 516.332 21.0761 516.779 20.9684C518.123 20.6409 519.497 20.2276 520.832 19.9321C522.071 19.6562 521.648 19.8322 522.721 20.026C524.014 20.2613 524.516 20.2155 525.81 20.1113C526.434 20.0605 526.912 20.3025 527.346 20.347C528.048 20.42 528.779 20.3376 529.483 20.5167C529.618 20.446 529.676 19.6089 529.757 19.4027C529.893 19.0589 530.291 18.4553 530.61 18.2739C531.336 17.8597 531.797 17.8421 532.15 16.9516C532.71 15.5432 533.184 14.7744 534.029 13.5139C534.765 12.4155 535.051 11.4722 535.61 10.3035C536.057 9.37045 535.918 9.6484 536.077 8.65434C536.162 8.12788 537.212 5.65135 537.508 5.20152C537.562 5.12078 537.936 4.93473 538.009 4.7235C538.411 4.74129 538.918 4.60465 539.306 4.66852C539.663 4.72547 540.543 5.30807 540.673 5.65413C540.86 6.14833 540.715 6.61042 540.779 7.0865C540.91 8.05463 541.096 8.72209 541.097 9.72007C541.098 9.96941 540.961 10.2403 540.978 10.4563C541.095 11.6969 541.44 12.9507 541.218 14.2039L541.234 14.1872ZM543.943 32.6634C543.714 32.4839 543.246 32.3397 542.987 32.0964C542.531 31.6671 542.49 30.9767 541.635 31.5238C541.379 31.6857 540.951 32.2089 540.707 32.3651C540.364 32.5881 539.689 32.8922 539.316 33.1345C538.678 33.5542 538.234 33.9508 537.546 34.2908C534.542 35.7786 533.337 37.9341 531.392 40.4802C530.999 40.993 529.881 41.8798 529.388 42.3431C529.114 42.5985 528.62 43.5943 528.413 43.916C527.508 45.3218 526.43 46.6994 525.201 47.8218C525.109 47.9072 525.184 48.0782 524.963 48.1666C524.203 48.478 522.592 47.8915 522.272 47.105C522.23 46.9971 521.903 45.7196 521.901 45.6435C521.899 45.5872 522.192 44.6624 522.237 44.5868C522.375 44.3523 522.554 44.3191 522.676 44.1512C522.749 44.0531 523.45 42.4095 523.518 42.206C523.791 41.3618 523.75 40.3985 523.881 39.54C524.011 38.6816 524.508 37.7452 524.634 36.8842C524.674 36.7364 524.291 36.6981 524.224 36.6951C524.02 36.6901 523.792 36.6934 523.602 36.7721C523.378 36.8643 523.461 37.0737 523.367 37.1162C522.498 37.5162 521.27 37.3708 520.596 37.6014C520.161 37.7499 519.495 38.2119 518.976 38.3876C516.674 39.1666 514.511 39.4713 512.206 39.875C510.948 40.0948 509.611 40.311 508.469 40.9498C506.931 41.8124 505.458 42.7317 504.018 43.7308C503.25 44.2635 502.471 45.151 501.881 45.8703C501.085 46.8378 499.783 47.669 498.918 48.6706C498.577 49.0662 497.815 50.5757 497.81 51.0693C497.811 51.139 497.941 51.8776 497.965 51.9127C498.095 52.0957 498.698 52.3622 498.864 52.5112C499.206 52.8207 499.916 53.9371 500.247 54.1457C500.805 54.5011 501.428 54.9862 502.012 55.323C502.339 55.5124 502.976 55.6387 503.171 55.7652C503.502 55.984 504.017 56.8805 504.502 57.0476C504.674 57.1059 504.912 56.974 504.973 57.0115L505.035 57.2817L505.5 56.9873C505.587 57.0394 505.602 57.1327 505.714 57.1732C507.347 57.7884 508.345 57.2422 509.969 56.9508C510.565 56.8458 511.227 56.9305 511.815 56.5909C512.323 56.8334 512.574 57.3146 512.957 57.6757L513.196 58.8481C512.793 59.8852 511.84 60.6218 511.069 61.398C510.256 62.216 510.382 62.1669 509.394 62.6479C508.337 63.163 507.94 63.6464 507.014 64.2845C506.715 64.492 506.249 64.6336 505.987 64.8135C504.337 65.9419 502.982 67.6523 501.837 69.2501C501.78 69.3314 501.587 69.3641 501.544 69.4595C501.484 69.5914 501.65 70.3727 501.757 70.4874C501.829 70.5626 502.064 70.5944 502.189 70.6854C503.103 71.3574 504.171 71.7552 505.162 72.4148C507.299 73.8357 509.682 75.3925 512.227 76.0014C514.392 76.5214 516.768 76.9185 518.842 77.4638C519.46 77.6272 520.17 77.8185 520.663 78.2471C520.755 78.3279 521.496 79.1917 521.522 79.2529C521.573 79.3723 521.556 79.9081 521.64 80.1904C521.852 80.9058 522.2 81.6001 522.413 82.3187C522.697 82.4404 522.96 82.6863 523.207 82.8255C523.383 82.9227 523.611 82.8995 523.723 82.9599C524.909 83.613 525.817 84.4659 527.08 85.0236C528.722 85.7499 530.035 86.3572 531.868 86.5657C532.758 86.6669 533.919 86.5932 534.716 86.7701C535.689 86.9841 535.926 87.1687 536.994 87.2271C538.291 87.2987 539.611 87.5652 540.899 87.3057C541.537 87.1756 542.102 86.9173 542.835 86.9276C543.328 86.9335 544.53 87.4735 544.726 87.4702C544.782 87.4688 545.7 87.1984 545.795 87.159C546.559 86.8201 546.796 84.3963 546.94 83.6382C547.097 82.8308 547.493 81.5488 547.465 80.7562C547.445 80.2346 547.166 79.616 547.133 79.0836C547.109 78.6527 547.395 78.0687 547.335 77.6783C547.265 77.2035 547.073 76.2643 546.944 75.8115C546.729 75.0636 546.221 74.1722 545.981 73.4825C545.774 72.8893 545.64 71.9583 545.822 71.3522C546.014 70.7109 546.975 69.6432 547.668 69.7047C547.804 69.717 548.82 70.1917 548.977 70.2897C549.872 70.8524 549.67 71.05 550.03 71.8716C551.165 74.4582 553.455 76.2737 555.913 77.6257C556.149 77.7572 556.256 78.088 556.749 77.7047C556.856 77.6231 556.827 77.4525 556.901 77.3576C556.946 77.3018 557.114 77.3109 557.131 77.2776C557.177 77.1981 557.03 76.9787 557.076 76.8328C557.089 76.7969 557.255 76.6998 557.314 76.5481C557.638 75.7267 558.001 74.6245 557.969 73.7494C557.956 73.4292 557.841 73.0901 557.831 72.766C557.259 72.3869 556.18 72.2909 555.77 71.729C555.464 71.3056 554.897 69.2253 555.033 68.7351C555.078 68.5795 555.259 68.5425 555.256 68.4632C555.25 68.3648 555.118 68.2418 555.101 68.1223C555.046 67.7242 555.271 67.2657 555.318 66.827C555.383 66.2015 555.282 65.723 555.252 65.1867C555.247 65.0946 555.461 65.0677 555.48 64.9174C555.612 63.8889 555.68 62.8235 555.735 61.7742C555.757 61.3407 556.038 60.7975 556.057 60.614C556.092 60.2175 555.787 59.3216 555.711 58.8513C555.506 57.5388 555.448 55.8071 554.798 54.6221C554.491 54.0592 553.987 53.7726 553.66 53.2936C553.382 52.888 553.155 52.3319 552.887 51.8975C552.724 51.6346 552.382 51.5546 552.484 51.1579C552.381 50.976 552.219 51.1786 552.107 51.1317C552.028 51.1013 550.76 50.2585 550.706 50.1928C550.547 49.703 549.842 48.8519 549.788 48.3937C549.775 48.28 550.103 47.2847 550.181 47.1924C550.399 46.9282 551.073 46.4547 551.422 46.357C551.148 46.0702 551.622 45.4478 551.646 45.1734C551.673 44.8351 551.452 44.5508 551.444 44.2995C551.436 44.0483 551.696 43.5296 551.725 43.204C551.74 43.048 551.702 42.4037 551.657 42.283C551.62 42.1808 550.723 41.0395 550.573 40.8604C549.185 39.2004 547.627 37.6183 546.141 36.0948C545.314 35.2486 545.55 34.5848 545.035 33.735C544.924 33.5512 544.128 32.8053 543.934 32.6519L543.943 32.6634Z" fill="#5F5454"/>
</g>
<defs>
<clipPath id="clip0_421_843">
<rect width="94" height="94" fill="white" transform="translate(469 18.7847) rotate(-11.5275)"/>
</clipPath>
</defs>
</svg>
